<?xml version="1.0" encoding="utf-8"?>
<!-- Generator: Adobe Illustrator 16.0.0, SVG Export Plug-In . SVG Version: 6.00 Build 0)  -->
<!DOCTYPE svg PUBLIC "-//W3C//DTD SVG 1.1//EN" "http://www.w3.org/Graphics/SVG/1.1/DTD/svg11.dtd">
<svg version="1.1" id="sve_neg" xmlns="http://www.w3.org/2000/svg" xmlns:xlink="http://www.w3.org/1999/xlink" x="0px" y="0px"
	 width="90px" height="70px" viewBox="2.949 3.404 90 70" enable-background="new 2.949 3.404 90 70" xml:space="preserve">
<g>
	<g>
		<path fill="#FFFFFF" d="M39.212,15.486c-2.39,2.289-3.746,5.371-3.817,8.679c-0.148,6.829,5.287,12.505,12.116,12.653
			c3.309,0.072,6.446-1.149,8.837-3.437c2.39-2.29,3.745-5.372,3.818-8.679c0.147-6.829-5.287-12.506-12.117-12.653
			C44.74,11.977,41.604,13.197,39.212,15.486z M47.528,36c-6.377-0.138-11.452-5.439-11.315-11.818
			c0.068-3.09,1.333-5.968,3.566-8.106c2.231-2.136,5.163-3.276,8.251-3.209c6.378,0.137,11.454,5.439,11.315,11.818
			c-0.065,3.089-1.333,5.968-3.565,8.106C53.549,34.925,50.618,36.067,47.528,36z"/>
		<path fill="#FFFFFF" d="M36.206,12.345c-3.229,3.092-5.06,7.256-5.157,11.725c-0.2,9.227,7.143,16.895,16.369,17.095
			c9.227,0.2,16.893-7.145,17.093-16.371l0,0c0.098-4.468-1.553-8.708-4.643-11.936C56.775,9.63,52.61,7.799,48.14,7.701
			C43.674,7.604,39.434,9.254,36.206,12.345z M47.432,40.489c-8.851-0.191-15.898-7.551-15.706-16.404
			c0.093-4.287,1.85-8.282,4.948-11.249c3.098-2.967,7.167-4.549,11.454-4.457c4.288,0.093,8.283,1.851,11.251,4.949
			c2.965,3.098,4.548,7.166,4.456,11.454l0,0C63.642,33.633,56.283,40.68,47.432,40.489z"/>
		<path fill="#FFFFFF" d="M38.68,26.365c-0.149-0.119-0.21-0.346-0.149-0.562c0.07-0.251,0.281-0.423,0.561-0.462
			c0.359-0.049,0.655,0.057,0.856,0.305c0.337,0.412,0.366,1.154,0.078,1.982c-0.525,1.507,0.035,2.314,0.3,2.591
			c0.212,0.221,0.467,0.344,0.615,0.298l0.019-0.005l0.002-0.02c0.014-0.093,0.126-0.33,0.2-0.467l0.009-0.016l-0.012-0.016
			c-0.445-0.568-0.569-1.308-0.318-1.889c0.214-0.494,0.657-0.794,1.247-0.847c0.28-0.024,0.391,0.061,0.401,0.143
			c0.01,0.092-0.093,0.204-0.286,0.232c-0.628,0.09-0.889,0.525-0.924,0.9c-0.032,0.336,0.105,0.635,0.325,0.709
			c0.12,0.003,0.213-0.036,0.287-0.11l0.011-0.009l-0.002-0.015c-0.013-0.163,0.061-0.356,0.172-0.45
			c0.069-0.059,0.147-0.078,0.232-0.057c0.346,0.087,0.37,0.353,0.365,0.463c-0.013,0.253-0.194,0.485-0.406,0.518l-0.018,0.002
			l-0.138,0.393c-0.156,0.428-0.333,0.912-0.279,1.198c0.035,0.19,0.122,0.314,0.245,0.353c0.106,0.033,0.228-0.009,0.333-0.115
			c0.144-0.14,0.216-0.448,0.302-0.804l0.037-0.147l-0.001-0.006c-0.059-0.251-0.017-0.474,0.111-0.58
			c0.089-0.076,0.211-0.084,0.351-0.024c0.093,0.04,0.159,0.122,0.187,0.232c0.042,0.175-0.02,0.393-0.163,0.567l-0.006,0.007
			l-0.001,0.009c-0.014,0.16-0.053,0.332-0.088,0.498c-0.052,0.239-0.103,0.464-0.08,0.645c0.015,0.12,0.086,0.206,0.203,0.242
			c0.151,0.049,0.348,0,0.447-0.108c0.104-0.116,0.201-0.602,0.3-1.134l0.071-0.354l-0.014-0.014
			c-0.109-0.097-0.143-0.302-0.079-0.491c0.062-0.191,0.208-0.309,0.396-0.325c0.154-0.011,0.262,0.04,0.322,0.154
			c0.113,0.217,0.017,0.584-0.079,0.701l-0.01,0.011l0.005,0.016c0.085,0.324,0.045,0.677,0.012,0.963
			c-0.026,0.234-0.049,0.438,0.004,0.562c0.055,0.13,0.187,0.225,0.352,0.251c0.171,0.029,0.34-0.021,0.441-0.132
			c0.113-0.126,0.089-0.321,0.065-0.548c-0.023-0.199-0.05-0.427,0.001-0.67l0.001-0.01l-0.003-0.008
			c-0.096-0.233-0.091-0.463,0.012-0.63c0.066-0.104,0.162-0.17,0.267-0.178c0.168-0.015,0.285,0.019,0.347,0.097
			c0.128,0.156,0.034,0.48-0.042,0.741l-0.007,0.026c0.027,0.367,0.09,0.875,0.241,1.271c0.048,0.127,0.179,0.215,0.327,0.219
			c0.155,0.004,0.286-0.083,0.349-0.232c0.055-0.132-0.002-0.403-0.065-0.69c-0.034-0.155-0.067-0.315-0.083-0.454
			c-0.131-0.306-0.155-0.522-0.078-0.65c0.046-0.078,0.13-0.123,0.249-0.132c0.071-0.007,0.209,0,0.316,0.106
			c0.116,0.116,0.167,0.313,0.149,0.59c0,0.01,0.113,0.407,0.113,0.407c0.082,0.307,0.168,0.624,0.276,0.855
			c0.034,0.128,0.139,0.219,0.26,0.226c0.127,0.006,0.236-0.076,0.286-0.212c0.088-0.246-0.041-0.524-0.206-0.875l-0.083-0.175
			c-0.17-0.168-0.229-0.328-0.178-0.472c0.055-0.154,0.23-0.261,0.366-0.271c0.128-0.009,0.304,0.003,0.419,0.124
			c0.108,0.114,0.147,0.304,0.116,0.565l-0.002,0.006l0.16,0.512c0.057,0.2,0.109,0.373,0.161,0.495
			c0.051,0.124,0.159,0.208,0.303,0.23c0.136,0.023,0.269-0.017,0.349-0.105c0.104-0.115,0.027-0.273-0.059-0.457
			c-0.054-0.113-0.116-0.241-0.146-0.377l-0.002-0.009l-0.008-0.006c-0.176-0.171-0.249-0.389-0.188-0.556
			c0.042-0.116,0.139-0.184,0.28-0.196c0.176-0.013,0.308,0.022,0.392,0.105c0.091,0.091,0.132,0.239,0.118,0.441l-0.001,0.008
			l0.003,0.007c0.049,0.102,0.075,0.214,0.104,0.335c0.04,0.167,0.082,0.34,0.181,0.5c0.087,0.144,0.207,0.219,0.333,0.208
			c0.146-0.011,0.281-0.126,0.354-0.303c0.051-0.128-0.037-0.33-0.13-0.543c-0.094-0.219-0.193-0.445-0.123-0.56
			c0.029-0.05,0.087-0.076,0.182-0.084c0.406-0.032,0.576,0.333,0.711,0.628c0.059,0.125,0.109,0.234,0.171,0.293
			c0.076,0.073,0.15,0.107,0.227,0.105c0.111-0.004,0.197-0.084,0.249-0.146c0.083-0.09,0.036-0.238-0.012-0.382
			c-0.064-0.198-0.095-0.333,0.033-0.392c0.325-0.149,0.447-0.003,0.591,0.166c0.103,0.12,0.208,0.246,0.395,0.249
			c0.885,0.014,1.599-0.651,2.044-1.211c0.764-0.966,1.163-2.17,1.041-2.648l-0.004-0.012l-0.012-0.006
			c-0.328-0.195-0.406-0.553-0.332-0.821c0.063-0.241,0.233-0.399,0.433-0.402c0.314-0.006,0.545,0.103,0.688,0.324
			c0.118,0.181,0.177,0.437,0.177,0.753c0,0.674-0.262,1.62-0.766,2.708c-1.266,2.732-4.396,4.008-5.687,4.24
			c-6.248,1.053-11.06-1.235-11.956-4.167c-0.379-1.244-0.211-1.87,0.029-2.521c0.132-0.358,0.269-0.728,0.317-1.219l0.006-0.055
			l-0.049,0.026C39.102,26.488,38.847,26.501,38.68,26.365z"/>
		<path fill="#FFFFFF" d="M47.018,15.022c0.119-0.091,0.171-0.204,0.155-0.333c-0.045-0.343,0.125-0.75,0.476-0.811
			c0.444-0.077,1.255,0.023,1.403,0.122c0.207,0.135,0.29,0.294,0.244,0.453c-0.079,0.236-0.424,0.414-0.797,0.401
			c-0.236-0.007-0.413,0.068-0.529,0.225c-0.352,0.486,0.01,1.593,0.129,1.921c0.034,0.096,0.108,0.14,0.209,0.125
			c-0.003,0,0.874-0.085,0.874-0.085c0.732-0.076,1.644-0.171,2.4-0.185c-0.002,0,0.06-0.026,0.06-0.026l0.016-0.055
			c-0.016-0.171-0.115-0.615-0.16-0.708l-0.01-0.017l-0.016-0.001c-0.179-0.016-0.512-0.124-0.707-0.357
			c-0.115-0.138-0.165-0.303-0.148-0.486c0.049-0.317,0.502-0.494,0.891-0.476c0.459-0.006,0.821,0.126,0.969,0.354
			c0.117,0.18,0.106,0.418-0.03,0.707l-0.003,0.007v0.005c0.002,0.242,0.115,0.717,0.196,0.881c0.029,0.058,0.115,0.068,0.131,0.069
			l0.129,0.008c0.242,0.013,0.545,0.032,1.104,0.172c0.167,0.041,0.33,0.244,0.311,0.479c-0.076,0.799-0.209,1.259-0.388,1.897
			l-0.203,0.742c-0.01,0.029,0.003,0.081,0.041,0.094l0,0c0.53,0.19,1.141,0.514,1.125,0.795c-0.016,0.228-0.086,0.298-0.124,0.319
			c-0.033,0.017-0.07,0.017-0.103-0.001c-0.322-0.182-0.801-0.301-0.957-0.331c-0.025-0.004-0.07,0.022-0.08,0.049
			c-0.057,0.191,0.016,0.439,0.099,0.725c0.096,0.323,0.205,0.689,0.149,1.064c-0.054,0.411-0.215,0.896-0.33,1.25
			c-0.08,0.243-0.138,0.417-0.136,0.486c0.004,0.194,0.009,0.205,0.118,0.289c0.079,0.059,0.226,0.171,0.486,0.467
			c0.954,1.072,0.174,2.606-0.396,3.726c-0.2,0.39-0.37,0.729-0.438,0.983c-0.045,0.174-0.396,0.375-0.832,0.479
			c-0.431,0.102-0.788,0.077-0.914-0.064c-0.025-0.029-0.037-0.067-0.032-0.113c0.015-0.104,0.106-0.226,0.25-0.327
			c0.229-0.16,0.461-0.238,0.81-0.355c0.049-0.017,0.081-0.051,0.083-0.095c0.298-1.53,0.496-2.833,0.141-4.443L52.6,24.797
			c-0.062-0.167-0.13-0.342-0.123-0.622c0.002-0.097,0.024-0.23,0.054-0.386c0.09-0.539,0.234-1.354-0.158-2.28
			c-0.097-0.149-0.278-0.208-0.469-0.156c-0.166,0.044-0.341,0.175-0.352,0.369l-0.008,0.112c-0.054,0.789-0.117,1.683-0.533,2.512
			c-0.234,0.464,0.006,0.65,0.241,0.831l0.014,0.01c0.843,0.65,0.703,2.099,0.128,3.193l-0.088,0.167
			c-0.118,0.215-0.249,0.458-0.36,0.77l-0.041,0.079c-0.188,0.281-0.62,0.488-1.159,0.554c-0.377,0.045-0.654,0-0.727-0.065
			c-0.031-0.034-0.044-0.082-0.036-0.135c0.018-0.138,0.16-0.299,0.29-0.388c0.189-0.128,0.446-0.272,0.92-0.382
			c0.008-0.001,0.082-0.021,0.108-0.106c0.558-1.609,0.06-3.094-0.18-3.531c-0.223-0.407-0.191-0.63-0.131-1.075l0.046-0.322
			c0.092-0.648,0.282-1.998,0.359-2.88c0.004-0.033-0.024-0.083-0.073-0.089c-0.152-0.017-0.529-0.048-0.677,0.073
			c-0.104,0.082-0.115,0.409-0.132,0.859c-0.036,0.885-0.083,2.1-0.834,2.224c-0.229,0.037-0.443-0.024-0.64-0.183
			c-0.476-0.382-0.827-1.348-0.891-2.456c-0.063-1.093,0.111-2.453,0.511-2.837l0.037-0.036l-0.05-0.015
			c-0.127-0.037-0.228-0.153-0.275-0.319c-0.056-0.2-0.019-0.418,0.093-0.543l0.008-0.009v-0.011c0-0.123-0.08-0.328-0.182-0.587
			c-0.115-0.287-0.255-0.645-0.319-0.987c-0.005-0.03-0.062-0.069-0.096-0.071h-0.239c-0.709,0.014-2.185,0.041-2.694-1.499
			c-0.037-0.113,0.046-0.26,0.183-0.319c0.156-0.069,0.314,0.005,0.422,0.198c0.134,0.24,0.511,0.6,0.813,0.722
			C45.685,15.308,46.633,15.319,47.018,15.022z M47.908,20.844c-0.02,0.922,0.25,2.336,0.541,2.371
			c0.311,0.036,0.314-0.875,0.323-1.229c0.018-0.922-0.153-2.363-0.493-2.371C47.987,19.61,47.916,20.418,47.908,20.844z
			 M49.064,17.885c-0.222,0.027-0.417,0.184-0.438,0.351c-0.023,0.215-0.09,0.299-0.204,0.38l-0.058,0.04l0.07,0.014
			c0.591,0.115,0.713,0.575,0.808,0.912c0.05,0.179,0.088,0.377,0.185,0.415c0.231,0.087,0.655,0.094,0.92-0.007
			c0.12-0.046,0.183-0.307,0.16-0.48c-0.04-0.462-0.198-1.411-0.198-1.411c-0.05-0.198-0.28-0.263-0.417-0.268
			C49.771,17.826,49.531,17.833,49.064,17.885z M52.238,17.638c-0.38,0.014-0.865,0.06-0.944,0.248
			c-0.146,0.342-0.043,1.677,0.244,1.844c0.33,0.193,1.114,0.184,1.34-0.032c0.173-0.167,0.273-1.134,0.273-1.606
			c0-0.13-0.011-0.23-0.037-0.279C53.047,17.684,52.597,17.628,52.238,17.638z"/>
		<polygon fill="#FFFFFF" points="42.61,10.221 42.529,10.86 42.116,11.353 42.753,11.435 43.246,11.847 43.328,11.209 
			43.74,10.716 43.103,10.635 		"/>
		<polygon fill="#FFFFFF" points="54.551,37.876 54.032,37.495 53.39,37.456 53.769,36.935 53.808,36.293 54.326,36.674 
			54.969,36.714 54.589,37.233 		"/>
		<polygon fill="#FFFFFF" points="40.962,37.852 41.481,37.473 42.124,37.436 41.748,36.915 41.709,36.271 41.19,36.652 
			40.547,36.688 40.927,37.208 		"/>
		<path fill="#FFFFFF" d="M37.408,35.09l0.655-0.768c0.298-0.348,0.773-0.325,1.227,0.062c0.457,0.391,0.559,0.857,0.261,1.208
			l-0.654,0.768c-0.081,0.094-0.083,0.147,0.022,0.239l-0.234,0.177l-0.63-0.539l0.139-0.256c0.108,0.091,0.159,0.08,0.239-0.014
			l0.657-0.771c0.131-0.153,0.118-0.341-0.085-0.513c-0.211-0.179-0.399-0.164-0.529-0.011l-0.657,0.771
			c-0.082,0.095-0.083,0.147,0.02,0.237l-0.231,0.179l-0.578-0.493l0.138-0.258C37.277,35.196,37.328,35.184,37.408,35.09z"/>
		<path fill="#FFFFFF" d="M35.306,32.531l1.384-1.038l0.26,0.347l-0.434,1.464c-0.03,0.101-0.108,0.261-0.108,0.261
			s0.125-0.115,0.188-0.163l0.609-0.457c0.097-0.072,0.117-0.122,0.032-0.235l0.265-0.123l0.417,0.557l-0.191,0.221
			c-0.084-0.113-0.14-0.11-0.236-0.039l-1.017,0.762c-0.099,0.075-0.115,0.126-0.029,0.238l-0.268,0.121l-0.374-0.499l0.392-1.331
			c0.032-0.104,0.114-0.267,0.114-0.267s-0.128,0.117-0.198,0.17l-0.52,0.39c-0.099,0.074-0.114,0.124-0.029,0.238l-0.264,0.123
			l-0.418-0.558l0.193-0.22C35.156,32.608,35.208,32.605,35.306,32.531z"/>
		<path fill="#FFFFFF" d="M35.838,29.879l0.36,0.728l-0.23,0.18c-0.062-0.126-0.118-0.133-0.225-0.081l-1.14,0.564
			c-0.111,0.054-0.135,0.102-0.073,0.229l-0.282,0.073l-0.36-0.727l0.229-0.182c0.063,0.127,0.114,0.137,0.225,0.083l1.14-0.564
			c0.107-0.053,0.134-0.102,0.072-0.229L35.838,29.879z"/>
		<path fill="#FFFFFF" d="M33.256,27.703l1.87,0.169l0.166,0.559l-1.482,1.148c-0.108,0.083-0.12,0.128-0.083,0.253l-0.293,0.02
			l-0.229-0.776l0.256-0.143c0.037,0.111,0.082,0.128,0.175,0.06l0.717-0.539c0.118-0.083,0.371-0.203,0.371-0.203
			s-0.277,0.031-0.424,0.022L33.4,28.186c-0.121-0.009-0.146,0.043-0.113,0.159l-0.291,0.023l-0.205-0.69l0.256-0.139
			C33.086,27.668,33.119,27.691,33.256,27.703z"/>
		<path fill="#FFFFFF" d="M34.639,24.77l0.154,1.677l-0.28,0.089c-0.014-0.142-0.061-0.168-0.182-0.157l-1.265,0.115
			c-0.123,0.011-0.163,0.047-0.149,0.187l-0.29-0.037l-0.146-1.604l0.516-0.046l0.067,0.221c-0.167,0.04-0.202,0.089-0.18,0.333
			l0.034,0.372l0.524-0.049l-0.031-0.337c-0.012-0.144-0.042-0.194-0.154-0.184l0.035-0.236l0.516-0.048l0.082,0.227
			c-0.116,0.011-0.136,0.066-0.123,0.21l0.031,0.336l0.569-0.051l-0.047-0.516c-0.021-0.226-0.087-0.262-0.245-0.276l0.023-0.239
			L34.639,24.77z"/>
		<path fill="#FFFFFF" d="M34.874,21.829l-0.073,0.643c-0.341,0.281-0.873-0.01-0.922,0.43l-0.028,0.259l0.413,0.046
			c0.119,0.013,0.167-0.01,0.184-0.15l0.277,0.091l-0.089,0.799l-0.291,0.032c0.016-0.144-0.026-0.176-0.146-0.189l-1.263-0.142
			c-0.12-0.014-0.168,0.013-0.184,0.153l-0.277-0.095l0.122-1.094c0.059-0.53,0.312-0.818,0.715-0.773
			c0.264,0.029,0.43,0.19,0.501,0.472c0.105-0.263,0.36-0.3,0.515-0.316c0.179-0.015,0.243-0.044,0.262-0.209l0.005-0.049
			L34.874,21.829z M32.918,22.729l-0.037,0.323l0.621,0.07l0.035-0.312c0.026-0.235-0.079-0.371-0.269-0.394
			C33.08,22.396,32.945,22.498,32.918,22.729z"/>
		<path fill="#FFFFFF" d="M35.323,20.432c-0.131,0.407-0.357,0.661-0.47,0.769l-0.411-0.258l0.061-0.188
			c0.259,0.002,0.422-0.205,0.492-0.42c0.052-0.164,0.03-0.361-0.145-0.417c-0.151-0.048-0.255,0.045-0.424,0.363
			c-0.169,0.328-0.441,0.622-0.862,0.488c-0.409-0.133-0.523-0.573-0.373-1.04c0.115-0.357,0.302-0.604,0.408-0.711l0.387,0.248
			l-0.059,0.185c-0.226,0.024-0.361,0.211-0.415,0.378c-0.06,0.184-0.017,0.343,0.12,0.386c0.134,0.044,0.232-0.054,0.357-0.292
			c0.229-0.435,0.477-0.719,0.937-0.57C35.376,19.496,35.47,19.975,35.323,20.432z"/>
		<path fill="#FFFFFF" d="M36.286,18.095l-0.371,0.723l-0.281-0.078c0.063-0.125,0.039-0.174-0.069-0.229l-1.132-0.58
			c-0.11-0.056-0.162-0.048-0.226,0.078l-0.227-0.184l0.371-0.723l0.281,0.077c-0.064,0.125-0.041,0.174,0.068,0.23l1.132,0.579
			c0.107,0.055,0.161,0.048,0.226-0.079L36.286,18.095z"/>
		<path fill="#FFFFFF" d="M36.387,15.103c-0.135-0.068-0.216-0.076-0.351,0.109l-0.125,0.171l1.093,0.803
			c0.098,0.071,0.15,0.075,0.235-0.039l0.194,0.218l-0.476,0.649l-0.27-0.119c0.086-0.116,0.066-0.165-0.031-0.236l-1.093-0.802
			l-0.125,0.171c-0.136,0.185-0.104,0.261,0.001,0.369l-0.176,0.161l-0.4-0.367l1.149-1.57l0.474,0.269L36.387,15.103z"/>
		<path fill="#FFFFFF" d="M39.669,14.064l-0.585,0.544l-0.238-0.168c0.078-0.072,0.083-0.122-0.029-0.181L38.66,14.18l-0.568,0.53
			l0.068,0.164c0.049,0.123,0.108,0.106,0.19,0.03l0.151,0.249l-0.504,0.469l-0.238-0.167c0.093-0.086,0.106-0.134,0.053-0.257
			l-0.546-1.29c-0.035-0.08-0.087-0.104-0.188-0.01l-0.148-0.252l0.839-0.782l0.242,0.166c-0.103,0.097-0.089,0.142-0.009,0.183
			l1.257,0.637c0.116,0.062,0.163,0.055,0.258-0.033L39.669,14.064z M37.813,13.711c-0.108-0.064-0.329-0.248-0.329-0.248
			s0.159,0.248,0.213,0.357l0.234,0.55l0.407-0.381L37.813,13.711z"/>
		<path fill="#FFFFFF" d="M40.885,13.316c-0.363,0.225-0.699,0.272-0.856,0.281l-0.145-0.462l0.168-0.104
			c0.197,0.169,0.455,0.117,0.647-0.002c0.146-0.091,0.257-0.255,0.16-0.41c-0.083-0.137-0.223-0.132-0.56,0.001
			c-0.342,0.14-0.74,0.187-0.972-0.187c-0.226-0.366-0.028-0.775,0.389-1.035c0.317-0.197,0.621-0.264,0.77-0.279l0.135,0.44
			l-0.165,0.102c-0.187-0.129-0.411-0.074-0.561,0.02c-0.165,0.102-0.236,0.25-0.159,0.374c0.074,0.119,0.213,0.109,0.462,0.008
			c0.455-0.182,0.828-0.238,1.082,0.172C41.532,12.636,41.294,13.062,40.885,13.316z"/>
		<path fill="#FFFFFF" d="M46.997,10.439c-0.147,0.019-0.171,0.07-0.158,0.184l0.023,0.167c0.017,0.112,0.043,0.136,0.118,0.127
			l-0.021,0.277c-0.308,0.063-0.362,0.198-0.833,0.261c-0.633,0.086-1.21-0.149-1.318-0.954c-0.1-0.74,0.33-1.177,1.019-1.271
			c0.412-0.055,0.732,0.066,0.867,0.122l-0.057,0.499l-0.189,0.026c-0.093-0.219-0.294-0.284-0.518-0.254
			c-0.396,0.053-0.575,0.305-0.509,0.799c0.067,0.497,0.278,0.689,0.667,0.638c0.094-0.014,0.209-0.058,0.271-0.102l-0.037-0.266
			c-0.015-0.115-0.049-0.156-0.2-0.137l-0.039,0.005l0.021-0.291l0.831-0.114l0.099,0.276L46.997,10.439z"/>
		<path fill="#FFFFFF" d="M48.841,11.397c-0.654-0.054-1.091-0.393-1.024-1.209c0.066-0.817,0.549-1.083,1.206-1.029
			c0.666,0.053,1.096,0.393,1.028,1.209C49.986,11.184,49.506,11.449,48.841,11.397z M48.991,9.553
			c-0.34-0.027-0.514,0.146-0.557,0.685c-0.046,0.538,0.103,0.738,0.439,0.765c0.347,0.028,0.516-0.147,0.559-0.685
			C49.475,9.779,49.333,9.581,48.991,9.553z"/>
		<path fill="#FFFFFF" d="M52.436,10.46c0.015-0.148-0.008-0.229-0.229-0.289l-0.204-0.056l-0.356,1.307
			c-0.031,0.116-0.018,0.168,0.118,0.206l-0.132,0.26l-0.777-0.213l0.015-0.292c0.142,0.038,0.182,0,0.212-0.114l0.359-1.308
			l-0.209-0.055c-0.218-0.061-0.278-0.004-0.342,0.133l-0.214-0.107l0.2-0.504l1.876,0.513l-0.081,0.538L52.436,10.46z"/>
		<path fill="#FFFFFF" d="M54.712,13.241l-0.72-0.365l0.074-0.283c0.129,0.065,0.176,0.037,0.229-0.07l0.223-0.434l-0.735-0.374
			l-0.219,0.435c-0.055,0.107-0.051,0.16,0.074,0.225l-0.181,0.228l-0.717-0.366l0.074-0.282c0.129,0.066,0.177,0.038,0.228-0.07
			l0.58-1.133c0.054-0.11,0.048-0.16-0.082-0.227l0.186-0.226l0.716,0.366l-0.075,0.281c-0.127-0.064-0.172-0.039-0.227,0.07
			l-0.18,0.349l0.734,0.373l0.179-0.35c0.056-0.109,0.049-0.16-0.08-0.226l0.186-0.226l0.714,0.366l-0.073,0.282
			c-0.126-0.064-0.17-0.039-0.225,0.072l-0.577,1.132c-0.054,0.107-0.051,0.162,0.075,0.225L54.712,13.241z"/>
		<path fill="#FFFFFF" d="M56.086,14.328c-0.508-0.417-0.673-0.945-0.151-1.578c0.521-0.633,1.072-0.573,1.576-0.155
			c0.516,0.423,0.677,0.948,0.153,1.581C57.142,14.808,56.601,14.752,56.086,14.328z M57.261,12.9
			c-0.26-0.215-0.507-0.174-0.848,0.244c-0.344,0.417-0.338,0.665-0.076,0.879c0.268,0.22,0.506,0.174,0.847-0.242
			C57.527,13.363,57.526,13.12,57.261,12.9z"/>
		<path fill="#FFFFFF" d="M58.089,16.326l-0.669-0.83l0.184-0.228c0.086,0.109,0.144,0.105,0.238,0.03l0.989-0.796
			c0.095-0.077,0.107-0.13,0.018-0.239l0.263-0.13l0.626,0.776c0.336,0.418,0.376,0.775,0.08,1.015
			c-0.14,0.111-0.363,0.114-0.529,0.031c0.104,0.271,0.019,0.509-0.166,0.659C58.806,16.867,58.423,16.74,58.089,16.326z
			 M58.605,15.435l-0.488,0.394l0.193,0.242c0.15,0.185,0.318,0.198,0.469,0.077c0.146-0.117,0.164-0.296,0.013-0.485L58.605,15.435
			z M58.88,15.216l0.162,0.203c0.138,0.168,0.281,0.179,0.403,0.08c0.122-0.098,0.145-0.229,0.005-0.401l-0.168-0.208L58.88,15.216z
			"/>
		<path fill="#FFFFFF" d="M61.451,18.575l-0.9,0.459c-0.409,0.208-0.837,0.004-1.107-0.528c-0.273-0.534-0.188-1.006,0.219-1.214
			l0.902-0.458c0.109-0.056,0.132-0.104,0.068-0.23l0.281-0.073l0.38,0.738l-0.228,0.184c-0.064-0.125-0.116-0.134-0.227-0.079
			l-0.903,0.46c-0.18,0.091-0.24,0.27-0.115,0.508c0.123,0.245,0.305,0.304,0.482,0.212l0.903-0.46
			c0.11-0.055,0.133-0.104,0.069-0.227l0.283-0.077l0.345,0.678l-0.227,0.186C61.613,18.527,61.561,18.518,61.451,18.575z"/>
		<path fill="#FFFFFF" d="M60.749,22.172l-0.163-0.625c0.215-0.385,0.816-0.308,0.705-0.733l-0.066-0.253l-0.405,0.106
			c-0.116,0.031-0.149,0.069-0.116,0.206l-0.29,0.016l-0.206-0.778l0.261-0.134c0.036,0.139,0.086,0.156,0.204,0.125l1.228-0.326
			c0.115-0.031,0.151-0.073,0.115-0.209l0.293-0.012l0.282,1.065c0.136,0.515,0.005,0.875-0.387,0.978
			c-0.256,0.068-0.471-0.021-0.641-0.258c-0.001,0.282-0.225,0.411-0.365,0.479c-0.162,0.08-0.214,0.129-0.168,0.29l0.014,0.047
			L60.749,22.172z M62.249,20.626l-0.085-0.315l-0.603,0.16l0.081,0.304c0.061,0.229,0.209,0.318,0.392,0.268
			C62.218,20.994,62.307,20.851,62.249,20.626z"/>
		<path fill="#FFFFFF" d="M61.791,24.843c-0.009-0.147-0.054-0.177-0.17-0.171l-0.17,0.009c-0.113,0.005-0.142,0.031-0.138,0.105
			l-0.273-0.044c-0.037-0.312-0.168-0.376-0.19-0.852c-0.032-0.639,0.252-1.192,1.061-1.233c0.745-0.037,1.146,0.427,1.182,1.123
			c0.019,0.416-0.127,0.724-0.195,0.854l-0.492-0.099l-0.011-0.191c0.227-0.074,0.31-0.27,0.298-0.496
			c-0.02-0.398-0.256-0.598-0.753-0.574c-0.501,0.025-0.71,0.219-0.691,0.61c0.006,0.095,0.039,0.214,0.079,0.279l0.268-0.014
			c0.116-0.006,0.162-0.036,0.153-0.188l-0.001-0.039l0.287,0.046l0.042,0.839l-0.282,0.076L61.791,24.843z"/>
		<path fill="#FFFFFF" d="M60.612,27.295l0.254-1.665l0.291-0.02c-0.021,0.14,0.019,0.178,0.137,0.196l1.258,0.192
			c0.121,0.019,0.169-0.006,0.19-0.146l0.273,0.105l-0.245,1.592l-0.511-0.078l-0.015-0.231c0.171,0,0.215-0.039,0.252-0.279
			l0.056-0.37l-0.52-0.079l-0.049,0.335c-0.021,0.143-0.006,0.199,0.107,0.216L62,27.284l-0.513-0.079l-0.024-0.239
			c0.115,0.017,0.149-0.031,0.172-0.174l0.049-0.335l-0.564-0.086l-0.08,0.513c-0.033,0.223,0.023,0.274,0.173,0.326l-0.082,0.227
			L60.612,27.295z"/>
		<path fill="#FFFFFF" d="M61.317,30.594l-1.618-0.609l0.153-0.406l1.468-0.42c0.102-0.03,0.28-0.049,0.28-0.049
			s-0.166-0.043-0.236-0.07l-0.715-0.269c-0.111-0.043-0.164-0.033-0.214,0.099l-0.248-0.158l0.248-0.65l0.288,0.042
			c-0.049,0.131-0.017,0.177,0.095,0.22l1.188,0.448c0.116,0.044,0.167,0.029,0.217-0.103l0.245,0.16l-0.219,0.585l-1.335,0.382
			c-0.105,0.029-0.283,0.048-0.283,0.048s0.167,0.044,0.247,0.075l0.611,0.23c0.116,0.043,0.166,0.028,0.215-0.104l0.248,0.158
			l-0.248,0.654l-0.289-0.045C61.462,30.679,61.432,30.638,61.317,30.594z"/>
		<path fill="#FFFFFF" d="M58.852,31.398c0.228-0.362,0.511-0.55,0.645-0.627l0.334,0.352l-0.105,0.167
			c-0.25-0.066-0.461,0.094-0.58,0.285c-0.093,0.147-0.118,0.342,0.035,0.44c0.133,0.084,0.258,0.021,0.503-0.247
			c0.246-0.275,0.582-0.493,0.954-0.257c0.365,0.23,0.366,0.686,0.104,1.1c-0.2,0.317-0.443,0.51-0.57,0.587l-0.315-0.336
			l0.103-0.164c0.227,0.033,0.403-0.114,0.496-0.263c0.104-0.165,0.104-0.328-0.018-0.405c-0.12-0.076-0.239-0.004-0.419,0.194
			c-0.33,0.364-0.641,0.577-1.05,0.318C58.568,32.292,58.595,31.803,58.852,31.398z"/>
		<path fill="#FFFFFF" d="M57.312,33.448l0.543-0.607l0.251,0.146c-0.094,0.105-0.082,0.16,0.011,0.24l0.947,0.844
			c0.093,0.082,0.146,0.086,0.241-0.019l0.174,0.234l-0.542,0.606l-0.252-0.145c0.095-0.105,0.082-0.158-0.01-0.239l-0.948-0.845
			c-0.091-0.08-0.147-0.085-0.239,0.019L57.312,33.448z"/>
		<path fill="#FFFFFF" d="M55.964,34.638c0.334-0.267,0.661-0.354,0.814-0.382l0.199,0.441l-0.154,0.124
			c-0.214-0.145-0.465-0.062-0.642,0.08c-0.134,0.108-0.225,0.284-0.109,0.428c0.098,0.123,0.236,0.104,0.555-0.071
			c0.319-0.181,0.712-0.275,0.984,0.07c0.271,0.336,0.122,0.767-0.261,1.074c-0.289,0.234-0.583,0.337-0.731,0.369l-0.186-0.418
			l0.148-0.123c0.202,0.105,0.419,0.023,0.554-0.087c0.152-0.12,0.205-0.276,0.116-0.389c-0.087-0.11-0.224-0.082-0.459,0.048
			c-0.433,0.236-0.793,0.336-1.099-0.041C55.401,35.388,55.588,34.938,55.964,34.638z"/>
		<path fill="#FFFFFF" d="M44.253,39.419l-1.083-0.311l0.022-0.296l0.139,0.041c0.144,0.041,0.188,0.01,0.222-0.104l0.315-1.104
			c-0.078,0.041-0.208,0.058-0.429,0.02l0.091-0.317c0.237,0.008,0.38-0.018,0.622-0.238l0.442,0.126l-0.48,1.672
			c-0.033,0.115-0.003,0.167,0.136,0.208l0.139,0.038L44.253,39.419z"/>
		<path fill="#FFFFFF" d="M46.319,39.79c-0.598-0.056-0.955-0.331-0.92-0.692c0.029-0.314,0.296-0.465,0.585-0.559
			c-0.236-0.137-0.434-0.304-0.41-0.554c0.03-0.318,0.401-0.503,0.958-0.452c0.53,0.05,0.876,0.303,0.846,0.622
			c-0.023,0.25-0.246,0.378-0.5,0.468c0.265,0.146,0.499,0.345,0.469,0.658C47.311,39.642,46.898,39.845,46.319,39.79z
			 M46.416,38.765c-0.243,0.086-0.42,0.209-0.438,0.387c-0.015,0.157,0.14,0.289,0.373,0.312c0.224,0.021,0.406-0.075,0.422-0.232
			C46.79,39.047,46.633,38.895,46.416,38.765z M46.501,37.861c-0.196-0.019-0.334,0.049-0.347,0.187
			c-0.014,0.141,0.107,0.262,0.295,0.368c0.2-0.07,0.338-0.167,0.353-0.308C46.813,37.973,46.686,37.879,46.501,37.861z"/>
		<path fill="#FFFFFF" d="M49.057,39.798c-0.146,0.014-0.42-0.01-0.515-0.065l-0.029-0.313c0.105,0.029,0.26,0.044,0.396,0.029
			c0.387-0.037,0.612-0.23,0.658-0.615c-0.07,0.116-0.273,0.227-0.486,0.248c-0.533,0.05-0.864-0.229-0.905-0.671
			c-0.044-0.453,0.282-0.812,0.855-0.867c0.665-0.063,1.01,0.335,1.067,0.909C50.163,39.138,49.863,39.718,49.057,39.798z
			 M49.064,37.883c-0.262,0.025-0.395,0.21-0.37,0.479c0.024,0.248,0.173,0.4,0.422,0.377c0.228-0.021,0.426-0.183,0.398-0.472
			C49.495,38.078,49.373,37.853,49.064,37.883z"/>
		<path fill="#FFFFFF" d="M52.469,39.111l-1.09,0.288l-0.13-0.264l0.14-0.037c0.144-0.039,0.167-0.088,0.136-0.205l-0.293-1.109
			c-0.048,0.075-0.148,0.157-0.354,0.237l-0.085-0.321c0.208-0.112,0.316-0.207,0.415-0.521l0.445-0.116l0.443,1.682
			c0.03,0.115,0.082,0.146,0.223,0.109l0.14-0.037L52.469,39.111z"/>
		<path fill="#FFFFFF" d="M46.661,21.312c-0.105-1.266-1.326-2.953-3.05-3.238c-1.873-0.312-4.594,0.486-4.909,3.238
			c-0.326,2.847,1.707,4.796,4.323,4.595C45.866,25.689,46.81,23.102,46.661,21.312z M45.047,23.275
			c0.153-0.014,0.474,0.062,0.556,0.273c0.093,0.229-0.568,0.95-0.86,1.035c-0.18,0.051-0.486-0.282-0.437-0.547
			C44.338,23.864,44.923,23.286,45.047,23.275z M46.009,22.424c-0.148,0.1-0.448,0.088-0.567-0.091
			c-0.081-0.122-0.115-1.071-0.061-1.206c0.056-0.139,0.415-0.237,0.587-0.142C46.167,21.093,46.252,22.263,46.009,22.424z
			 M45.494,20.023c-0.033,0.175-0.342,0.278-0.467,0.264c-0.153-0.017-0.85-0.561-0.892-0.741c-0.054-0.234,0.123-0.408,0.274-0.445
			C44.816,18.999,45.54,19.771,45.494,20.023z M43.253,18.705c0.06,0.127,0.132,0.337-0.002,0.483
			c-0.111,0.123-1.139,0.212-1.288,0.202c-0.316-0.021-0.436-0.398-0.332-0.561C41.822,18.534,43.144,18.469,43.253,18.705z
			 M44.136,20.562c0,0.271-1.009,0.798-1.198,0.687c-0.275-0.163-0.871-1.069-0.753-1.213
			C42.592,19.532,44.136,20.137,44.136,20.562z M41.483,20.316c0.173-0.025,0.707,0.897,0.603,1.221
			c-0.087,0.275-1.141,0.72-1.246,0.616C40.521,21.836,40.682,20.439,41.483,20.316z M41.221,22.969
			c0-0.219,0.917-0.802,1.251-0.678c0.271,0.1,0.766,1.246,0.507,1.365C42.358,23.94,41.221,23.374,41.221,22.969z M43.96,23.205
			c-0.249-0.107-0.958-1.047-0.728-1.277c0.215-0.216,1.2-0.722,1.346-0.584C45.142,21.865,44.449,23.418,43.96,23.205z
			 M40.276,20.583c-0.238,0.119-0.586-0.105-0.611-0.398c-0.024-0.294,0.698-0.978,0.948-0.909c0.123,0.033,0.34,0.318,0.321,0.526
			C40.92,19.946,40.415,20.513,40.276,20.583z M40.061,22.576c-0.133,0.159-0.481,0.246-0.626,0.132
			c-0.214-0.174-0.28-0.881-0.141-1.182c0.094-0.203,0.645-0.306,0.738-0.074C40.093,21.611,40.16,22.458,40.061,22.576z
			 M39.853,23.811c-0.018-0.227,0.329-0.525,0.562-0.475c0.188,0.04,0.794,0.678,0.822,0.822c0.048,0.263-0.203,0.517-0.381,0.531
			C40.584,24.709,39.873,24.058,39.853,23.811z M42.066,25.082c-0.189-0.106-0.064-0.599,0.209-0.642c0.192-0.03,0.876-0.1,1.105,0
			c0.175,0.077,0.313,0.526,0.215,0.635C43.409,25.284,42.335,25.231,42.066,25.082z"/>
	</g>
	<g>
		<path fill="#FFFFFF" d="M14.809,52.076c0-2.378,1.606-3.777,3.722-3.777c0.803,0,1.271,0.129,1.683,0.248l0.358-0.314h0.162
			l0.076,2.378h-0.228c-0.542-1.453-1.312-1.868-2.116-1.868c-1.259,0-2.486,0.942-2.486,3.223c0,1.783,0.89,3.396,2.736,3.396
			c0.532,0,1.106-0.149,1.106-0.323c0-0.37,0.013-1.358-0.021-2.194l-0.044-0.046l-1.064-0.054v-0.367h3.04v0.367l-0.782,0.054
			l-0.043,0.046c-0.022,0.694-0.033,1.476-0.022,2.311c-0.13,0.272-1.171,0.694-2.268,0.694
			C16.403,55.852,14.809,54.475,14.809,52.076z"/>
		<path fill="#FFFFFF" d="M22.927,52.184c0-2.463,1.51-3.885,3.43-3.885c2.16,0,3.408,1.521,3.408,3.669
			c0,2.462-1.509,3.884-3.43,3.884C24.176,55.852,22.927,54.333,22.927,52.184z M28.594,52.076c0-2.192-0.858-3.29-2.236-3.29
			c-1.378,0-2.257,1.098-2.257,3.29c0,2.191,0.858,3.289,2.235,3.289C27.715,55.365,28.594,54.267,28.594,52.076z M24.749,47.049
			c0-0.348,0.218-0.618,0.586-0.618c0.348,0,0.564,0.229,0.564,0.578c0,0.348-0.227,0.618-0.597,0.618
			C24.967,47.626,24.749,47.398,24.749,47.049z M26.781,47.049c0-0.348,0.216-0.618,0.585-0.618c0.348,0,0.565,0.229,0.565,0.578
			c0,0.348-0.228,0.618-0.598,0.618C26.997,47.626,26.781,47.398,26.781,47.049z"/>
		<path fill="#FFFFFF" d="M32.022,55.374l1.162-0.054l0.044-0.042c0.011-0.402,0.034-1.803,0.034-3.268c0-1.466,0-2.669-0.034-3.05
			l-0.033-0.054h-1.29c-0.228,0-0.499,0.39-0.944,1.703h-0.216l0.086-2.378h0.194l0.315,0.184h4.874l0.315-0.184h0.194l0.087,2.378
			h-0.216c-0.456-1.323-0.716-1.703-0.944-1.703h-1.292l-0.032,0.054c-0.011,0.26-0.032,1.726-0.032,3.188
			c0,1.47,0.021,2.736,0.032,3.129l0.043,0.042l1.194,0.053v0.37h-3.539L32.022,55.374L32.022,55.374z"/>
		<path fill="#FFFFFF" d="M38.111,55.374l1.065-0.054l0.043-0.042c0.011-0.501,0.033-1.803,0.033-3.268
			c0-1.466-0.022-2.692-0.033-3.124l-0.043-0.045l-1.065-0.054v-0.369h4.766l0.423-0.183h0.164l0.077,2.376h-0.217
			c-0.392-1.097-0.739-1.639-0.922-1.649l-2.052-0.11l-0.033,0.055c-0.01,0.497-0.032,1.649-0.032,2.865
			c0.489,0,1.552-0.033,1.835-0.055l0.042-0.043l0.391-0.762h0.206c-0.01,0.305-0.021,0.771-0.021,1.065
			c0,0.282,0.011,0.889,0.021,1.214h-0.206l-0.391-0.901l-0.042-0.044c-0.337-0.012-1.304-0.03-1.835-0.03
			c0,1.378,0.021,2.484,0.032,3.037l0.033,0.053l2.215-0.116c0.184-0.013,0.672-0.457,1.063-1.736h0.25
			c-0.142,2.116-0.175,2.291-0.358,2.291h-5.406L38.111,55.374L38.111,55.374z"/>
		<path fill="#FFFFFF" d="M45.178,55.374l1.063-0.054l0.044-0.042c0.011-0.38,0.032-1.803,0.032-3.268
			c0-1.466-0.021-2.648-0.032-3.124l-0.044-0.045l-1.063-0.054v-0.369c0.804,0,1.726-0.02,2.367-0.02c0.793,0,1.4,0.064,1.889,0.215
			c0.856,0.272,1.378,0.824,1.378,1.616c0,0.934-0.618,1.487-1.323,1.663v0.021c1.148,0.052,1.833,0.726,1.833,1.604
			c0,1.475-1.324,2.247-3.429,2.247c-0.706,0-1.847-0.021-2.714-0.021L45.178,55.374L45.178,55.374z M48.033,51.749
			c1.279,0,1.606-0.609,1.606-1.442c0-0.576-0.208-1.01-0.652-1.239c-0.281-0.15-0.683-0.238-1.28-0.238
			c-0.054,0-0.173,0-0.281,0.012l-0.044,0.053c-0.011,0.565-0.044,1.63-0.032,2.855H48.033z M50.149,53.661
			c0-1.032-0.707-1.434-1.662-1.434h-1.139c-0.012,1.377,0.021,2.474,0.033,3.051l0.053,0.042c0.208,0.015,0.403,0.015,0.532,0.015
			C49.431,55.334,50.149,54.723,50.149,53.661z"/>
		<path fill="#FFFFFF" d="M52.841,52.184c0-2.463,1.507-3.885,3.429-3.885c2.161,0,3.407,1.521,3.407,3.669
			c0,2.462-1.507,3.884-3.428,3.884C54.089,55.852,52.841,54.333,52.841,52.184z M58.506,52.076c0-2.192-0.856-3.29-2.234-3.29
			s-2.26,1.098-2.26,3.29c0,2.191,0.859,3.289,2.237,3.289C57.626,55.365,58.506,54.267,58.506,52.076z"/>
		<path fill="#FFFFFF" d="M60.765,55.374l1.083-0.054l0.047-0.042c0.009-0.315,0.03-1.803,0.03-3.268
			c0-1.466-0.021-2.638-0.03-3.124l-0.047-0.045l-1.083-0.054v-0.369c0.974,0,2.02-0.02,2.571-0.02c0.856,0,1.355,0.051,1.76,0.174
			c1.041,0.314,1.497,0.986,1.497,1.727c0,1.074-0.727,1.583-1.617,1.868v0.019c0.28,0.327,0.771,1.217,1.401,2.325
			c0.272,0.478,0.533,0.836,0.889,0.855l0.241,0.014v0.369h-1.63l-0.043-0.045c-0.403-0.813-0.686-1.476-1.369-2.693
			c-0.142-0.247-0.272-0.453-0.435-0.641c-0.39,0.054-0.759,0.075-1.074,0.075c-0.01,1.295,0.022,2.509,0.034,2.835l0.044,0.043
			l1,0.053v0.371h-3.268L60.765,55.374L60.765,55.374z M65.423,50.307c0-0.597-0.261-1.042-0.75-1.27
			c-0.272-0.131-0.61-0.208-1.291-0.208h-0.36l-0.031,0.031c-0.013,0.468-0.021,1.89-0.035,3.157
			C64.844,51.968,65.423,51.361,65.423,50.307z"/>
		<path fill="#FFFFFF" d="M68.318,52.076c0-2.378,1.605-3.777,3.721-3.777c0.807,0,1.272,0.129,1.684,0.248l0.356-0.314h0.163
			l0.077,2.378h-0.228c-0.544-1.453-1.313-1.868-2.116-1.868c-1.26,0-2.486,0.942-2.486,3.223c0,1.783,0.888,3.396,2.733,3.396
			c0.534,0,1.106-0.149,1.106-0.323c0-0.37,0.013-1.358-0.021-2.194l-0.045-0.046l-1.062-0.054v-0.367h3.037v0.367l-0.781,0.054
			l-0.044,0.046c-0.021,0.694-0.031,1.476-0.021,2.311c-0.131,0.272-1.173,0.694-2.27,0.694
			C69.912,55.852,68.318,54.475,68.318,52.076z"/>
		<path fill="#FFFFFF" d="M76.382,53.456h0.249c0.381,1.377,0.998,1.953,1.759,1.953c0.891,0,1.455-0.599,1.455-1.38
			c0-1.889-3.331-1.409-3.331-3.798c0-1.008,0.791-1.933,2.168-1.933c0.708,0,1.271,0.216,1.39,0.249l0.326-0.313h0.206l0.065,2.377
			h-0.228c-0.455-1.324-1.052-1.867-1.792-1.867c-0.641,0-1.192,0.422-1.192,1.14c0,1.812,3.387,1.53,3.387,3.819
			c0,1.098-0.826,2.148-2.521,2.148c-0.466,0-1.019-0.107-1.496-0.422l-0.216,0.422h-0.229V53.456z"/>
		<path fill="#FFFFFF" d="M10.852,65.922c0-0.412,0.01-0.66,0.01-1.736c0-0.857-0.01-1.541-0.021-2.518l-0.043-0.044l-1.042-0.056
			v-0.369h3.104v0.369l-0.879,0.056l-0.043,0.044c-0.011,0.812-0.021,2.571-0.021,4.212c0,1.368,0.315,2.291,1.758,2.291
			c1.509,0,1.943-0.88,1.943-2.496c0-1.41-0.022-2.94-0.043-4.007l-0.044-0.043l-0.998-0.055v-0.369h2.876v0.369l-1.063,0.054
			l-0.043,0.044c-0.032,1.162-0.032,2.757-0.022,4.103c0.01,1.868-0.869,2.865-2.691,2.865
			C11.796,68.637,10.852,67.714,10.852,65.922z"/>
		<path fill="#FFFFFF" d="M18.385,68.16l1.064-0.055l0.043-0.043c0.033-1.162,0.033-2.02,0.033-3.104c0-1.086,0-1.684-0.033-3.29
			l-0.043-0.043l-1.064-0.055v-0.369h2.074c1.325,1.855,2.833,4.024,3.918,5.578h0.022c-0.022-2.084-0.044-4.051-0.065-5.111
			l-0.044-0.044l-0.999-0.054v-0.369h2.876v0.369l-1.064,0.054l-0.043,0.044c-0.032,1.162-0.032,2.019-0.032,4.743v2.171h-0.533
			c-1.346-1.909-2.954-4.157-4.32-6.111h-0.022c0.012,2.541,0.044,4.506,0.065,5.592l0.043,0.043l1,0.055v0.368h-2.877L18.385,68.16
			L18.385,68.16z"/>
		<path fill="#FFFFFF" d="M27.47,68.16l1.063-0.055l0.043-0.043c0.023-0.338,0.032-1.804,0.032-3.267
			c0-1.467-0.009-2.76-0.032-3.126l-0.043-0.043l-1.063-0.056v-0.369h3.299v0.368l-1.052,0.056l-0.044,0.043
			c-0.021,0.292-0.032,1.803-0.032,3.268c0,1.463,0.022,2.757,0.032,3.124l0.044,0.044l1.052,0.055v0.367H27.47V68.16z"/>
		<path fill="#FFFFFF" d="M32.343,61.603l-0.652-0.032v-0.369h2.844v0.369l-0.966,0.043l-0.043,0.044
			c0.609,1.573,1.325,3.474,2.041,5.307h0.021c0.531-1.474,1.455-4.102,1.812-5.317l-0.032-0.033l-0.879-0.043v-0.369h2.398v0.369
			l-0.63,0.032c-0.564,1.434-1.867,4.809-2.725,7.033H35.24C34.122,65.922,33.158,63.557,32.343,61.603z"/>
		<path fill="#FFFFFF" d="M39.702,68.16l1.064-0.055l0.043-0.043c0.011-0.502,0.033-1.804,0.033-3.267
			c0-1.467-0.022-2.695-0.033-3.126l-0.043-0.043l-1.064-0.056v-0.369h4.765l0.425-0.184h0.162l0.076,2.376h-0.218
			c-0.392-1.097-0.738-1.637-0.922-1.65l-2.051-0.108l-0.033,0.054c-0.011,0.5-0.032,1.649-0.032,2.865
			c0.488,0,1.551-0.033,1.835-0.054l0.043-0.043l0.39-0.76h0.208c-0.011,0.303-0.021,0.77-0.021,1.062
			c0,0.281,0.011,0.891,0.021,1.217h-0.208l-0.39-0.903l-0.043-0.044c-0.337-0.011-1.304-0.031-1.835-0.031
			c0,1.378,0.021,2.486,0.032,3.039l0.033,0.053l2.214-0.118c0.184-0.011,0.672-0.455,1.063-1.737h0.25
			c-0.142,2.115-0.174,2.291-0.358,2.291h-5.406L39.702,68.16L39.702,68.16z"/>
		<path fill="#FFFFFF" d="M46.766,68.16l1.085-0.055l0.045-0.043c0.012-0.315,0.032-1.804,0.032-3.267
			c0-1.467-0.021-2.64-0.032-3.126l-0.045-0.043l-1.085-0.056v-0.369c0.979,0,2.02-0.021,2.573-0.021
			c0.856,0,1.358,0.053,1.76,0.175c1.041,0.314,1.498,0.987,1.498,1.728c0,1.074-0.728,1.582-1.617,1.867v0.02
			c0.281,0.328,0.771,1.217,1.399,2.324c0.271,0.479,0.533,0.837,0.89,0.856l0.24,0.014v0.368h-1.628l-0.043-0.045
			c-0.404-0.812-0.684-1.474-1.369-2.692c-0.142-0.248-0.273-0.454-0.436-0.642c-0.391,0.053-0.759,0.076-1.074,0.076
			c-0.012,1.294,0.021,2.508,0.033,2.835l0.045,0.044l0.997,0.052v0.371h-3.267L46.766,68.16L46.766,68.16z M51.425,63.09
			c0-0.598-0.261-1.042-0.748-1.271c-0.273-0.131-0.61-0.209-1.292-0.209h-0.357l-0.033,0.034c-0.012,0.469-0.02,1.891-0.033,3.16
			C50.849,64.751,51.425,64.143,51.425,63.09z"/>
		<path fill="#FFFFFF" d="M54.702,66.239h0.248c0.38,1.377,0.999,1.953,1.76,1.953c0.889,0,1.453-0.598,1.453-1.379
			c0-1.887-3.331-1.41-3.331-3.798c0-1.009,0.792-1.932,2.17-1.932c0.706,0,1.271,0.216,1.39,0.249l0.324-0.315h0.208l0.065,2.378
			h-0.228c-0.457-1.326-1.054-1.867-1.792-1.867c-0.641,0-1.194,0.421-1.194,1.139c0,1.812,3.388,1.531,3.388,3.821
			c0,1.095-0.825,2.148-2.518,2.148c-0.468,0-1.021-0.109-1.5-0.422l-0.216,0.422h-0.228V66.239z"/>
		<path fill="#FFFFFF" d="M60.735,68.16l1.066-0.055l0.043-0.043c0.021-0.338,0.032-1.804,0.032-3.267
			c0-1.467-0.011-2.76-0.032-3.126l-0.043-0.043l-1.066-0.056v-0.369h3.301v0.368l-1.053,0.056l-0.045,0.043
			c-0.021,0.292-0.032,1.803-0.032,3.268c0,1.463,0.022,2.757,0.032,3.124l0.045,0.044l1.053,0.055v0.367h-3.301V68.16z"/>
		<path fill="#FFFFFF" d="M66.619,68.16l1.16-0.055l0.045-0.043c0.012-0.404,0.032-1.804,0.032-3.267c0-1.467,0-2.672-0.032-3.052
			l-0.032-0.055h-1.29c-0.23,0-0.502,0.393-0.945,1.705h-0.215l0.086-2.378h0.194l0.314,0.185h4.876l0.312-0.185h0.196l0.086,2.378
			H71.19c-0.455-1.326-0.715-1.705-0.941-1.705h-1.295l-0.032,0.055c-0.011,0.26-0.032,1.727-0.032,3.189
			c0,1.464,0.021,2.735,0.032,3.126l0.045,0.045l1.194,0.053v0.369h-3.537v-0.367L66.619,68.16L66.619,68.16z"/>
		<path fill="#FFFFFF" d="M72.709,68.16l1.062-0.055l0.045-0.043c0.011-0.502,0.033-1.804,0.033-3.267
			c0-1.467-0.022-2.695-0.033-3.126l-0.045-0.043l-1.062-0.056v-0.369h4.765l0.423-0.184h0.163l0.076,2.377H77.92
			c-0.391-1.097-0.739-1.637-0.922-1.65l-2.052-0.109l-0.032,0.054c-0.013,0.501-0.032,1.65-0.032,2.866
			c0.486,0,1.551-0.033,1.833-0.055l0.047-0.042l0.387-0.76h0.208c-0.012,0.303-0.021,0.77-0.021,1.062
			c0,0.282,0.014,0.892,0.021,1.218h-0.208l-0.387-0.903l-0.047-0.044c-0.337-0.011-1.303-0.032-1.833-0.032
			c0,1.379,0.02,2.487,0.032,3.04l0.032,0.052l2.215-0.117c0.182-0.011,0.672-0.456,1.062-1.736h0.248
			c-0.141,2.115-0.173,2.29-0.357,2.29H72.71L72.709,68.16L72.709,68.16z"/>
		<path fill="#FFFFFF" d="M81.054,68.16l1.163-0.055l0.043-0.043c0.011-0.404,0.032-1.804,0.032-3.267c0-1.467,0-2.672-0.032-3.052
			l-0.031-0.055h-1.293c-0.228,0-0.498,0.393-0.944,1.705h-0.215l0.085-2.378h0.196l0.314,0.185h4.875l0.314-0.185h0.195
			l0.085,2.378h-0.216c-0.455-1.326-0.716-1.705-0.942-1.705H83.39l-0.032,0.055c-0.012,0.26-0.032,1.727-0.032,3.189
			c0,1.464,0.021,2.735,0.032,3.126l0.044,0.045l1.195,0.053v0.369h-3.54v-0.367L81.054,68.16L81.054,68.16z"/>
	</g>
</g>
</svg>
