<?xml version="1.0" encoding="utf-8"?>
<!-- Generator: Adobe Illustrator 16.0.0, SVG Export Plug-In . SVG Version: 6.00 Build 0)  -->
<!DOCTYPE svg PUBLIC "-//W3C//DTD SVG 1.1//EN" "http://www.w3.org/Graphics/SVG/1.1/DTD/svg11.dtd">
<svg version="1.1" id="Lager_1" xmlns="http://www.w3.org/2000/svg" xmlns:xlink="http://www.w3.org/1999/xlink" x="0px" y="0px"
	 width="100px" height="16px" viewBox="-15.715 -3.501 100 16" enable-background="new -15.715 -3.501 100 16" xml:space="preserve"
	>
<g>
	<g>
		<path fill="#FFFFFF" d="M-10.09,1.527c-0.886,0.849-1.391,1.994-1.417,3.224c-0.054,2.534,1.964,4.64,4.5,4.693
			c1.23,0.028,2.394-0.424,3.28-1.272c0.889-0.854,1.393-1.994,1.419-3.221c0.057-2.537-1.964-4.645-4.5-4.699
			C-8.037,0.224-9.202,0.677-10.09,1.527z M-6.999,9.097c-2.344-0.051-4.209-1.995-4.158-4.339c0.026-1.135,0.491-2.193,1.311-2.979
			C-9.027,0.995-7.95,0.576-6.815,0.6c2.342,0.051,4.207,1.998,4.156,4.343c-0.024,1.134-0.489,2.189-1.311,2.978
			C-4.788,8.703-5.865,9.123-6.999,9.097z"/>
		<path fill="#FFFFFF" d="M-11.205,0.361c-1.199,1.148-1.88,2.695-1.916,4.355c-0.074,3.425,2.652,6.272,6.078,6.345
			c3.423,0.074,6.272-2.651,6.347-6.077l0,0c0.038-1.659-0.576-3.232-1.724-4.432c-1.149-1.199-2.696-1.877-4.352-1.914
			C-8.432-1.398-10.007-0.788-11.205,0.361z M-7.037,10.78c-3.269-0.073-5.872-2.789-5.8-6.059c0.033-1.583,0.682-3.059,1.827-4.157
			c1.145-1.095,2.647-1.681,4.229-1.646c1.585,0.033,3.063,0.684,4.16,1.829c1.095,1.146,1.68,2.648,1.644,4.233l0,0
			C-1.046,8.25-3.765,10.853-7.037,10.78z"/>
		<path fill="#FFFFFF" d="M-5.671,8.546c-2.306,0.411-4.158-0.488-4.494-1.591c-0.22-0.718,0.098-0.872,0.15-1.393
			c-0.399,0.215-0.473-0.341-0.122-0.386c0.375-0.054,0.545,0.34,0.358,0.863c-0.26,0.747,0.199,1.097,0.328,1.058
			c0.006-0.04,0.053-0.137,0.075-0.181c-0.314-0.401-0.183-0.984,0.352-1.03c0.219-0.017,0.199,0.141,0.046,0.159
			c-0.41,0.06-0.392,0.518-0.221,0.577c0.031,0,0.067-0.01,0.095-0.036C-9.11,6.493-9.046,6.36-8.939,6.39
			c0.236,0.058,0.147,0.357-0.015,0.382c-0.061,0.186-0.178,0.445-0.152,0.582c0.024,0.133,0.118,0.157,0.195,0.081
			c0.057-0.062,0.085-0.197,0.119-0.35c-0.036-0.17,0.045-0.294,0.189-0.235c0.098,0.042,0.112,0.196,0.014,0.313
			c-0.014,0.147-0.076,0.315-0.062,0.426C-8.638,7.698-8.485,7.69-8.43,7.631c0.055-0.061,0.113-0.454,0.133-0.546
			c-0.083-0.073-0.051-0.308,0.124-0.318c0.207-0.02,0.159,0.262,0.1,0.335c0.058,0.217-0.037,0.466,0.005,0.561
			c0.042,0.1,0.204,0.125,0.277,0.04C-7.719,7.624-7.81,7.454-7.77,7.257c-0.069-0.17,0.011-0.306,0.113-0.315
			c0.23-0.018,0.165,0.189,0.123,0.336c0.014,0.149,0.038,0.325,0.088,0.469c0.034,0.086,0.181,0.107,0.231-0.01
			c0.028-0.072-0.041-0.271-0.057-0.418c-0.099-0.233-0.014-0.296,0.076-0.302c0.086-0.005,0.202,0.039,0.185,0.271
			C-6.963,7.44-6.926,7.63-6.866,7.749c0.025,0.1,0.142,0.106,0.183,0.007c0.036-0.096-0.03-0.216-0.108-0.377
			c-0.166-0.164-0.017-0.288,0.079-0.297c0.094-0.006,0.242,0.02,0.209,0.271c0.051,0.148,0.086,0.29,0.118,0.371
			c0.041,0.092,0.169,0.105,0.225,0.044c0.056-0.06-0.05-0.168-0.079-0.3c-0.124-0.123-0.102-0.289,0.041-0.299
			c0.071-0.009,0.214,0.002,0.201,0.21c0.042,0.094,0.042,0.21,0.104,0.312C-5.82,7.813-5.705,7.77-5.658,7.66
			c0.046-0.114-0.24-0.43-0.016-0.454C-5.45,7.19-5.413,7.484-5.341,7.557c0.074,0.069,0.129,0.022,0.162-0.017
			c0.059-0.062-0.095-0.237,0.012-0.288c0.218-0.1,0.216,0.148,0.372,0.151c0.679,0.013,1.212-1.103,1.134-1.417
			C-3.887,5.851-3.809,5.513-3.62,5.511c0.471-0.01,0.403,0.651,0.05,1.42C-4.038,7.939-5.183,8.461-5.671,8.546z"/>
		<path fill="#FFFFFF" d="M-4.683,3.245c-0.006-0.003-0.008-0.016-0.006-0.021c0.106-0.403,0.181-0.58,0.221-0.981
			c0.008-0.097-0.061-0.174-0.127-0.191c-0.248-0.062-0.361-0.06-0.458-0.066c-0.009,0-0.031-0.006-0.036-0.02
			c-0.031-0.058-0.073-0.233-0.073-0.322c0.144-0.308-0.115-0.413-0.36-0.41C-5.681,1.228-5.844,1.3-5.864,1.42
			c-0.023,0.231,0.233,0.317,0.326,0.326c0.015,0.033,0.054,0.194,0.061,0.26c0.001,0.008-0.008,0.018-0.018,0.018
			c-0.414,0.006-0.948,0.08-1.218,0.101C-6.753,2.13-6.77,2.108-6.78,2.086c-0.049-0.14-0.265-0.795,0.139-0.783
			c0.239,0.008,0.438-0.187,0.212-0.337c-0.058-0.039-0.364-0.076-0.53-0.046c-0.136,0.024-0.202,0.178-0.185,0.313
			c0.03,0.212-0.501,0.235-0.656,0.173c-0.111-0.047-0.25-0.18-0.297-0.266C-8.2,0.959-8.376,1.097-8.343,1.193
			c0.219,0.659,0.917,0.555,1.098,0.563c0.008,0,0.027,0.013,0.028,0.019c0.045,0.238,0.185,0.489,0.185,0.582
			C-7.117,2.453-7.08,2.66-6.959,2.696C-7.107,2.84-7.173,3.341-7.152,3.759c0.029,0.53,0.245,1.046,0.583,0.988
			c0.43-0.07,0.26-1.062,0.363-1.146C-6.154,3.56-6.012,3.57-5.963,3.576c0.01,0.001,0.015,0.016,0.014,0.021
			c-0.034,0.389-0.123,1.015-0.148,1.183c-0.023,0.17-0.036,0.257,0.05,0.414c0.093,0.173,0.265,0.721,0.062,1.304
			c-0.004,0.019-0.022,0.028-0.029,0.032c-0.183,0.038-0.28,0.094-0.346,0.143c-0.073,0.046-0.148,0.151-0.096,0.211
			c0.076,0.072,0.565,0.042,0.719-0.185c0.002-0.007,0.013-0.029,0.015-0.029c0.052-0.146,0.117-0.253,0.167-0.345
			c0.227-0.432,0.259-0.964-0.051-1.203c-0.089-0.067-0.176-0.131-0.093-0.3c0.164-0.322,0.182-0.677,0.202-0.978
			c0.008-0.12,0.205-0.19,0.285-0.075c0.188,0.444,0.038,0.827,0.035,0.985c-0.001,0.158,0.057,0.23,0.08,0.327
			c0.128,0.579,0.063,1.049-0.054,1.65c0,0.008-0.01,0.021-0.024,0.022c-0.135,0.042-0.217,0.073-0.302,0.134
			c-0.085,0.06-0.12,0.141-0.082,0.18c0.113,0.131,0.628-0.01,0.666-0.158c0.096-0.366,0.79-1.213,0.309-1.759
			c-0.221-0.247-0.221-0.147-0.223-0.273c-0.001-0.059,0.138-0.39,0.173-0.643C-4.6,3.97-4.773,3.717-4.728,3.57
			c0.001-0.002,0.012-0.01,0.016-0.009c0.074,0.013,0.244,0.059,0.356,0.121c0.031,0.021,0.089,0.003,0.097-0.127
			C-4.248,3.407-4.61,3.271-4.683,3.245z M-6.658,4.349C-6.86,4.346-6.932,3.103-6.727,3.107C-6.543,3.111-6.522,4.352-6.658,4.349z
			 M-5.999,2.51c0.015,0.063,0.077,0.344,0.093,0.513c0.008,0.062-0.016,0.138-0.052,0.153C-6.052,3.211-6.209,3.203-6.293,3.17
			c-0.093-0.036-0.029-0.405-0.372-0.472c0.048-0.032,0.074-0.067,0.083-0.148C-6.576,2.496-6.51,2.438-6.429,2.43
			c0.152-0.017,0.252-0.022,0.304-0.02C-6.072,2.411-6.016,2.448-5.999,2.51z M-5.066,3.06C-5.141,3.133-5.38,3.148-5.501,3.076
			c-0.101-0.059-0.125-0.503-0.074-0.623c0.051-0.119,0.572-0.124,0.613-0.041C-4.92,2.494-4.99,2.987-5.066,3.06z"/>
		<path fill="#FFFFFF" d="M-7.308,3.674c-0.037-0.47-0.476-1.092-1.115-1.199c-0.697-0.115-1.776,0.163-1.894,1.185
			c-0.121,1.056,0.688,1.842,1.66,1.768C-7.603,5.347-7.252,4.339-7.308,3.674z M-7.934,4.427c0.058-0.005,0.166,0.007,0.199,0.086
			c0.031,0.086-0.203,0.352-0.313,0.383c-0.066,0.02-0.167-0.081-0.146-0.18C-8.184,4.65-7.98,4.433-7.934,4.427z M-7.573,4.091
			c-0.055,0.036-0.161,0.043-0.204-0.024c-0.03-0.044-0.04-0.382-0.02-0.432c0.02-0.051,0.135-0.09,0.198-0.056
			C-7.526,3.619-7.484,4.032-7.573,4.091z M-7.781,3.213c-0.013,0.064-0.119,0.09-0.165,0.084c-0.058-0.007-0.299-0.196-0.314-0.264
			c-0.023-0.087,0.035-0.142,0.092-0.154C-8.018,2.84-7.764,3.119-7.781,3.213z M-8.597,2.737c0.021,0.047,0.048,0.11-0.002,0.164
			c-0.04,0.047-0.411,0.06-0.468,0.056c-0.118-0.008-0.171-0.129-0.134-0.188C-9.129,2.659-8.638,2.649-8.597,2.737z M-8.297,3.424
			c0,0.1-0.351,0.268-0.42,0.228C-8.82,3.59-9.029,3.281-8.985,3.227C-8.835,3.041-8.297,3.266-8.297,3.424z M-9.248,3.337
			c0.043-0.008,0.253,0.316,0.215,0.436C-9.063,3.876-9.451,4.021-9.49,3.98C-9.608,3.863-9.506,3.392-9.248,3.337z M-9.327,4.296
			c0-0.06,0.317-0.274,0.441-0.229c0.1,0.038,0.255,0.432,0.17,0.471C-8.946,4.646-9.327,4.398-9.327,4.296z M-8.348,4.36
			c-0.091-0.039-0.331-0.354-0.246-0.44c0.078-0.082,0.417-0.251,0.471-0.202C-7.912,3.913-8.166,4.439-8.348,4.36z M-9.741,3.41
			c-0.088,0.044-0.171-0.017-0.18-0.125c-0.008-0.109,0.249-0.375,0.343-0.351c0.046,0.011,0.114,0.098,0.107,0.176
			C-9.477,3.165-9.689,3.384-9.741,3.41z M-9.803,4.156c-0.049,0.059-0.161,0.096-0.213,0.053c-0.081-0.063-0.105-0.328-0.052-0.438
			c0.035-0.076,0.218-0.117,0.253-0.031C-9.794,3.799-9.766,4.112-9.803,4.156z M-9.847,4.611C-9.853,4.529-9.74,4.434-9.65,4.453
			c0.068,0.015,0.282,0.242,0.294,0.296c0.017,0.097-0.06,0.174-0.128,0.18C-9.582,4.936-9.839,4.705-9.847,4.611z M-9.036,5.062
			c-0.072-0.04-0.016-0.181,0.086-0.195c0.071-0.012,0.313-0.04,0.399-0.002c0.063,0.027,0.111,0.164,0.073,0.203
			C-8.547,5.143-8.935,5.115-9.036,5.062z"/>
		<polygon fill="#FFFFFF" points="-8.828,-0.428 -8.858,-0.192 -9.01,-0.007 -8.774,0.023 -8.591,0.176 -8.561,-0.06 -8.406,-0.244 
			-8.645,-0.274 		"/>
		<polygon fill="#FFFFFF" points="-4.394,9.844 -4.585,9.698 -4.826,9.687 -4.685,9.494 -4.669,9.254 -4.477,9.394 -4.237,9.41 
			-4.379,9.606 		"/>
		<polygon fill="#FFFFFF" points="-9.44,9.833 -9.247,9.69 -9.008,9.678 -9.148,9.488 -9.162,9.245 -9.355,9.386 -9.592,9.398 
			-9.454,9.594 		"/>
		<path fill="#FFFFFF" d="M-10.76,8.809l0.247-0.286c0.108-0.127,0.287-0.121,0.453,0.024c0.17,0.146,0.209,0.318,0.097,0.445
			l-0.244,0.286c-0.03,0.037-0.033,0.054,0.009,0.089l-0.086,0.066l-0.236-0.2l0.052-0.095c0.041,0.032,0.06,0.03,0.089-0.008
			l0.243-0.284c0.049-0.057,0.046-0.128-0.029-0.192c-0.08-0.067-0.148-0.061-0.197-0.005l-0.245,0.285
			c-0.031,0.038-0.032,0.054,0.007,0.09l-0.085,0.067l-0.214-0.179l0.052-0.1C-10.808,8.847-10.789,8.842-10.76,8.809z"/>
		<path fill="#FFFFFF" d="M-11.539,7.854l0.516-0.383l0.093,0.129l-0.16,0.547c-0.012,0.033-0.041,0.093-0.041,0.093
			s0.05-0.042,0.07-0.06l0.228-0.17c0.036-0.028,0.043-0.044,0.011-0.085l0.098-0.045l0.155,0.204l-0.073,0.088
			c-0.03-0.049-0.052-0.046-0.088-0.019l-0.377,0.281c-0.035,0.028-0.041,0.049-0.01,0.088l-0.099,0.051l-0.14-0.189l0.145-0.496
			c0.013-0.034,0.042-0.095,0.042-0.095s-0.046,0.041-0.072,0.058l-0.191,0.151c-0.038,0.022-0.045,0.041-0.013,0.085l-0.095,0.046
			l-0.158-0.208l0.07-0.085C-11.596,7.886-11.577,7.884-11.539,7.854z"/>
		<path fill="#FFFFFF" d="M-11.343,6.871l0.134,0.27l-0.085,0.065c-0.023-0.046-0.043-0.049-0.083-0.027l-0.424,0.207
			c-0.041,0.022-0.05,0.041-0.024,0.09l-0.107,0.023l-0.133-0.269l0.084-0.07c0.023,0.046,0.044,0.051,0.087,0.03l0.423-0.207
			c0.041-0.022,0.05-0.037,0.027-0.085L-11.343,6.871z"/>
		<path fill="#FFFFFF" d="M-12.301,6.065l0.697,0.062l0.061,0.204l-0.553,0.427c-0.04,0.034-0.044,0.049-0.029,0.094l-0.109,0.006
			l-0.085-0.289l0.096-0.054c0.013,0.046,0.028,0.048,0.065,0.025l0.267-0.201c0.042-0.027,0.136-0.076,0.136-0.076
			s-0.104,0.015-0.158,0.012l-0.334-0.031c-0.045-0.002-0.054,0.017-0.041,0.061l-0.109,0.008l-0.076-0.261l0.095-0.048
			C-12.365,6.048-12.351,6.061-12.301,6.065z"/>
		<path fill="#FFFFFF" d="M-11.788,4.976l0.057,0.624l-0.102,0.034c-0.005-0.054-0.026-0.066-0.071-0.06l-0.471,0.04
			c-0.046,0.005-0.059,0.02-0.055,0.071l-0.107-0.013l-0.053-0.598l0.196-0.017l0.023,0.083c-0.061,0.013-0.074,0.031-0.066,0.124
			l0.012,0.136l0.197-0.017l-0.015-0.126c-0.004-0.053-0.016-0.073-0.055-0.07l0.013-0.086l0.191-0.019l0.031,0.084
			c-0.046,0.005-0.053,0.025-0.047,0.079l0.011,0.126l0.21-0.021l-0.02-0.192c-0.007-0.083-0.03-0.096-0.088-0.102l0.009-0.09
			L-11.788,4.976z"/>
		<path fill="#FFFFFF" d="M-11.701,3.883l-0.027,0.237c-0.126,0.105-0.324-0.002-0.344,0.161l-0.011,0.097l0.155,0.018
			c0.046,0.004,0.063-0.004,0.069-0.057l0.104,0.033l-0.034,0.297L-11.9,4.682c0.008-0.054-0.008-0.065-0.051-0.072l-0.471-0.053
			c-0.042-0.004-0.062,0.006-0.068,0.059l-0.102-0.036l0.046-0.407c0.023-0.196,0.114-0.303,0.266-0.287
			c0.097,0.011,0.159,0.071,0.185,0.175c0.039-0.097,0.133-0.111,0.191-0.117c0.068-0.006,0.089-0.017,0.098-0.078l0.001-0.017
			L-11.701,3.883z M-12.427,4.217l-0.013,0.12l0.231,0.024l0.012-0.116c0.011-0.086-0.028-0.135-0.097-0.145
			C-12.367,4.094-12.417,4.131-12.427,4.217z"/>
		<path fill="#FFFFFF" d="M-11.532,3.364c-0.05,0.15-0.132,0.244-0.175,0.286l-0.154-0.097l0.024-0.069
			c0.095,0,0.157-0.078,0.184-0.157c0.019-0.061,0.011-0.135-0.055-0.156c-0.057-0.018-0.096,0.017-0.159,0.136
			c-0.061,0.123-0.162,0.232-0.318,0.181c-0.15-0.049-0.195-0.212-0.139-0.387c0.042-0.133,0.112-0.224,0.151-0.264l0.144,0.093
			l-0.02,0.069c-0.086,0.008-0.136,0.079-0.155,0.141c-0.022,0.067-0.007,0.126,0.044,0.144c0.052,0.017,0.085-0.021,0.134-0.11
			c0.085-0.161,0.177-0.266,0.348-0.21C-11.513,3.017-11.478,3.195-11.532,3.364z"/>
		<path fill="#FFFFFF" d="M-11.176,2.496l-0.137,0.268l-0.105-0.027c0.023-0.049,0.015-0.066-0.025-0.086l-0.42-0.215
			c-0.042-0.021-0.06-0.019-0.083,0.028l-0.086-0.069l0.141-0.267l0.102,0.028c-0.023,0.045-0.015,0.064,0.025,0.084l0.419,0.215
			c0.041,0.021,0.061,0.019,0.087-0.029L-11.176,2.496z"/>
		<path fill="#FFFFFF" d="M-11.137,1.385c-0.05-0.025-0.082-0.029-0.131,0.041l-0.047,0.064l0.407,0.296
			c0.034,0.028,0.055,0.029,0.085-0.014l0.073,0.082l-0.18,0.24l-0.096-0.044c0.031-0.042,0.023-0.061-0.013-0.088l-0.406-0.297
			l-0.044,0.064c-0.05,0.067-0.039,0.096,0,0.137l-0.066,0.059l-0.147-0.137l0.425-0.582l0.175,0.1L-11.137,1.385z"/>
		<path fill="#FFFFFF" d="M-9.92,1l-0.217,0.203l-0.089-0.063c0.028-0.027,0.03-0.045-0.012-0.068l-0.058-0.029l-0.209,0.197
			L-10.48,1.3c0.019,0.046,0.04,0.039,0.07,0.009l0.057,0.095l-0.185,0.174l-0.089-0.062c0.033-0.034,0.039-0.05,0.019-0.097
			l-0.204-0.478c-0.013-0.031-0.031-0.041-0.069-0.005l-0.054-0.094l0.312-0.292l0.088,0.061c-0.038,0.036-0.033,0.054-0.001,0.069
			l0.465,0.236c0.043,0.022,0.06,0.021,0.096-0.013L-9.92,1z M-10.608,0.868c-0.041-0.024-0.123-0.092-0.123-0.092
			s0.059,0.092,0.079,0.133l0.088,0.205l0.15-0.142L-10.608,0.868z"/>
		<path fill="#FFFFFF" d="M-9.468,0.722c-0.137,0.083-0.261,0.101-0.317,0.105L-9.84,0.654l0.062-0.039
			c0.076,0.063,0.17,0.043,0.243,0c0.052-0.033,0.093-0.094,0.06-0.152c-0.033-0.051-0.084-0.05-0.209,0
			c-0.125,0.052-0.273,0.069-0.359-0.07c-0.085-0.135-0.012-0.287,0.143-0.384c0.119-0.073,0.232-0.097,0.286-0.103l0.051,0.164
			l-0.062,0.038C-9.697,0.06-9.779,0.08-9.836,0.115c-0.062,0.037-0.086,0.092-0.058,0.138c0.03,0.044,0.08,0.042,0.171,0.004
			c0.168-0.067,0.309-0.09,0.402,0.062C-9.228,0.469-9.317,0.628-9.468,0.722z"/>
		<path fill="#FFFFFF" d="M-7.199-0.346C-7.253-0.34-7.263-0.321-7.257-0.278l0.008,0.062c0.005,0.042,0.018,0.051,0.043,0.047
			l-0.007,0.103c-0.114,0.024-0.133,0.073-0.309,0.097C-7.758,0.062-7.97-0.026-8.011-0.323C-8.049-0.598-7.889-0.76-7.633-0.795
			c0.15-0.021,0.271,0.025,0.319,0.046l-0.019,0.185l-0.07,0.01C-7.437-0.636-7.511-0.66-7.597-0.65
			c-0.145,0.021-0.21,0.114-0.187,0.298C-7.76-0.167-7.68-0.096-7.536-0.115c0.034-0.005,0.079-0.022,0.102-0.039l-0.014-0.098
			c-0.005-0.042-0.02-0.058-0.074-0.052l-0.015,0.002l0.008-0.107l0.312-0.042l0.034,0.103L-7.199-0.346z"/>
		<path fill="#FFFFFF" d="M-6.514,0.007c-0.243-0.018-0.405-0.145-0.382-0.448c0.027-0.303,0.205-0.4,0.449-0.382
			c0.25,0.02,0.406,0.145,0.382,0.449C-6.091-0.071-6.267,0.028-6.514,0.007z M-6.459-0.677c-0.125-0.009-0.192,0.056-0.208,0.256
			c-0.016,0.199,0.039,0.274,0.164,0.283c0.128,0.01,0.194-0.055,0.209-0.254C-6.278-0.592-6.331-0.667-6.459-0.677z"/>
		<path fill="#FFFFFF" d="M-5.178-0.34c0.004-0.056-0.003-0.084-0.085-0.107l-0.075-0.02l-0.132,0.486
			c-0.013,0.042-0.005,0.062,0.044,0.076l-0.048,0.097l-0.291-0.079l0.006-0.109c0.051,0.014,0.064,0,0.077-0.042l0.135-0.486
			l-0.076-0.019c-0.084-0.024-0.104-0.002-0.128,0.048L-5.83-0.536l0.073-0.188l0.697,0.19l-0.029,0.2L-5.178-0.34z"/>
		<path fill="#FFFFFF" d="M-4.335,0.694l-0.267-0.136l0.03-0.105c0.047,0.024,0.065,0.013,0.085-0.026l0.085-0.162l-0.272-0.139
			l-0.084,0.163c-0.023,0.039-0.022,0.06,0.025,0.083L-4.8,0.457l-0.266-0.136l0.028-0.105c0.05,0.023,0.065,0.014,0.085-0.025
			l0.211-0.42c0.023-0.04,0.019-0.059-0.029-0.084l0.071-0.084l0.265,0.137l-0.027,0.103c-0.047-0.023-0.064-0.014-0.087,0.027
			l-0.064,0.13l0.272,0.139l0.066-0.13c0.02-0.041,0.017-0.06-0.03-0.084l0.071-0.084l0.263,0.136L-3.996,0.08
			C-4.044,0.056-4.06,0.065-4.083,0.106l-0.213,0.419c-0.019,0.04-0.019,0.059,0.028,0.084L-4.335,0.694z"/>
		<path fill="#FFFFFF" d="M-3.823,1.097C-4.011,0.943-4.074,0.747-3.88,0.512C-3.688,0.276-3.482,0.3-3.295,0.454
			c0.19,0.157,0.25,0.352,0.057,0.587C-3.429,1.275-3.633,1.254-3.823,1.097z M-3.387,0.567c-0.096-0.079-0.188-0.063-0.314,0.09
			C-3.829,0.812-3.828,0.904-3.73,0.984c0.098,0.082,0.19,0.063,0.317-0.09C-3.287,0.738-3.289,0.648-3.387,0.567z"/>
		<path fill="#FFFFFF" d="M-3.079,1.839l-0.25-0.31l0.07-0.084c0.031,0.042,0.056,0.04,0.087,0.013l0.365-0.297
			c0.036-0.029,0.042-0.047,0.01-0.088L-2.7,1.023l0.232,0.288C-2.342,1.467-2.328,1.6-2.439,1.69
			c-0.05,0.04-0.132,0.042-0.195,0.011c0.038,0.101,0.01,0.189-0.062,0.244C-2.813,2.041-2.956,1.992-3.079,1.839z M-2.887,1.507
			l-0.181,0.146l0.071,0.091c0.054,0.069,0.118,0.072,0.173,0.029c0.054-0.044,0.061-0.11,0.004-0.183L-2.887,1.507z M-2.786,1.427
			l0.061,0.076c0.05,0.062,0.105,0.065,0.148,0.029c0.046-0.036,0.054-0.085,0-0.149l-0.059-0.077L-2.786,1.427z"/>
		<path fill="#FFFFFF" d="M-1.831,2.675l-0.333,0.17c-0.152,0.077-0.314,0.001-0.414-0.196c-0.099-0.199-0.07-0.373,0.083-0.451
			l0.334-0.171c0.041-0.019,0.05-0.037,0.026-0.085l0.105-0.028l0.141,0.274l-0.086,0.07c-0.023-0.046-0.042-0.05-0.083-0.029
			l-0.334,0.17c-0.068,0.035-0.091,0.101-0.045,0.189c0.046,0.091,0.114,0.112,0.18,0.079l0.336-0.171
			c0.042-0.021,0.05-0.039,0.026-0.085l0.105-0.028l0.127,0.249l-0.083,0.072C-1.772,2.656-1.789,2.653-1.831,2.675z"/>
		<path fill="#FFFFFF" d="M-2.092,4.01l-0.061-0.232c0.08-0.143,0.303-0.115,0.262-0.271l-0.025-0.095l-0.15,0.039
			c-0.041,0.011-0.057,0.026-0.041,0.076l-0.11,0.007l-0.077-0.291l0.097-0.048c0.013,0.051,0.034,0.058,0.076,0.047l0.457-0.122
			c0.043-0.009,0.057-0.026,0.043-0.077l0.108-0.004l0.107,0.396c0.05,0.192,0.001,0.325-0.146,0.363
			c-0.094,0.025-0.175-0.008-0.237-0.096c0,0.104-0.085,0.152-0.137,0.178c-0.059,0.031-0.078,0.048-0.06,0.107l0.004,0.019
			L-2.092,4.01z M-1.533,3.435l-0.032-0.117l-0.224,0.059l0.029,0.114c0.023,0.085,0.077,0.117,0.143,0.099
			C-1.547,3.572-1.513,3.52-1.533,3.435z"/>
		<path fill="#FFFFFF" d="M-1.704,5.003c-0.003-0.054-0.02-0.066-0.064-0.065l-0.063,0.004c-0.041,0.002-0.05,0.013-0.049,0.04
			l-0.104-0.017c-0.013-0.115-0.062-0.142-0.07-0.316c-0.013-0.237,0.093-0.444,0.393-0.459c0.276-0.014,0.429,0.159,0.438,0.418
			c0.008,0.153-0.047,0.267-0.072,0.315l-0.182-0.036l-0.004-0.07c0.085-0.028,0.112-0.101,0.111-0.186
			c-0.008-0.146-0.096-0.222-0.28-0.212c-0.188,0.01-0.264,0.08-0.257,0.226c0.003,0.037,0.014,0.079,0.03,0.104l0.097-0.004
			c0.042-0.003,0.058-0.014,0.057-0.071V4.66l0.108,0.016l0.016,0.312l-0.103,0.027L-1.704,5.003z"/>
		<path fill="#FFFFFF" d="M-2.143,5.913l0.094-0.62l0.11-0.005c-0.01,0.05,0.007,0.064,0.05,0.07l0.467,0.072
			c0.043,0.007,0.063-0.002,0.07-0.055l0.103,0.039l-0.09,0.592l-0.19-0.028l-0.003-0.085c0.062,0,0.08-0.015,0.091-0.104
			l0.024-0.138l-0.196-0.031L-1.632,5.75c-0.01,0.051-0.003,0.07,0.04,0.074l-0.035,0.084l-0.19-0.029l-0.008-0.088
			c0.039,0.006,0.052-0.01,0.062-0.064l0.019-0.124l-0.211-0.033l-0.028,0.188c-0.013,0.086,0.006,0.108,0.063,0.124l-0.032,0.085
			L-2.143,5.913z"/>
		<path fill="#FFFFFF" d="M-1.88,7.139l-0.602-0.229l0.057-0.15l0.546-0.156c0.036-0.01,0.102-0.018,0.102-0.018
			s-0.062-0.018-0.088-0.023L-2.13,6.459c-0.04-0.016-0.062-0.014-0.079,0.038l-0.092-0.058l0.092-0.242L-2.1,6.216
			c-0.021,0.046-0.007,0.062,0.034,0.078l0.439,0.165c0.043,0.019,0.062,0.015,0.081-0.036l0.092,0.061l-0.082,0.215l-0.495,0.144
			C-2.07,6.853-2.136,6.855-2.136,6.855s0.062,0.02,0.093,0.029l0.227,0.086c0.041,0.016,0.061,0.012,0.08-0.035l0.092,0.058
			l-0.092,0.24l-0.108-0.015C-1.826,7.171-1.838,7.153-1.88,7.139z"/>
		<path fill="#FFFFFF" d="M-2.794,7.435c0.083-0.132,0.187-0.203,0.239-0.231l0.123,0.131l-0.04,0.062
			c-0.091-0.027-0.171,0.031-0.213,0.105c-0.034,0.056-0.044,0.13,0.014,0.161c0.048,0.036,0.093,0.01,0.183-0.09
			c0.092-0.102,0.216-0.185,0.355-0.092c0.138,0.084,0.138,0.256,0.038,0.405c-0.073,0.116-0.163,0.188-0.212,0.216l-0.115-0.12
			l0.038-0.061c0.083,0.01,0.147-0.043,0.185-0.097c0.039-0.061,0.039-0.122-0.009-0.154c-0.045-0.027-0.089,0-0.156,0.072
			C-2.486,7.88-2.601,7.956-2.755,7.863C-2.901,7.77-2.891,7.589-2.794,7.435z"/>
		<path fill="#FFFFFF" d="M-3.367,8.197l0.201-0.228l0.095,0.058c-0.035,0.036-0.033,0.06,0.004,0.09l0.351,0.312
			c0.035,0.031,0.055,0.033,0.089-0.006l0.065,0.088l-0.201,0.227l-0.093-0.058c0.033-0.04,0.029-0.061-0.002-0.087l-0.354-0.314
			c-0.034-0.032-0.056-0.034-0.088,0.006L-3.367,8.197z"/>
		<path fill="#FFFFFF" d="M-3.869,8.639c0.124-0.099,0.245-0.136,0.303-0.144l0.076,0.164l-0.058,0.044
			c-0.081-0.052-0.173-0.019-0.24,0.035c-0.049,0.039-0.083,0.104-0.041,0.156c0.035,0.047,0.086,0.038,0.204-0.029
			c0.122-0.062,0.267-0.101,0.37,0.029c0.097,0.125,0.042,0.282-0.099,0.399C-3.461,9.383-3.57,9.417-3.626,9.432l-0.069-0.157
			l0.058-0.044c0.074,0.036,0.155,0.005,0.208-0.034c0.055-0.042,0.074-0.1,0.038-0.143c-0.031-0.041-0.081-0.03-0.168,0.016
			c-0.159,0.087-0.295,0.125-0.409-0.013C-4.078,8.919-4.007,8.749-3.869,8.639z"/>
		<path fill="#FFFFFF" d="M-8.218,10.415l-0.402-0.112l0.01-0.107l0.048,0.014c0.054,0.014,0.073,0.002,0.085-0.043l0.116-0.41
			C-8.39,9.773-8.438,9.782-8.52,9.765l0.034-0.12c0.088,0.003,0.14-0.008,0.23-0.089l0.164,0.048l-0.176,0.619
			c-0.015,0.044-0.002,0.064,0.049,0.082l0.051,0.016L-8.218,10.415z"/>
		<path fill="#FFFFFF" d="M-7.451,10.553c-0.221-0.021-0.353-0.124-0.341-0.258c0.011-0.113,0.111-0.17,0.219-0.208
			c-0.089-0.052-0.161-0.112-0.154-0.204c0.012-0.12,0.151-0.189,0.356-0.17c0.2,0.023,0.325,0.111,0.317,0.236
			c-0.012,0.089-0.093,0.138-0.19,0.17c0.101,0.053,0.188,0.126,0.175,0.242C-7.082,10.499-7.234,10.573-7.451,10.553z
			 M-7.415,10.172c-0.089,0.033-0.154,0.077-0.161,0.142c-0.009,0.06,0.049,0.107,0.138,0.115c0.081,0.012,0.152-0.027,0.155-0.086
			C-7.275,10.276-7.334,10.22-7.415,10.172z M-7.383,9.839c-0.073-0.01-0.124,0.017-0.128,0.066
			c-0.005,0.055,0.038,0.101,0.109,0.136c0.073-0.027,0.125-0.061,0.129-0.112C-7.267,9.878-7.314,9.844-7.383,9.839z"/>
		<path fill="#FFFFFF" d="M-6.435,10.556c-0.052,0.004-0.155-0.005-0.191-0.023l-0.01-0.117c0.039,0.014,0.096,0.018,0.145,0.014
			c0.146-0.016,0.225-0.087,0.247-0.231c-0.027,0.046-0.101,0.085-0.181,0.092c-0.2,0.021-0.321-0.084-0.337-0.248
			C-6.779,9.87-6.656,9.733-6.445,9.72c0.249-0.026,0.375,0.124,0.396,0.338C-6.023,10.308-6.134,10.529-6.435,10.556z
			 M-6.433,9.844c-0.095,0.014-0.145,0.083-0.135,0.178c0.008,0.091,0.065,0.147,0.158,0.139c0.085-0.005,0.158-0.068,0.144-0.173
			C-6.271,9.916-6.317,9.836-6.433,9.844z"/>
		<path fill="#FFFFFF" d="M-5.168,10.303l-0.403,0.104l-0.048-0.097l0.05-0.014c0.054-0.015,0.064-0.03,0.051-0.077l-0.111-0.41
			C-5.643,9.839-5.685,9.867-5.76,9.897l-0.03-0.118c0.077-0.04,0.119-0.081,0.151-0.196l0.165-0.043l0.166,0.624
			c0.011,0.045,0.031,0.054,0.082,0.041l0.053-0.016L-5.168,10.303z"/>
	</g>
	<g>
		<path fill="#FFFFFF" d="M2.266,5.489c0-0.201,0.005-0.321,0.005-0.84c0-0.415-0.005-0.746-0.009-1.22L2.237,3.409L1.734,3.383
			v-0.18H3.24v0.178L2.812,3.407L2.792,3.428C2.786,3.824,2.782,4.674,2.782,5.469c0,0.662,0.15,1.108,0.848,1.108
			c0.731,0,0.944-0.429,0.944-1.208c0-0.684-0.01-1.426-0.024-1.941l-0.02-0.021L4.047,3.381V3.203h1.394v0.178L4.926,3.407
			L4.904,3.428C4.886,3.992,4.886,4.765,4.893,5.415c0.003,0.906-0.42,1.386-1.302,1.386C2.724,6.801,2.266,6.358,2.266,5.489z"/>
		<path fill="#FFFFFF" d="M5.809,6.569l0.517-0.028l0.02-0.018c0.015-0.562,0.015-0.977,0.015-1.502c0-0.527,0-0.813-0.015-1.593
			L6.324,3.406L5.808,3.38V3.203h1.006c0.642,0.897,1.37,1.95,1.899,2.702h0.011C8.713,4.896,8.7,3.943,8.691,3.428l-0.02-0.021
			L8.188,3.381V3.203H9.58v0.178L9.064,3.407L9.04,3.428C9.024,3.992,9.024,4.406,9.024,5.727v1.051H8.769
			C8.114,5.854,7.338,4.765,6.673,3.818H6.664c0.007,1.23,0.023,2.18,0.034,2.705l0.021,0.021l0.483,0.027v0.18H5.809V6.569
			L5.809,6.569z"/>
		<path fill="#FFFFFF" d="M9.945,6.569l0.516-0.028l0.02-0.018C10.494,6.361,10.5,5.65,10.5,4.941s-0.005-1.335-0.019-1.515
			l-0.02-0.021L9.945,3.38V3.203h1.6v0.178l-0.511,0.026l-0.019,0.021C11,3.572,10.996,4.302,10.996,5.011
			c0,0.712,0.012,1.335,0.019,1.514l0.019,0.021l0.511,0.03v0.178h-1.6V6.569z"/>
		<path fill="#FFFFFF" d="M12.148,3.398l-0.315-0.018V3.203h1.377v0.178l-0.467,0.021l-0.023,0.021
			c0.294,0.761,0.64,1.682,0.988,2.569h0.012c0.257-0.716,0.704-1.986,0.878-2.576l-0.015-0.014l-0.429-0.021V3.203h1.161v0.178
			l-0.303,0.018c-0.275,0.693-0.905,2.328-1.32,3.402h-0.142C13.01,5.489,12.541,4.344,12.148,3.398z"/>
		<path fill="#FFFFFF" d="M15.606,6.569l0.517-0.028l0.021-0.018c0.005-0.242,0.016-0.873,0.016-1.582s-0.011-1.303-0.016-1.515
			l-0.023-0.021L15.605,3.38V3.203h2.31l0.202-0.089h0.077l0.038,1.15h-0.105c-0.187-0.53-0.355-0.792-0.441-0.799L16.69,3.414
			l-0.018,0.025c-0.004,0.242-0.015,0.799-0.015,1.387c0.236,0,0.751-0.015,0.888-0.026l0.024-0.021l0.188-0.367h0.1
			c-0.01,0.146-0.014,0.373-0.014,0.516c0,0.137,0.004,0.431,0.014,0.587h-0.1L17.57,5.077l-0.024-0.021
			c-0.164-0.005-0.631-0.015-0.888-0.015c0,0.667,0.011,1.204,0.015,1.468l0.018,0.029l1.072-0.056
			c0.086-0.007,0.326-0.223,0.515-0.842h0.121c-0.067,1.025-0.083,1.105-0.173,1.105h-2.619L15.606,6.569L15.606,6.569z"/>
		<path fill="#FFFFFF" d="M18.924,6.569l0.526-0.028l0.021-0.018c0.005-0.151,0.016-0.873,0.016-1.582s-0.009-1.279-0.016-1.515
			l-0.023-0.021L18.922,3.38V3.203c0.473,0,0.978-0.011,1.248-0.011c0.414,0,0.657,0.026,0.853,0.084
			c0.501,0.15,0.721,0.478,0.721,0.836c0,0.519-0.352,0.768-0.781,0.903v0.011c0.136,0.156,0.373,0.588,0.676,1.122
			c0.135,0.235,0.26,0.407,0.432,0.415l0.114,0.006v0.178h-0.787l-0.019-0.016c-0.197-0.394-0.332-0.715-0.664-1.306
			c-0.068-0.121-0.131-0.22-0.208-0.311c-0.19,0.027-0.37,0.037-0.521,0.037c-0.009,0.625,0.01,1.215,0.016,1.37l0.019,0.021
			l0.487,0.028v0.18h-1.583V6.569H18.924z M21.178,4.118c0-0.29-0.127-0.503-0.364-0.615c-0.131-0.064-0.293-0.1-0.625-0.1h-0.172
			l-0.015,0.016c-0.006,0.227-0.01,0.916-0.016,1.53C20.901,4.922,21.178,4.628,21.178,4.118z"/>
		<path fill="#FFFFFF" d="M22.767,5.642h0.12c0.185,0.667,0.484,0.945,0.852,0.945c0.43,0,0.704-0.287,0.704-0.665
			c0-0.917-1.613-0.685-1.613-1.842c0-0.488,0.385-0.936,1.05-0.936c0.344,0,0.616,0.105,0.674,0.12l0.158-0.152h0.097l0.032,1.152
			h-0.108c-0.221-0.641-0.509-0.903-0.868-0.903c-0.309,0-0.577,0.205-0.577,0.551c0,0.877,1.64,0.743,1.64,1.848
			c0,0.533-0.396,1.041-1.22,1.041c-0.227,0-0.49-0.054-0.723-0.203l-0.106,0.203h-0.111L22.767,5.642L22.767,5.642z"/>
		<path fill="#FFFFFF" d="M25.532,6.569l0.517-0.028l0.019-0.018c0.009-0.162,0.019-0.873,0.019-1.582s-0.008-1.335-0.019-1.515
			l-0.019-0.021L25.532,3.38V3.203h1.597v0.178l-0.51,0.026l-0.021,0.021c-0.011,0.144-0.015,0.874-0.015,1.583
			c0,0.712,0.009,1.335,0.015,1.514l0.023,0.021l0.509,0.03v0.178h-1.596V6.569H25.532z"/>
		<path fill="#FFFFFF" d="M28.223,6.569l0.56-0.028l0.023-0.018c0.006-0.194,0.015-0.873,0.015-1.582s0-1.293-0.015-1.477
			L28.79,3.438h-0.624c-0.113,0-0.246,0.189-0.459,0.826h-0.104l0.042-1.152h0.09l0.154,0.09h2.359l0.154-0.09h0.09l0.044,1.152
			h-0.099c-0.221-0.641-0.348-0.826-0.459-0.826h-0.625l-0.016,0.026c-0.004,0.127-0.014,0.835-0.014,1.546s0.009,1.324,0.014,1.513
			l0.022,0.021l0.577,0.027v0.18h-1.71V6.569H28.223z"/>
		<path fill="#FFFFFF" d="M31.88,6.569l0.521-0.028l0.022-0.018c0.01-0.393,0.016-0.634,0.016-1.355
			c-0.438-0.661-0.916-1.423-1.151-1.77l-0.351-0.018V3.203h1.338v0.178l-0.378,0.021l-0.023,0.021
			c0.259,0.431,0.62,1.036,0.899,1.467h0.01c0.289-0.51,0.627-1.129,0.795-1.472l-0.015-0.016l-0.371-0.021V3.203h1.137v0.178
			l-0.323,0.018c-0.303,0.445-0.702,1.15-1.069,1.755c0,0.723,0.011,0.898,0.017,1.372l0.02,0.019l0.538,0.027v0.18H31.88V6.569
			L31.88,6.569z"/>
		<path fill="#FFFFFF" d="M35.829,5.026c0-1.194,0.731-1.881,1.66-1.881c1.047,0,1.65,0.736,1.65,1.778
			c0,1.19-0.729,1.878-1.659,1.878C36.433,6.801,35.829,6.069,35.829,5.026z M38.572,4.975c0-1.063-0.416-1.594-1.083-1.594
			c-0.666,0-1.092,0.531-1.092,1.594c0,1.063,0.413,1.589,1.081,1.589C38.145,6.563,38.572,6.038,38.572,4.975z"/>
		<path fill="#FFFFFF" d="M39.668,6.569l0.515-0.028l0.022-0.025c0.005-0.181,0.015-0.865,0.015-1.574s-0.01-1.33-0.015-1.515
			l-0.022-0.021L39.668,3.38V3.203h2.316l0.202-0.089h0.082l0.034,1.15h-0.104c-0.19-0.53-0.359-0.799-0.445-0.803l-1.008-0.047
			l-0.015,0.025c-0.005,0.153-0.015,0.799-0.015,1.387c0.235,0,0.751-0.015,0.877-0.026l0.021-0.021l0.192-0.367h0.098
			c-0.005,0.146-0.01,0.373-0.01,0.516c0,0.137,0.005,0.468,0.01,0.625h-0.098l-0.202-0.476l-0.021-0.019
			c-0.153-0.005-0.609-0.017-0.867-0.017c0,0.667,0,1.264,0.015,1.474l0.021,0.025l0.568,0.028v0.178h-1.653V6.569L39.668,6.569z"/>
		<path fill="#FFFFFF" d="M43.987,4.975c0-1.151,0.777-1.831,1.802-1.831c0.391,0,0.616,0.063,0.816,0.121l0.175-0.153h0.079
			l0.035,1.151h-0.111c-0.261-0.704-0.635-0.903-1.024-0.903c-0.61,0-1.202,0.457-1.202,1.56c0,0.862,0.431,1.644,1.323,1.644
			c0.256,0,0.535-0.074,0.535-0.156c0-0.18,0.006-0.657-0.01-1.062l-0.022-0.021l-0.516-0.025V5.121h1.473v0.178l-0.38,0.027
			l-0.021,0.021c-0.011,0.337-0.014,0.716-0.011,1.12c-0.062,0.131-0.567,0.334-1.097,0.334C44.76,6.801,43.987,6.133,43.987,4.975z
			"/>
		<path fill="#FFFFFF" d="M47.921,5.026c0-1.194,0.73-1.881,1.659-1.881c1.047,0,1.651,0.736,1.651,1.778
			c0,1.19-0.73,1.878-1.66,1.878C48.525,6.801,47.921,6.069,47.921,5.026z M50.665,4.975c0-1.063-0.418-1.594-1.085-1.594
			c-0.668,0-1.092,0.531-1.092,1.594c0,1.063,0.414,1.589,1.083,1.589C50.239,6.563,50.665,6.038,50.665,4.975z"/>
		<path fill="#FFFFFF" d="M52.482,6.569l0.562-0.028l0.021-0.018c0.009-0.194,0.018-0.873,0.018-1.582s0-1.293-0.018-1.477
			L53.05,3.438h-0.624c-0.111,0-0.244,0.189-0.458,0.826h-0.104l0.04-1.152h0.094l0.153,0.09h2.358l0.151-0.09h0.095l0.043,1.152
			h-0.106c-0.22-0.641-0.347-0.826-0.458-0.826h-0.626l-0.01,0.026c-0.004,0.127-0.018,0.835-0.018,1.546s0.014,1.324,0.018,1.513
			l0.021,0.021l0.578,0.027v0.18h-1.714L52.482,6.569L52.482,6.569z"/>
		<path fill="#FFFFFF" d="M55.275,6.569l0.515-0.028l0.021-0.018c0.003-0.199,0.014-0.873,0.014-1.582s-0.011-1.352-0.014-1.515
			L55.79,3.406L55.275,3.38V3.203h1.521v0.178l-0.432,0.026l-0.023,0.021c-0.011,0.165-0.018,0.783-0.018,1.373h1.74
			c0.007-0.651-0.012-1.251-0.016-1.373l-0.021-0.021L57.59,3.381V3.203h1.525v0.178l-0.517,0.026l-0.023,0.021
			c-0.004,0.159-0.016,0.874-0.016,1.583c0,0.712,0.012,1.283,0.016,1.514l0.023,0.021l0.517,0.03v0.178H57.59V6.569l0.438-0.028
			l0.021-0.018c0.004-0.18,0.016-0.831,0.016-1.45h-1.74c0,0.669,0.007,1.15,0.018,1.45l0.023,0.021l0.432,0.027v0.18h-1.521V6.569z
			"/>
		<path fill="#FFFFFF" d="M59.484,6.569l0.514-0.028l0.022-0.018c0.006-0.242,0.019-0.873,0.019-1.582s-0.013-1.303-0.019-1.515
			l-0.022-0.021L59.484,3.38V3.203h2.308l0.204-0.089h0.079l0.035,1.15h-0.103c-0.189-0.53-0.358-0.792-0.448-0.799l-0.992-0.051
			l-0.016,0.025c-0.009,0.242-0.021,0.799-0.021,1.387c0.238,0,0.753-0.015,0.894-0.026l0.021-0.021l0.188-0.367h0.1
			c-0.007,0.146-0.01,0.373-0.01,0.516c0,0.137,0.005,0.431,0.01,0.587h-0.1l-0.188-0.438l-0.021-0.021
			c-0.163-0.005-0.632-0.015-0.894-0.015c0,0.667,0.012,1.204,0.021,1.468l0.016,0.029l1.069-0.056
			c0.087-0.007,0.325-0.223,0.516-0.842h0.119c-0.067,1.025-0.081,1.105-0.172,1.105h-2.617L59.484,6.569L59.484,6.569z"/>
		<path fill="#FFFFFF" d="M62.802,6.569l0.516-0.028l0.021-0.018c0.015-0.562,0.015-0.977,0.015-1.502c0-0.527,0-0.813-0.015-1.593
			l-0.021-0.022L62.802,3.38V3.203h1.003c0.641,0.897,1.37,1.95,1.898,2.702h0.011c-0.011-1.01-0.022-1.962-0.03-2.477l-0.024-0.021
			l-0.484-0.026V3.203h1.394v0.178l-0.514,0.026l-0.021,0.021c-0.015,0.563-0.015,0.978-0.015,2.298v1.051h-0.261
			c-0.651-0.924-1.429-2.013-2.092-2.959h-0.012c0.007,1.23,0.023,2.18,0.031,2.705l0.021,0.021l0.483,0.027v0.18h-1.39V6.569
			H62.802z"/>
		<path fill="#FFFFFF" d="M66.936,6.569l0.517-0.028l0.022-0.018c0.005-0.186,0.014-0.873,0.014-1.582s-0.009-1.283-0.014-1.515
			l-0.024-0.021L66.934,3.38V3.203c0.391,0,0.837-0.011,1.147-0.011c0.385,0,0.679,0.031,0.913,0.105
			c0.42,0.131,0.668,0.4,0.668,0.783c0,0.451-0.299,0.72-0.644,0.804v0.012c0.557,0.026,0.891,0.352,0.891,0.777
			c0,0.717-0.643,1.091-1.661,1.091c-0.343,0-0.891-0.017-1.314-0.017L66.936,6.569L66.936,6.569z M68.323,4.816
			c0.616,0,0.776-0.296,0.776-0.699c0-0.28-0.102-0.49-0.316-0.601c-0.139-0.073-0.33-0.114-0.619-0.114
			c-0.03,0-0.086,0-0.141,0.004l-0.021,0.026c-0.002,0.274-0.02,0.79-0.013,1.382L68.323,4.816L68.323,4.816z M69.344,5.742
			c0-0.5-0.339-0.696-0.804-0.696h-0.55c-0.005,0.668,0.011,1.2,0.016,1.478l0.029,0.021c0.097,0.01,0.195,0.01,0.259,0.01
			C68.998,6.554,69.344,6.259,69.344,5.742z"/>
		<path fill="#FFFFFF" d="M70.97,5.489c0-0.201,0.007-0.321,0.007-0.84c0-0.415-0.007-0.746-0.015-1.22l-0.02-0.022l-0.504-0.026
			V3.203h1.504v0.178l-0.426,0.026l-0.021,0.021c-0.007,0.396-0.016,1.246-0.016,2.041c0,0.662,0.154,1.108,0.854,1.108
			c0.728,0,0.942-0.429,0.942-1.208c0-0.684-0.016-1.426-0.023-1.941l-0.019-0.021l-0.485-0.026V3.203h1.394v0.178l-0.516,0.026
			l-0.021,0.021c-0.018,0.563-0.018,1.336-0.012,1.987c0.007,0.906-0.42,1.386-1.299,1.386C71.428,6.801,70.97,6.358,70.97,5.489z"
			/>
		<path fill="#FFFFFF" d="M74.513,6.569l0.526-0.028l0.021-0.018c0.006-0.151,0.015-0.873,0.015-1.582s-0.009-1.279-0.015-1.515
			l-0.023-0.021L74.512,3.38V3.203c0.472,0,0.978-0.011,1.244-0.011c0.414,0,0.656,0.026,0.853,0.084
			c0.501,0.15,0.723,0.478,0.723,0.836c0,0.519-0.353,0.768-0.781,0.903v0.011c0.136,0.156,0.373,0.588,0.678,1.122
			c0.132,0.235,0.259,0.407,0.432,0.415l0.115,0.006v0.178h-0.788l-0.021-0.016c-0.195-0.394-0.331-0.715-0.662-1.306
			c-0.066-0.121-0.132-0.22-0.206-0.311c-0.193,0.027-0.371,0.037-0.521,0.037c-0.007,0.626,0.007,1.216,0.014,1.371l0.02,0.021
			l0.487,0.027v0.18h-1.583V6.569H74.513z M76.769,4.118c0-0.29-0.129-0.503-0.365-0.615c-0.13-0.064-0.294-0.101-0.624-0.101
			h-0.174l-0.015,0.016c-0.007,0.226-0.012,0.916-0.017,1.531C76.488,4.922,76.769,4.628,76.769,4.118z"/>
		<path fill="#FFFFFF" d="M78.225,4.975c0-1.151,0.774-1.831,1.803-1.831c0.389,0,0.615,0.063,0.816,0.121l0.171-0.153h0.083
			l0.034,1.151h-0.11C80.76,3.559,80.385,3.36,79.997,3.36c-0.607,0-1.2,0.457-1.2,1.56c0,0.862,0.43,1.644,1.323,1.644
			c0.258,0,0.536-0.074,0.536-0.156c0-0.18,0.006-0.657-0.01-1.062l-0.024-0.021l-0.516-0.025V5.121h1.472v0.178L81.2,5.326
			l-0.022,0.021c-0.01,0.337-0.017,0.716-0.01,1.12c-0.062,0.131-0.567,0.334-1.099,0.334C78.997,6.801,78.225,6.133,78.225,4.975z"
			/>
	</g>
</g>
</svg>
