<?xml version="1.0" encoding="utf-8"?>
<!-- Generator: Adobe Illustrator 16.0.0, SVG Export Plug-In . SVG Version: 6.00 Build 0)  -->
<!DOCTYPE svg PUBLIC "-//W3C//DTD SVG 1.1//EN" "http://www.w3.org/Graphics/SVG/1.1/DTD/svg11.dtd">
<svg version="1.1" id="eng_neg" xmlns="http://www.w3.org/2000/svg" xmlns:xlink="http://www.w3.org/1999/xlink" x="0px" y="0px"
	 width="90px" height="70px" viewBox="27.996 21.5 90 70" enable-background="new 27.996 21.5 90 70" xml:space="preserve">
<g>
	<g>
		<path d="M63.462,31.667c-2.659,2.549-4.166,5.976-4.244,9.659c-0.167,7.599,5.884,13.916,13.484,14.083
			c3.68,0.079,7.172-1.278,9.832-3.826c2.662-2.549,4.168-5.978,4.246-9.659c0.166-7.6-5.884-13.918-13.484-14.083
			C69.617,27.761,66.125,29.12,63.462,31.667z M72.725,54.357c-7.024-0.15-12.612-5.987-12.46-13.01
			c0.074-3.4,1.468-6.572,3.924-8.926c2.458-2.354,5.686-3.607,9.087-3.535c7.022,0.151,12.611,5.99,12.458,13.012
			c-0.072,3.401-1.466,6.572-3.924,8.925C79.352,53.18,76.125,54.434,72.725,54.357z"/>
		<path d="M60.119,28.173c-3.594,3.441-5.631,8.073-5.74,13.048c-0.222,10.27,7.949,18.803,18.22,19.025
			c10.267,0.223,18.798-7.952,19.021-18.219l0,0c0.105-4.973-1.729-9.692-5.168-13.283c-3.44-3.594-8.076-5.633-13.049-5.74
			C68.428,22.898,63.71,24.732,60.119,28.173z M72.617,59.402c-9.807-0.211-17.608-8.359-17.395-18.163
			c0.103-4.748,2.046-9.173,5.479-12.458c3.43-3.286,7.935-5.035,12.686-4.936c4.748,0.103,9.17,2.049,12.458,5.479
			c3.284,3.43,5.036,7.936,4.937,12.684l0,0C90.565,51.812,82.416,59.617,72.617,59.402z"/>
		<path d="M76.705,52.7c-6.914,1.239-12.455-1.451-13.469-4.77c-0.656-2.146,0.297-2.613,0.448-4.165
			c-1.194,0.638-1.417-1.022-0.36-1.164c1.121-0.151,1.619,1.024,1.077,2.588c-0.784,2.246,0.591,3.289,0.976,3.174
			c0.019-0.118,0.16-0.403,0.225-0.531c-0.938-1.203-0.545-2.957,1.059-3.1c0.652-0.059,0.588,0.418,0.133,0.481
			c-1.231,0.18-1.17,1.556-0.66,1.729c0.09,0,0.195-0.021,0.287-0.113c-0.021-0.278,0.172-0.679,0.49-0.6
			c0.709,0.179,0.438,1.082-0.047,1.155c-0.184,0.558-0.533,1.333-0.457,1.736c0.073,0.401,0.354,0.48,0.586,0.247
			c0.17-0.17,0.254-0.586,0.364-1.035c-0.118-0.508,0.128-0.893,0.56-0.71c0.299,0.126,0.334,0.584,0.039,0.939
			c-0.039,0.438-0.229,0.932-0.187,1.266c0.041,0.334,0.497,0.312,0.663,0.129c0.166-0.181,0.337-1.361,0.4-1.623
			c-0.256-0.228-0.154-0.925,0.373-0.967c0.619-0.048,0.476,0.794,0.301,1.007c0.173,0.658-0.109,1.399,0.018,1.692
			c0.126,0.294,0.607,0.363,0.828,0.125c0.217-0.243-0.057-0.749,0.062-1.342c-0.207-0.513,0.035-0.923,0.34-0.945
			c0.69-0.054,0.496,0.567,0.367,1.004c0.035,0.449,0.11,0.982,0.268,1.394c0.1,0.271,0.542,0.329,0.689-0.017
			c0.092-0.212-0.119-0.825-0.166-1.256c-0.302-0.696-0.049-0.885,0.223-0.907c0.252-0.021,0.601,0.122,0.555,0.811
			c0.137,0.462,0.258,1.021,0.43,1.388c0.078,0.291,0.435,0.32,0.547,0.019c0.109-0.302-0.099-0.657-0.319-1.144
			c-0.496-0.48-0.046-0.852,0.237-0.875c0.281-0.022,0.724,0.053,0.631,0.804c0.154,0.455,0.255,0.869,0.354,1.111
			c0.119,0.279,0.505,0.312,0.671,0.129c0.166-0.185-0.15-0.505-0.234-0.899c-0.375-0.362-0.307-0.859,0.121-0.895
			c0.217-0.019,0.643,0.007,0.603,0.644c0.128,0.275,0.13,0.627,0.313,0.928c0.223,0.364,0.566,0.228,0.705-0.1
			c0.133-0.331-0.722-1.289-0.053-1.341c0.67-0.055,0.787,0.825,1.004,1.035c0.217,0.208,0.385,0.069,0.486-0.045
			c0.176-0.194-0.291-0.718,0.034-0.868c0.657-0.303,0.646,0.448,1.112,0.457c2.035,0.031,3.639-3.312,3.399-4.253
			c-0.683-0.405-0.442-1.414,0.128-1.424c1.404-0.024,1.206,1.957,0.143,4.259C81.601,50.883,78.169,52.437,76.705,52.7z"/>
		<path d="M79.671,36.814c-0.021-0.008-0.027-0.047-0.021-0.063c0.312-1.209,0.542-1.74,0.656-2.942
			c0.027-0.287-0.178-0.521-0.369-0.568c-0.744-0.186-1.087-0.18-1.377-0.201c-0.029-0.001-0.098-0.018-0.12-0.059
			c-0.086-0.174-0.212-0.699-0.214-0.967c0.434-0.921-0.341-1.24-1.073-1.228c-0.479-0.022-0.971,0.198-1.026,0.558
			c-0.064,0.698,0.705,0.951,0.979,0.977c0.048,0.099,0.161,0.587,0.179,0.777c0.004,0.026-0.021,0.055-0.055,0.055
			c-1.236,0.021-2.835,0.238-3.648,0.302c-0.117,0.019-0.172-0.05-0.197-0.117c-0.15-0.418-0.793-2.383,0.416-2.345
			c0.715,0.023,1.314-0.562,0.637-1.01c-0.176-0.116-1.092-0.229-1.588-0.142c-0.41,0.072-0.609,0.533-0.559,0.938
			c0.08,0.636-1.5,0.701-1.969,0.512c-0.334-0.134-0.744-0.533-0.888-0.79c-0.306-0.543-0.831-0.128-0.733,0.162
			c0.653,1.978,2.746,1.663,3.293,1.692c0.024,0,0.074,0.035,0.076,0.052c0.131,0.714,0.562,1.466,0.561,1.745
			c-0.262,0.291-0.151,0.91,0.215,1.016c-0.449,0.43-0.648,1.936-0.577,3.184c0.092,1.59,0.733,3.133,1.747,2.965
			c1.283-0.209,0.779-3.184,1.09-3.438c0.155-0.126,0.572-0.092,0.725-0.071c0.037,0.004,0.056,0.045,0.053,0.062
			c-0.1,1.166-0.379,3.038-0.446,3.537c-0.069,0.51-0.11,0.771,0.146,1.242c0.283,0.519,0.799,2.163,0.197,3.905
			c-0.02,0.066-0.076,0.09-0.095,0.092c-0.543,0.126-0.834,0.294-1.032,0.431c-0.216,0.146-0.445,0.449-0.289,0.634
			c0.229,0.208,1.694,0.128,2.147-0.551c0.013-0.016,0.043-0.081,0.049-0.092c0.157-0.438,0.353-0.757,0.499-1.037
			c0.678-1.294,0.775-2.882-0.152-3.597c-0.261-0.203-0.527-0.393-0.271-0.896c0.49-0.975,0.539-2.035,0.604-2.932
			c0.023-0.359,0.625-0.568,0.852-0.229c0.562,1.334,0.121,2.482,0.111,2.957c-0.011,0.475,0.17,0.691,0.23,0.975
			c0.384,1.738,0.189,3.144-0.158,4.938c-0.002,0.038-0.031,0.063-0.064,0.076c-0.408,0.137-0.658,0.222-0.914,0.4
			c-0.258,0.181-0.356,0.411-0.244,0.536c0.341,0.388,1.883-0.032,2-0.474c0.289-1.099,2.369-3.646,0.922-5.273
			c-0.659-0.742-0.659-0.445-0.667-0.82c-0.005-0.178,0.414-1.164,0.519-1.928c0.11-0.793-0.408-1.549-0.279-1.988
			c0.004-0.012,0.037-0.033,0.052-0.03c0.215,0.041,0.723,0.176,1.052,0.364c0.102,0.057,0.279,0.013,0.305-0.381
			C80.972,37.307,79.887,36.895,79.671,36.814z M73.744,40.125c-0.599-0.014-0.82-3.738-0.203-3.725
			C74.096,36.41,74.156,40.131,73.744,40.125z M75.722,34.617c0.05,0.189,0.236,1.027,0.279,1.531
			c0.021,0.188-0.045,0.416-0.158,0.459c-0.279,0.107-0.746,0.082-0.999-0.016c-0.278-0.107-0.091-1.216-1.115-1.416
			c0.142-0.098,0.216-0.201,0.243-0.443c0.021-0.162,0.215-0.334,0.459-0.362c0.466-0.054,0.755-0.065,0.914-0.06
			C75.503,34.314,75.671,34.423,75.722,34.617z M78.519,36.261c-0.229,0.218-0.939,0.265-1.305,0.052
			c-0.305-0.18-0.375-1.508-0.221-1.865c0.152-0.36,1.713-0.374,1.838-0.129C78.955,34.564,78.744,36.043,78.519,36.261z"/>
		<path d="M71.803,38.1c-0.118-1.408-1.431-3.271-3.351-3.588c-2.084-0.346-5.322,0.489-5.672,3.551
			c-0.365,3.168,2.062,5.521,4.975,5.299C70.916,43.118,71.966,40.093,71.803,38.1z M69.923,40.359
			c0.173-0.017,0.496,0.021,0.588,0.256c0.102,0.255-0.604,1.053-0.93,1.146c-0.201,0.06-0.498-0.241-0.443-0.538
			C69.173,41.031,69.787,40.374,69.923,40.359z M71.003,39.352c-0.166,0.109-0.478,0.127-0.608-0.072
			c-0.091-0.137-0.121-1.146-0.06-1.297c0.061-0.154,0.402-0.27,0.594-0.164C71.149,37.938,71.272,39.172,71.003,39.352z
			 M70.38,36.719c-0.035,0.193-0.356,0.271-0.495,0.254c-0.171-0.019-0.897-0.588-0.944-0.789c-0.061-0.26,0.116-0.427,0.281-0.468
			C69.675,35.604,70.432,36.439,70.38,36.719z M67.931,35.294c0.064,0.142,0.145,0.331-0.003,0.496
			c-0.125,0.136-1.234,0.174-1.403,0.163c-0.352-0.021-0.515-0.383-0.396-0.564C66.335,35.061,67.808,35.031,67.931,35.294z
			 M68.833,37.35c0,0.303-1.051,0.805-1.262,0.68c-0.308-0.18-0.932-1.107-0.802-1.27C67.225,36.199,68.833,36.88,68.833,37.35z
			 M65.982,37.093c0.133-0.026,0.762,0.947,0.646,1.308c-0.096,0.307-1.258,0.736-1.373,0.621
			C64.901,38.669,65.212,37.254,65.982,37.093z M65.746,39.971c0-0.184,0.944-0.826,1.316-0.686c0.301,0.109,0.77,1.289,0.516,1.406
			C66.891,41.016,65.746,40.27,65.746,39.971z M68.685,40.161c-0.277-0.121-0.996-1.065-0.738-1.323
			c0.238-0.24,1.25-0.752,1.412-0.604C69.983,38.818,69.228,40.396,68.685,40.161z M64.51,37.311
			c-0.269,0.133-0.515-0.047-0.541-0.375c-0.027-0.326,0.745-1.127,1.022-1.051c0.135,0.037,0.342,0.297,0.318,0.528
			C65.296,36.572,64.664,37.232,64.51,37.311z M64.322,39.544c-0.15,0.177-0.482,0.288-0.644,0.16
			c-0.238-0.193-0.312-0.979-0.157-1.313c0.105-0.226,0.655-0.351,0.755-0.092C64.347,38.475,64.432,39.416,64.322,39.544z
			 M64.192,40.915c-0.019-0.25,0.32-0.535,0.581-0.479c0.207,0.043,0.854,0.725,0.883,0.885c0.055,0.293-0.179,0.525-0.373,0.539
			C64.977,41.882,64.216,41.189,64.192,40.915z M66.617,42.259c-0.209-0.116-0.045-0.538,0.258-0.587
			c0.215-0.033,0.939-0.119,1.192-0.01c0.195,0.084,0.333,0.494,0.224,0.613C68.082,42.508,66.917,42.426,66.617,42.259z"/>
		<polygon points="67.244,25.809 67.154,26.518 66.695,27.068 67.403,27.158 67.955,27.619 68.042,26.907 68.503,26.359 
			67.794,26.268 		"/>
		<polygon points="80.535,56.586 79.957,56.161 79.244,56.119 79.664,55.539 79.708,54.824 80.285,55.248 81.001,55.293 
			80.576,55.869 		"/>
		<polygon points="65.41,56.559 65.988,56.139 66.703,56.098 66.285,55.518 66.242,54.8 65.664,55.225 64.951,55.266 65.369,55.844 
					"/>
		<path d="M61.457,53.482l0.727-0.854c0.331-0.387,0.861-0.359,1.367,0.071c0.507,0.432,0.621,0.952,0.289,1.342l-0.727,0.854
			c-0.092,0.104-0.092,0.164,0.025,0.265l-0.26,0.196l-0.703-0.6l0.154-0.283c0.123,0.102,0.178,0.09,0.269-0.017L63.33,53.6
			c0.145-0.17,0.131-0.381-0.097-0.572c-0.231-0.199-0.442-0.182-0.587-0.012l-0.732,0.858c-0.09,0.104-0.09,0.164,0.024,0.262
			l-0.258,0.201l-0.644-0.548l0.151-0.288C61.309,53.604,61.367,53.588,61.457,53.482z"/>
		<path d="M59.115,50.639l1.541-1.154l0.288,0.386l-0.481,1.628c-0.033,0.114-0.123,0.293-0.123,0.293s0.139-0.128,0.209-0.181
			l0.68-0.507c0.105-0.082,0.128-0.137,0.034-0.266l0.294-0.135l0.463,0.619l-0.211,0.247c-0.094-0.125-0.156-0.124-0.264-0.043
			l-1.131,0.848c-0.11,0.083-0.127,0.14-0.031,0.266l-0.299,0.134l-0.418-0.557l0.437-1.48c0.038-0.117,0.128-0.298,0.128-0.298
			s-0.141,0.131-0.221,0.19l-0.577,0.433c-0.11,0.084-0.127,0.14-0.033,0.267l-0.294,0.136l-0.467-0.624l0.213-0.242
			C58.949,50.723,59.005,50.721,59.115,50.639z"/>
		<path d="M59.707,47.687l0.401,0.81l-0.256,0.202c-0.069-0.141-0.131-0.149-0.251-0.092l-1.266,0.627
			c-0.125,0.06-0.15,0.114-0.084,0.255l-0.312,0.081l-0.398-0.811l0.254-0.202c0.07,0.141,0.127,0.153,0.252,0.092l1.266-0.627
			c0.121-0.061,0.15-0.114,0.081-0.255L59.707,47.687z"/>
		<path d="M56.833,45.265l2.082,0.188l0.183,0.622l-1.647,1.278c-0.121,0.092-0.134,0.141-0.093,0.279l-0.325,0.022l-0.255-0.863
			l0.285-0.159c0.041,0.125,0.09,0.144,0.196,0.065l0.796-0.602c0.133-0.092,0.415-0.225,0.415-0.225s-0.311,0.035-0.473,0.026
			l-1.002-0.099c-0.133-0.009-0.164,0.052-0.125,0.178l-0.326,0.025l-0.226-0.768l0.283-0.153
			C56.645,45.227,56.682,45.249,56.833,45.265z"/>
		<path d="M58.375,42l0.168,1.866l-0.31,0.098c-0.015-0.155-0.069-0.187-0.202-0.174l-1.408,0.129
			c-0.138,0.015-0.181,0.052-0.165,0.208l-0.324-0.042l-0.164-1.784l0.573-0.052l0.074,0.244c-0.186,0.045-0.224,0.1-0.2,0.368
			l0.039,0.416l0.581-0.053l-0.035-0.377c-0.014-0.16-0.047-0.217-0.17-0.207l0.039-0.264l0.574-0.051l0.09,0.253
			c-0.127,0.01-0.15,0.071-0.135,0.231l0.035,0.375l0.634-0.056l-0.054-0.575c-0.021-0.25-0.096-0.291-0.271-0.307l0.024-0.268
			L58.375,42z"/>
		<path d="M58.634,38.729l-0.08,0.713c-0.381,0.312-0.973-0.008-1.026,0.479l-0.03,0.29l0.459,0.052
			c0.133,0.018,0.186-0.013,0.203-0.166l0.309,0.102l-0.098,0.892l-0.324,0.034c0.019-0.159-0.028-0.196-0.164-0.211l-1.404-0.158
			c-0.134-0.014-0.188,0.016-0.204,0.172l-0.309-0.107l0.136-1.217c0.065-0.59,0.347-0.91,0.794-0.86
			c0.293,0.032,0.479,0.212,0.56,0.524c0.115-0.289,0.399-0.334,0.572-0.351c0.2-0.019,0.271-0.048,0.291-0.229l0.006-0.056
			L58.634,38.729z M56.458,39.729l-0.041,0.359l0.69,0.076l0.038-0.346c0.029-0.264-0.088-0.414-0.298-0.438
			C56.636,39.355,56.486,39.473,56.458,39.729z"/>
		<path d="M59.134,37.173c-0.146,0.453-0.396,0.735-0.524,0.856l-0.457-0.287l0.067-0.21c0.287,0.002,0.468-0.229,0.546-0.468
			c0.058-0.184,0.035-0.402-0.161-0.465c-0.168-0.055-0.283,0.049-0.471,0.405c-0.188,0.365-0.492,0.692-0.961,0.542
			c-0.455-0.148-0.58-0.639-0.414-1.158c0.128-0.396,0.336-0.672,0.453-0.789l0.431,0.273l-0.065,0.206
			c-0.252,0.026-0.399,0.233-0.461,0.421c-0.064,0.205-0.019,0.383,0.135,0.432c0.147,0.047,0.259-0.061,0.396-0.326
			c0.255-0.484,0.532-0.799,1.043-0.635C59.192,36.131,59.298,36.665,59.134,37.173z"/>
		<path d="M60.208,34.57l-0.414,0.805l-0.312-0.086c0.071-0.139,0.042-0.193-0.078-0.255l-1.257-0.646
			c-0.124-0.062-0.181-0.053-0.253,0.088l-0.251-0.205l0.412-0.804l0.313,0.087c-0.07,0.139-0.047,0.193,0.078,0.256l1.258,0.643
			c0.119,0.062,0.181,0.055,0.252-0.087L60.208,34.57z"/>
		<path d="M60.32,31.241c-0.15-0.076-0.24-0.084-0.391,0.122l-0.139,0.189l1.215,0.893c0.107,0.08,0.168,0.086,0.261-0.043
			l0.217,0.242l-0.53,0.723l-0.3-0.131c0.095-0.131,0.074-0.185-0.034-0.264l-1.217-0.893l-0.14,0.191
			c-0.152,0.205-0.115,0.289,0.001,0.41l-0.194,0.178l-0.446-0.409l1.279-1.745l0.528,0.298L60.32,31.241z"/>
		<path d="M63.971,30.086l-0.649,0.607l-0.267-0.188c0.086-0.082,0.095-0.136-0.031-0.203l-0.176-0.09l-0.63,0.589l0.074,0.186
			c0.057,0.134,0.123,0.117,0.211,0.033l0.17,0.276l-0.562,0.522l-0.265-0.187c0.103-0.097,0.118-0.147,0.06-0.288l-0.609-1.435
			c-0.039-0.089-0.096-0.115-0.207-0.011l-0.168-0.278l0.935-0.872l0.271,0.186c-0.114,0.105-0.099,0.156-0.01,0.201l1.399,0.711
			c0.128,0.068,0.181,0.062,0.285-0.037L63.971,30.086z M61.906,29.689c-0.121-0.07-0.367-0.275-0.367-0.275
			s0.178,0.275,0.237,0.396l0.259,0.61L62.492,30L61.906,29.689z"/>
		<path d="M65.326,29.251c-0.404,0.25-0.779,0.304-0.951,0.313l-0.162-0.516l0.186-0.115c0.219,0.188,0.505,0.129,0.719,0
			c0.166-0.103,0.286-0.285,0.178-0.459c-0.092-0.15-0.248-0.146-0.621,0.002c-0.379,0.157-0.824,0.209-1.084-0.207
			c-0.252-0.408-0.03-0.865,0.433-1.15c0.353-0.221,0.69-0.294,0.858-0.311l0.15,0.489l-0.183,0.114
			c-0.209-0.143-0.459-0.081-0.625,0.021c-0.183,0.113-0.263,0.276-0.175,0.416c0.08,0.131,0.236,0.121,0.513,0.008
			c0.506-0.203,0.922-0.266,1.203,0.191C66.042,28.495,65.781,28.971,65.326,29.251z"/>
		<path d="M72.126,26.049c-0.164,0.021-0.191,0.079-0.174,0.205l0.024,0.188c0.019,0.125,0.049,0.152,0.128,0.142l-0.02,0.308
			c-0.346,0.07-0.403,0.221-0.93,0.293c-0.705,0.094-1.347-0.168-1.468-1.063c-0.11-0.821,0.367-1.31,1.134-1.414
			c0.459-0.062,0.814,0.071,0.967,0.135l-0.063,0.556l-0.209,0.026c-0.104-0.241-0.328-0.313-0.577-0.282
			c-0.439,0.059-0.639,0.342-0.564,0.889c0.074,0.552,0.308,0.769,0.74,0.71c0.105-0.015,0.232-0.064,0.303-0.112l-0.041-0.297
			c-0.018-0.126-0.055-0.176-0.221-0.15l-0.043,0.006l0.02-0.326l0.928-0.123l0.109,0.307L72.126,26.049z"/>
		<path d="M74.181,27.115c-0.729-0.059-1.217-0.436-1.143-1.346c0.072-0.908,0.612-1.203,1.342-1.145
			c0.74,0.059,1.218,0.436,1.144,1.343C75.453,26.879,74.921,27.176,74.181,27.115z M74.347,25.064
			c-0.381-0.028-0.573,0.164-0.622,0.762c-0.052,0.599,0.116,0.82,0.493,0.85c0.384,0.031,0.572-0.162,0.619-0.761
			C74.886,25.316,74.731,25.096,74.347,25.064z"/>
		<path d="M78.182,26.074c0.019-0.167-0.009-0.256-0.255-0.322l-0.229-0.062l-0.396,1.453c-0.035,0.129-0.02,0.187,0.132,0.228
			l-0.146,0.29l-0.865-0.237l0.019-0.325c0.153,0.043,0.197,0.002,0.233-0.127l0.396-1.457l-0.229-0.061
			c-0.245-0.067-0.312-0.003-0.383,0.148l-0.237-0.117l0.226-0.563l2.088,0.57l-0.095,0.599L78.182,26.074z"/>
		<path d="M80.712,29.169l-0.799-0.407l0.082-0.313c0.144,0.073,0.193,0.042,0.254-0.076l0.246-0.485l-0.815-0.414l-0.244,0.481
			c-0.062,0.121-0.056,0.179,0.083,0.252l-0.202,0.252l-0.799-0.406l0.081-0.313c0.143,0.072,0.195,0.041,0.255-0.078l0.644-1.262
			c0.061-0.121,0.054-0.18-0.09-0.252l0.207-0.25l0.797,0.404l-0.086,0.314c-0.14-0.072-0.188-0.043-0.252,0.08l-0.197,0.387
			l0.814,0.416l0.199-0.389c0.062-0.123,0.057-0.18-0.088-0.252l0.207-0.25l0.798,0.406l-0.085,0.313
			c-0.141-0.071-0.189-0.044-0.253,0.079l-0.642,1.261c-0.06,0.119-0.056,0.177,0.084,0.247L80.712,29.169z"/>
		<path d="M82.242,30.378c-0.563-0.462-0.746-1.05-0.166-1.755c0.577-0.705,1.19-0.637,1.754-0.171
			c0.571,0.472,0.75,1.054,0.17,1.757C83.421,30.912,82.815,30.85,82.242,30.378z M83.551,28.79
			c-0.291-0.24-0.563-0.194-0.945,0.271c-0.383,0.463-0.374,0.74-0.085,0.979c0.298,0.245,0.564,0.193,0.945-0.27
			C83.848,29.305,83.847,29.034,83.551,28.79z"/>
		<path d="M84.474,32.602L83.73,31.68l0.202-0.256c0.099,0.122,0.162,0.117,0.265,0.035L85.3,30.57
			c0.107-0.086,0.121-0.144,0.021-0.266l0.291-0.145l0.695,0.865c0.374,0.463,0.418,0.863,0.089,1.129
			c-0.153,0.123-0.403,0.125-0.587,0.033c0.115,0.302,0.021,0.568-0.188,0.735C85.271,33.206,84.846,33.064,84.474,32.602z
			 M85.048,31.609l-0.545,0.438l0.216,0.269c0.165,0.205,0.354,0.222,0.519,0.088c0.164-0.129,0.186-0.329,0.014-0.538
			L85.048,31.609z M85.351,31.367l0.182,0.226c0.151,0.187,0.312,0.201,0.449,0.089c0.135-0.107,0.158-0.252,0.004-0.449
			l-0.188-0.229L85.351,31.367z"/>
		<path d="M88.214,35.104l-1.002,0.511c-0.455,0.231-0.935,0.005-1.234-0.589c-0.303-0.594-0.208-1.119,0.247-1.35l1.001-0.511
			c0.122-0.062,0.146-0.117,0.075-0.255l0.317-0.083l0.418,0.823l-0.254,0.203c-0.07-0.14-0.127-0.149-0.25-0.088l-1.006,0.514
			c-0.199,0.102-0.265,0.3-0.129,0.564c0.139,0.274,0.34,0.34,0.537,0.238l1.006-0.514c0.124-0.061,0.148-0.115,0.08-0.252
			l0.312-0.086l0.387,0.754l-0.252,0.209C88.394,35.053,88.335,35.043,88.214,35.104z"/>
		<path d="M87.436,39.107l-0.185-0.695c0.238-0.428,0.908-0.342,0.783-0.816l-0.074-0.281l-0.447,0.121
			c-0.129,0.033-0.17,0.078-0.131,0.229l-0.325,0.018l-0.229-0.865l0.291-0.15c0.043,0.154,0.1,0.172,0.229,0.139l1.367-0.361
			c0.13-0.034,0.17-0.084,0.13-0.234l0.325-0.014l0.312,1.186c0.153,0.573,0.007,0.975-0.431,1.09
			c-0.284,0.075-0.524-0.023-0.711-0.287c-0.004,0.312-0.252,0.457-0.407,0.532c-0.181,0.089-0.233,0.142-0.188,0.321l0.016,0.054
			L87.436,39.107z M89.101,37.385l-0.094-0.348l-0.672,0.177l0.091,0.337c0.065,0.256,0.231,0.354,0.437,0.301
			C89.065,37.8,89.167,37.637,89.101,37.385z"/>
		<path d="M88.591,42.082c-0.01-0.166-0.061-0.198-0.19-0.191l-0.188,0.01c-0.127,0.007-0.155,0.035-0.152,0.117l-0.305-0.047
			c-0.041-0.348-0.187-0.42-0.213-0.949c-0.033-0.709,0.279-1.328,1.186-1.373c0.827-0.039,1.273,0.478,1.312,1.25
			c0.021,0.463-0.142,0.806-0.217,0.951l-0.548-0.11l-0.013-0.212c0.251-0.084,0.345-0.301,0.33-0.551
			c-0.02-0.443-0.284-0.668-0.838-0.64c-0.557,0.028-0.789,0.243-0.768,0.679c0.006,0.107,0.043,0.24,0.086,0.313l0.299-0.017
			c0.129-0.008,0.18-0.043,0.17-0.211l-0.002-0.043l0.32,0.053l0.047,0.936l-0.314,0.083L88.591,42.082z"/>
		<path d="M87.281,44.809l0.28-1.853l0.326-0.022c-0.022,0.158,0.021,0.201,0.153,0.219l1.397,0.216
			c0.138,0.021,0.188-0.007,0.21-0.164l0.307,0.119l-0.271,1.769l-0.571-0.086l-0.013-0.257c0.189,0.002,0.24-0.043,0.281-0.312
			l0.062-0.41l-0.579-0.09l-0.056,0.374c-0.022,0.16-0.007,0.221,0.118,0.238l-0.1,0.247l-0.572-0.086l-0.024-0.267
			c0.129,0.018,0.164-0.034,0.188-0.193l0.056-0.375l-0.629-0.097l-0.089,0.572c-0.035,0.248,0.023,0.306,0.191,0.362l-0.092,0.253
			L87.281,44.809z"/>
		<path d="M88.065,48.481l-1.802-0.68l0.171-0.452l1.633-0.468c0.114-0.034,0.312-0.055,0.312-0.055s-0.184-0.048-0.264-0.079
			l-0.793-0.298c-0.125-0.046-0.185-0.036-0.238,0.11l-0.274-0.175l0.272-0.723l0.324,0.045c-0.056,0.148-0.021,0.199,0.102,0.244
			l1.324,0.5c0.129,0.048,0.187,0.033,0.24-0.115l0.273,0.18l-0.245,0.65l-1.483,0.426C87.5,47.625,87.3,47.646,87.3,47.646
			s0.187,0.048,0.277,0.083l0.678,0.257c0.127,0.048,0.186,0.031,0.24-0.115l0.273,0.174l-0.273,0.729l-0.322-0.051
			C88.227,48.576,88.195,48.532,88.065,48.481z"/>
		<path d="M85.322,49.377c0.254-0.402,0.569-0.612,0.719-0.697l0.373,0.391l-0.121,0.186c-0.277-0.073-0.512,0.104-0.645,0.317
			c-0.104,0.162-0.132,0.38,0.039,0.489c0.15,0.095,0.288,0.023,0.561-0.274c0.272-0.307,0.647-0.548,1.063-0.286
			c0.403,0.257,0.403,0.764,0.112,1.224c-0.221,0.353-0.492,0.568-0.637,0.652l-0.349-0.374l0.115-0.183
			c0.252,0.038,0.448-0.125,0.552-0.292c0.115-0.181,0.115-0.364-0.021-0.45c-0.133-0.084-0.268-0.005-0.467,0.217
			c-0.367,0.403-0.714,0.642-1.166,0.354C85.007,50.372,85.037,49.828,85.322,49.377z"/>
		<path d="M83.609,51.66l0.6-0.678l0.283,0.163c-0.104,0.119-0.091,0.179,0.01,0.268l1.059,0.939
			c0.102,0.092,0.16,0.094,0.266-0.021l0.192,0.26l-0.601,0.678l-0.281-0.162c0.104-0.12,0.093-0.176-0.012-0.269L84.069,51.9
			c-0.1-0.089-0.161-0.095-0.267,0.02L83.609,51.66z"/>
		<path d="M82.105,52.983c0.37-0.298,0.736-0.395,0.908-0.424l0.222,0.492l-0.17,0.136c-0.239-0.16-0.519-0.068-0.716,0.09
			c-0.152,0.121-0.249,0.315-0.123,0.477c0.109,0.139,0.264,0.115,0.617-0.078c0.357-0.201,0.789-0.307,1.098,0.078
			c0.301,0.374,0.135,0.854-0.29,1.193c-0.325,0.26-0.651,0.376-0.815,0.41l-0.207-0.467l0.168-0.135
			c0.226,0.118,0.464,0.025,0.617-0.098c0.168-0.133,0.228-0.307,0.127-0.432c-0.098-0.123-0.248-0.092-0.512,0.053
			c-0.479,0.264-0.882,0.375-1.22-0.045C81.481,53.82,81.688,53.316,82.105,52.983z"/>
		<path d="M69.074,58.307l-1.205-0.348l0.023-0.327l0.154,0.044c0.16,0.047,0.211,0.012,0.248-0.117l0.351-1.229
			c-0.088,0.047-0.233,0.065-0.478,0.022l0.102-0.354c0.264,0.009,0.423-0.02,0.693-0.264l0.49,0.14l-0.531,1.862
			c-0.036,0.129-0.006,0.188,0.15,0.229l0.156,0.045L69.074,58.307z"/>
		<path d="M71.373,58.717c-0.664-0.062-1.062-0.369-1.024-0.771c0.032-0.348,0.329-0.518,0.649-0.621
			c-0.26-0.15-0.481-0.336-0.457-0.615c0.033-0.355,0.449-0.562,1.066-0.5c0.59,0.055,0.975,0.336,0.941,0.689
			c-0.024,0.277-0.274,0.424-0.562,0.521c0.299,0.162,0.559,0.385,0.524,0.73C72.477,58.551,72.017,58.777,71.373,58.717z
			 M71.48,57.576c-0.271,0.096-0.467,0.232-0.488,0.43c-0.016,0.178,0.157,0.322,0.414,0.35c0.25,0.021,0.455-0.084,0.471-0.26
			C71.897,57.891,71.723,57.721,71.48,57.576z M71.574,56.568c-0.219-0.02-0.371,0.057-0.387,0.209
			c-0.016,0.154,0.12,0.291,0.329,0.41c0.222-0.08,0.376-0.187,0.392-0.344C71.923,56.693,71.783,56.589,71.574,56.568z"/>
		<path d="M74.421,58.727c-0.161,0.016-0.469-0.012-0.573-0.076l-0.033-0.346c0.117,0.033,0.29,0.047,0.442,0.033
			c0.432-0.042,0.68-0.259,0.732-0.686c-0.08,0.129-0.304,0.252-0.543,0.277c-0.593,0.053-0.962-0.258-1.008-0.752
			c-0.051-0.503,0.312-0.9,0.954-0.963c0.739-0.072,1.121,0.372,1.187,1.012C75.65,57.992,75.318,58.639,74.421,58.727z
			 M74.43,56.593c-0.289,0.027-0.438,0.235-0.412,0.532c0.028,0.277,0.192,0.448,0.472,0.421c0.254-0.021,0.473-0.202,0.441-0.522
			C74.912,56.811,74.773,56.561,74.43,56.593z"/>
		<path d="M78.218,57.962l-1.211,0.319l-0.148-0.295l0.157-0.041c0.16-0.043,0.185-0.098,0.151-0.229l-0.328-1.232
			c-0.049,0.082-0.166,0.172-0.396,0.264l-0.094-0.355c0.231-0.129,0.354-0.233,0.461-0.582l0.493-0.129l0.494,1.875
			c0.035,0.127,0.094,0.161,0.248,0.119l0.156-0.041L78.218,57.962z"/>
	</g>
	<g>
		<path d="M29.146,73.477c0-0.435,0.014-0.695,0.014-1.82c0-0.901-0.014-1.618-0.021-2.645l-0.047-0.049L28,68.91v-0.389h3.256
			v0.389l-0.922,0.054l-0.047,0.048c-0.012,0.854-0.021,2.699-0.021,4.422c0,1.433,0.331,2.403,1.848,2.403
			c1.584,0,2.038-0.925,2.038-2.62c0-1.48-0.021-3.089-0.046-4.205l-0.047-0.048l-1.051-0.054v-0.389h3.021v0.389l-1.116,0.054
			l-0.045,0.048c-0.035,1.221-0.035,2.893-0.023,4.307c0.012,1.959-0.912,3.009-2.825,3.009
			C30.139,76.324,29.146,75.354,29.146,73.477z"/>
		<path d="M36.998,75.823l1.119-0.054l0.045-0.049c0.035-1.222,0.035-2.117,0.035-3.256s0-1.766-0.035-3.453l-0.045-0.049
			l-1.119-0.053v-0.389h2.178c1.391,1.946,2.974,4.227,4.111,5.855h0.022c-0.022-2.188-0.045-4.248-0.067-5.363l-0.045-0.048
			l-1.048-0.057v-0.388h3.019v0.388l-1.117,0.057l-0.045,0.048c-0.034,1.219-0.034,2.118-0.034,4.979v2.279h-0.558
			c-1.416-2.006-3.101-4.364-4.537-6.414h-0.021c0.012,2.664,0.044,4.726,0.068,5.867l0.045,0.047l1.048,0.055v0.388h-3.021v-0.389
			h0.002V75.823z"/>
		<path d="M46.138,75.823l1.117-0.054l0.046-0.049c0.021-0.352,0.034-1.892,0.034-3.43s-0.014-2.895-0.034-3.282l-0.046-0.046
			l-1.117-0.056V68.52h3.464v0.389l-1.106,0.056l-0.045,0.046c-0.021,0.307-0.035,1.893-0.035,3.43c0,1.539,0.021,2.894,0.035,3.283
			l0.045,0.047l1.106,0.055v0.388h-3.464V75.823z"/>
		<path d="M51.083,68.943l-0.684-0.035V68.52h2.985v0.389l-1.014,0.045L52.327,69c0.637,1.65,1.389,3.648,2.143,5.57h0.021
			c0.559-1.549,1.525-4.307,1.901-5.584l-0.033-0.033l-0.923-0.045V68.52h2.519v0.389l-0.662,0.035
			c-0.592,1.504-1.959,5.045-2.859,7.383h-0.309C52.953,73.477,51.937,70.993,51.083,68.943z"/>
		<path d="M58.751,75.823l1.115-0.054l0.047-0.049c0.013-0.527,0.035-1.892,0.035-3.43s-0.021-2.827-0.035-3.282l-0.047-0.046
			l-1.115-0.056V68.52h5.002l0.445-0.193h0.17l0.078,2.496H64.22c-0.41-1.15-0.775-1.719-0.971-1.731l-2.151-0.114l-0.033,0.058
			c-0.012,0.522-0.034,1.731-0.034,3.008c0.512,0,1.629-0.034,1.926-0.058l0.047-0.045l0.41-0.797h0.215
			c-0.012,0.318-0.021,0.809-0.021,1.115c0,0.297,0.013,0.934,0.021,1.276h-0.215l-0.41-0.945l-0.047-0.047
			c-0.352-0.01-1.367-0.034-1.926-0.034c0,1.449,0.022,2.608,0.034,3.19l0.033,0.059l2.325-0.126
			c0.193-0.016,0.707-0.48,1.119-1.824h0.263c-0.147,2.223-0.183,2.405-0.378,2.405h-5.674v-0.389H58.751z"/>
		<path d="M66.113,75.823l1.139-0.054l0.047-0.049c0.011-0.332,0.033-1.892,0.033-3.43s-0.022-2.77-0.033-3.282l-0.047-0.046
			l-1.139-0.056V68.52c1.024,0,2.118-0.021,2.7-0.021c0.901,0,1.425,0.056,1.847,0.183c1.094,0.332,1.573,1.037,1.573,1.812
			c0,1.127-0.764,1.662-1.698,1.959v0.023c0.295,0.342,0.81,1.274,1.469,2.437c0.285,0.501,0.562,0.878,0.936,0.901l0.25,0.011
			v0.388H71.48l-0.048-0.048c-0.422-0.856-0.716-1.552-1.435-2.827c-0.148-0.262-0.285-0.477-0.457-0.672
			c-0.412,0.059-0.799,0.079-1.129,0.079c-0.011,1.356,0.023,2.631,0.035,2.976l0.045,0.047l1.049,0.056v0.388h-3.432v-0.388H66.113
			L66.113,75.823z M71.001,70.501c0-0.625-0.275-1.092-0.789-1.333c-0.281-0.137-0.637-0.216-1.355-0.216h-0.376l-0.034,0.034
			c-0.01,0.488-0.021,1.982-0.035,3.313C70.397,72.245,71.001,71.607,71.001,70.501z"/>
		<path d="M74.615,73.805h0.264c0.396,1.447,1.047,2.053,1.845,2.053c0.937,0,1.526-0.629,1.526-1.448
			c0-1.981-3.496-1.479-3.496-3.986c0-1.06,0.828-2.026,2.277-2.026c0.74,0,1.334,0.229,1.457,0.262l0.344-0.331h0.215l0.068,2.496
			h-0.238c-0.479-1.39-1.104-1.96-1.881-1.96c-0.672,0-1.254,0.445-1.254,1.195c0,1.902,3.553,1.606,3.553,4.012
			c0,1.15-0.862,2.257-2.642,2.257c-0.491,0-1.071-0.113-1.569-0.444l-0.229,0.444h-0.24V73.805L74.615,73.805z"/>
		<path d="M80.779,75.823l1.118-0.054l0.044-0.049c0.021-0.352,0.035-1.892,0.035-3.43s-0.014-2.895-0.035-3.282l-0.044-0.046
			l-1.118-0.056V68.52h3.465v0.389l-1.105,0.056l-0.045,0.046c-0.021,0.307-0.034,1.893-0.034,3.43c0,1.539,0.021,2.894,0.034,3.283
			l0.045,0.047l1.105,0.055v0.388h-3.465V75.823z"/>
		<path d="M86.785,75.823l1.219-0.054l0.045-0.049c0.016-0.422,0.035-1.892,0.035-3.43s0-2.803-0.035-3.202l-0.032-0.058h-1.354
			c-0.238,0-0.525,0.41-0.99,1.787h-0.229l0.093-2.493h0.203l0.331,0.192h5.117l0.331-0.192h0.202l0.093,2.493h-0.229
			c-0.479-1.387-0.754-1.787-0.992-1.787h-1.354l-0.035,0.058c-0.012,0.272-0.033,1.812-0.033,3.351s0.021,2.869,0.033,3.281
			l0.045,0.049l1.254,0.054v0.388h-3.713v-0.388H86.785z"/>
		<path d="M94.885,75.823l1.129-0.054l0.046-0.049c0.021-0.857,0.034-1.378,0.034-2.939c-0.944-1.436-1.982-3.088-2.496-3.838
			l-0.763-0.035V68.52h2.906v0.389l-0.822,0.045L94.875,69c0.559,0.938,1.344,2.243,1.949,3.18h0.021
			c0.627-1.104,1.355-2.451,1.721-3.191l-0.035-0.034l-0.797-0.045v-0.39h2.463v0.389L99.5,68.943
			c-0.66,0.966-1.523,2.496-2.323,3.803c0,1.57,0.021,1.947,0.034,2.977l0.045,0.045l1.162,0.057v0.388h-3.533L94.885,75.823
			L94.885,75.823z"/>
		<path d="M103.787,72.475c0-2.588,1.584-4.08,3.601-4.08c2.267,0,3.577,1.596,3.577,3.853c0,2.586-1.584,4.079-3.6,4.079
			C105.095,76.324,103.787,74.727,103.787,72.475z M109.732,72.359c0-2.303-0.898-3.452-2.346-3.452s-2.371,1.149-2.371,3.452
			c0,2.301,0.9,3.453,2.348,3.453C108.809,75.812,109.732,74.66,109.732,72.359z"/>
		<path d="M112.275,75.823l1.117-0.067l0.046-0.046c0.013-0.401,0.034-1.88,0.034-3.418s-0.021-2.884-0.034-3.282l-0.046-0.046
			l-1.117-0.056V68.52h5.023l0.443-0.193h0.172l0.08,2.496h-0.229c-0.41-1.15-0.775-1.731-0.971-1.741l-2.176-0.104l-0.035,0.057
			c-0.012,0.33-0.032,1.73-0.032,3.008c0.513,0,1.629-0.034,1.901-0.055l0.047-0.047l0.41-0.797h0.217
			c-0.014,0.317-0.022,0.81-0.022,1.116c0,0.298,0.013,1.015,0.022,1.356h-0.217l-0.434-1.025l-0.045-0.047
			c-0.331-0.012-1.321-0.034-1.881-0.034c0,1.449,0,2.733,0.033,3.202l0.047,0.047l1.229,0.067v0.388h-3.588v-0.39H112.275z"/>
		<path d="M31.71,86.031c0-2.494,1.688-3.965,3.91-3.965c0.842,0,1.334,0.138,1.767,0.264l0.375-0.331h0.169l0.082,2.494h-0.239
			c-0.569-1.524-1.378-1.959-2.223-1.959c-1.321,0-2.609,0.991-2.609,3.384c0,1.869,0.937,3.566,2.872,3.566
			c0.559,0,1.162-0.159,1.162-0.342c0-0.389,0.012-1.426-0.021-2.303l-0.045-0.044l-1.117-0.06V86.35h3.188v0.387l-0.82,0.06
			l-0.045,0.044c-0.021,0.729-0.033,1.551-0.021,2.428c-0.137,0.284-1.23,0.729-2.383,0.729
			C33.387,89.997,31.71,88.549,31.71,86.031z"/>
		<path d="M40.406,86.146c0-2.588,1.584-4.08,3.602-4.08c2.266,0,3.578,1.597,3.578,3.852c0,2.587-1.584,4.079-3.6,4.079
			C41.714,89.997,40.406,88.402,40.406,86.146z M46.354,86.031c0-2.301-0.899-3.452-2.349-3.452s-2.371,1.151-2.371,3.452
			c0,2.304,0.9,3.453,2.347,3.453C45.429,89.484,46.354,88.334,46.354,86.031z"/>
		<path d="M50.468,89.496l1.218-0.055l0.047-0.047c0.014-0.424,0.034-1.893,0.034-3.431c0-1.539,0-2.803-0.034-3.202L51.7,82.704
			h-1.356c-0.239,0-0.524,0.412-0.99,1.788h-0.23l0.092-2.494h0.205l0.332,0.191h5.116l0.331-0.191h0.203l0.093,2.494h-0.229
			c-0.479-1.389-0.753-1.788-0.992-1.788h-1.354l-0.035,0.058c-0.013,0.273-0.034,1.812-0.034,3.35c0,1.539,0.021,2.873,0.034,3.283
			l0.046,0.047l1.252,0.055v0.388h-3.714V89.496L50.468,89.496z"/>
		<path d="M56.689,89.496l1.116-0.055l0.047-0.047c0.011-0.432,0.032-1.893,0.032-3.431c0-1.539-0.021-2.929-0.032-3.282
			l-0.047-0.045l-1.116-0.059v-0.389h3.305v0.389l-0.947,0.059l-0.045,0.045c-0.022,0.354-0.033,1.697-0.033,2.975h3.771
			c0.01-1.413-0.025-2.713-0.035-2.975l-0.047-0.045l-0.945-0.059v-0.389h3.306v0.389L63.9,82.637l-0.045,0.045
			c-0.014,0.342-0.035,1.893-0.035,3.43c0,1.539,0.021,2.781,0.035,3.283l0.045,0.047l1.118,0.055v0.388h-3.306v-0.388l0.945-0.055
			l0.047-0.047c0.01-0.388,0.035-1.802,0.035-3.144h-3.771c0,1.447,0.01,2.496,0.033,3.144l0.045,0.047l0.947,0.055v0.388h-3.305
			V89.496z"/>
		<path d="M65.988,89.496l1.117-0.055l0.045-0.047c0.014-0.525,0.035-1.893,0.035-3.431c0-1.539-0.021-2.827-0.035-3.282
			l-0.045-0.045l-1.117-0.059v-0.389h5.002l0.445-0.191h0.17l0.079,2.494h-0.228c-0.41-1.15-0.775-1.719-0.97-1.73l-2.155-0.113
			l-0.033,0.057c-0.012,0.523-0.034,1.73-0.034,3.008c0.513,0,1.631-0.033,1.928-0.057l0.046-0.045l0.41-0.799h0.215
			c-0.01,0.319-0.021,0.809-0.021,1.117c0,0.297,0.012,0.936,0.021,1.275h-0.215l-0.41-0.945l-0.046-0.047
			c-0.353-0.01-1.368-0.031-1.928-0.031c0,1.444,0.022,2.606,0.034,3.188l0.033,0.059l2.326-0.125
			c0.196-0.015,0.709-0.479,1.117-1.824h0.264c-0.146,2.223-0.183,2.404-0.377,2.404h-5.676v-0.387H65.988z"/>
		<path d="M73.35,89.496l1.12-0.055l0.044-0.047c0.034-1.221,0.034-2.117,0.034-3.256c0-1.14,0-1.767-0.034-3.453l-0.044-0.049
			l-1.12-0.055v-0.389h2.178c1.39,1.949,2.974,4.229,4.113,5.856h0.021c-0.021-2.188-0.047-4.249-0.067-5.364l-0.048-0.047
			l-1.049-0.056v-0.388h3.021v0.388l-1.117,0.058l-0.045,0.047c-0.034,1.22-0.034,2.117-0.034,4.979v2.277h-0.559
			c-1.412-2-3.1-4.358-4.534-6.41h-0.022c0.012,2.662,0.045,4.725,0.067,5.865l0.045,0.049l1.05,0.053v0.389h-3.021v-0.392
			L73.35,89.496L73.35,89.496z"/>
		<path d="M82.488,89.496l1.117-0.055l0.047-0.047c0.012-0.398,0.033-1.893,0.033-3.431c0-1.539-0.021-2.78-0.033-3.282
			l-0.047-0.045l-1.117-0.059v-0.389c0.844,0,1.811-0.019,2.482-0.019c0.832,0,1.471,0.069,1.982,0.229
			c0.899,0.283,1.446,0.861,1.446,1.695c0,0.98-0.647,1.562-1.39,1.743v0.022c1.209,0.057,1.929,0.764,1.929,1.687
			c0,1.552-1.392,2.358-3.601,2.358c-0.742,0-1.938-0.022-2.85-0.022v-0.39V89.496L82.488,89.496z M85.485,85.689
			c1.343,0,1.687-0.638,1.687-1.516c0-0.604-0.217-1.06-0.684-1.299c-0.297-0.159-0.719-0.25-1.344-0.25
			c-0.057,0-0.184,0-0.297,0.012L84.8,82.693c-0.01,0.593-0.045,1.709-0.034,2.994h0.719V85.689z M87.707,87.695
			c0-1.082-0.74-1.504-1.744-1.504h-1.196c-0.011,1.451,0.024,2.598,0.035,3.203l0.056,0.047c0.217,0.013,0.424,0.013,0.561,0.013
			C86.955,89.451,87.707,88.811,87.707,87.695z"/>
		<path d="M91.399,87.148c0-0.434,0.013-0.695,0.013-1.819c0-0.901-0.013-1.618-0.022-2.644l-0.046-0.049l-1.096-0.055v-0.389h3.26
			v0.389l-0.924,0.055l-0.045,0.049c-0.013,0.854-0.022,2.699-0.022,4.42c0,1.438,0.33,2.406,1.847,2.406
			c1.584,0,2.039-0.925,2.039-2.621c0-1.48-0.021-3.089-0.047-4.205l-0.045-0.049l-1.048-0.055v-0.389h3.019v0.389l-1.117,0.055
			l-0.047,0.049c-0.033,1.221-0.033,2.892-0.02,4.308c0.01,1.96-0.913,3.007-2.828,3.007C92.392,89.997,91.399,89.029,91.399,87.148
			z"/>
		<path d="M99.25,89.496l1.14-0.055l0.047-0.047c0.013-0.332,0.034-1.893,0.034-3.431c0-1.539-0.021-2.771-0.034-3.282l-0.047-0.045
			l-1.14-0.059v-0.389c1.025,0,2.119-0.019,2.701-0.019c0.899,0,1.422,0.054,1.846,0.183c1.094,0.332,1.572,1.037,1.572,1.812
			c0,1.128-0.764,1.662-1.699,1.958v0.024c0.297,0.341,0.809,1.273,1.47,2.438c0.286,0.501,0.562,0.877,0.937,0.9l0.252,0.011v0.388
			h-1.711l-0.045-0.048c-0.423-0.854-0.719-1.551-1.437-2.825c-0.146-0.264-0.284-0.479-0.455-0.674
			c-0.412,0.057-0.798,0.079-1.128,0.079c-0.012,1.354,0.021,2.633,0.033,2.976l0.045,0.047l1.049,0.056v0.388h-3.432v-0.388
			L99.25,89.496L99.25,89.496z M104.139,84.174c0-0.626-0.272-1.091-0.787-1.332c-0.284-0.138-0.64-0.217-1.354-0.217h-0.377
			l-0.033,0.034c-0.014,0.489-0.022,1.983-0.034,3.313C103.535,85.917,104.139,85.279,104.139,84.174z"/>
		<path d="M107.466,86.031c0-2.494,1.687-3.965,3.908-3.965c0.845,0,1.334,0.138,1.767,0.264l0.377-0.331h0.171l0.079,2.494h-0.237
			c-0.57-1.524-1.379-1.959-2.224-1.959c-1.323,0-2.608,0.991-2.608,3.384c0,1.869,0.936,3.566,2.87,3.566
			c0.56,0,1.161-0.159,1.161-0.342c0-0.389,0.014-1.426-0.021-2.303l-0.045-0.044l-1.117-0.06V86.35h3.189v0.387l-0.82,0.06
			l-0.045,0.044c-0.022,0.729-0.035,1.551-0.022,2.428c-0.136,0.284-1.229,0.729-2.38,0.729
			C109.142,89.997,107.466,88.549,107.466,86.031z"/>
	</g>
</g>
</svg>
