<?xml version="1.0" encoding="utf-8"?>
<!-- Generator: Adobe Illustrator 16.0.0, SVG Export Plug-In . SVG Version: 6.00 Build 0)  -->
<!DOCTYPE svg PUBLIC "-//W3C//DTD SVG 1.1//EN" "http://www.w3.org/Graphics/SVG/1.1/DTD/svg11.dtd">
<svg version="1.1" id="Lager_1" xmlns="http://www.w3.org/2000/svg" xmlns:xlink="http://www.w3.org/1999/xlink" x="0px" y="0px"
	 width="100px" height="16px" viewBox="-14.736 -3 100 16" enable-background="new -14.736 -3 100 16" xml:space="preserve">
<g>
	<g>
		<path d="M-7.735,2.24c-0.843,0.808-1.323,1.898-1.348,3.069c-0.052,2.413,1.869,4.417,4.282,4.47
			c1.17,0.025,2.278-0.405,3.121-1.213c0.847-0.811,1.326-1.898,1.351-3.067c0.054-2.413-1.869-4.42-4.281-4.471
			C-5.781,1.001-6.89,1.431-7.735,2.24z M-4.794,9.446c-2.23-0.049-4.006-1.899-3.957-4.132c0.024-1.079,0.467-2.086,1.248-2.833
			c0.781-0.747,1.805-1.146,2.886-1.123c2.229,0.049,4.003,1.902,3.956,4.133c-0.023,1.08-0.466,2.084-1.248,2.834
			C-2.689,9.071-3.715,9.47-4.794,9.446z"/>
		<path d="M-8.796,1.13c-1.142,1.093-1.79,2.565-1.823,4.146c-0.07,3.26,2.524,5.97,5.784,6.04c3.258,0.069,5.97-2.524,6.041-5.785
			l0,0c0.036-1.579-0.548-3.077-1.64-4.218C-1.529,0.171-3.001-0.476-4.577-0.51C-6.157-0.544-7.656,0.038-8.796,1.13z
			 M-4.83,11.047c-3.112-0.068-5.589-2.652-5.521-5.767c0.032-1.507,0.65-2.911,1.739-3.956c1.09-1.042,2.52-1.599,4.026-1.566
			c1.508,0.031,2.915,0.651,3.958,1.74c1.042,1.09,1.599,2.52,1.564,4.028l0,0C0.872,8.639-1.716,11.116-4.83,11.047z"/>
		<path d="M-3.53,8.92c-2.195,0.392-3.958-0.463-4.277-1.515c-0.209-0.683,0.094-0.829,0.143-1.323
			c-0.38,0.203-0.449-0.323-0.115-0.368c0.356-0.05,0.519,0.325,0.341,0.821C-7.686,7.246-7.25,7.577-7.127,7.541
			c0.005-0.036,0.051-0.128,0.071-0.17C-7.355,6.989-7.229,6.435-6.721,6.39c0.208-0.016,0.189,0.134,0.044,0.153
			C-7.068,6.6-7.051,7.036-6.887,7.092c0.029,0,0.063-0.011,0.09-0.036C-6.803,6.966-6.741,6.84-6.64,6.866
			C-6.415,6.922-6.5,7.21-6.654,7.232c-0.057,0.176-0.169,0.424-0.145,0.552c0.023,0.127,0.113,0.15,0.187,0.078
			C-6.559,7.805-6.532,7.675-6.5,7.531c-0.035-0.162,0.042-0.279,0.18-0.223c0.092,0.037,0.106,0.185,0.013,0.297
			c-0.013,0.139-0.072,0.298-0.06,0.403c0.013,0.104,0.159,0.097,0.211,0.041c0.052-0.058,0.108-0.433,0.126-0.519
			c-0.08-0.07-0.048-0.295,0.119-0.304c0.196-0.018,0.151,0.25,0.095,0.319C-5.76,7.755-5.85,7.989-5.811,8.08
			c0.04,0.096,0.194,0.119,0.264,0.039c0.068-0.075-0.019-0.237,0.02-0.423c-0.065-0.163,0.011-0.294,0.108-0.303
			c0.219-0.017,0.157,0.182,0.117,0.32c0.013,0.141,0.036,0.308,0.083,0.445C-5.187,8.242-5.047,8.261-5,8.15
			c0.027-0.068-0.038-0.26-0.054-0.396c-0.094-0.224-0.013-0.283,0.073-0.287c0.082-0.007,0.192,0.035,0.175,0.255
			c0.047,0.146,0.083,0.326,0.139,0.439c0.022,0.096,0.134,0.103,0.173,0.006c0.034-0.093-0.029-0.205-0.103-0.36
			c-0.158-0.154-0.015-0.271,0.075-0.278c0.089-0.009,0.23,0.018,0.2,0.254c0.048,0.144,0.082,0.278,0.113,0.354
			c0.039,0.088,0.16,0.1,0.213,0.041c0.054-0.056-0.047-0.159-0.074-0.283c-0.118-0.116-0.098-0.275,0.039-0.285
			c0.068-0.008,0.204,0.002,0.191,0.2c0.04,0.092,0.04,0.202,0.099,0.296c0.071,0.118,0.18,0.074,0.225-0.027
			c0.044-0.108-0.228-0.41-0.015-0.432c0.212-0.015,0.247,0.265,0.317,0.333c0.071,0.066,0.124,0.021,0.154-0.015
			c0.057-0.062-0.089-0.229,0.011-0.277c0.208-0.095,0.206,0.143,0.354,0.146c0.646,0.012,1.154-1.049,1.08-1.35
			c-0.215-0.128-0.141-0.45,0.039-0.451c0.448-0.008,0.383,0.621,0.047,1.351C-1.976,8.342-3.065,8.838-3.53,8.92z"/>
		<path d="M-2.589,3.875c-0.006-0.002-0.007-0.015-0.006-0.02c0.101-0.383,0.172-0.552,0.21-0.935
			c0.008-0.092-0.058-0.165-0.121-0.181c-0.236-0.059-0.344-0.056-0.436-0.063c-0.01,0-0.029-0.005-0.035-0.018
			c-0.029-0.056-0.069-0.222-0.069-0.307c0.138-0.293-0.109-0.393-0.343-0.39c-0.15-0.007-0.305,0.062-0.325,0.177
			c-0.022,0.22,0.222,0.302,0.311,0.311c0.014,0.031,0.052,0.184,0.058,0.247c0.001,0.008-0.007,0.017-0.017,0.017
			C-3.756,2.72-4.264,2.79-4.521,2.809c-0.038,0.006-0.055-0.016-0.063-0.038c-0.047-0.132-0.251-0.756,0.132-0.745
			c0.227,0.008,0.417-0.178,0.201-0.32C-4.306,1.67-4.597,1.634-4.756,1.662C-4.885,1.685-4.948,1.831-4.931,1.96
			c0.028,0.202-0.477,0.223-0.625,0.164c-0.105-0.045-0.238-0.17-0.283-0.253C-5.936,1.7-6.103,1.831-6.072,1.923
			C-5.865,2.55-5.2,2.451-5.028,2.459c0.008,0,0.025,0.012,0.027,0.017c0.042,0.227,0.176,0.466,0.176,0.554
			C-4.906,3.122-4.87,3.319-4.756,3.353C-4.897,3.491-4.96,3.967-4.939,4.364c0.027,0.505,0.232,0.995,0.554,0.942
			c0.41-0.068,0.248-1.012,0.345-1.092c0.05-0.04,0.185-0.029,0.232-0.024c0.009,0.001,0.014,0.015,0.013,0.021
			c-0.032,0.37-0.116,0.965-0.14,1.125C-3.956,5.496-3.969,5.58-3.887,5.73c0.089,0.163,0.252,0.686,0.06,1.238
			C-3.831,6.989-3.849,6.998-3.856,7c-0.173,0.039-0.266,0.092-0.329,0.138c-0.069,0.043-0.141,0.144-0.091,0.2
			c0.072,0.067,0.538,0.04,0.684-0.177c0.003-0.005,0.013-0.025,0.015-0.027c0.05-0.139,0.111-0.241,0.159-0.33
			c0.216-0.408,0.247-0.913-0.049-1.143c-0.084-0.063-0.167-0.123-0.088-0.284c0.156-0.309,0.173-0.646,0.192-0.932
			c0.008-0.114,0.195-0.181,0.271-0.071c0.178,0.422,0.036,0.787,0.034,0.938c-0.002,0.15,0.053,0.219,0.075,0.31
			c0.122,0.553,0.061,0.998-0.052,1.569c0,0.009-0.008,0.021-0.022,0.023c-0.129,0.043-0.207,0.07-0.288,0.127
			c-0.081,0.058-0.114,0.133-0.078,0.171c0.108,0.123,0.598-0.008,0.634-0.148c0.091-0.351,0.752-1.157,0.294-1.675
			c-0.21-0.237-0.21-0.143-0.212-0.26c-0.001-0.059,0.131-0.372,0.165-0.613c0.032-0.251-0.132-0.492-0.09-0.631
			c0.001-0.002,0.011-0.011,0.015-0.009c0.07,0.013,0.232,0.056,0.339,0.115c0.029,0.019,0.084,0.002,0.092-0.121
			C-2.176,4.03-2.52,3.9-2.589,3.875z M-4.469,4.926C-4.66,4.923-4.73,3.74-4.535,3.744C-4.36,3.748-4.339,4.928-4.469,4.926z
			 M-3.842,3.176c0.014,0.061,0.073,0.327,0.088,0.488c0.008,0.059-0.015,0.131-0.048,0.146c-0.091,0.035-0.24,0.026-0.32-0.005
			C-4.21,3.77-4.15,3.419-4.475,3.355c0.046-0.03,0.07-0.064,0.079-0.141C-4.391,3.163-4.328,3.108-4.251,3.1
			c0.145-0.017,0.24-0.021,0.289-0.02C-3.91,3.081-3.858,3.117-3.842,3.176z M-2.953,3.699c-0.072,0.07-0.299,0.084-0.415,0.016
			c-0.096-0.056-0.119-0.479-0.07-0.593c0.048-0.112,0.545-0.117,0.584-0.039C-2.815,3.161-2.881,3.63-2.953,3.699z"/>
		<path d="M-5.088,4.284c-0.035-0.447-0.453-1.04-1.062-1.141c-0.664-0.109-1.69,0.155-1.802,1.127
			c-0.115,1.006,0.655,1.755,1.581,1.685C-5.367,5.878-5.033,4.916-5.088,4.284z M-5.683,5.001c0.055-0.005,0.158,0.007,0.189,0.08
			c0.029,0.082-0.193,0.335-0.298,0.365c-0.063,0.018-0.159-0.077-0.139-0.171C-5.921,5.214-5.728,5.007-5.683,5.001z M-5.339,4.68
			c-0.053,0.035-0.153,0.042-0.194-0.022c-0.028-0.042-0.039-0.364-0.019-0.412c0.019-0.049,0.128-0.085,0.188-0.053
			C-5.295,4.231-5.255,4.625-5.339,4.68z M-5.538,3.845c-0.012,0.061-0.113,0.085-0.157,0.08C-5.75,3.918-5.98,3.739-5.994,3.674
			c-0.022-0.083,0.033-0.136,0.087-0.147C-5.763,3.491-5.522,3.755-5.538,3.845z M-6.315,3.392c0.021,0.045,0.046,0.105-0.001,0.156
			c-0.039,0.045-0.392,0.057-0.446,0.053c-0.111-0.007-0.163-0.122-0.127-0.179C-6.821,3.318-6.353,3.309-6.315,3.392z
			 M-6.029,4.046c0,0.096-0.334,0.254-0.4,0.217c-0.098-0.06-0.296-0.355-0.254-0.405C-6.541,3.681-6.029,3.896-6.029,4.046z
			 M-6.933,3.963c0.041-0.008,0.241,0.301,0.204,0.415c-0.028,0.098-0.398,0.236-0.435,0.197C-7.277,4.463-7.179,4.015-6.933,3.963z
			 M-7.01,4.875c0-0.056,0.302-0.261,0.42-0.216c0.095,0.035,0.243,0.409,0.162,0.446C-6.646,5.209-7.01,4.974-7.01,4.875z
			 M-6.077,4.938C-6.164,4.899-6.392,4.6-6.312,4.518c0.075-0.078,0.397-0.239,0.448-0.191C-5.663,4.512-5.905,5.013-6.077,4.938z
			 M-7.403,4.033c-0.084,0.042-0.163-0.016-0.171-0.119c-0.008-0.104,0.236-0.358,0.326-0.334C-7.204,3.59-7.14,3.672-7.146,3.746
			C-7.152,3.799-7.353,4.007-7.403,4.033z M-7.463,4.743c-0.045,0.055-0.152,0.091-0.202,0.05c-0.077-0.061-0.101-0.312-0.05-0.417
			c0.033-0.072,0.208-0.111,0.241-0.03C-7.453,4.402-7.427,4.701-7.463,4.743z M-7.504,5.176c-0.006-0.078,0.102-0.168,0.188-0.15
			c0.065,0.016,0.269,0.23,0.28,0.282c0.017,0.091-0.057,0.165-0.122,0.169C-7.252,5.485-7.496,5.265-7.504,5.176z M-6.733,5.604
			C-6.8,5.566-6.747,5.434-6.65,5.418c0.066-0.01,0.297-0.037,0.379-0.002c0.061,0.026,0.105,0.157,0.069,0.195
			C-6.266,5.683-6.636,5.657-6.733,5.604z"/>
		<polygon points="-6.534,0.38 -6.562,0.604 -6.708,0.78 -6.483,0.809 -6.309,0.955 -6.28,0.73 -6.133,0.555 -6.36,0.526 		"/>
		<polygon points="-2.314,10.154 -2.496,10.019 -2.725,10.006 -2.592,9.822 -2.576,9.594 -2.393,9.729 -2.164,9.743 -2.3,9.929 		
			"/>
		<polygon points="-7.116,10.144 -6.932,10.009 -6.705,9.998 -6.839,9.815 -6.852,9.586 -7.035,9.722 -7.261,9.732 -7.13,9.917 		
			"/>
		<path d="M-8.373,9.168l0.235-0.272c0.103-0.119,0.273-0.115,0.432,0.025c0.162,0.137,0.199,0.302,0.092,0.422l-0.232,0.275
			c-0.028,0.033-0.031,0.051,0.009,0.085l-0.082,0.062l-0.225-0.19l0.05-0.09c0.038,0.03,0.056,0.028,0.084-0.007l0.231-0.271
			c0.046-0.052,0.043-0.12-0.028-0.182c-0.076-0.062-0.141-0.059-0.188-0.006l-0.232,0.273C-8.255,9.326-8.257,9.343-8.22,9.376
			l-0.081,0.062l-0.204-0.169l0.049-0.095C-8.419,9.206-8.401,9.203-8.373,9.168z"/>
		<path d="M-9.115,8.261l0.49-0.364l0.089,0.125L-8.687,8.54c-0.012,0.033-0.04,0.09-0.04,0.09S-8.68,8.589-8.66,8.573l0.217-0.16
			c0.034-0.03,0.041-0.043,0.01-0.085l0.094-0.042l0.147,0.195l-0.069,0.082C-8.289,8.52-8.31,8.521-8.344,8.546l-0.359,0.269
			C-8.737,8.843-8.742,8.86-8.712,8.9l-0.096,0.045L-8.94,8.767l0.138-0.474c0.013-0.032,0.04-0.09,0.04-0.09
			s-0.044,0.042-0.068,0.056l-0.182,0.143c-0.036,0.023-0.042,0.042-0.011,0.082l-0.092,0.043l-0.15-0.198l0.066-0.079
			C-9.169,8.291-9.15,8.289-9.115,8.261z"/>
		<path d="M-8.927,7.327l0.127,0.258l-0.081,0.062C-8.903,7.602-8.922,7.599-8.96,7.619l-0.403,0.196
			c-0.039,0.022-0.047,0.039-0.023,0.086l-0.101,0.022l-0.127-0.256l0.081-0.066c0.022,0.045,0.041,0.049,0.082,0.03l0.404-0.198
			c0.039-0.021,0.047-0.036,0.026-0.082L-8.927,7.327z"/>
		<path d="M-9.84,6.56l0.664,0.059l0.057,0.197l-0.526,0.402c-0.039,0.034-0.042,0.048-0.028,0.091l-0.104,0.007l-0.081-0.274
			l0.091-0.052C-9.754,7.03-9.74,7.036-9.705,7.013l0.254-0.19c0.04-0.028,0.13-0.071,0.13-0.071s-0.099,0.014-0.15,0.011
			L-9.79,6.729c-0.042-0.002-0.051,0.016-0.039,0.057l-0.104,0.008l-0.071-0.246l0.09-0.048C-9.9,6.545-9.887,6.556-9.84,6.56z"/>
		<path d="M-9.351,5.522l0.054,0.595l-0.098,0.03c-0.004-0.051-0.024-0.062-0.067-0.056l-0.448,0.039
			c-0.043,0.004-0.056,0.017-0.052,0.068l-0.103-0.013l-0.05-0.567l0.186-0.018l0.022,0.079c-0.058,0.012-0.07,0.03-0.063,0.117
			l0.012,0.132l0.187-0.018l-0.014-0.12C-9.789,5.741-9.8,5.723-9.837,5.727l0.013-0.084l0.18-0.016l0.03,0.079
			C-9.657,5.711-9.663,5.73-9.659,5.782l0.011,0.119l0.2-0.018l-0.02-0.185C-9.474,5.62-9.496,5.607-9.552,5.602l0.01-0.085
			L-9.351,5.522z"/>
		<path d="M-9.268,4.483l-0.026,0.226c-0.12,0.1-0.308-0.003-0.328,0.152l-0.01,0.092l0.148,0.018
			c0.043,0.004,0.06-0.004,0.065-0.055l0.099,0.032L-9.352,5.23l-0.105,0.012c0.007-0.051-0.009-0.062-0.049-0.068l-0.448-0.05
			c-0.04-0.005-0.059,0.006-0.064,0.056l-0.098-0.034l0.044-0.388C-10.05,4.57-9.963,4.469-9.82,4.486
			c0.093,0.01,0.151,0.066,0.176,0.167c0.038-0.091,0.127-0.107,0.183-0.112c0.064-0.004,0.085-0.016,0.092-0.073l0.002-0.017
			L-9.268,4.483z M-9.959,4.8l-0.013,0.115l0.219,0.023l0.012-0.11c0.01-0.082-0.027-0.129-0.093-0.138
			C-9.903,4.684-9.95,4.719-9.959,4.8z"/>
		<path d="M-9.108,3.988C-9.156,4.131-9.234,4.22-9.275,4.26l-0.146-0.092l0.023-0.065c0.09,0,0.149-0.074,0.174-0.149
			c0.018-0.059,0.011-0.129-0.053-0.148c-0.053-0.018-0.09,0.016-0.151,0.128c-0.058,0.117-0.154,0.221-0.303,0.172
			c-0.143-0.046-0.185-0.202-0.132-0.368c0.04-0.126,0.107-0.213,0.144-0.251l0.137,0.088l-0.02,0.065
			c-0.083,0.007-0.129,0.075-0.148,0.134c-0.02,0.064-0.006,0.12,0.043,0.137c0.049,0.016,0.081-0.02,0.127-0.104
			c0.081-0.153,0.168-0.253,0.331-0.201C-9.091,3.659-9.057,3.828-9.108,3.988z"/>
		<path d="M-8.768,3.163l-0.131,0.254l-0.1-0.026c0.021-0.046,0.014-0.063-0.024-0.082l-0.399-0.205
			c-0.04-0.02-0.057-0.017-0.08,0.027l-0.082-0.066l0.135-0.254l0.096,0.028C-9.375,2.883-9.367,2.9-9.329,2.919l0.399,0.205
			c0.039,0.021,0.058,0.018,0.083-0.027L-8.768,3.163z"/>
		<path d="M-8.733,2.104C-8.78,2.081-8.81,2.077-8.857,2.144l-0.044,0.061l0.387,0.282c0.032,0.026,0.052,0.028,0.081-0.014
			l0.069,0.078l-0.171,0.229l-0.09-0.042c0.029-0.041,0.021-0.058-0.013-0.084l-0.386-0.283l-0.043,0.061
			c-0.047,0.064-0.037,0.092,0,0.13L-9.13,2.619l-0.14-0.13l0.404-0.553l0.167,0.094L-8.733,2.104z"/>
		<path d="M-7.573,1.738L-7.78,1.931L-7.865,1.87c0.027-0.025,0.029-0.042-0.011-0.064l-0.055-0.027l-0.2,0.188l0.024,0.058
			c0.018,0.043,0.038,0.037,0.066,0.009l0.054,0.09l-0.176,0.166l-0.085-0.06c0.032-0.032,0.038-0.047,0.018-0.091l-0.193-0.456
			c-0.011-0.029-0.03-0.038-0.066-0.004l-0.05-0.089l0.297-0.277l0.084,0.058c-0.036,0.034-0.031,0.052-0.001,0.065l0.442,0.225
			c0.042,0.022,0.057,0.021,0.092-0.012L-7.573,1.738z M-8.229,1.613C-8.267,1.59-8.345,1.525-8.345,1.525s0.056,0.088,0.076,0.127
			l0.083,0.195l0.142-0.135L-8.229,1.613z"/>
		<path d="M-7.143,1.474c-0.13,0.078-0.248,0.096-0.302,0.1L-7.497,1.41l0.059-0.038c0.073,0.061,0.162,0.041,0.231,0
			c0.049-0.031,0.089-0.089,0.056-0.145c-0.03-0.048-0.081-0.047-0.198,0c-0.12,0.049-0.261,0.065-0.343-0.067
			c-0.081-0.128-0.012-0.272,0.136-0.365c0.113-0.069,0.221-0.092,0.272-0.098l0.049,0.157l-0.059,0.035
			c-0.067-0.044-0.145-0.026-0.199,0.008c-0.06,0.035-0.083,0.087-0.056,0.131C-7.52,1.07-7.473,1.067-7.386,1.032
			c0.161-0.064,0.294-0.085,0.383,0.059C-6.914,1.233-6.999,1.385-7.143,1.474z"/>
		<path d="M-4.984,0.458c-0.052,0.004-0.06,0.023-0.055,0.063l0.008,0.06C-5.027,0.621-5.015,0.63-4.99,0.626l-0.006,0.098
			C-5.106,0.747-5.124,0.792-5.29,0.817c-0.225,0.03-0.428-0.054-0.467-0.336c-0.036-0.262,0.116-0.417,0.361-0.45
			c0.143-0.02,0.256,0.024,0.303,0.043L-5.111,0.25l-0.066,0.01c-0.032-0.078-0.103-0.1-0.186-0.091
			C-5.5,0.188-5.562,0.276-5.54,0.452c0.022,0.176,0.098,0.244,0.235,0.226c0.032-0.006,0.074-0.021,0.096-0.037l-0.013-0.094
			c-0.005-0.041-0.019-0.055-0.07-0.048L-5.306,0.5l0.008-0.103l0.296-0.04l0.033,0.098L-4.984,0.458z"/>
		<path d="M-4.332,0.794c-0.231-0.017-0.385-0.138-0.363-0.427C-4.669,0.079-4.5-0.014-4.268,0.004
			c0.238,0.019,0.387,0.138,0.363,0.428C-3.929,0.719-4.097,0.814-4.332,0.794z M-4.28,0.143c-0.119-0.008-0.182,0.053-0.197,0.243
			c-0.016,0.189,0.037,0.261,0.155,0.27C-4.2,0.666-4.137,0.604-4.123,0.414C-4.107,0.224-4.157,0.153-4.28,0.143z"/>
		<path d="M-3.061,0.463c0.004-0.053-0.002-0.08-0.081-0.102l-0.072-0.019l-0.125,0.462c-0.012,0.041-0.006,0.06,0.042,0.072
			l-0.046,0.092L-3.62,0.894l0.005-0.104c0.049,0.014,0.062,0,0.073-0.041l0.128-0.463l-0.072-0.018
			c-0.08-0.022-0.099-0.001-0.122,0.046l-0.074-0.037l0.069-0.178l0.664,0.181l-0.028,0.191L-3.061,0.463z"/>
		<path d="M-2.258,1.447l-0.254-0.129l0.028-0.101c0.045,0.022,0.062,0.013,0.081-0.025l0.081-0.154l-0.259-0.131l-0.08,0.155
			c-0.021,0.037-0.021,0.057,0.025,0.079L-2.7,1.222l-0.253-0.129l0.026-0.1c0.048,0.022,0.062,0.014,0.082-0.024l0.201-0.399
			c0.022-0.038,0.018-0.057-0.028-0.081l0.068-0.08l0.252,0.131l-0.026,0.098C-2.423,0.614-2.439,0.623-2.46,0.662l-0.062,0.124
			l0.259,0.131l0.063-0.124c0.019-0.037,0.016-0.056-0.029-0.08l0.068-0.081l0.251,0.129l-0.026,0.102
			c-0.044-0.022-0.06-0.014-0.082,0.025L-2.22,1.287c-0.018,0.038-0.018,0.057,0.027,0.081L-2.258,1.447z"/>
		<path d="M-1.771,1.831C-1.949,1.684-2.01,1.497-1.825,1.274c0.182-0.225,0.379-0.202,0.557-0.055
			c0.181,0.149,0.237,0.335,0.054,0.558C-1.396,2.001-1.59,1.98-1.771,1.831z M-1.357,1.327c-0.091-0.075-0.178-0.061-0.299,0.085
			c-0.12,0.146-0.119,0.235-0.026,0.311c0.093,0.078,0.181,0.06,0.301-0.085C-1.26,1.489-1.263,1.404-1.357,1.327z"/>
		<path d="M-1.063,2.537L-1.3,2.243l0.067-0.08C-1.204,2.202-1.18,2.2-1.151,2.175l0.348-0.283c0.035-0.028,0.04-0.044,0.011-0.084
			l0.091-0.046l0.22,0.273c0.121,0.149,0.134,0.274,0.028,0.361c-0.047,0.038-0.125,0.04-0.187,0.01
			c0.037,0.097,0.009,0.181-0.059,0.233C-0.809,2.729-0.946,2.683-1.063,2.537z M-0.88,2.222l-0.172,0.139l0.068,0.087
			c0.051,0.065,0.111,0.068,0.164,0.027c0.052-0.042,0.058-0.104,0.004-0.173L-0.88,2.222z M-0.784,2.145l0.058,0.072
			c0.047,0.06,0.1,0.062,0.141,0.028c0.043-0.034,0.052-0.081,0-0.142L-0.642,2.03L-0.784,2.145z"/>
		<path d="M0.125,3.332l-0.317,0.163c-0.145,0.073-0.299,0.001-0.394-0.188c-0.094-0.189-0.067-0.354,0.08-0.428l0.318-0.163
			c0.038-0.018,0.047-0.035,0.024-0.082l0.1-0.026l0.133,0.26l-0.082,0.067c-0.022-0.045-0.04-0.049-0.08-0.028L-0.41,3.069
			C-0.475,3.103-0.496,3.166-0.453,3.25c0.043,0.086,0.107,0.106,0.171,0.075l0.319-0.163c0.04-0.02,0.048-0.038,0.024-0.082
			l0.1-0.026l0.121,0.237L0.204,3.36C0.182,3.315,0.165,3.312,0.125,3.332z"/>
		<path d="M-0.123,4.604l-0.058-0.222c0.076-0.136,0.289-0.109,0.249-0.258l-0.024-0.09l-0.143,0.037
			c-0.038,0.01-0.053,0.025-0.038,0.072L-0.243,4.15l-0.072-0.276l0.093-0.046c0.012,0.049,0.031,0.056,0.071,0.045l0.435-0.116
			c0.041-0.009,0.054-0.025,0.041-0.073l0.103-0.004l0.102,0.375C0.577,4.238,0.531,4.364,0.39,4.4
			C0.301,4.425,0.223,4.393,0.165,4.31c0,0.099-0.081,0.145-0.13,0.169C-0.022,4.508-0.04,4.524-0.023,4.581l0.004,0.017
			L-0.123,4.604z M0.408,4.056L0.377,3.945L0.165,4.001l0.028,0.108C0.214,4.19,0.266,4.22,0.329,4.204
			C0.396,4.187,0.427,4.137,0.408,4.056z"/>
		<path d="M0.245,5.547c-0.002-0.051-0.02-0.061-0.06-0.06L0.125,5.49C0.087,5.491,0.077,5.502,0.078,5.528L-0.02,5.513
			C-0.033,5.403-0.08,5.378-0.087,5.21c-0.013-0.225,0.087-0.422,0.374-0.437C0.55,4.761,0.695,4.926,0.704,5.171
			c0.007,0.148-0.045,0.255-0.068,0.302L0.463,5.438L0.458,5.37C0.54,5.344,0.565,5.275,0.564,5.195
			c-0.008-0.14-0.091-0.212-0.266-0.203c-0.179,0.01-0.251,0.076-0.245,0.216c0.003,0.034,0.013,0.076,0.028,0.1l0.092-0.005
			c0.04-0.002,0.056-0.013,0.055-0.066V5.222L0.33,5.237l0.016,0.297L0.248,5.561L0.245,5.547z"/>
		<path d="M-0.172,6.415l0.09-0.589l0.104-0.007c-0.01,0.049,0.006,0.064,0.047,0.068l0.444,0.069
			c0.042,0.005,0.061-0.002,0.067-0.054l0.097,0.039L0.593,6.504L0.411,6.479L0.408,6.396c0.059,0,0.076-0.013,0.086-0.1
			l0.023-0.129l-0.187-0.03l-0.016,0.12c-0.009,0.05-0.003,0.07,0.038,0.074L0.32,6.411L0.139,6.384L0.131,6.299
			c0.037,0.005,0.051-0.01,0.059-0.062l0.019-0.118L0.008,6.088l-0.026,0.181c-0.012,0.081,0.006,0.101,0.06,0.118l-0.03,0.08
			L-0.172,6.415z"/>
		<path d="M0.078,7.58l-0.572-0.218l0.054-0.145l0.52-0.146c0.035-0.01,0.097-0.018,0.097-0.018S0.118,7.039,0.094,7.03
			l-0.252-0.094c-0.039-0.018-0.06-0.015-0.076,0.034l-0.087-0.056l0.087-0.229l0.104,0.016c-0.021,0.045-0.007,0.063,0.031,0.076
			L0.32,6.937C0.361,6.952,0.379,6.948,0.397,6.9l0.087,0.058L0.406,7.161l-0.47,0.136c-0.038,0.012-0.101,0.016-0.101,0.016
			S-0.107,7.33-0.076,7.34l0.215,0.081c0.038,0.015,0.058,0.012,0.075-0.033l0.088,0.056L0.214,7.672L0.112,7.658
			C0.13,7.611,0.118,7.595,0.078,7.58z"/>
		<path d="M-0.791,7.864c0.079-0.128,0.178-0.195,0.227-0.221l0.117,0.124l-0.037,0.06c-0.087-0.025-0.163,0.029-0.203,0.1
			C-0.719,7.979-0.73,8.05-0.676,8.08C-0.629,8.113-0.586,8.09-0.5,7.994c0.087-0.098,0.205-0.175,0.337-0.088
			c0.131,0.081,0.131,0.244,0.036,0.385c-0.07,0.112-0.155,0.182-0.202,0.206l-0.109-0.114l0.037-0.058
			c0.078,0.01,0.14-0.042,0.176-0.094c0.037-0.056,0.037-0.114-0.009-0.146c-0.042-0.023-0.085,0-0.148,0.07
			c-0.115,0.134-0.226,0.202-0.371,0.115C-0.893,8.18-0.884,8.009-0.791,7.864z"/>
		<path d="M-1.337,8.589l0.191-0.217l0.089,0.055C-1.09,8.463-1.087,8.483-1.052,8.512l0.333,0.298
			c0.033,0.028,0.052,0.031,0.085-0.006l0.062,0.083l-0.191,0.215l-0.089-0.053c0.031-0.039,0.027-0.058-0.002-0.083l-0.336-0.299
			c-0.032-0.03-0.052-0.031-0.083,0.004L-1.337,8.589z"/>
		<path d="M-1.815,9.01c0.119-0.095,0.234-0.13,0.29-0.139l0.071,0.158l-0.055,0.042c-0.078-0.051-0.165-0.021-0.229,0.03
			c-0.046,0.039-0.08,0.102-0.038,0.151c0.034,0.044,0.082,0.037,0.194-0.027c0.115-0.062,0.253-0.096,0.351,0.027
			c0.093,0.119,0.04,0.267-0.093,0.38c-0.102,0.083-0.206,0.116-0.26,0.128l-0.065-0.148l0.055-0.041
			c0.071,0.037,0.148,0.005,0.198-0.032c0.052-0.042,0.071-0.095,0.036-0.136c-0.03-0.038-0.078-0.029-0.161,0.015
			c-0.151,0.085-0.282,0.119-0.389-0.011C-2.014,9.273-1.946,9.114-1.815,9.01z"/>
		<path d="M-5.953,10.699l-0.383-0.108l0.009-0.103l0.047,0.014c0.051,0.015,0.069,0.004,0.081-0.039l0.11-0.392
			c-0.028,0.017-0.073,0.024-0.151,0.009l0.032-0.114c0.083,0.003,0.133-0.007,0.219-0.083l0.156,0.044l-0.168,0.59
			c-0.014,0.041-0.001,0.06,0.047,0.077l0.049,0.016L-5.953,10.699z"/>
		<path d="M-5.224,10.831c-0.211-0.021-0.337-0.117-0.325-0.248c0.01-0.107,0.105-0.16,0.208-0.198
			c-0.084-0.047-0.153-0.105-0.146-0.191c0.012-0.115,0.144-0.181,0.339-0.162c0.19,0.021,0.309,0.105,0.302,0.224
			c-0.011,0.087-0.088,0.13-0.181,0.162c0.096,0.05,0.179,0.123,0.167,0.232C-4.872,10.78-5.017,10.851-5.224,10.831z
			 M-5.189,10.467c-0.085,0.033-0.147,0.076-0.153,0.137c-0.009,0.058,0.046,0.103,0.131,0.11c0.076,0.01,0.144-0.028,0.146-0.083
			C-5.055,10.568-5.112,10.515-5.189,10.467z M-5.158,10.15c-0.069-0.009-0.118,0.018-0.122,0.066
			c-0.005,0.049,0.036,0.093,0.104,0.127c0.069-0.024,0.119-0.058,0.123-0.107C-5.048,10.188-5.093,10.154-5.158,10.15z"/>
		<path d="M-4.256,10.833c-0.05,0.004-0.147-0.004-0.182-0.023l-0.01-0.11c0.038,0.013,0.091,0.015,0.137,0.013
			c0.139-0.016,0.215-0.082,0.234-0.222c-0.025,0.044-0.096,0.083-0.171,0.09c-0.19,0.019-0.306-0.08-0.321-0.236
			c-0.015-0.163,0.102-0.292,0.301-0.308c0.238-0.023,0.357,0.118,0.378,0.322C-3.865,10.599-3.97,10.807-4.256,10.833z
			 M-4.255,10.154c-0.089,0.015-0.137,0.08-0.128,0.17c0.007,0.087,0.062,0.141,0.15,0.134c0.081-0.007,0.15-0.065,0.138-0.166
			C-4.101,10.224-4.144,10.148-4.255,10.154z"/>
		<path d="M-3.051,10.591l-0.384,0.102l-0.045-0.094l0.048-0.012c0.051-0.014,0.062-0.029,0.048-0.072l-0.104-0.391
			c-0.014,0.026-0.054,0.054-0.126,0.082l-0.029-0.112c0.074-0.039,0.114-0.075,0.145-0.186l0.157-0.043l0.158,0.595
			c0.01,0.042,0.029,0.052,0.078,0.04l0.05-0.015L-3.051,10.591z"/>
	</g>
	<g>
		<path d="M4.025,6.012c0-0.19,0.005-0.306,0.005-0.801c0-0.395-0.005-0.709-0.009-1.16l-0.023-0.02l-0.48-0.025V3.835h1.434v0.17
			L4.544,4.03L4.525,4.05C4.52,4.426,4.516,5.236,4.516,5.991c0,0.631,0.143,1.056,0.808,1.056c0.695,0,0.898-0.406,0.898-1.149
			c0-0.651-0.01-1.357-0.023-1.847L6.179,4.03L5.72,4.005v-0.17h1.325v0.17L6.555,4.03L6.535,4.05
			C6.519,4.587,6.519,5.321,6.525,5.942c0.002,0.859-0.4,1.319-1.24,1.319C4.461,7.262,4.025,6.838,4.025,6.012z"/>
		<path d="M7.397,7.041l0.491-0.028l0.019-0.018c0.014-0.534,0.014-0.929,0.014-1.43c0-0.5,0-0.773-0.014-1.515l-0.02-0.021
			L7.395,4.004V3.835h0.958C8.963,4.69,9.656,5.691,10.16,6.406h0.01c-0.01-0.96-0.021-1.866-0.03-2.356L10.12,4.03L9.661,4.005
			v-0.17h1.324v0.17L10.494,4.03L10.472,4.05c-0.015,0.537-0.015,0.93-0.015,2.187v0.999h-0.243C9.59,6.358,8.852,5.321,8.219,4.421
			H8.21c0.006,1.171,0.021,2.076,0.032,2.574l0.021,0.02l0.459,0.028v0.169H7.397V7.041L7.397,7.041z"/>
		<path d="M11.333,7.041l0.49-0.028l0.02-0.018c0.013-0.153,0.018-0.829,0.018-1.505c0-0.675-0.005-1.271-0.018-1.442l-0.02-0.02
			l-0.49-0.025V3.835h1.523v0.17L12.369,4.03L12.351,4.05c-0.014,0.136-0.018,0.831-0.018,1.506c0,0.677,0.012,1.271,0.018,1.44
			l0.019,0.02l0.486,0.026v0.171h-1.523V7.041z"/>
		<path d="M13.429,4.021l-0.3-0.016v-0.17h1.311v0.17l-0.444,0.02l-0.021,0.02c0.279,0.725,0.608,1.602,0.939,2.448h0.012
			C15.17,5.81,15.594,4.6,15.76,4.039l-0.014-0.014l-0.409-0.02v-0.17h1.105v0.17l-0.289,0.016c-0.262,0.66-0.861,2.216-1.256,3.241
			h-0.135C14.251,6.012,13.804,4.922,13.429,4.021z"/>
		<path d="M16.72,7.041l0.492-0.028l0.021-0.018c0.005-0.229,0.016-0.829,0.016-1.505c0-0.675-0.011-1.241-0.016-1.442l-0.022-0.02
			l-0.492-0.025V3.835h2.199l0.192-0.085h0.073l0.036,1.095h-0.1c-0.177-0.505-0.338-0.754-0.42-0.762l-0.947-0.048l-0.017,0.025
			c-0.004,0.23-0.014,0.761-0.014,1.32c0.225,0,0.715-0.016,0.845-0.024l0.023-0.021l0.18-0.35h0.095
			c-0.008,0.139-0.013,0.354-0.013,0.489c0,0.132,0.004,0.41,0.013,0.561h-0.095l-0.18-0.415l-0.023-0.021
			c-0.155-0.004-0.601-0.015-0.845-0.015c0,0.637,0.01,1.146,0.014,1.398l0.017,0.027l1.021-0.054
			c0.082-0.007,0.31-0.213,0.49-0.801h0.116C19.314,7.134,19.3,7.21,19.215,7.21h-2.494L16.72,7.041L16.72,7.041z"/>
		<path d="M19.878,7.041l0.501-0.028l0.021-0.018c0.005-0.144,0.015-0.829,0.015-1.505c0-0.675-0.009-1.217-0.015-1.442l-0.022-0.02
			l-0.5-0.025V3.835c0.451,0,0.931-0.01,1.187-0.01c0.395,0,0.625,0.025,0.812,0.081c0.478,0.143,0.688,0.454,0.688,0.795
			c0,0.494-0.335,0.73-0.744,0.861v0.01c0.129,0.147,0.354,0.559,0.643,1.068c0.129,0.223,0.248,0.388,0.411,0.396l0.109,0.005V7.21
			h-0.75l-0.018-0.019c-0.188-0.375-0.316-0.679-0.632-1.24c-0.064-0.115-0.124-0.21-0.197-0.295
			c-0.181,0.026-0.352,0.034-0.496,0.034c-0.008,0.595,0.01,1.156,0.016,1.304l0.018,0.02l0.463,0.027v0.171h-1.507V7.041H19.878z
			 M22.024,4.706c0-0.275-0.121-0.479-0.347-0.585c-0.125-0.061-0.278-0.095-0.594-0.095h-0.164l-0.014,0.015
			c-0.005,0.216-0.01,0.872-0.016,1.456C21.76,5.471,22.024,5.191,22.024,4.706z"/>
		<path d="M23.536,6.157h0.115c0.176,0.635,0.46,0.898,0.812,0.898c0.409,0,0.67-0.273,0.67-0.634c0-0.87-1.535-0.649-1.535-1.751
			c0-0.466,0.365-0.892,0.999-0.892c0.327,0,0.586,0.1,0.642,0.114l0.15-0.145h0.093l0.03,1.097h-0.103
			c-0.21-0.61-0.485-0.86-0.827-0.86c-0.294,0-0.549,0.194-0.549,0.525c0,0.836,1.561,0.706,1.561,1.76
			c0,0.506-0.377,0.991-1.16,0.991c-0.216,0-0.467-0.052-0.688-0.195l-0.102,0.195h-0.104V6.157H23.536z"/>
		<path d="M26.168,7.041l0.491-0.028l0.018-0.018c0.009-0.153,0.018-0.829,0.018-1.505c0-0.675-0.008-1.271-0.018-1.442l-0.018-0.02
			l-0.491-0.025V3.835h1.52v0.17L27.202,4.03l-0.02,0.021c-0.01,0.136-0.014,0.831-0.014,1.506c0,0.677,0.009,1.271,0.014,1.44
			l0.021,0.02l0.485,0.026v0.171h-1.52L26.168,7.041L26.168,7.041z"/>
		<path d="M28.73,7.041l0.532-0.028l0.023-0.018c0.003-0.183,0.014-0.829,0.014-1.505c0-0.675,0-1.231-0.014-1.406l-0.016-0.025
			h-0.594c-0.106,0-0.233,0.181-0.437,0.787h-0.1l0.042-1.097h0.086l0.145,0.085h2.246l0.146-0.085h0.085l0.042,1.097h-0.094
			c-0.21-0.61-0.332-0.787-0.437-0.787h-0.595l-0.016,0.025c-0.003,0.121-0.013,0.795-0.013,1.472s0.009,1.261,0.013,1.439
			l0.021,0.02l0.549,0.028v0.169h-1.628L28.73,7.041L28.73,7.041z"/>
		<path d="M32.209,7.041l0.496-0.028l0.021-0.018c0.01-0.373,0.015-0.602,0.015-1.289c-0.415-0.628-0.871-1.355-1.095-1.685
			l-0.334-0.016v-0.17h1.274v0.17l-0.359,0.02l-0.022,0.02c0.246,0.411,0.59,0.987,0.855,1.396h0.01
			c0.274-0.484,0.597-1.075,0.756-1.401l-0.014-0.015l-0.354-0.02v-0.17h1.083v0.17l-0.308,0.016
			c-0.289,0.424-0.668,1.095-1.018,1.67c0,0.69,0.011,0.856,0.017,1.307l0.019,0.017l0.513,0.028v0.169h-1.554V7.041L32.209,7.041z"
			/>
		<path d="M35.968,5.572c0-1.138,0.696-1.792,1.581-1.792c0.996,0,1.569,0.7,1.569,1.692c0,1.134-0.694,1.789-1.58,1.789
			C36.544,7.262,35.968,6.562,35.968,5.572z M38.578,5.521c0-1.011-0.396-1.516-1.029-1.516c-0.635,0-1.041,0.505-1.041,1.516
			s0.395,1.515,1.029,1.515C38.173,7.036,38.578,6.532,38.578,5.521z"/>
		<path d="M39.621,7.041l0.49-0.028l0.021-0.023c0.005-0.173,0.015-0.823,0.015-1.499c0-0.675-0.01-1.266-0.015-1.442l-0.021-0.02
			l-0.49-0.025V3.835h2.206l0.191-0.085h0.078l0.033,1.095h-0.1c-0.181-0.505-0.341-0.762-0.422-0.766l-0.96-0.044l-0.015,0.025
			c-0.006,0.145-0.014,0.761-0.014,1.32c0.224,0,0.715-0.016,0.834-0.024l0.02-0.021l0.184-0.35h0.093
			c-0.004,0.139-0.011,0.354-0.011,0.489c0,0.132,0.007,0.446,0.011,0.597h-0.093l-0.193-0.451l-0.019-0.02
			c-0.146-0.004-0.581-0.016-0.825-0.016c0,0.637,0,1.203,0.014,1.403l0.02,0.023l0.541,0.028V7.21h-1.573V7.041L39.621,7.041z"/>
		<path d="M43.733,5.521c0-1.095,0.738-1.742,1.713-1.742c0.371,0,0.588,0.06,0.777,0.115l0.166-0.146h0.075l0.034,1.095h-0.105
			c-0.248-0.67-0.604-0.859-0.976-0.859c-0.58,0-1.144,0.436-1.144,1.485c0,0.82,0.409,1.566,1.259,1.566
			c0.244,0,0.51-0.073,0.51-0.151c0-0.169,0.005-0.625-0.009-1.01l-0.022-0.02l-0.49-0.025V5.661h1.402v0.17l-0.362,0.025
			l-0.019,0.021c-0.012,0.32-0.015,0.68-0.012,1.064c-0.059,0.125-0.54,0.32-1.043,0.32C44.468,7.262,43.733,6.624,43.733,5.521z"/>
		<path d="M47.475,5.572c0-1.138,0.695-1.792,1.581-1.792c0.995,0,1.571,0.7,1.571,1.692c0,1.134-0.697,1.789-1.581,1.789
			C48.052,7.262,47.475,6.562,47.475,5.572z M50.089,5.521c0-1.011-0.399-1.516-1.032-1.516c-0.639,0-1.042,0.505-1.042,1.516
			s0.396,1.515,1.032,1.515C49.682,7.036,50.089,6.532,50.089,5.521z"/>
		<path d="M51.819,7.041l0.533-0.028l0.021-0.018c0.007-0.183,0.016-0.829,0.016-1.505c0-0.675,0-1.231-0.016-1.406l-0.017-0.025
			h-0.594c-0.104,0-0.231,0.181-0.437,0.787h-0.098l0.039-1.097h0.09l0.145,0.085h2.245l0.144-0.085h0.091l0.04,1.097H53.92
			c-0.209-0.61-0.329-0.787-0.436-0.787h-0.596l-0.008,0.025c-0.005,0.121-0.019,0.795-0.019,1.472s0.014,1.261,0.019,1.439
			l0.019,0.02l0.551,0.028v0.169h-1.631V7.041L51.819,7.041z"/>
		<path d="M54.475,7.041l0.489-0.028l0.021-0.018c0.002-0.188,0.013-0.829,0.013-1.505c0-0.675-0.011-1.287-0.013-1.442l-0.021-0.02
			l-0.489-0.025V3.835h1.448v0.17l-0.41,0.024L55.49,4.05c-0.01,0.156-0.016,0.746-0.016,1.307h1.656
			c0.005-0.622-0.012-1.192-0.017-1.307L57.094,4.03l-0.414-0.024v-0.17h1.451v0.17L57.638,4.03L57.616,4.05
			c-0.005,0.151-0.015,0.831-0.015,1.506c0,0.677,0.01,1.221,0.015,1.44l0.022,0.02l0.492,0.026v0.171h-1.451V7.041l0.414-0.028
			l0.021-0.018c0.005-0.17,0.017-0.788,0.017-1.381h-1.656c0,0.638,0.006,1.098,0.016,1.381l0.023,0.02l0.41,0.028v0.169h-1.448
			V7.041z"/>
		<path d="M58.483,7.041l0.487-0.028l0.021-0.018c0.006-0.229,0.019-0.829,0.019-1.505c0-0.675-0.013-1.241-0.019-1.442l-0.021-0.02
			l-0.487-0.025V3.835h2.194l0.195-0.085h0.074l0.034,1.095h-0.1c-0.179-0.505-0.339-0.754-0.426-0.762l-0.944-0.048l-0.014,0.025
			c-0.009,0.23-0.02,0.761-0.02,1.32c0.226,0,0.717-0.016,0.85-0.024l0.019-0.021l0.181-0.35h0.095
			c-0.007,0.139-0.009,0.354-0.009,0.489c0,0.132,0.003,0.41,0.009,0.561h-0.095l-0.181-0.415l-0.019-0.021
			c-0.155-0.004-0.601-0.015-0.85-0.015c0,0.637,0.011,1.146,0.02,1.398l0.014,0.027l1.018-0.054
			c0.084-0.007,0.311-0.213,0.49-0.801h0.115C61.07,7.134,61.055,7.21,60.969,7.21h-2.491L58.483,7.041L58.483,7.041z"/>
		<path d="M61.639,7.041l0.489-0.028l0.021-0.018c0.015-0.534,0.015-0.929,0.015-1.43c0-0.5,0-0.773-0.015-1.515l-0.021-0.021
			l-0.489-0.025V3.835h0.955c0.609,0.855,1.306,1.856,1.806,2.571h0.01c-0.01-0.96-0.02-1.866-0.028-2.356L64.358,4.03l-0.459-0.024
			v-0.17h1.324v0.17L64.734,4.03l-0.02,0.021c-0.016,0.537-0.016,0.93-0.016,2.187v0.999h-0.248
			c-0.619-0.878-1.358-1.915-1.989-2.815h-0.013c0.007,1.171,0.022,2.076,0.03,2.574l0.02,0.02l0.462,0.028v0.169h-1.323V7.041
			H61.639z"/>
		<path d="M65.574,7.041l0.492-0.028l0.02-0.018c0.006-0.175,0.014-0.829,0.014-1.505c0-0.675-0.008-1.221-0.014-1.442l-0.022-0.02
			l-0.492-0.025V3.835c0.373,0,0.798-0.01,1.093-0.01c0.366,0,0.646,0.03,0.869,0.1c0.399,0.125,0.635,0.381,0.635,0.746
			c0,0.429-0.283,0.686-0.61,0.766v0.01c0.528,0.024,0.847,0.336,0.847,0.74c0,0.68-0.612,1.038-1.581,1.038
			c-0.326,0-0.849-0.015-1.252-0.015L65.574,7.041L65.574,7.041z M66.894,5.37c0.587,0,0.737-0.279,0.737-0.665
			c0-0.266-0.097-0.465-0.301-0.571c-0.133-0.069-0.312-0.109-0.588-0.109c-0.029,0-0.082,0-0.135,0.004l-0.021,0.025
			c-0.002,0.26-0.019,0.752-0.014,1.315L66.894,5.37L66.894,5.37z M67.865,6.252c0-0.477-0.322-0.661-0.764-0.661h-0.524
			c-0.004,0.636,0.011,1.141,0.016,1.404l0.027,0.02c0.092,0.008,0.186,0.008,0.246,0.008C67.535,7.022,67.865,6.742,67.865,6.252z"
			/>
		<path d="M69.414,6.012c0-0.19,0.006-0.306,0.006-0.801c0-0.395-0.006-0.709-0.015-1.16L69.387,4.03l-0.479-0.024v-0.17h1.43v0.17
			L69.933,4.03l-0.02,0.021c-0.005,0.376-0.015,1.186-0.015,1.941c0,0.631,0.147,1.056,0.812,1.056c0.693,0,0.897-0.406,0.897-1.149
			c0-0.651-0.014-1.357-0.021-1.847L71.57,4.03l-0.462-0.024v-0.17h1.326v0.17L71.943,4.03l-0.02,0.021
			c-0.017,0.537-0.017,1.271-0.013,1.892c0.008,0.859-0.396,1.319-1.235,1.319C69.849,7.262,69.414,6.838,69.414,6.012z"/>
		<path d="M72.785,7.041l0.501-0.028l0.021-0.018c0.006-0.144,0.014-0.829,0.014-1.505c0-0.675-0.008-1.217-0.014-1.442l-0.022-0.02
			l-0.5-0.025V3.835c0.449,0,0.931-0.01,1.184-0.01c0.396,0,0.625,0.025,0.812,0.081c0.478,0.143,0.688,0.454,0.688,0.795
			c0,0.494-0.337,0.73-0.743,0.861v0.01c0.128,0.147,0.354,0.559,0.646,1.068c0.125,0.223,0.246,0.388,0.409,0.396l0.111,0.005V7.21
			h-0.75L75.12,7.191c-0.187-0.375-0.314-0.679-0.631-1.24c-0.063-0.115-0.125-0.21-0.195-0.295
			c-0.183,0.026-0.354,0.034-0.496,0.034c-0.007,0.598,0.006,1.157,0.015,1.305l0.018,0.02l0.464,0.028v0.169h-1.507V7.041H72.785z
			 M74.931,4.706c0-0.275-0.123-0.479-0.347-0.585c-0.123-0.061-0.278-0.096-0.595-0.096h-0.165L73.812,4.04
			c-0.009,0.215-0.012,0.872-0.018,1.457C74.665,5.471,74.931,5.191,74.931,4.706z"/>
		<path d="M76.317,5.521c0-1.095,0.738-1.742,1.717-1.742c0.369,0,0.585,0.06,0.776,0.115l0.163-0.146h0.078l0.032,1.095h-0.104
			c-0.248-0.67-0.605-0.859-0.977-0.859c-0.577,0-1.142,0.436-1.142,1.485c0,0.82,0.409,1.566,1.26,1.566
			c0.245,0,0.512-0.073,0.512-0.151c0-0.169,0.005-0.625-0.012-1.01l-0.022-0.02l-0.49-0.025V5.661h1.4v0.17L79.15,5.856
			l-0.022,0.021c-0.009,0.32-0.016,0.68-0.009,1.064c-0.062,0.125-0.541,0.32-1.047,0.32C77.052,7.262,76.317,6.624,76.317,5.521z"
			/>
	</g>
</g>
</svg>
