<?xml version="1.0" encoding="utf-8"?>
<!-- Generator: Adobe Illustrator 16.0.0, SVG Export Plug-In . SVG Version: 6.00 Build 0)  -->
<!DOCTYPE svg PUBLIC "-//W3C//DTD SVG 1.1//EN" "http://www.w3.org/Graphics/SVG/1.1/DTD/svg11.dtd">
<svg version="1.1" id="sve_neg" xmlns="http://www.w3.org/2000/svg" xmlns:xlink="http://www.w3.org/1999/xlink" x="0px" y="0px"
	 width="90px" height="70px" viewBox="2.949 3.404 90 70" enable-background="new 2.949 3.404 90 70" xml:space="preserve">
<g>
	<g>
		<path d="M39.091,15.713c-2.505,2.398-3.926,5.627-4,9.094c-0.155,7.155,5.541,13.103,12.695,13.258
			c3.468,0.075,6.755-1.204,9.26-3.601c2.504-2.399,3.924-5.628,4.001-9.094c0.154-7.155-5.541-13.103-12.696-13.258
			C44.883,12.036,41.596,13.315,39.091,15.713z M47.803,37.207c-6.682-0.144-12-5.699-11.855-12.382
			c0.07-3.237,1.396-6.253,3.736-8.493c2.338-2.238,5.41-3.434,8.646-3.363c6.682,0.144,12.001,5.7,11.856,12.383
			c-0.07,3.237-1.397,6.253-3.736,8.493C54.112,36.082,51.04,37.279,47.803,37.207z"/>
		<path d="M35.941,12.423c-3.384,3.24-5.302,7.604-5.404,12.285c-0.209,9.667,7.484,17.703,17.151,17.912
			c9.668,0.21,17.7-7.486,17.91-17.153l0,0c0.102-4.682-1.627-9.123-4.864-12.506c-3.241-3.383-7.604-5.301-12.288-5.403
			C43.766,7.455,39.323,9.183,35.941,12.423z M47.703,41.91c-9.274-0.2-16.658-7.911-16.457-17.188
			c0.097-4.492,1.938-8.678,5.185-11.787c3.246-3.108,7.508-4.766,12-4.67c4.493,0.098,8.679,1.939,11.789,5.186
			c3.107,3.246,4.765,7.508,4.668,12l0,0C64.688,34.727,56.978,42.111,47.703,41.91z"/>
		<path d="M38.533,27.112c-0.157-0.125-0.221-0.362-0.157-0.588c0.074-0.263,0.294-0.444,0.587-0.485
			c0.376-0.051,0.686,0.06,0.897,0.319c0.353,0.432,0.384,1.209,0.082,2.077c-0.551,1.579,0.036,2.425,0.313,2.715
			c0.223,0.231,0.489,0.36,0.645,0.312l0.019-0.005l0.003-0.02c0.014-0.098,0.132-0.347,0.209-0.49l0.009-0.017l-0.013-0.017
			c-0.466-0.595-0.597-1.37-0.333-1.979c0.224-0.517,0.688-0.833,1.306-0.887c0.293-0.026,0.409,0.064,0.419,0.15
			c0.011,0.096-0.098,0.213-0.299,0.242c-0.659,0.095-0.932,0.551-0.969,0.943c-0.032,0.353,0.11,0.665,0.341,0.743
			c0.125,0.003,0.224-0.038,0.301-0.115L41.907,30l-0.002-0.015c-0.013-0.171,0.064-0.375,0.18-0.472
			c0.073-0.062,0.155-0.082,0.244-0.06c0.363,0.091,0.388,0.37,0.382,0.485c-0.013,0.266-0.204,0.509-0.425,0.542l-0.02,0.002
			l-0.144,0.412c-0.164,0.448-0.35,0.955-0.293,1.255c0.037,0.199,0.128,0.329,0.256,0.37c0.113,0.035,0.24-0.009,0.351-0.12
			c0.15-0.148,0.226-0.469,0.315-0.843l0.039-0.154l-0.001-0.006c-0.061-0.263-0.018-0.497,0.117-0.607
			c0.093-0.08,0.221-0.088,0.367-0.025c0.098,0.042,0.166,0.127,0.194,0.243c0.045,0.184-0.021,0.412-0.17,0.594l-0.006,0.007
			l-0.001,0.01c-0.015,0.167-0.055,0.348-0.092,0.521c-0.054,0.25-0.107,0.486-0.084,0.675c0.017,0.125,0.091,0.216,0.213,0.254
			c0.159,0.051,0.365,0,0.467-0.114c0.11-0.122,0.211-0.631,0.314-1.188l0.074-0.371l-0.014-0.014
			c-0.114-0.102-0.15-0.317-0.083-0.515c0.066-0.201,0.218-0.324,0.416-0.34c0.161-0.012,0.274,0.042,0.336,0.161
			c0.12,0.229,0.019,0.613-0.083,0.735l-0.009,0.012l0.005,0.016c0.089,0.339,0.047,0.709,0.013,1.009
			c-0.027,0.246-0.051,0.458,0.005,0.588c0.058,0.136,0.196,0.235,0.369,0.263c0.18,0.031,0.356-0.021,0.462-0.138
			c0.118-0.132,0.093-0.336,0.067-0.574c-0.025-0.209-0.053-0.448,0.001-0.703l0.002-0.01l-0.004-0.008
			c-0.101-0.245-0.095-0.486,0.013-0.66c0.068-0.11,0.169-0.178,0.279-0.186c0.176-0.015,0.298,0.019,0.363,0.101
			c0.136,0.164,0.037,0.504-0.043,0.777l-0.008,0.027c0.028,0.385,0.095,0.917,0.252,1.333c0.051,0.133,0.187,0.226,0.343,0.229
			c0.163,0.004,0.299-0.086,0.366-0.243c0.058-0.138-0.003-0.422-0.068-0.723c-0.036-0.163-0.072-0.331-0.088-0.475
			c-0.137-0.321-0.162-0.547-0.081-0.682c0.049-0.082,0.137-0.128,0.261-0.138c0.075-0.007,0.22,0,0.331,0.111
			c0.123,0.121,0.175,0.328,0.157,0.618c0,0.011,0.117,0.426,0.117,0.426c0.087,0.321,0.178,0.654,0.291,0.896
			c0.035,0.134,0.145,0.229,0.272,0.236c0.132,0.006,0.247-0.079,0.3-0.222c0.091-0.257-0.045-0.549-0.217-0.917l-0.088-0.184
			c-0.178-0.176-0.239-0.343-0.186-0.495c0.057-0.162,0.241-0.272,0.384-0.284c0.134-0.01,0.319,0.003,0.438,0.13
			c0.114,0.119,0.154,0.318,0.121,0.592l-0.001,0.006l0.167,0.536c0.059,0.21,0.115,0.391,0.169,0.52
			c0.053,0.129,0.167,0.217,0.316,0.241c0.144,0.024,0.282-0.017,0.364-0.11c0.11-0.121,0.029-0.287-0.06-0.478
			c-0.057-0.119-0.121-0.253-0.153-0.396l-0.001-0.01l-0.01-0.006c-0.185-0.179-0.26-0.407-0.196-0.583
			c0.043-0.122,0.146-0.193,0.295-0.205c0.184-0.015,0.32,0.022,0.408,0.11c0.096,0.095,0.138,0.25,0.124,0.462l0.001,0.008
			l0.004,0.008c0.05,0.107,0.077,0.225,0.107,0.352c0.042,0.174,0.086,0.356,0.189,0.523c0.091,0.151,0.219,0.229,0.35,0.218
			c0.152-0.011,0.294-0.132,0.37-0.317c0.054-0.133-0.038-0.345-0.136-0.569c-0.099-0.229-0.202-0.467-0.13-0.586
			c0.031-0.052,0.092-0.08,0.19-0.088c0.428-0.034,0.606,0.35,0.745,0.658c0.062,0.132,0.115,0.245,0.181,0.308
			c0.079,0.077,0.157,0.113,0.237,0.11c0.117-0.004,0.206-0.088,0.261-0.153c0.087-0.094,0.036-0.25-0.014-0.4
			c-0.066-0.208-0.099-0.349,0.036-0.41c0.341-0.157,0.469-0.004,0.618,0.173c0.107,0.125,0.218,0.257,0.415,0.26
			c0.926,0.015,1.674-0.682,2.139-1.269c0.801-1.013,1.22-2.274,1.091-2.775l-0.003-0.013l-0.013-0.006
			c-0.345-0.205-0.426-0.58-0.35-0.86c0.065-0.252,0.245-0.418,0.454-0.422c0.329-0.006,0.572,0.107,0.721,0.339
			c0.123,0.19,0.186,0.458,0.186,0.789c0,0.707-0.273,1.697-0.802,2.836c-1.326,2.863-4.606,4.2-5.959,4.444
			c-6.546,1.103-11.587-1.294-12.525-4.366c-0.397-1.302-0.222-1.958,0.03-2.642c0.139-0.374,0.282-0.762,0.333-1.277l0.005-0.058
			l-0.05,0.027C38.975,27.24,38.708,27.255,38.533,27.112z"/>
		<path d="M47.27,15.227c0.124-0.096,0.179-0.214,0.162-0.35c-0.048-0.359,0.13-0.786,0.499-0.85
			c0.465-0.081,1.315,0.025,1.471,0.128c0.216,0.141,0.304,0.309,0.256,0.473c-0.083,0.248-0.445,0.434-0.835,0.421
			c-0.247-0.008-0.434,0.071-0.555,0.235c-0.368,0.509,0.01,1.669,0.135,2.012c0.036,0.101,0.113,0.147,0.22,0.131
			c-0.004,0,0.914-0.089,0.914-0.089c0.769-0.079,1.723-0.179,2.517-0.194c-0.002,0,0.062-0.028,0.062-0.028l0.017-0.057
			c-0.017-0.179-0.121-0.645-0.168-0.743l-0.009-0.017L51.937,16.3c-0.189-0.017-0.537-0.13-0.743-0.375
			c-0.121-0.145-0.172-0.317-0.155-0.509c0.05-0.332,0.525-0.517,0.934-0.498c0.479-0.007,0.859,0.132,1.017,0.371
			c0.12,0.189,0.109,0.439-0.033,0.741l-0.003,0.007v0.004c0.002,0.253,0.121,0.751,0.204,0.923
			c0.031,0.061,0.121,0.071,0.139,0.073l0.135,0.008c0.254,0.014,0.571,0.034,1.157,0.18c0.176,0.044,0.346,0.256,0.325,0.502
			c-0.08,0.837-0.218,1.319-0.405,1.987l-0.213,0.778c-0.01,0.031,0.003,0.084,0.043,0.098l0,0c0.557,0.2,1.196,0.538,1.18,0.833
			c-0.018,0.239-0.09,0.312-0.131,0.335c-0.034,0.018-0.074,0.017-0.108-0.001c-0.335-0.19-0.838-0.315-1.002-0.346
			c-0.027-0.005-0.074,0.023-0.084,0.051c-0.059,0.201,0.017,0.46,0.104,0.76c0.099,0.338,0.214,0.722,0.156,1.114
			c-0.057,0.431-0.226,0.939-0.347,1.31c-0.084,0.255-0.144,0.438-0.142,0.51c0.004,0.203,0.01,0.214,0.122,0.302
			c0.085,0.063,0.237,0.179,0.511,0.49c0.999,1.124,0.182,2.731-0.416,3.904c-0.209,0.408-0.388,0.763-0.459,1.03
			c-0.046,0.182-0.414,0.392-0.87,0.501c-0.451,0.107-0.827,0.081-0.959-0.067c-0.026-0.031-0.038-0.07-0.033-0.118
			c0.016-0.109,0.111-0.237,0.262-0.342c0.24-0.168,0.483-0.249,0.848-0.372c0.053-0.017,0.087-0.055,0.088-0.1
			c0.312-1.604,0.519-2.968,0.147-4.655l-0.087-0.261c-0.066-0.176-0.136-0.358-0.129-0.651c0.002-0.102,0.025-0.242,0.054-0.405
			c0.097-0.565,0.247-1.418-0.163-2.389c-0.102-0.157-0.293-0.217-0.492-0.164c-0.174,0.046-0.358,0.184-0.367,0.387l-0.01,0.117
			c-0.056,0.826-0.121,1.763-0.559,2.632c-0.245,0.486,0.007,0.681,0.252,0.87l0.016,0.011c0.883,0.681,0.737,2.199,0.133,3.346
			l-0.091,0.174c-0.122,0.226-0.261,0.48-0.378,0.806l-0.043,0.083c-0.196,0.294-0.648,0.511-1.214,0.581
			c-0.395,0.047-0.686,0-0.761-0.068c-0.033-0.036-0.047-0.085-0.038-0.142c0.019-0.145,0.167-0.313,0.303-0.407
			c0.197-0.133,0.469-0.286,0.965-0.4c0.009-0.002,0.085-0.022,0.112-0.111c0.585-1.686,0.063-3.242-0.188-3.7
			c-0.233-0.426-0.202-0.66-0.137-1.126l0.049-0.338c0.095-0.679,0.295-2.093,0.377-3.018c0.002-0.034-0.027-0.087-0.078-0.094
			c-0.16-0.018-0.554-0.049-0.71,0.077c-0.108,0.086-0.121,0.428-0.139,0.9c-0.037,0.928-0.086,2.2-0.874,2.33
			c-0.238,0.039-0.465-0.025-0.67-0.19c-0.496-0.401-0.864-1.412-0.931-2.574c-0.066-1.146,0.115-2.57,0.533-2.972l0.04-0.037
			l-0.052-0.016c-0.133-0.039-0.238-0.161-0.288-0.335c-0.06-0.209-0.02-0.438,0.098-0.569l0.009-0.01v-0.011
			c0-0.129-0.086-0.344-0.191-0.616c-0.12-0.301-0.267-0.675-0.334-1.033c-0.005-0.032-0.064-0.073-0.1-0.075h-0.25
			c-0.743,0.014-2.289,0.042-2.823-1.57c-0.039-0.118,0.049-0.272,0.191-0.334c0.164-0.072,0.33,0.004,0.442,0.207
			c0.14,0.251,0.535,0.628,0.852,0.756C45.872,15.527,46.866,15.538,47.27,15.227z M48.201,21.327
			c-0.021,0.967,0.263,2.449,0.567,2.484c0.326,0.039,0.331-0.917,0.338-1.287c0.019-0.967-0.159-2.476-0.517-2.484
			C48.284,20.035,48.211,20.881,48.201,21.327z M49.413,18.228c-0.231,0.028-0.437,0.191-0.459,0.367
			c-0.024,0.225-0.095,0.313-0.215,0.398l-0.059,0.042l0.071,0.015c0.62,0.12,0.749,0.602,0.849,0.955
			c0.052,0.188,0.091,0.396,0.192,0.435c0.242,0.092,0.688,0.099,0.965-0.007c0.125-0.048,0.189-0.322,0.167-0.503
			c-0.042-0.485-0.208-1.479-0.208-1.479c-0.052-0.207-0.294-0.275-0.437-0.28C50.154,18.166,49.903,18.173,49.413,18.228z
			 M52.738,17.969c-0.396,0.014-0.906,0.062-0.989,0.26c-0.153,0.359-0.045,1.757,0.259,1.932c0.345,0.203,1.165,0.192,1.402-0.033
			c0.182-0.175,0.288-1.188,0.288-1.683c0-0.135-0.013-0.241-0.04-0.292C53.586,18.017,53.115,17.957,52.738,17.969z"/>
		<polygon points="42.651,10.197 42.566,10.865 42.133,11.383 42.8,11.469 43.317,11.901 43.403,11.232 43.835,10.716 43.167,10.63 
					"/>
		<polygon points="55.162,39.173 54.618,38.774 53.946,38.733 54.343,38.187 54.385,37.514 54.927,37.913 55.599,37.956 
			55.203,38.499 		"/>
		<polygon points="40.924,39.148 41.468,38.751 42.141,38.711 41.747,38.166 41.706,37.491 41.163,37.891 40.489,37.928 
			40.886,38.473 		"/>
		<path d="M37.2,36.254l0.686-0.805c0.313-0.365,0.811-0.34,1.287,0.066c0.478,0.408,0.585,0.897,0.272,1.264l-0.685,0.805
			c-0.084,0.099-0.087,0.154,0.024,0.25l-0.245,0.186l-0.661-0.564l0.146-0.27c0.113,0.097,0.167,0.085,0.251-0.014l0.689-0.808
			c0.136-0.16,0.124-0.356-0.089-0.538c-0.221-0.187-0.419-0.172-0.555-0.011l-0.688,0.808c-0.085,0.1-0.087,0.155,0.021,0.248
			l-0.243,0.187l-0.604-0.515l0.144-0.271C37.062,36.365,37.116,36.352,37.2,36.254z"/>
		<path d="M34.998,33.573l1.45-1.087l0.272,0.363l-0.455,1.534c-0.032,0.106-0.113,0.274-0.113,0.274s0.13-0.121,0.196-0.17
			l0.639-0.478c0.101-0.077,0.122-0.128,0.033-0.247l0.277-0.129l0.437,0.584l-0.2,0.232c-0.088-0.119-0.147-0.116-0.248-0.042
			l-1.066,0.798c-0.103,0.079-0.12,0.132-0.03,0.249l-0.28,0.127L35.52,35.06l0.411-1.394c0.033-0.11,0.119-0.279,0.119-0.279
			s-0.134,0.123-0.208,0.178l-0.544,0.409c-0.104,0.077-0.12,0.13-0.031,0.249l-0.277,0.128l-0.438-0.584l0.202-0.23
			C34.841,33.654,34.895,33.65,34.998,33.573z"/>
		<path d="M35.555,30.794l0.377,0.762l-0.241,0.189c-0.065-0.132-0.124-0.14-0.235-0.085l-1.194,0.591
			c-0.116,0.057-0.142,0.106-0.076,0.24l-0.295,0.076l-0.377-0.762l0.24-0.19c0.066,0.133,0.12,0.144,0.235,0.086l1.194-0.591
			c0.113-0.056,0.142-0.107,0.076-0.24L35.555,30.794z"/>
		<path d="M32.849,28.513l1.96,0.177l0.173,0.586l-1.553,1.203c-0.114,0.087-0.126,0.134-0.087,0.265l-0.307,0.021l-0.24-0.813
			l0.269-0.148c0.038,0.116,0.085,0.133,0.184,0.062L34,29.3c0.124-0.087,0.389-0.212,0.389-0.212s-0.291,0.032-0.444,0.023
			L33,29.02c-0.127-0.01-0.153,0.044-0.118,0.166l-0.305,0.024l-0.214-0.724l0.269-0.145C32.672,28.477,32.707,28.502,32.849,28.513
			z"/>
		<path d="M34.299,25.442l0.161,1.757l-0.293,0.093c-0.014-0.148-0.064-0.176-0.19-0.165l-1.326,0.12
			c-0.128,0.013-0.17,0.05-0.156,0.197l-0.304-0.039l-0.154-1.681l0.541-0.048l0.07,0.231c-0.175,0.042-0.211,0.092-0.188,0.347
			l0.035,0.39l0.549-0.051l-0.032-0.353c-0.014-0.151-0.045-0.204-0.162-0.193l0.037-0.248l0.541-0.05l0.086,0.237
			c-0.122,0.011-0.143,0.069-0.128,0.22l0.032,0.353l0.597-0.053l-0.049-0.541c-0.022-0.236-0.092-0.275-0.257-0.289l0.025-0.251
			L34.299,25.442z"/>
		<path d="M34.545,22.36l-0.077,0.673c-0.357,0.294-0.915-0.01-0.966,0.45l-0.03,0.272l0.433,0.048
			c0.125,0.014,0.175-0.01,0.192-0.157l0.291,0.096l-0.093,0.838l-0.305,0.033c0.017-0.151-0.027-0.186-0.153-0.199l-1.323-0.148
			c-0.125-0.014-0.176,0.014-0.192,0.161l-0.291-0.1l0.128-1.146c0.061-0.555,0.327-0.857,0.749-0.809
			c0.276,0.03,0.451,0.198,0.525,0.494c0.11-0.274,0.377-0.314,0.539-0.331c0.188-0.016,0.255-0.046,0.274-0.219l0.005-0.052
			L34.545,22.36z M32.495,23.302l-0.038,0.339l0.65,0.073l0.037-0.327c0.028-0.246-0.083-0.389-0.282-0.412
			C32.665,22.953,32.523,23.061,32.495,23.302z"/>
		<path d="M35.015,20.896c-0.137,0.425-0.374,0.691-0.493,0.804l-0.43-0.271l0.063-0.196c0.271,0.002,0.441-0.215,0.515-0.44
			c0.055-0.172,0.032-0.378-0.151-0.438c-0.159-0.05-0.268,0.047-0.445,0.381c-0.177,0.343-0.462,0.652-0.903,0.511
			c-0.43-0.139-0.549-0.6-0.391-1.089c0.12-0.374,0.316-0.633,0.427-0.746l0.406,0.26l-0.062,0.193
			c-0.237,0.025-0.378,0.221-0.434,0.396c-0.063,0.193-0.018,0.36,0.125,0.405c0.141,0.047,0.244-0.057,0.375-0.306
			c0.24-0.456,0.499-0.752,0.98-0.597C35.071,19.915,35.17,20.417,35.015,20.896z"/>
		<path d="M36.025,18.448l-0.388,0.758l-0.295-0.082c0.067-0.131,0.041-0.183-0.072-0.24l-1.185-0.607
			c-0.115-0.059-0.17-0.05-0.237,0.082l-0.237-0.193l0.388-0.757l0.294,0.081c-0.067,0.131-0.042,0.182,0.072,0.241l1.186,0.607
			c0.112,0.058,0.169,0.05,0.236-0.082L36.025,18.448z"/>
		<path d="M36.13,15.312c-0.141-0.071-0.226-0.079-0.368,0.114l-0.131,0.179l1.145,0.841c0.102,0.075,0.158,0.078,0.246-0.041
			l0.204,0.228l-0.498,0.681l-0.282-0.125c0.09-0.123,0.068-0.173-0.033-0.248l-1.146-0.839l-0.131,0.178
			c-0.143,0.193-0.109,0.274,0.001,0.387l-0.184,0.168l-0.419-0.385l1.204-1.645l0.497,0.281L36.13,15.312z"/>
		<path d="M39.569,14.223l-0.613,0.571l-0.25-0.176c0.082-0.075,0.088-0.128-0.03-0.19l-0.165-0.083L37.917,14.9l0.071,0.172
			c0.052,0.128,0.113,0.111,0.2,0.031l0.158,0.261l-0.527,0.491l-0.25-0.175c0.097-0.09,0.112-0.141,0.055-0.27l-0.572-1.352
			c-0.037-0.084-0.091-0.109-0.197-0.011l-0.156-0.264l0.879-0.82l0.253,0.174c-0.108,0.102-0.094,0.148-0.009,0.191l1.316,0.668
			c0.122,0.064,0.171,0.057,0.27-0.035L39.569,14.223z M37.624,13.853c-0.112-0.067-0.344-0.26-0.344-0.26s0.167,0.26,0.224,0.374
			l0.244,0.577l0.427-0.399L37.624,13.853z"/>
		<path d="M40.844,13.44c-0.381,0.236-0.733,0.286-0.897,0.294l-0.15-0.485l0.175-0.109c0.207,0.177,0.477,0.122,0.678-0.002
			c0.153-0.096,0.27-0.267,0.168-0.43c-0.087-0.143-0.233-0.138-0.586,0.001c-0.358,0.147-0.775,0.197-1.019-0.196
			c-0.237-0.383-0.029-0.812,0.407-1.084c0.333-0.206,0.651-0.276,0.808-0.292l0.142,0.461l-0.173,0.107
			c-0.196-0.136-0.43-0.078-0.588,0.02c-0.173,0.107-0.247,0.262-0.167,0.392c0.078,0.125,0.224,0.114,0.485,0.009
			c0.477-0.192,0.867-0.25,1.133,0.18C41.522,12.728,41.272,13.174,40.844,13.44z"/>
		<path d="M47.246,10.425c-0.154,0.02-0.18,0.073-0.165,0.193l0.024,0.175c0.017,0.118,0.046,0.143,0.124,0.133l-0.021,0.291
			c-0.323,0.066-0.379,0.208-0.874,0.274c-0.663,0.09-1.268-0.157-1.382-1c-0.103-0.775,0.347-1.233,1.068-1.332
			c0.431-0.058,0.767,0.069,0.909,0.128l-0.06,0.523l-0.197,0.027c-0.099-0.229-0.31-0.298-0.542-0.267
			c-0.415,0.056-0.603,0.32-0.534,0.837c0.071,0.521,0.291,0.722,0.698,0.668c0.099-0.014,0.22-0.06,0.285-0.106l-0.039-0.278
			c-0.017-0.121-0.051-0.164-0.209-0.144l-0.041,0.005l0.022-0.305l0.871-0.118l0.104,0.289L47.246,10.425z"/>
		<path d="M49.179,11.429c-0.687-0.057-1.143-0.412-1.074-1.268s0.576-1.134,1.264-1.079c0.698,0.057,1.147,0.412,1.079,1.268
			C50.38,11.206,49.876,11.484,49.179,11.429z M49.337,9.497c-0.355-0.028-0.538,0.152-0.585,0.718
			c-0.047,0.563,0.109,0.772,0.463,0.801c0.362,0.029,0.539-0.154,0.585-0.718C49.843,9.734,49.694,9.526,49.337,9.497z"/>
		<path d="M52.946,10.447c0.016-0.156-0.008-0.24-0.24-0.303l-0.214-0.059l-0.374,1.37c-0.032,0.122-0.018,0.176,0.124,0.215
			l-0.138,0.273l-0.814-0.224l0.017-0.307c0.148,0.04,0.191,0,0.224-0.119l0.375-1.371l-0.219-0.058
			c-0.229-0.063-0.294-0.004-0.359,0.14l-0.224-0.112l0.21-0.53l1.965,0.538l-0.085,0.563L52.946,10.447z"/>
		<path d="M55.33,13.361l-0.753-0.382l0.076-0.296c0.137,0.068,0.186,0.039,0.241-0.073l0.231-0.455l-0.771-0.392l-0.229,0.455
			c-0.056,0.113-0.053,0.168,0.079,0.236l-0.19,0.239l-0.752-0.384l0.079-0.296c0.135,0.069,0.185,0.041,0.239-0.073l0.606-1.187
			c0.055-0.115,0.051-0.168-0.086-0.237l0.193-0.237l0.749,0.384l-0.077,0.294c-0.132-0.067-0.18-0.041-0.236,0.074l-0.188,0.366
			l0.769,0.391l0.188-0.366c0.058-0.115,0.052-0.168-0.083-0.237l0.194-0.237l0.748,0.383l-0.077,0.295
			c-0.132-0.066-0.178-0.041-0.235,0.076l-0.605,1.186c-0.055,0.112-0.053,0.169,0.081,0.235L55.33,13.361z"/>
		<path d="M56.769,14.5c-0.531-0.437-0.705-0.99-0.156-1.653c0.544-0.663,1.122-0.601,1.65-0.163c0.54,0.444,0.708,0.993,0.16,1.656
			C57.878,15.003,57.31,14.945,56.769,14.5z M58.002,13.004c-0.271-0.225-0.53-0.183-0.887,0.255
			c-0.361,0.437-0.354,0.697-0.08,0.921c0.279,0.23,0.53,0.183,0.888-0.254C58.281,13.489,58.28,13.235,58.002,13.004z"/>
		<path d="M58.868,16.593l-0.699-0.869l0.189-0.24c0.091,0.114,0.151,0.111,0.25,0.032l1.036-0.834
			c0.102-0.081,0.114-0.135,0.02-0.251l0.275-0.136l0.654,0.813c0.353,0.438,0.396,0.812,0.086,1.063
			c-0.147,0.116-0.381,0.119-0.554,0.033c0.108,0.283,0.019,0.533-0.176,0.69C59.621,17.161,59.219,17.028,58.868,16.593z
			 M59.41,15.66l-0.511,0.413l0.202,0.253c0.157,0.193,0.333,0.207,0.49,0.081c0.154-0.123,0.173-0.31,0.014-0.508L59.41,15.66z
			 M59.698,15.43l0.17,0.213c0.144,0.176,0.294,0.187,0.423,0.083c0.126-0.103,0.15-0.24,0.004-0.421l-0.175-0.217L59.698,15.43z"/>
		<path d="M62.391,18.95l-0.942,0.48c-0.43,0.219-0.879,0.004-1.16-0.552c-0.288-0.56-0.197-1.055,0.229-1.272l0.944-0.481
			c0.116-0.059,0.139-0.108,0.072-0.241l0.296-0.077l0.397,0.774l-0.239,0.192c-0.068-0.132-0.121-0.141-0.236-0.083l-0.947,0.482
			c-0.188,0.096-0.251,0.283-0.121,0.533c0.129,0.256,0.319,0.318,0.506,0.222l0.947-0.483c0.115-0.058,0.14-0.108,0.073-0.237
			l0.295-0.08l0.362,0.71l-0.237,0.194C62.561,18.9,62.507,18.891,62.391,18.95z"/>
		<path d="M61.657,22.719l-0.172-0.654c0.226-0.404,0.856-0.323,0.739-0.769l-0.07-0.265l-0.424,0.112
			c-0.121,0.032-0.157,0.073-0.121,0.215l-0.305,0.017l-0.217-0.815l0.272-0.141c0.04,0.146,0.091,0.163,0.215,0.131l1.286-0.341
			c0.121-0.033,0.159-0.076,0.121-0.219l0.307-0.013l0.295,1.116c0.144,0.539,0.006,0.917-0.404,1.025
			c-0.269,0.07-0.493-0.023-0.671-0.271c-0.001,0.295-0.235,0.431-0.383,0.503c-0.169,0.083-0.225,0.135-0.175,0.303l0.014,0.049
			L61.657,22.719z M63.227,21.098l-0.088-0.33l-0.633,0.168l0.086,0.318c0.063,0.239,0.219,0.333,0.41,0.281
			C63.195,21.485,63.289,21.334,63.227,21.098z"/>
		<path d="M62.749,25.518c-0.011-0.155-0.057-0.186-0.179-0.179l-0.179,0.01c-0.118,0.005-0.147,0.032-0.146,0.11l-0.285-0.046
			c-0.04-0.327-0.176-0.395-0.199-0.893c-0.034-0.669,0.264-1.25,1.111-1.292c0.781-0.038,1.2,0.448,1.238,1.176
			c0.021,0.436-0.134,0.759-0.205,0.896l-0.516-0.104l-0.012-0.2c0.237-0.078,0.325-0.283,0.312-0.52
			c-0.02-0.417-0.266-0.626-0.788-0.601c-0.524,0.025-0.744,0.229-0.724,0.639c0.005,0.1,0.04,0.225,0.083,0.293l0.28-0.015
			c0.121-0.006,0.169-0.038,0.16-0.196L62.7,24.554l0.302,0.048l0.044,0.879L62.75,25.56L62.749,25.518z"/>
		<path d="M61.512,28.087l0.266-1.745l0.305-0.021c-0.021,0.146,0.02,0.187,0.146,0.206l1.316,0.201
			c0.127,0.019,0.178-0.006,0.198-0.153l0.288,0.11l-0.258,1.668l-0.536-0.082l-0.016-0.242c0.18,0,0.226-0.04,0.264-0.293
			l0.06-0.388l-0.544-0.083l-0.052,0.352c-0.022,0.149-0.008,0.208,0.112,0.227l-0.096,0.231l-0.538-0.082l-0.025-0.25
			c0.122,0.018,0.156-0.033,0.182-0.183l0.051-0.351l-0.592-0.09l-0.083,0.538c-0.036,0.233,0.023,0.287,0.18,0.342l-0.085,0.238
			L61.512,28.087z"/>
		<path d="M62.252,31.544l-1.695-0.639l0.161-0.426l1.537-0.44c0.106-0.031,0.295-0.052,0.295-0.052s-0.174-0.045-0.25-0.074
			l-0.747-0.281c-0.117-0.045-0.172-0.034-0.226,0.104l-0.26-0.165l0.26-0.681l0.303,0.044c-0.052,0.138-0.018,0.186,0.099,0.23
			l1.245,0.47c0.122,0.046,0.175,0.03,0.227-0.108l0.258,0.168l-0.23,0.613l-1.398,0.401c-0.11,0.03-0.297,0.05-0.297,0.05
			s0.176,0.046,0.259,0.079l0.641,0.241c0.121,0.045,0.175,0.03,0.225-0.108l0.261,0.165l-0.261,0.685l-0.301-0.047
			C62.403,31.632,62.373,31.59,62.252,31.544z"/>
		<path d="M59.67,32.385c0.238-0.379,0.534-0.577,0.675-0.658l0.349,0.368l-0.109,0.175c-0.262-0.069-0.483,0.098-0.607,0.299
			c-0.098,0.153-0.125,0.358,0.037,0.461c0.14,0.089,0.27,0.022,0.526-0.258c0.258-0.289,0.609-0.517,1-0.27
			c0.381,0.241,0.383,0.718,0.109,1.152c-0.21,0.332-0.466,0.534-0.601,0.615l-0.328-0.352l0.106-0.172
			c0.237,0.035,0.422-0.119,0.52-0.276c0.109-0.172,0.109-0.343-0.019-0.424c-0.125-0.079-0.249-0.004-0.438,0.204
			c-0.347,0.381-0.672,0.604-1.1,0.333C59.372,33.322,59.4,32.811,59.67,32.385z"/>
		<path d="M58.056,34.534l0.567-0.636l0.264,0.152c-0.098,0.111-0.086,0.167,0.012,0.251l0.993,0.885
			c0.096,0.085,0.153,0.09,0.252-0.02l0.182,0.245l-0.568,0.635l-0.264-0.151c0.1-0.11,0.087-0.166-0.011-0.25l-0.992-0.885
			c-0.095-0.083-0.154-0.09-0.251,0.02L58.056,34.534z"/>
		<path d="M56.641,35.781c0.352-0.28,0.693-0.372,0.854-0.4l0.209,0.462l-0.162,0.13c-0.224-0.151-0.487-0.065-0.672,0.084
			c-0.142,0.113-0.236,0.297-0.115,0.449c0.103,0.129,0.247,0.109,0.582-0.075c0.332-0.189,0.744-0.289,1.031,0.074
			c0.281,0.352,0.126,0.803-0.274,1.124c-0.303,0.246-0.609,0.354-0.767,0.387l-0.193-0.438l0.156-0.129
			c0.211,0.111,0.436,0.025,0.578-0.091c0.159-0.125,0.215-0.288,0.121-0.407c-0.091-0.115-0.233-0.086-0.479,0.051
			c-0.454,0.247-0.831,0.353-1.151-0.043C56.054,36.567,56.249,36.095,56.641,35.781z"/>
		<path d="M44.373,40.79l-1.136-0.325l0.024-0.31l0.145,0.042c0.15,0.042,0.197,0.011,0.232-0.109l0.331-1.157
			c-0.082,0.043-0.218,0.06-0.449,0.021l0.095-0.333c0.248,0.01,0.398-0.018,0.652-0.249l0.463,0.132l-0.502,1.753
			c-0.035,0.121-0.004,0.176,0.141,0.218l0.146,0.039L44.373,40.79z"/>
		<path d="M46.537,41.179c-0.626-0.058-1-0.348-0.965-0.727c0.031-0.329,0.311-0.487,0.613-0.584
			c-0.247-0.143-0.455-0.319-0.43-0.58c0.031-0.334,0.421-0.528,1.003-0.475c0.557,0.054,0.918,0.318,0.886,0.652
			c-0.023,0.262-0.257,0.396-0.524,0.49c0.277,0.152,0.523,0.362,0.492,0.689C47.577,41.024,47.143,41.237,46.537,41.179z
			 M46.639,40.105c-0.255,0.09-0.441,0.219-0.459,0.405c-0.017,0.164,0.146,0.302,0.39,0.327c0.234,0.021,0.426-0.079,0.442-0.243
			C47.03,40.402,46.866,40.24,46.639,40.105z M46.728,39.156c-0.207-0.019-0.352,0.052-0.364,0.196
			c-0.015,0.147,0.111,0.275,0.31,0.387c0.208-0.074,0.354-0.175,0.369-0.323C47.055,39.275,46.921,39.176,46.728,39.156z"/>
		<path d="M49.406,41.188c-0.152,0.015-0.439-0.011-0.538-0.07l-0.03-0.327c0.11,0.031,0.27,0.047,0.415,0.031
			c0.404-0.039,0.642-0.242,0.688-0.646c-0.073,0.122-0.286,0.239-0.51,0.259c-0.558,0.054-0.903-0.238-0.948-0.702
			c-0.045-0.476,0.296-0.851,0.898-0.907c0.696-0.066,1.058,0.351,1.118,0.951C50.564,40.496,50.251,41.104,49.406,41.188z
			 M49.413,39.18c-0.274,0.026-0.414,0.221-0.389,0.501c0.026,0.261,0.183,0.421,0.442,0.396c0.239-0.021,0.447-0.191,0.418-0.494
			C49.865,39.385,49.736,39.149,49.413,39.18z"/>
		<path d="M52.98,40.467l-1.142,0.302l-0.137-0.277l0.148-0.039c0.149-0.04,0.174-0.091,0.141-0.215l-0.308-1.161
			c-0.051,0.078-0.155,0.164-0.37,0.248l-0.089-0.335c0.219-0.119,0.332-0.218,0.435-0.547l0.466-0.122l0.465,1.763
			c0.032,0.121,0.087,0.154,0.234,0.114l0.146-0.039L52.98,40.467z"/>
		<path d="M46.895,21.817c-0.109-1.326-1.389-3.094-3.195-3.392c-1.962-0.327-4.813,0.509-5.144,3.392
			c-0.342,2.983,1.789,5.026,4.53,4.815C46.061,26.404,47.051,23.694,46.895,21.817z M45.203,23.875
			c0.162-0.015,0.498,0.065,0.584,0.287c0.097,0.24-0.595,0.995-0.902,1.083c-0.188,0.054-0.509-0.294-0.457-0.573
			C44.461,24.49,45.074,23.886,45.203,23.875z M46.212,22.982c-0.155,0.104-0.469,0.093-0.594-0.095
			c-0.086-0.128-0.121-1.122-0.063-1.264c0.058-0.146,0.434-0.249,0.616-0.148C46.377,21.589,46.466,22.815,46.212,22.982z
			 M45.672,20.467c-0.035,0.184-0.358,0.292-0.489,0.277c-0.161-0.019-0.891-0.588-0.934-0.776
			c-0.058-0.245,0.128-0.428,0.287-0.467C44.961,19.394,45.721,20.203,45.672,20.467z M43.324,19.086
			c0.062,0.133,0.138,0.354-0.001,0.506c-0.116,0.128-1.194,0.222-1.35,0.211c-0.331-0.021-0.456-0.417-0.347-0.588
			C41.824,18.907,43.209,18.839,43.324,19.086z M44.25,21.032c0,0.283-1.058,0.835-1.255,0.719c-0.289-0.17-0.913-1.12-0.789-1.271
			C42.632,19.953,44.25,20.587,44.25,21.032z M41.47,20.774c0.181-0.026,0.74,0.939,0.631,1.279
			c-0.091,0.288-1.196,0.755-1.305,0.646C40.461,22.366,40.631,20.904,41.47,20.774z M41.197,23.554
			c-0.001-0.23,0.96-0.841,1.31-0.71c0.284,0.104,0.803,1.306,0.531,1.431C42.387,24.572,41.197,23.978,41.197,23.554z
			 M44.066,23.802c-0.261-0.113-1.004-1.098-0.763-1.338c0.226-0.227,1.258-0.756,1.41-0.612
			C45.303,22.397,44.577,24.024,44.066,23.802z M40.205,21.054c-0.25,0.124-0.615-0.11-0.641-0.417
			c-0.025-0.308,0.731-1.025,0.994-0.953c0.128,0.035,0.356,0.334,0.336,0.551C40.88,20.386,40.351,20.98,40.205,21.054z
			 M39.979,23.142c-0.139,0.167-0.504,0.257-0.656,0.138c-0.225-0.182-0.293-0.923-0.147-1.238c0.099-0.212,0.676-0.32,0.774-0.078
			C40.012,22.131,40.083,23.019,39.979,23.142z M39.762,24.436c-0.019-0.237,0.345-0.549,0.589-0.497
			c0.196,0.041,0.832,0.709,0.86,0.86c0.051,0.276-0.213,0.542-0.398,0.557C40.527,25.376,39.783,24.695,39.762,24.436z
			 M42.08,25.768c-0.198-0.112-0.067-0.628,0.22-0.672c0.201-0.032,0.919-0.104,1.158,0c0.184,0.08,0.328,0.552,0.226,0.666
			C43.488,25.979,42.363,25.924,42.08,25.768z"/>
	</g>
	<g>
		<path d="M13.521,54.052c0-2.491,1.683-3.958,3.9-3.958c0.841,0,1.332,0.136,1.764,0.26l0.375-0.328h0.17l0.08,2.49h-0.239
			c-0.568-1.523-1.375-1.958-2.218-1.958c-1.319,0-2.604,0.988-2.604,3.378c0,1.867,0.933,3.56,2.866,3.56
			c0.557,0,1.16-0.157,1.16-0.34c0-0.388,0.013-1.422-0.022-2.299l-0.046-0.048l-1.115-0.056v-0.386h3.185v0.386l-0.819,0.056
			l-0.046,0.048c-0.022,0.727-0.035,1.545-0.022,2.421c-0.136,0.286-1.228,0.728-2.376,0.728
			C15.192,58.008,13.521,56.565,13.521,54.052z"/>
		<path d="M22.027,54.165c0-2.581,1.582-4.071,3.594-4.071c2.264,0,3.571,1.594,3.571,3.844c0,2.581-1.582,4.07-3.594,4.07
			C23.336,58.008,22.027,56.416,22.027,54.165z M27.965,54.052c0-2.297-0.899-3.446-2.343-3.446c-1.444,0-2.365,1.149-2.365,3.446
			c0,2.296,0.898,3.446,2.342,3.446C27.043,57.498,27.965,56.347,27.965,54.052z M23.936,48.785c0-0.364,0.228-0.648,0.615-0.648
			c0.364,0,0.591,0.24,0.591,0.606c0,0.365-0.238,0.648-0.625,0.648C24.164,49.389,23.936,49.15,23.936,48.785z M26.065,48.785
			c0-0.364,0.227-0.648,0.613-0.648c0.364,0,0.592,0.24,0.592,0.606c0,0.365-0.239,0.648-0.626,0.648
			C26.292,49.389,26.065,49.15,26.065,48.785z"/>
		<path d="M31.556,57.509l1.217-0.058l0.046-0.045c0.012-0.42,0.035-1.888,0.035-3.423c0-1.536,0-2.798-0.035-3.195l-0.035-0.057
			h-1.352c-0.239,0-0.522,0.409-0.989,1.784h-0.227l0.09-2.49h0.204l0.331,0.191h5.106l0.33-0.191h0.204l0.09,2.49h-0.226
			c-0.478-1.387-0.75-1.784-0.989-1.784h-1.354l-0.034,0.057c-0.012,0.272-0.034,1.807-0.034,3.342c0,1.54,0.022,2.865,0.034,3.276
			l0.045,0.045l1.251,0.056v0.388h-3.708L31.556,57.509L31.556,57.509z"/>
		<path d="M37.937,57.509l1.116-0.058l0.045-0.045c0.011-0.522,0.034-1.888,0.034-3.423c0-1.536-0.022-2.82-0.034-3.273
			l-0.045-0.048l-1.116-0.056V50.22h4.994l0.443-0.191h0.172l0.08,2.49h-0.228c-0.41-1.149-0.774-1.716-0.967-1.729l-2.149-0.115
			l-0.035,0.057c-0.01,0.521-0.033,1.729-0.033,3.002c0.512,0,1.626-0.034,1.922-0.057l0.045-0.046l0.409-0.797h0.216
			c-0.011,0.318-0.021,0.809-0.021,1.116c0,0.295,0.011,0.932,0.021,1.272H42.59l-0.409-0.945l-0.045-0.046
			c-0.354-0.014-1.365-0.032-1.922-0.032c0,1.443,0.023,2.604,0.033,3.183l0.035,0.055l2.32-0.122
			c0.192-0.014,0.704-0.478,1.114-1.818h0.262c-0.148,2.217-0.183,2.4-0.375,2.4h-5.665L37.937,57.509L37.937,57.509z"/>
		<path d="M45.341,57.509l1.115-0.058l0.046-0.045c0.011-0.398,0.034-1.888,0.034-3.423c0-1.536-0.023-2.774-0.034-3.273
			l-0.046-0.048l-1.115-0.056V50.22c0.843,0,1.809-0.021,2.48-0.021c0.83,0,1.468,0.068,1.979,0.226
			c0.897,0.286,1.443,0.863,1.443,1.692c0,0.981-0.647,1.56-1.387,1.744v0.021c1.202,0.055,1.921,0.762,1.921,1.682
			c0,1.545-1.387,2.354-3.594,2.354c-0.739,0-1.933-0.021-2.843-0.021L45.341,57.509L45.341,57.509z M48.333,53.71
			c1.34,0,1.683-0.641,1.683-1.512c0-0.604-0.217-1.058-0.684-1.299c-0.294-0.157-0.715-0.25-1.341-0.25
			c-0.056,0-0.183,0-0.295,0.013l-0.046,0.054c-0.011,0.595-0.045,1.708-0.034,2.994H48.333z M50.551,55.713
			c0-1.082-0.741-1.502-1.742-1.502h-1.194c-0.012,1.442,0.022,2.592,0.034,3.195l0.057,0.045c0.217,0.016,0.421,0.016,0.558,0.016
			C49.799,57.465,50.551,56.825,50.551,55.713z"/>
		<path d="M53.37,54.165c0-2.581,1.579-4.071,3.593-4.071c2.265,0,3.57,1.594,3.57,3.844c0,2.581-1.579,4.07-3.593,4.07
			C54.678,58.008,53.37,56.416,53.37,54.165z M59.306,54.052c0-2.297-0.898-3.446-2.342-3.446c-1.442,0-2.367,1.149-2.367,3.446
			c0,2.296,0.899,3.446,2.343,3.446S59.306,56.347,59.306,54.052z"/>
		<path d="M61.673,57.509l1.136-0.058l0.049-0.045c0.011-0.329,0.032-1.888,0.032-3.423c0-1.536-0.021-2.764-0.032-3.273
			l-0.049-0.048l-1.136-0.056V50.22c1.022,0,2.116-0.021,2.694-0.021c0.898,0,1.421,0.053,1.845,0.184
			c1.09,0.33,1.569,1.034,1.569,1.81c0,1.125-0.761,1.659-1.695,1.957v0.021c0.295,0.343,0.809,1.274,1.469,2.437
			c0.287,0.499,0.56,0.875,0.931,0.896l0.254,0.013v0.389H67.03l-0.045-0.047c-0.424-0.853-0.719-1.546-1.436-2.823
			c-0.149-0.259-0.285-0.475-0.456-0.67c-0.407,0.055-0.794,0.079-1.125,0.079c-0.011,1.354,0.023,2.627,0.035,2.97l0.047,0.046
			l1.049,0.054V57.9h-3.424L61.673,57.509L61.673,57.509z M66.552,52.198c0-0.626-0.272-1.092-0.785-1.331
			c-0.285-0.137-0.639-0.218-1.354-0.218h-0.377l-0.032,0.032c-0.013,0.492-0.021,1.98-0.036,3.308
			C65.947,53.938,66.552,53.302,66.552,52.198z"/>
		<path d="M69.588,54.052c0-2.491,1.682-3.958,3.898-3.958c0.844,0,1.333,0.136,1.764,0.26l0.373-0.328h0.171l0.082,2.49h-0.239
			c-0.571-1.523-1.376-1.958-2.218-1.958c-1.32,0-2.604,0.988-2.604,3.378c0,1.867,0.93,3.56,2.862,3.56
			c0.56,0,1.161-0.157,1.161-0.34c0-0.388,0.012-1.422-0.022-2.299l-0.048-0.048l-1.112-0.056v-0.386h3.182v0.386l-0.817,0.056
			l-0.045,0.048c-0.023,0.727-0.034,1.545-0.023,2.421c-0.136,0.286-1.228,0.728-2.376,0.728
			C71.258,58.008,69.588,56.565,69.588,54.052z"/>
		<path d="M78.035,55.496h0.263c0.397,1.443,1.045,2.049,1.842,2.049c0.934,0,1.524-0.627,1.524-1.445c0-1.98-3.49-1.477-3.49-3.98
			c0-1.056,0.829-2.025,2.272-2.025c0.741,0,1.332,0.226,1.456,0.262l0.342-0.329h0.216l0.067,2.491h-0.238
			c-0.477-1.389-1.102-1.958-1.877-1.958c-0.673,0-1.25,0.443-1.25,1.195c0,1.899,3.55,1.604,3.55,4.001
			c0,1.15-0.865,2.252-2.641,2.252c-0.489,0-1.068-0.112-1.568-0.442l-0.227,0.442h-0.241V55.496z"/>
		<path d="M9.375,68.56c0-0.432,0.01-0.692,0.01-1.819c0-0.898-0.01-1.614-0.022-2.639l-0.045-0.047l-1.092-0.058v-0.386h3.253
			v0.386l-0.921,0.06l-0.045,0.046c-0.012,0.852-0.022,2.693-0.022,4.413c0,1.435,0.33,2.402,1.842,2.402
			c1.581,0,2.036-0.922,2.036-2.615c0-1.479-0.022-3.081-0.044-4.199l-0.046-0.046l-1.045-0.059v-0.386h3.013v0.386l-1.114,0.056
			l-0.045,0.047c-0.034,1.218-0.034,2.89-0.023,4.3c0.01,1.957-0.911,3.002-2.82,3.002C10.365,71.405,9.375,70.437,9.375,68.56z"/>
		<path d="M17.268,70.904l1.115-0.056l0.044-0.046c0.035-1.218,0.035-2.115,0.035-3.252c0-1.139,0-1.764-0.035-3.447l-0.044-0.045
			l-1.115-0.059v-0.386h2.173c1.388,1.942,2.968,4.217,4.105,5.844h0.023c-0.023-2.185-0.046-4.244-0.068-5.355l-0.046-0.047
			l-1.047-0.056v-0.386h3.014v0.386l-1.114,0.056l-0.045,0.047c-0.034,1.218-0.034,2.115-0.034,4.971v2.273H23.67
			c-1.41-2.001-3.095-4.354-4.527-6.402H19.12c0.012,2.662,0.046,4.72,0.068,5.858l0.045,0.046l1.048,0.056v0.388h-3.014
			L17.268,70.904L17.268,70.904z"/>
		<path d="M26.787,70.904l1.114-0.056l0.046-0.046c0.023-0.354,0.034-1.888,0.034-3.423c0-1.536-0.011-2.892-0.034-3.274
			l-0.046-0.046L26.787,64v-0.386h3.457v0.385l-1.103,0.059l-0.046,0.046c-0.022,0.307-0.034,1.889-0.034,3.422
			c0,1.535,0.022,2.89,0.034,3.275l0.046,0.047l1.103,0.055v0.387h-3.457V70.904z"/>
		<path d="M31.893,64.033l-0.684-0.034v-0.386h2.98v0.386l-1.013,0.046l-0.046,0.047c0.638,1.647,1.388,3.64,2.138,5.561h0.022
			c0.557-1.546,1.524-4.299,1.899-5.573l-0.034-0.034l-0.92-0.046v-0.386h2.513v0.386l-0.66,0.034
			c-0.591,1.503-1.957,5.039-2.855,7.37h-0.306C33.758,68.56,32.747,66.08,31.893,64.033z"/>
		<path d="M39.603,70.904l1.116-0.056l0.045-0.046c0.011-0.524,0.034-1.888,0.034-3.423c0-1.536-0.022-2.823-0.034-3.274
			l-0.045-0.046L39.603,64v-0.386h4.993l0.444-0.191h0.17l0.081,2.489h-0.229c-0.41-1.149-0.772-1.716-0.966-1.729l-2.15-0.115
			l-0.034,0.057c-0.011,0.525-0.034,1.729-0.034,3.002c0.512,0,1.626-0.034,1.922-0.058l0.046-0.043l0.409-0.798h0.216
			c-0.012,0.318-0.023,0.807-0.023,1.114c0,0.294,0.012,0.934,0.023,1.274h-0.216l-0.409-0.946l-0.046-0.046
			c-0.352-0.012-1.365-0.034-1.922-0.034c0,1.444,0.022,2.606,0.034,3.186l0.034,0.055l2.32-0.124
			c0.194-0.011,0.705-0.478,1.114-1.82h0.263c-0.147,2.217-0.183,2.401-0.375,2.401h-5.664L39.603,70.904L39.603,70.904z"/>
		<path d="M47.006,70.904l1.136-0.056l0.047-0.046c0.012-0.329,0.032-1.888,0.032-3.423c0-1.536-0.021-2.765-0.032-3.274
			l-0.047-0.046L47.006,64v-0.386c1.024,0,2.115-0.021,2.696-0.021c0.897,0,1.422,0.055,1.843,0.184
			c1.091,0.328,1.57,1.034,1.57,1.81c0,1.127-0.762,1.657-1.693,1.956v0.022c0.293,0.342,0.808,1.272,1.467,2.435
			c0.284,0.501,0.559,0.876,0.932,0.896l0.252,0.014v0.387h-1.706l-0.047-0.047c-0.422-0.852-0.715-1.545-1.434-2.821
			c-0.147-0.259-0.286-0.476-0.456-0.673c-0.409,0.055-0.796,0.081-1.126,0.081c-0.013,1.355,0.021,2.626,0.034,2.969l0.048,0.048
			l1.047,0.053v0.389h-3.424L47.006,70.904L47.006,70.904z M51.885,65.592c0-0.627-0.272-1.092-0.782-1.333
			c-0.287-0.136-0.64-0.217-1.355-0.217h-0.374l-0.034,0.035c-0.013,0.491-0.021,1.982-0.034,3.312
			C51.284,67.332,51.885,66.696,51.885,65.592z"/>
		<path d="M55.32,68.891h0.261c0.397,1.442,1.046,2.047,1.843,2.047c0.933,0,1.524-0.626,1.524-1.445
			c0-1.977-3.492-1.478-3.492-3.979c0-1.057,0.83-2.025,2.274-2.025c0.74,0,1.333,0.228,1.455,0.261l0.341-0.328h0.217l0.07,2.49
			h-0.239c-0.479-1.39-1.104-1.957-1.878-1.957c-0.67,0-1.252,0.441-1.252,1.193c0,1.899,3.551,1.604,3.551,4.004
			c0,1.147-0.866,2.252-2.639,2.252c-0.49,0-1.07-0.115-1.571-0.443l-0.227,0.443H55.32V68.891z"/>
		<path d="M61.641,70.904l1.116-0.056l0.047-0.046c0.021-0.354,0.033-1.888,0.033-3.423c0-1.536-0.012-2.892-0.033-3.274
			l-0.047-0.046L61.641,64v-0.386H65.1v0.385l-1.104,0.059l-0.048,0.046c-0.021,0.307-0.034,1.889-0.034,3.422
			c0,1.535,0.024,2.89,0.034,3.275l0.048,0.047l1.104,0.055v0.387h-3.459V70.904z"/>
		<path d="M67.807,70.904l1.215-0.056l0.048-0.046c0.013-0.423,0.034-1.888,0.034-3.423c0-1.536,0-2.799-0.034-3.197l-0.034-0.056
			h-1.354c-0.239,0-0.524,0.41-0.989,1.785h-0.225l0.089-2.49h0.204l0.328,0.192h5.109l0.329-0.192h0.204l0.09,2.49h-0.226
			c-0.478-1.39-0.751-1.785-0.987-1.785h-1.356l-0.034,0.056c-0.012,0.272-0.034,1.81-0.034,3.342c0,1.533,0.022,2.865,0.034,3.275
			l0.048,0.049l1.251,0.054v0.388h-3.706v-0.387L67.807,70.904L67.807,70.904z"/>
		<path d="M74.187,70.904l1.114-0.056l0.046-0.046c0.012-0.524,0.036-1.888,0.036-3.423c0-1.536-0.024-2.823-0.036-3.274
			l-0.046-0.046L74.187,64v-0.386h4.992l0.442-0.191h0.171l0.081,2.491h-0.226c-0.409-1.15-0.775-1.715-0.966-1.729l-2.15-0.116
			l-0.034,0.058c-0.013,0.524-0.034,1.729-0.034,3.002c0.51,0,1.626-0.034,1.922-0.058l0.049-0.043l0.405-0.798h0.218
			c-0.011,0.318-0.02,0.807-0.02,1.113c0,0.295,0.012,0.935,0.02,1.275H78.84l-0.405-0.946l-0.049-0.046
			c-0.354-0.013-1.365-0.034-1.922-0.034c0,1.444,0.021,2.606,0.034,3.187l0.034,0.054l2.319-0.124
			c0.192-0.011,0.706-0.478,1.115-1.818h0.26c-0.147,2.217-0.182,2.4-0.375,2.4h-5.663L74.187,70.904L74.187,70.904z"/>
		<path d="M82.932,70.904l1.218-0.056l0.046-0.046c0.012-0.423,0.034-1.888,0.034-3.423c0-1.536,0-2.799-0.034-3.197l-0.031-0.056
			h-1.355c-0.237,0-0.523,0.41-0.989,1.785h-0.226l0.088-2.49h0.206l0.329,0.192h5.108l0.33-0.192h0.204l0.089,2.49h-0.227
			c-0.475-1.39-0.75-1.785-0.988-1.785h-1.354l-0.034,0.056c-0.014,0.272-0.034,1.81-0.034,3.342c0,1.533,0.021,2.865,0.034,3.275
			l0.045,0.049l1.253,0.054v0.388h-3.708v-0.387L82.932,70.904L82.932,70.904z"/>
	</g>
</g>
</svg>
