<?xml version="1.0" encoding="utf-8"?>
<!-- Generator: Adobe Illustrator 16.0.0, SVG Export Plug-In . SVG Version: 6.00 Build 0)  -->
<!DOCTYPE svg PUBLIC "-//W3C//DTD SVG 1.1//EN" "http://www.w3.org/Graphics/SVG/1.1/DTD/svg11.dtd">
<svg version="1.1" id="sve_neg" xmlns="http://www.w3.org/2000/svg" xmlns:xlink="http://www.w3.org/1999/xlink" x="0px" y="0px"
	 width="100px" height="16px" viewBox="40.651 5.102 100 16" enable-background="new 40.651 5.102 100 16" xml:space="preserve">
<g>
	<g>
		<path d="M59.273,13.062c0-1.258,0.851-1.999,1.971-1.999c0.425,0,0.672,0.069,0.891,0.132l0.19-0.167h0.086l0.041,1.258h-0.121
			c-0.287-0.77-0.694-0.987-1.12-0.987c-0.665,0-1.315,0.499-1.315,1.707c0,0.942,0.471,1.797,1.448,1.797
			c0.281,0,0.586-0.08,0.586-0.172c0-0.195,0.005-0.719-0.011-1.16l-0.023-0.023l-0.562-0.028v-0.196h1.608v0.196l-0.414,0.028
			l-0.023,0.023c-0.011,0.368-0.018,0.782-0.011,1.223c-0.069,0.145-0.621,0.367-1.201,0.367
			C60.119,15.061,59.273,14.331,59.273,13.062z"/>
		<path d="M63.571,13.119c0-1.305,0.799-2.056,1.815-2.056c1.143,0,1.803,0.805,1.803,1.943c0,1.304-0.799,2.056-1.816,2.056
			C64.231,15.061,63.571,14.257,63.571,13.119z M66.569,13.062c0-1.16-0.453-1.741-1.183-1.741s-1.195,0.581-1.195,1.741
			c0,1.16,0.454,1.74,1.184,1.74C66.104,14.802,66.569,14.222,66.569,13.062z M64.536,10.402c0-0.184,0.116-0.327,0.311-0.327
			c0.184,0,0.299,0.12,0.299,0.304s-0.121,0.329-0.316,0.329C64.651,10.707,64.536,10.585,64.536,10.402z M65.611,10.402
			c0-0.184,0.115-0.327,0.31-0.327c0.184,0,0.299,0.12,0.299,0.304s-0.12,0.329-0.315,0.329
			C65.726,10.707,65.611,10.585,65.611,10.402z"/>
		<path d="M68.385,14.808L69,14.779l0.023-0.023c0.005-0.212,0.017-0.952,0.017-1.729s0-1.414-0.017-1.615l-0.017-0.028h-0.683
			c-0.12,0-0.264,0.206-0.5,0.902h-0.116l0.046-1.259h0.103l0.167,0.098h2.58l0.167-0.098h0.104l0.045,1.259h-0.115
			c-0.241-0.702-0.379-0.902-0.5-0.902h-0.683l-0.018,0.028c-0.005,0.138-0.017,0.913-0.017,1.689c0,0.776,0.011,1.448,0.017,1.655
			l0.023,0.023l0.632,0.026v0.197h-1.872L68.385,14.808L68.385,14.808z"/>
		<path d="M71.608,14.808l0.563-0.028l0.022-0.023c0.006-0.265,0.017-0.952,0.017-1.729s-0.011-1.425-0.017-1.654l-0.022-0.022
			l-0.563-0.03v-0.195h2.522l0.224-0.097h0.086l0.042,1.258h-0.116c-0.206-0.58-0.391-0.866-0.488-0.873l-1.085-0.058l-0.018,0.029
			c-0.005,0.265-0.017,0.874-0.017,1.517c0.258,0,0.821-0.017,0.971-0.029l0.022-0.022l0.207-0.402h0.109
			c-0.006,0.161-0.011,0.408-0.011,0.562c0,0.149,0.006,0.472,0.011,0.645h-0.109l-0.207-0.477l-0.022-0.024
			c-0.179-0.006-0.69-0.017-0.971-0.017c0,0.729,0.011,1.315,0.017,1.608l0.018,0.028l1.172-0.062
			c0.098-0.007,0.356-0.242,0.562-0.92h0.132c-0.075,1.121-0.092,1.213-0.189,1.213h-2.861L71.608,14.808L71.608,14.808z"/>
		<path d="M75.349,14.808l0.563-0.028l0.023-0.023c0.006-0.201,0.017-0.952,0.017-1.729s-0.011-1.402-0.017-1.654l-0.023-0.022
			l-0.563-0.03v-0.195c0.424,0,0.913-0.011,1.252-0.011c0.419,0,0.742,0.035,1,0.115c0.454,0.143,0.729,0.437,0.729,0.856
			c0,0.494-0.328,0.788-0.701,0.879v0.012c0.609,0.028,0.971,0.385,0.971,0.85c0,0.781-0.702,1.189-1.816,1.189
			c-0.373,0-0.976-0.011-1.436-0.011L75.349,14.808L75.349,14.808z M76.858,12.892c0.679,0,0.851-0.323,0.851-0.767
			c0-0.303-0.109-0.533-0.345-0.655c-0.149-0.08-0.361-0.125-0.677-0.125c-0.029,0-0.092,0-0.15,0.006l-0.023,0.028
			c-0.006,0.298-0.024,0.862-0.018,1.513H76.858z M77.979,13.9c0-0.546-0.375-0.759-0.879-0.759h-0.604
			c-0.006,0.73,0.011,1.311,0.018,1.615l0.028,0.023c0.109,0.006,0.214,0.006,0.282,0.006C77.6,14.784,77.979,14.464,77.979,13.9z"
			/>
		<path d="M79.404,13.119c0-1.305,0.798-2.056,1.815-2.056c1.145,0,1.804,0.805,1.804,1.943c0,1.304-0.798,2.056-1.815,2.056
			C80.065,15.061,79.404,14.257,79.404,13.119z M82.403,13.062c0-1.16-0.454-1.741-1.184-1.741c-0.729,0-1.196,0.581-1.196,1.741
			c0,1.16,0.454,1.74,1.184,1.74S82.403,14.222,82.403,13.062z"/>
		<path d="M83.598,14.808l0.574-0.028l0.023-0.023c0.005-0.166,0.016-0.952,0.016-1.729s-0.011-1.396-0.016-1.654l-0.023-0.022
			l-0.574-0.03v-0.195c0.517,0,1.068-0.011,1.36-0.011c0.454,0,0.72,0.029,0.932,0.092c0.551,0.167,0.792,0.523,0.792,0.915
			c0,0.568-0.385,0.838-0.854,0.988v0.011c0.148,0.172,0.408,0.644,0.74,1.229c0.145,0.252,0.283,0.442,0.472,0.453l0.127,0.006
			v0.196h-0.862l-0.023-0.022c-0.212-0.432-0.361-0.781-0.724-1.425c-0.075-0.134-0.144-0.242-0.229-0.34
			c-0.207,0.029-0.402,0.042-0.568,0.042c-0.007,0.682,0.011,1.326,0.016,1.498l0.024,0.023l0.528,0.029v0.195h-1.729L83.598,14.808
			L83.598,14.808z M86.063,12.125c0-0.315-0.139-0.551-0.397-0.671c-0.143-0.069-0.321-0.109-0.683-0.109h-0.189l-0.018,0.018
			c-0.006,0.247-0.011,1-0.017,1.671C85.757,13.005,86.063,12.683,86.063,12.125z"/>
		<path d="M87.595,13.062c0-1.258,0.851-1.999,1.971-1.999c0.425,0,0.673,0.069,0.892,0.132l0.189-0.167h0.086l0.04,1.258h-0.121
			c-0.286-0.77-0.694-0.987-1.119-0.987c-0.667,0-1.315,0.499-1.315,1.707c0,0.942,0.472,1.797,1.447,1.797
			c0.281,0,0.587-0.08,0.587-0.172c0-0.195,0.006-0.719-0.012-1.16l-0.023-0.023l-0.562-0.028v-0.196h1.608v0.196l-0.413,0.028
			l-0.022,0.023c-0.011,0.368-0.017,0.782-0.011,1.223c-0.072,0.145-0.622,0.367-1.2,0.367
			C88.441,15.061,87.595,14.331,87.595,13.062z"/>
		<path d="M91.864,13.791h0.133c0.2,0.729,0.529,1.034,0.93,1.034c0.472,0,0.771-0.316,0.771-0.729c0-1-1.766-0.747-1.766-2.012
			c0-0.534,0.421-1.022,1.15-1.022c0.373,0,0.672,0.115,0.734,0.132l0.173-0.167h0.108l0.035,1.258h-0.121
			c-0.24-0.702-0.557-0.987-0.947-0.987c-0.338,0-0.631,0.224-0.631,0.604c0,0.958,1.791,0.809,1.791,2.022
			c0,0.579-0.436,1.136-1.332,1.136c-0.248,0-0.54-0.057-0.794-0.224l-0.113,0.224h-0.121L91.864,13.791L91.864,13.791z"/>
		<path d="M96.96,13.625c0-0.218,0.007-0.351,0.007-0.919c0-0.454-0.007-0.816-0.012-1.333l-0.023-0.022l-0.55-0.03v-0.195h1.644
			v0.195l-0.467,0.03l-0.022,0.022c-0.006,0.43-0.011,1.361-0.011,2.229c0,0.724,0.164,1.212,0.93,1.212
			c0.8,0,1.029-0.464,1.029-1.321c0-0.746-0.012-1.557-0.024-2.12l-0.022-0.022l-0.529-0.028v-0.196h1.522v0.196l-0.563,0.028
			l-0.024,0.022c-0.018,0.615-0.018,1.459-0.01,2.172c0.007,0.987-0.461,1.517-1.425,1.517C97.459,15.061,96.96,14.573,96.96,13.625
			z"/>
		<path d="M100.946,14.808l0.564-0.028l0.023-0.023c0.017-0.615,0.017-1.068,0.017-1.642c0-0.576,0-0.892-0.017-1.741l-0.023-0.022
			l-0.564-0.03v-0.195h1.097c0.702,0.982,1.5,2.133,2.075,2.953h0.012c-0.012-1.103-0.022-2.143-0.035-2.706l-0.022-0.022
			l-0.529-0.03v-0.195h1.523v0.195l-0.563,0.03l-0.024,0.022c-0.018,0.614-0.018,1.067-0.018,2.511v1.148h-0.281
			c-0.713-1.011-1.562-2.2-2.286-3.234h-0.011c0.006,1.344,0.023,2.384,0.034,2.958l0.023,0.023l0.528,0.027v0.197h-1.522V14.808
			L100.946,14.808z"/>
		<path d="M105.755,14.808l0.563-0.028l0.024-0.023c0.01-0.179,0.017-0.952,0.017-1.729s-0.008-1.459-0.017-1.654l-0.024-0.022
			l-0.563-0.03v-0.195h1.746v0.195l-0.558,0.03l-0.022,0.022c-0.01,0.156-0.017,0.954-0.017,1.73c0,0.775,0.011,1.458,0.017,1.653
			l0.022,0.022l0.558,0.028v0.196h-1.746V14.808z"/>
		<path d="M108.334,11.338l-0.344-0.018v-0.195h1.505v0.195l-0.512,0.023l-0.022,0.022c0.32,0.833,0.701,1.838,1.079,2.809h0.011
			c0.283-0.781,0.771-2.171,0.959-2.815l-0.016-0.018l-0.466-0.023v-0.195h1.271v0.195l-0.335,0.018
			c-0.299,0.758-0.985,2.545-1.44,3.723h-0.155C109.278,13.625,108.765,12.373,108.334,11.338z"/>
		<path d="M112.229,14.808l0.563-0.028l0.024-0.023c0.007-0.265,0.018-0.952,0.018-1.729s-0.011-1.425-0.018-1.654l-0.024-0.022
			l-0.563-0.03v-0.195h2.521l0.226-0.097h0.086l0.04,1.258h-0.113c-0.207-0.58-0.394-0.866-0.488-0.873l-1.086-0.058l-0.018,0.029
			c-0.007,0.265-0.017,0.874-0.017,1.517c0.258,0,0.822-0.017,0.97-0.029l0.023-0.022l0.207-0.402h0.109
			c-0.006,0.161-0.012,0.408-0.012,0.562c0,0.149,0.007,0.472,0.012,0.645h-0.109l-0.207-0.477l-0.023-0.024
			c-0.177-0.006-0.688-0.017-0.97-0.017c0,0.729,0.011,1.315,0.017,1.608l0.018,0.028l1.172-0.062
			c0.098-0.007,0.356-0.242,0.562-0.92h0.131c-0.074,1.121-0.091,1.213-0.188,1.213h-2.862L112.229,14.808L112.229,14.808
			L112.229,14.808z"/>
		<path d="M115.969,14.808l0.574-0.028l0.023-0.023c0.006-0.166,0.018-0.952,0.018-1.729s-0.012-1.396-0.018-1.654l-0.023-0.022
			l-0.574-0.03v-0.195c0.517,0,1.068-0.011,1.362-0.011c0.454,0,0.718,0.029,0.932,0.092c0.549,0.167,0.791,0.523,0.791,0.915
			c0,0.568-0.385,0.838-0.854,0.988v0.011c0.148,0.172,0.408,0.644,0.742,1.229c0.144,0.252,0.28,0.442,0.471,0.453l0.127,0.006
			v0.196h-0.862l-0.023-0.022c-0.214-0.432-0.361-0.781-0.725-1.425c-0.076-0.134-0.144-0.242-0.229-0.34
			c-0.207,0.029-0.401,0.042-0.569,0.042c-0.007,0.682,0.012,1.326,0.017,1.498l0.024,0.023l0.529,0.029v0.195h-1.729v-0.197
			L115.969,14.808L115.969,14.808z M118.434,12.125c0-0.315-0.138-0.551-0.396-0.671c-0.144-0.069-0.322-0.109-0.685-0.109h-0.188
			l-0.018,0.018c-0.006,0.247-0.011,1-0.018,1.671C118.129,13.005,118.434,12.683,118.434,12.125z"/>
		<path d="M120.168,13.791h0.132c0.202,0.729,0.529,1.034,0.933,1.034c0.47,0,0.769-0.316,0.769-0.729c0-1-1.763-0.747-1.763-2.012
			c0-0.534,0.42-1.022,1.149-1.022c0.373,0,0.672,0.115,0.735,0.132l0.171-0.167h0.109l0.034,1.258h-0.12
			c-0.241-0.702-0.557-0.987-0.947-0.987c-0.34,0-0.632,0.224-0.632,0.604c0,0.958,1.791,0.809,1.791,2.022
			c0,0.579-0.437,1.136-1.332,1.136c-0.247,0-0.539-0.057-0.792-0.224l-0.116,0.224h-0.119L120.168,13.791L120.168,13.791z"/>
		<path d="M123.363,14.808l0.563-0.028l0.023-0.023c0.012-0.179,0.018-0.952,0.018-1.729s-0.006-1.459-0.018-1.654l-0.023-0.022
			l-0.563-0.03v-0.195h1.746v0.195l-0.557,0.03l-0.023,0.022c-0.011,0.156-0.017,0.954-0.017,1.73c0,0.775,0.011,1.458,0.017,1.653
			l0.023,0.022l0.557,0.028v0.196h-1.746V14.808L123.363,14.808z"/>
		<path d="M126.476,14.808l0.617-0.028l0.021-0.023c0.007-0.212,0.019-0.952,0.019-1.729s0-1.414-0.019-1.615l-0.017-0.028h-0.683
			c-0.12,0-0.265,0.206-0.5,0.902h-0.114l0.045-1.259h0.103l0.168,0.098h2.579l0.165-0.098h0.104l0.045,1.259h-0.112
			c-0.241-0.702-0.381-0.902-0.501-0.902h-0.684l-0.018,0.028c-0.005,0.138-0.017,0.913-0.017,1.689
			c0,0.776,0.012,1.448,0.017,1.655l0.023,0.023l0.632,0.026v0.197h-1.872v-0.197L126.476,14.808L126.476,14.808z"/>
		<path d="M129.7,14.808l0.563-0.028l0.022-0.023c0.007-0.265,0.019-0.952,0.019-1.729s-0.012-1.425-0.019-1.654l-0.022-0.022
			l-0.563-0.03v-0.195h2.521l0.225-0.097h0.087l0.039,1.258h-0.114c-0.207-0.58-0.392-0.866-0.489-0.873l-1.086-0.058l-0.017,0.029
			c-0.006,0.265-0.017,0.874-0.017,1.517c0.26,0,0.821-0.017,0.972-0.029l0.022-0.022l0.206-0.402h0.109
			c-0.006,0.161-0.012,0.408-0.012,0.562c0,0.149,0.007,0.472,0.012,0.645h-0.109l-0.206-0.477l-0.022-0.024
			c-0.18-0.006-0.69-0.017-0.972-0.017c0,0.729,0.011,1.315,0.017,1.608l0.017,0.028l1.173-0.062
			c0.098-0.007,0.356-0.242,0.562-0.92h0.133c-0.075,1.121-0.093,1.213-0.189,1.213H129.7V14.808L129.7,14.808L129.7,14.808z"/>
		<path d="M134.117,14.808l0.615-0.028l0.024-0.023c0.007-0.212,0.018-0.952,0.018-1.729s0-1.414-0.018-1.615l-0.017-0.028h-0.686
			c-0.119,0-0.265,0.206-0.498,0.902h-0.115l0.046-1.259h0.103l0.166,0.098h2.581l0.165-0.098h0.103l0.047,1.259h-0.115
			c-0.241-0.702-0.379-0.902-0.5-0.902h-0.682l-0.017,0.028c-0.008,0.138-0.017,0.913-0.017,1.689c0,0.776,0.01,1.448,0.017,1.655
			l0.022,0.023l0.633,0.026v0.197h-1.873v-0.197h-0.001v0.001H134.117z"/>
	</g>
	<g>
		<path d="M45.992,9.262c-0.97,0.928-1.521,2.178-1.549,3.522c-0.06,2.771,2.146,5.074,4.917,5.134
			c1.343,0.029,2.615-0.467,3.585-1.396c0.97-0.928,1.521-2.177,1.548-3.521c0.061-2.771-2.146-5.074-4.916-5.134
			C48.235,7.838,46.962,8.333,45.992,9.262z M49.367,17.588c-2.587-0.057-4.647-2.207-4.591-4.796
			c0.027-1.254,0.541-2.422,1.446-3.29c0.906-0.867,2.095-1.33,3.349-1.303c2.588,0.056,4.648,2.208,4.591,4.796
			c-0.026,1.253-0.541,2.422-1.446,3.289C51.809,17.151,50.621,17.612,49.367,17.588z"/>
		<path d="M44.772,7.988c-1.31,1.254-2.053,2.944-2.092,4.757c-0.081,3.744,2.899,6.856,6.642,6.936
			c3.744,0.081,6.856-2.898,6.937-6.642l0,0c0.039-1.812-0.63-3.533-1.885-4.843s-2.945-2.054-4.758-2.092
			C47.802,6.063,46.083,6.733,44.772,7.988z M49.328,19.407c-3.593-0.078-6.452-3.063-6.374-6.656
			c0.038-1.739,0.751-3.361,2.008-4.564c1.256-1.204,2.908-1.847,4.647-1.81c1.74,0.038,3.361,0.751,4.565,2.009
			c1.204,1.257,1.846,2.907,1.808,4.647l0,0C55.906,16.625,52.92,19.485,49.328,19.407z"/>
		<path d="M45.776,13.678c-0.061-0.051-0.085-0.142-0.06-0.228c0.028-0.103,0.113-0.174,0.227-0.188
			c0.145-0.019,0.266,0.023,0.346,0.123c0.138,0.167,0.149,0.468,0.032,0.805c-0.213,0.612,0.014,0.939,0.122,1.052
			c0.086,0.089,0.188,0.14,0.249,0.119l0.007-0.001l0.002-0.009c0.005-0.038,0.051-0.134,0.081-0.189l0.003-0.007l-0.005-0.007
			c-0.18-0.23-0.23-0.531-0.129-0.767c0.087-0.2,0.267-0.323,0.507-0.343c0.114-0.011,0.158,0.026,0.161,0.057
			c0.005,0.037-0.038,0.083-0.116,0.095c-0.255,0.037-0.361,0.214-0.375,0.365c-0.012,0.138,0.042,0.259,0.132,0.29
			c0.049,0,0.087-0.015,0.117-0.046l0.004-0.004l0-0.005c-0.006-0.067,0.024-0.146,0.069-0.184c0.029-0.024,0.06-0.032,0.095-0.023
			c0.14,0.034,0.151,0.142,0.148,0.187c-0.005,0.103-0.079,0.198-0.166,0.21l-0.006,0.002l-0.056,0.159
			c-0.063,0.174-0.136,0.371-0.114,0.486c0.013,0.077,0.05,0.129,0.099,0.144c0.043,0.013,0.093-0.004,0.136-0.047
			c0.057-0.057,0.087-0.183,0.122-0.327l0.014-0.059l0-0.003c-0.023-0.101-0.006-0.191,0.046-0.236
			c0.035-0.029,0.085-0.032,0.142-0.008c0.038,0.015,0.065,0.048,0.076,0.095c0.017,0.07-0.008,0.158-0.066,0.228l-0.002,0.004
			v0.003c-0.006,0.066-0.021,0.136-0.036,0.203c-0.021,0.097-0.042,0.188-0.033,0.262c0.007,0.049,0.035,0.083,0.083,0.098
			c0.062,0.02,0.14,0,0.181-0.043c0.042-0.047,0.082-0.245,0.122-0.461l0.028-0.144l-0.004-0.006
			c-0.044-0.039-0.059-0.123-0.032-0.2s0.084-0.125,0.161-0.131c0.062-0.006,0.107,0.016,0.13,0.062
			c0.046,0.089,0.007,0.237-0.032,0.285l-0.004,0.006l0.002,0.006c0.035,0.13,0.019,0.274,0.004,0.391
			c-0.011,0.096-0.02,0.179,0.002,0.229c0.023,0.053,0.076,0.09,0.143,0.103c0.07,0.011,0.139-0.011,0.179-0.054
			c0.046-0.053,0.037-0.131,0.027-0.224c-0.01-0.081-0.02-0.174,0-0.272l0.001-0.003l-0.001-0.004
			c-0.039-0.095-0.036-0.188,0.005-0.255c0.026-0.044,0.065-0.069,0.108-0.074c0.068-0.006,0.116,0.01,0.14,0.04
			c0.053,0.064,0.014,0.195-0.017,0.302l-0.003,0.01c0.011,0.149,0.037,0.355,0.098,0.517c0.019,0.05,0.072,0.087,0.132,0.089
			c0.063,0.001,0.116-0.032,0.142-0.095c0.023-0.054,0-0.163-0.026-0.281c-0.013-0.062-0.027-0.127-0.034-0.183
			c-0.053-0.125-0.063-0.213-0.032-0.265c0.019-0.032,0.053-0.05,0.102-0.054c0.029-0.004,0.085,0,0.128,0.043
			c0.047,0.047,0.067,0.127,0.061,0.239c0.001,0.003,0.045,0.164,0.045,0.164c0.034,0.124,0.069,0.254,0.113,0.347
			c0.014,0.053,0.056,0.09,0.106,0.093c0.051,0.003,0.095-0.03,0.117-0.085c0.035-0.1-0.017-0.214-0.084-0.356l-0.033-0.071
			c-0.069-0.067-0.093-0.133-0.073-0.191c0.023-0.063,0.094-0.105,0.149-0.11c0.052-0.004,0.123,0.001,0.169,0.05
			c0.044,0.047,0.06,0.123,0.047,0.229l0,0.002l0.065,0.208c0.024,0.081,0.044,0.151,0.065,0.201
			c0.021,0.051,0.065,0.083,0.122,0.094c0.055,0.01,0.109-0.008,0.142-0.043c0.043-0.046,0.011-0.111-0.024-0.185
			c-0.021-0.046-0.046-0.098-0.059-0.153l0-0.004l-0.002-0.002c-0.071-0.069-0.102-0.16-0.078-0.227
			c0.017-0.047,0.057-0.076,0.114-0.079c0.07-0.006,0.125,0.01,0.159,0.044c0.037,0.036,0.054,0.097,0.048,0.179v0.004l0.001,0.004
			c0.019,0.042,0.031,0.087,0.042,0.137c0.016,0.068,0.033,0.138,0.073,0.203c0.035,0.058,0.083,0.089,0.136,0.084
			c0.058-0.005,0.113-0.052,0.143-0.122c0.021-0.053-0.014-0.135-0.052-0.222c-0.038-0.089-0.079-0.181-0.051-0.227
			c0.011-0.02,0.036-0.031,0.074-0.034c0.164-0.012,0.233,0.136,0.289,0.256c0.024,0.051,0.044,0.095,0.069,0.118
			c0.03,0.03,0.061,0.044,0.093,0.043c0.044-0.001,0.08-0.033,0.102-0.06c0.033-0.035,0.013-0.096-0.005-0.154
			c-0.026-0.079-0.039-0.135,0.013-0.16c0.132-0.06,0.183-0.001,0.24,0.067c0.042,0.049,0.084,0.1,0.161,0.101
			c0.358,0.006,0.649-0.266,0.829-0.49c0.311-0.393,0.473-0.882,0.424-1.074l-0.002-0.007l-0.005-0.002
			c-0.133-0.079-0.164-0.226-0.135-0.334c0.026-0.097,0.095-0.162,0.176-0.163c0.126-0.002,0.22,0.041,0.279,0.132
			c0.047,0.073,0.071,0.177,0.071,0.307c0,0.272-0.106,0.656-0.31,1.097c-0.514,1.11-1.784,1.627-2.308,1.722
			c-2.535,0.426-4.488-0.503-4.85-1.692c-0.155-0.505-0.086-0.758,0.011-1.023c0.054-0.145,0.109-0.295,0.128-0.494l0.002-0.023
			l-0.021,0.013C45.947,13.726,45.844,13.731,45.776,13.678z"/>
		<path d="M49.16,9.073c0.048-0.037,0.069-0.083,0.063-0.135c-0.018-0.139,0.051-0.305,0.193-0.33
			c0.181-0.031,0.509,0.01,0.57,0.051c0.083,0.054,0.118,0.12,0.098,0.183c-0.03,0.097-0.171,0.168-0.323,0.163
			c-0.096-0.003-0.168,0.028-0.214,0.092c-0.143,0.196,0.003,0.646,0.053,0.779c0.013,0.039,0.044,0.057,0.084,0.05
			c0,0,0.355-0.034,0.355-0.034c0.296-0.031,0.667-0.069,0.974-0.076c0,0,0.024-0.01,0.024-0.01l0.008-0.021
			c-0.007-0.07-0.049-0.25-0.066-0.289l-0.004-0.006h-0.007c-0.072-0.007-0.208-0.05-0.287-0.146
			c-0.046-0.056-0.067-0.122-0.06-0.197c0.02-0.129,0.203-0.2,0.362-0.193c0.186-0.003,0.333,0.051,0.393,0.144
			c0.048,0.073,0.043,0.169-0.012,0.287l-0.001,0.002v0.003c0,0.098,0.047,0.291,0.079,0.357c0.013,0.023,0.047,0.027,0.054,0.028
			l0.052,0.003c0.098,0.006,0.22,0.013,0.448,0.07c0.067,0.017,0.134,0.098,0.125,0.194c-0.03,0.324-0.083,0.511-0.157,0.77
			l-0.083,0.301c-0.003,0.012,0.001,0.033,0.017,0.038l0,0c0.215,0.078,0.464,0.208,0.456,0.323
			c-0.005,0.092-0.034,0.122-0.051,0.13c-0.013,0.007-0.028,0.007-0.042,0c-0.13-0.074-0.324-0.122-0.388-0.134
			c-0.011-0.002-0.029,0.009-0.032,0.02c-0.024,0.078,0.006,0.178,0.04,0.294c0.038,0.131,0.082,0.28,0.061,0.432
			c-0.023,0.167-0.086,0.363-0.134,0.507c-0.032,0.099-0.055,0.17-0.054,0.198c0.001,0.078,0.003,0.082,0.048,0.117
			c0.032,0.024,0.092,0.07,0.198,0.19c0.387,0.435,0.071,1.058-0.161,1.511c-0.081,0.159-0.151,0.295-0.179,0.399
			c-0.018,0.071-0.16,0.152-0.336,0.194c-0.175,0.042-0.32,0.032-0.371-0.026c-0.011-0.012-0.015-0.028-0.013-0.046
			c0.006-0.043,0.043-0.092,0.101-0.132c0.093-0.065,0.187-0.098,0.33-0.144c0.019-0.008,0.032-0.021,0.032-0.039
			c0.121-0.621,0.202-1.149,0.057-1.803l-0.033-0.1c-0.025-0.069-0.053-0.14-0.051-0.253c0.001-0.04,0.011-0.095,0.022-0.158
			c0.039-0.219,0.096-0.549-0.062-0.925c-0.041-0.061-0.114-0.083-0.191-0.063c-0.068,0.018-0.138,0.071-0.142,0.151L51,11.839
			c-0.022,0.32-0.047,0.683-0.216,1.019c-0.096,0.188,0.002,0.265,0.098,0.337l0.005,0.004c0.342,0.264,0.286,0.852,0.052,1.296
			l-0.036,0.067c-0.048,0.088-0.102,0.186-0.146,0.312l-0.015,0.032c-0.076,0.115-0.252,0.199-0.471,0.225
			c-0.152,0.019-0.266,0-0.295-0.025c-0.012-0.015-0.018-0.033-0.014-0.057c0.008-0.055,0.064-0.119,0.118-0.157
			c0.076-0.053,0.18-0.109,0.373-0.154c0.004-0.001,0.034-0.009,0.044-0.044c0.227-0.653,0.024-1.255-0.073-1.434
			c-0.09-0.164-0.078-0.254-0.053-0.437l0.019-0.13c0.037-0.263,0.115-0.811,0.146-1.168c0-0.014-0.01-0.034-0.03-0.037
			c-0.062-0.008-0.214-0.019-0.273,0.029c-0.042,0.034-0.047,0.166-0.054,0.349c-0.014,0.359-0.033,0.852-0.339,0.903
			c-0.092,0.015-0.18-0.01-0.259-0.074c-0.194-0.155-0.337-0.546-0.362-0.997c-0.026-0.444,0.044-0.996,0.208-1.151l0.014-0.014
			l-0.021-0.007c-0.052-0.014-0.092-0.062-0.112-0.129c-0.022-0.081-0.008-0.17,0.039-0.221l0.003-0.003v-0.004
			c0-0.05-0.032-0.132-0.074-0.238c-0.046-0.117-0.104-0.262-0.129-0.4C49.142,9.516,49.119,9.5,49.105,9.5L49.008,9.5
			c-0.288,0.006-0.886,0.016-1.093-0.608c-0.015-0.046,0.02-0.104,0.075-0.13c0.063-0.028,0.127,0.003,0.171,0.08
			c0.054,0.097,0.207,0.245,0.33,0.294C48.618,9.189,49.004,9.194,49.16,9.073z M49.521,11.435c-0.008,0.375,0.103,0.95,0.22,0.962
			c0.125,0.016,0.128-0.354,0.131-0.499c0.008-0.374-0.062-0.958-0.2-0.961C49.553,10.937,49.524,11.263,49.521,11.435z
			 M49.989,10.235c-0.089,0.011-0.169,0.075-0.177,0.142c-0.011,0.087-0.037,0.123-0.084,0.154l-0.023,0.017l0.027,0.006
			c0.24,0.046,0.291,0.233,0.328,0.37c0.02,0.072,0.035,0.153,0.076,0.168c0.094,0.037,0.266,0.039,0.373-0.002
			c0.049-0.018,0.075-0.124,0.065-0.194c-0.017-0.188-0.08-0.572-0.08-0.572c-0.021-0.081-0.113-0.106-0.17-0.108
			C50.277,10.212,50.18,10.214,49.989,10.235z M51.278,10.136c-0.154,0.004-0.351,0.022-0.383,0.1
			c-0.06,0.139-0.017,0.681,0.098,0.749c0.134,0.078,0.453,0.074,0.543-0.013c0.071-0.068,0.111-0.46,0.111-0.652
			c0-0.052-0.005-0.093-0.015-0.114C51.606,10.153,51.422,10.13,51.278,10.136z"/>
		<polygon points="47.371,7.125 47.338,7.383 47.17,7.584 47.43,7.617 47.63,7.785 47.662,7.525 47.83,7.326 47.571,7.293 		"/>
		<polygon points="52.217,18.347 52.006,18.192 51.745,18.178 51.899,17.966 51.916,17.704 52.126,17.859 52.386,17.876 
			52.232,18.085 		"/>
		<polygon points="46.702,18.338 46.913,18.185 47.174,18.17 47.021,17.956 47.005,17.695 46.794,17.85 46.534,17.866 
			46.688,18.076 		"/>
		<path d="M45.26,17.218l0.266-0.312c0.121-0.142,0.313-0.131,0.498,0.026c0.185,0.158,0.227,0.348,0.105,0.489l-0.266,0.312
			c-0.033,0.038-0.034,0.061,0.01,0.097l-0.096,0.072l-0.256-0.218l0.057-0.105c0.043,0.039,0.065,0.032,0.097-0.006l0.268-0.312
			c0.053-0.062,0.048-0.138-0.034-0.208c-0.085-0.073-0.162-0.066-0.215-0.004l-0.266,0.312c-0.033,0.037-0.034,0.06,0.008,0.097
			l-0.094,0.07l-0.234-0.2l0.055-0.104C45.206,17.26,45.229,17.255,45.26,17.218z"/>
		<path d="M44.407,16.18l0.562-0.421l0.106,0.141l-0.176,0.594c-0.012,0.04-0.043,0.105-0.043,0.105s0.051-0.046,0.076-0.066
			l0.248-0.185c0.039-0.029,0.047-0.049,0.012-0.097l0.107-0.05l0.168,0.229l-0.077,0.088c-0.034-0.045-0.057-0.043-0.096-0.014
			l-0.413,0.309c-0.04,0.031-0.046,0.051-0.012,0.095l-0.108,0.051l-0.151-0.202l0.16-0.541c0.012-0.042,0.045-0.107,0.045-0.107
			s-0.052,0.048-0.08,0.068l-0.211,0.158c-0.04,0.03-0.046,0.051-0.011,0.097l-0.107,0.051l-0.17-0.228l0.078-0.089
			C44.346,16.209,44.367,16.209,44.407,16.18z"/>
		<path d="M44.623,15.102l0.146,0.295l-0.093,0.075c-0.025-0.052-0.048-0.055-0.093-0.033l-0.461,0.228
			c-0.045,0.023-0.054,0.042-0.03,0.095l-0.116,0.029l-0.145-0.295l0.093-0.073c0.026,0.052,0.046,0.055,0.092,0.032l0.463-0.229
			c0.044-0.021,0.055-0.042,0.03-0.093L44.623,15.102z"/>
		<path d="M43.574,14.219l0.76,0.068l0.067,0.228l-0.602,0.466c-0.044,0.033-0.049,0.053-0.034,0.103l-0.119,0.009l-0.093-0.315
			l0.104-0.058c0.014,0.045,0.033,0.052,0.071,0.023l0.292-0.219c0.048-0.032,0.15-0.08,0.15-0.08s-0.113,0.012-0.173,0.009
			l-0.366-0.034c-0.048-0.004-0.059,0.018-0.045,0.063l-0.118,0.01l-0.082-0.28l0.104-0.056
			C43.506,14.205,43.52,14.215,43.574,14.219z"/>
		<path d="M44.136,13.03l0.062,0.681l-0.114,0.035c-0.005-0.058-0.024-0.068-0.074-0.064l-0.513,0.047
			c-0.05,0.006-0.065,0.02-0.061,0.077L43.32,13.79l-0.06-0.65l0.209-0.019l0.027,0.09c-0.068,0.016-0.082,0.034-0.073,0.134
			l0.013,0.151l0.213-0.021l-0.012-0.137c-0.006-0.059-0.018-0.079-0.063-0.074l0.014-0.097l0.21-0.019l0.032,0.092
			c-0.046,0.004-0.054,0.026-0.049,0.085l0.013,0.138l0.231-0.022l-0.019-0.208c-0.01-0.092-0.036-0.106-0.1-0.111l0.011-0.098
			L44.136,13.03z"/>
		<path d="M44.231,11.836l-0.029,0.26c-0.139,0.114-0.355-0.003-0.375,0.175l-0.011,0.105l0.168,0.019
			c0.048,0.006,0.068-0.004,0.075-0.061l0.112,0.037l-0.036,0.324l-0.119,0.013c0.006-0.059-0.011-0.072-0.06-0.076l-0.513-0.059
			c-0.048-0.005-0.068,0.005-0.075,0.062l-0.113-0.038l0.05-0.445c0.024-0.214,0.126-0.331,0.291-0.312
			c0.107,0.012,0.174,0.077,0.204,0.191c0.043-0.106,0.147-0.122,0.209-0.127c0.073-0.006,0.098-0.018,0.106-0.085l0.002-0.021
			L44.231,11.836z M43.438,12.202l-0.013,0.13l0.251,0.029l0.014-0.127c0.011-0.095-0.032-0.15-0.109-0.159
			C43.503,12.066,43.449,12.106,43.438,12.202z"/>
		<path d="M44.413,11.269c-0.054,0.165-0.145,0.269-0.19,0.312l-0.166-0.104l0.024-0.076c0.105,0,0.171-0.083,0.2-0.172
			c0.021-0.066,0.012-0.146-0.058-0.168c-0.062-0.02-0.104,0.017-0.173,0.147c-0.068,0.133-0.179,0.253-0.349,0.198
			c-0.166-0.054-0.212-0.232-0.151-0.421c0.046-0.146,0.122-0.246,0.164-0.289l0.158,0.1l-0.024,0.075
			c-0.092,0.011-0.146,0.086-0.167,0.153c-0.025,0.076-0.009,0.14,0.048,0.159c0.054,0.017,0.095-0.023,0.146-0.12
			c0.093-0.177,0.193-0.291,0.379-0.231C44.435,10.89,44.474,11.083,44.413,11.269z"/>
		<path d="M44.805,10.32l-0.15,0.293l-0.115-0.031c0.027-0.051,0.016-0.07-0.027-0.093l-0.459-0.236
			c-0.043-0.022-0.065-0.019-0.092,0.033l-0.093-0.075l0.15-0.293l0.115,0.031c-0.026,0.051-0.017,0.07,0.028,0.093l0.459,0.236
			c0.043,0.021,0.066,0.019,0.091-0.032L44.805,10.32z"/>
		<path d="M44.846,9.106c-0.054-0.027-0.088-0.03-0.143,0.045l-0.05,0.068l0.442,0.325c0.039,0.029,0.062,0.031,0.096-0.016
			l0.079,0.089l-0.193,0.263l-0.108-0.047c0.035-0.049,0.025-0.069-0.012-0.097l-0.445-0.325L44.46,9.481
			c-0.055,0.074-0.042,0.105,0,0.149l-0.07,0.064l-0.162-0.148l0.466-0.636l0.193,0.108L44.846,9.106z"/>
		<path d="M46.177,8.685L45.94,8.906l-0.097-0.069c0.031-0.029,0.033-0.049-0.012-0.073l-0.063-0.033l-0.231,0.216l0.027,0.067
			c0.021,0.049,0.043,0.043,0.077,0.011l0.062,0.101l-0.204,0.191l-0.096-0.069c0.037-0.035,0.043-0.054,0.022-0.104L45.203,8.62
			c-0.015-0.032-0.035-0.042-0.075-0.003l-0.062-0.102l0.341-0.318l0.097,0.067c-0.042,0.039-0.037,0.058-0.004,0.073l0.51,0.26
			c0.047,0.025,0.066,0.022,0.104-0.014L46.177,8.685z M45.424,8.541C45.38,8.515,45.29,8.44,45.29,8.44s0.065,0.101,0.087,0.145
			l0.095,0.223l0.165-0.154L45.424,8.541z"/>
		<path d="M46.671,8.38c-0.147,0.092-0.284,0.111-0.348,0.115l-0.059-0.187l0.068-0.043c0.08,0.068,0.184,0.048,0.263-0.001
			c0.059-0.036,0.104-0.103,0.065-0.166c-0.034-0.056-0.091-0.055-0.228,0c-0.138,0.057-0.299,0.077-0.394-0.076
			c-0.092-0.149-0.012-0.315,0.158-0.42c0.129-0.081,0.251-0.107,0.313-0.113l0.054,0.179L46.497,7.71
			c-0.076-0.053-0.167-0.03-0.228,0.008c-0.067,0.042-0.096,0.102-0.064,0.151c0.03,0.049,0.087,0.044,0.188,0.003
			c0.184-0.074,0.336-0.097,0.439,0.07C46.933,8.106,46.837,8.278,46.671,8.38z"/>
		<path d="M49.151,7.214c-0.06,0.008-0.07,0.028-0.064,0.074l0.009,0.068c0.007,0.045,0.017,0.056,0.048,0.052l-0.009,0.112
			c-0.125,0.025-0.146,0.08-0.338,0.106c-0.257,0.034-0.491-0.062-0.535-0.388c-0.04-0.3,0.134-0.478,0.414-0.515
			c0.167-0.022,0.297,0.026,0.351,0.048l-0.024,0.204l-0.076,0.01c-0.038-0.088-0.119-0.115-0.21-0.104
			c-0.161,0.022-0.234,0.124-0.207,0.324c0.028,0.201,0.114,0.28,0.271,0.259c0.038-0.006,0.085-0.023,0.11-0.042l-0.015-0.107
			c-0.006-0.047-0.02-0.063-0.08-0.056l-0.016,0.002l0.009-0.119l0.338-0.045l0.04,0.112L49.151,7.214z"/>
		<path d="M49.9,7.602c-0.266-0.021-0.443-0.158-0.417-0.49c0.027-0.331,0.224-0.438,0.489-0.417c0.27,0.022,0.443,0.16,0.417,0.491
			S50.169,7.624,49.9,7.602z M49.96,6.854c-0.137-0.011-0.208,0.06-0.227,0.278c-0.018,0.218,0.042,0.299,0.18,0.311
			c0.141,0.011,0.209-0.06,0.227-0.279C50.156,6.945,50.1,6.865,49.96,6.854z"/>
		<path d="M51.358,7.222c0.006-0.06-0.003-0.093-0.093-0.117l-0.083-0.022l-0.145,0.53c-0.012,0.048-0.006,0.068,0.05,0.084
			l-0.055,0.104l-0.315-0.085l0.007-0.119c0.055,0.016,0.071,0,0.084-0.046l0.144-0.531L50.87,6.997
			c-0.091-0.024-0.115-0.001-0.141,0.054l-0.086-0.042l0.081-0.205l0.761,0.208l-0.032,0.218L51.358,7.222z"/>
		<path d="M52.281,8.351L51.99,8.204l0.03-0.116c0.053,0.027,0.071,0.016,0.094-0.028l0.089-0.176l-0.298-0.151l-0.09,0.176
			C51.793,7.952,51.795,7.973,51.847,8l-0.075,0.092L51.48,7.943l0.03-0.115c0.053,0.027,0.072,0.016,0.094-0.027l0.234-0.46
			c0.022-0.044,0.021-0.065-0.032-0.092l0.076-0.092l0.291,0.149L52.141,7.42c-0.051-0.027-0.069-0.017-0.091,0.028l-0.072,0.141
			l0.298,0.152l0.072-0.142c0.022-0.044,0.021-0.064-0.032-0.092l0.076-0.091l0.291,0.148l-0.031,0.114
			c-0.051-0.026-0.069-0.017-0.092,0.029l-0.235,0.459c-0.022,0.044-0.021,0.065,0.03,0.091L52.281,8.351z"/>
		<path d="M52.839,8.792c-0.206-0.169-0.272-0.385-0.061-0.641c0.211-0.256,0.435-0.232,0.64-0.062
			c0.209,0.171,0.273,0.385,0.061,0.641C53.269,8.986,53.048,8.964,52.839,8.792z M53.316,8.212
			c-0.106-0.087-0.205-0.07-0.345,0.099c-0.14,0.17-0.137,0.271-0.03,0.358c0.108,0.088,0.205,0.07,0.344-0.099
			C53.425,8.4,53.425,8.302,53.316,8.212z"/>
		<path d="M53.653,9.603l-0.271-0.337l0.074-0.093c0.036,0.045,0.058,0.042,0.098,0.011l0.4-0.322
			c0.04-0.032,0.045-0.053,0.009-0.097l0.107-0.053l0.253,0.314c0.136,0.17,0.152,0.314,0.032,0.412
			C54.3,9.483,54.209,9.485,54.142,9.45c0.042,0.11,0.009,0.207-0.068,0.269C53.944,9.822,53.789,9.771,53.653,9.603z M53.862,9.241
			l-0.198,0.16L53.743,9.5c0.06,0.074,0.129,0.08,0.188,0.031c0.06-0.048,0.067-0.12,0.005-0.197L53.862,9.241z M53.972,9.152
			l0.066,0.082c0.054,0.068,0.114,0.073,0.164,0.032c0.049-0.039,0.058-0.092,0.001-0.162l-0.067-0.084L53.972,9.152z"/>
		<path d="M55.016,10.516l-0.365,0.185c-0.166,0.085-0.34,0.002-0.45-0.214c-0.111-0.217-0.077-0.408,0.089-0.493l0.365-0.187
			c0.044-0.022,0.054-0.042,0.028-0.093l0.115-0.03l0.152,0.3l-0.092,0.075c-0.025-0.051-0.047-0.054-0.091-0.032l-0.366,0.186
			c-0.073,0.038-0.098,0.11-0.048,0.207c0.051,0.1,0.124,0.123,0.197,0.086l0.366-0.187c0.045-0.022,0.054-0.042,0.03-0.092
			l0.115-0.031l0.14,0.274l-0.092,0.076C55.082,10.496,55.061,10.493,55.016,10.516z"/>
		<path d="M54.732,11.975l-0.066-0.253c0.088-0.157,0.332-0.125,0.287-0.298l-0.028-0.103l-0.163,0.042
			c-0.046,0.013-0.062,0.028-0.047,0.084l-0.119,0.006l-0.084-0.314l0.105-0.055c0.015,0.057,0.036,0.062,0.083,0.05l0.499-0.132
			c0.046-0.012,0.061-0.029,0.046-0.085l0.119-0.003l0.114,0.431c0.054,0.208,0.002,0.355-0.158,0.397
			c-0.104,0.028-0.19-0.009-0.259-0.105c-0.001,0.115-0.094,0.167-0.149,0.195c-0.065,0.032-0.085,0.052-0.068,0.117l0.005,0.019
			L54.732,11.975z M55.34,11.347l-0.033-0.127l-0.245,0.065l0.032,0.123c0.024,0.092,0.084,0.129,0.159,0.109
			C55.328,11.498,55.364,11.438,55.34,11.347z"/>
		<path d="M55.154,13.06c-0.002-0.061-0.022-0.072-0.07-0.07l-0.07,0.002c-0.045,0.004-0.056,0.015-0.054,0.045l-0.111-0.018
			c-0.015-0.127-0.068-0.153-0.078-0.347c-0.012-0.259,0.103-0.484,0.432-0.5c0.302-0.015,0.465,0.174,0.479,0.457
			c0.009,0.168-0.052,0.294-0.078,0.346l-0.201-0.04l-0.003-0.077c0.091-0.03,0.125-0.11,0.12-0.202
			c-0.008-0.161-0.104-0.242-0.306-0.231c-0.204,0.009-0.288,0.088-0.28,0.247c0.002,0.038,0.015,0.087,0.031,0.114l0.109-0.006
			c0.048-0.003,0.065-0.016,0.062-0.077l0-0.016l0.117,0.019l0.017,0.341l-0.115,0.031L55.154,13.06z"/>
		<path d="M54.676,14.053l0.104-0.675l0.118-0.009c-0.009,0.058,0.008,0.073,0.056,0.08l0.509,0.078
			c0.05,0.007,0.068-0.004,0.077-0.061l0.11,0.044l-0.098,0.645l-0.208-0.031l-0.005-0.095c0.07,0.001,0.088-0.016,0.103-0.113
			l0.023-0.15l-0.21-0.031l-0.021,0.136c-0.01,0.057-0.002,0.079,0.043,0.087l-0.037,0.091l-0.208-0.032l-0.01-0.095
			c0.046,0.008,0.06-0.012,0.068-0.071l0.022-0.136l-0.23-0.035l-0.031,0.209c-0.014,0.09,0.008,0.111,0.069,0.131l-0.032,0.093
			L54.676,14.053z"/>
		<path d="M54.962,15.393l-0.656-0.248l0.062-0.165l0.595-0.169c0.041-0.012,0.113-0.021,0.113-0.021s-0.067-0.018-0.097-0.029
			l-0.29-0.11c-0.045-0.017-0.067-0.012-0.087,0.042l-0.1-0.063l0.099-0.264l0.118,0.016c-0.02,0.054-0.008,0.073,0.038,0.089
			l0.483,0.184c0.046,0.017,0.068,0.01,0.087-0.043l0.099,0.065l-0.09,0.236l-0.541,0.157c-0.043,0.011-0.116,0.019-0.116,0.019
			s0.068,0.018,0.101,0.03l0.247,0.095c0.046,0.018,0.067,0.01,0.087-0.044l0.1,0.064l-0.1,0.267l-0.117-0.02
			C55.021,15.428,55.01,15.411,54.962,15.393z"/>
		<path d="M53.962,15.719c0.092-0.146,0.206-0.224,0.262-0.253l0.135,0.143l-0.043,0.067c-0.102-0.027-0.186,0.037-0.236,0.115
			c-0.037,0.06-0.048,0.139,0.014,0.179c0.054,0.034,0.105,0.009,0.205-0.1c0.099-0.112,0.236-0.2,0.388-0.104
			c0.147,0.095,0.148,0.278,0.042,0.445c-0.081,0.13-0.18,0.207-0.232,0.239l-0.126-0.137l0.042-0.066
			c0.09,0.013,0.162-0.046,0.201-0.107c0.042-0.066,0.042-0.132-0.008-0.163c-0.049-0.031-0.097-0.002-0.17,0.078
			c-0.135,0.148-0.259,0.234-0.426,0.131C53.847,16.08,53.858,15.883,53.962,15.719z"/>
		<path d="M53.338,16.552l0.219-0.247l0.103,0.059c-0.039,0.044-0.032,0.064,0.003,0.098l0.386,0.342
			c0.036,0.032,0.058,0.033,0.096-0.01l0.071,0.096l-0.219,0.247l-0.102-0.059c0.037-0.043,0.033-0.064-0.004-0.097l-0.385-0.343
			c-0.037-0.032-0.059-0.036-0.097,0.008L53.338,16.552z"/>
		<path d="M52.789,17.033c0.136-0.108,0.269-0.144,0.332-0.155l0.08,0.179l-0.062,0.051c-0.087-0.059-0.189-0.025-0.26,0.031
			c-0.055,0.044-0.091,0.116-0.045,0.173c0.041,0.052,0.097,0.043,0.226-0.026c0.131-0.074,0.289-0.112,0.4,0.026
			c0.11,0.137,0.05,0.312-0.105,0.437c-0.119,0.096-0.237,0.138-0.297,0.149l-0.076-0.171l0.062-0.049
			c0.082,0.043,0.169,0.01,0.226-0.035c0.061-0.05,0.082-0.112,0.046-0.158c-0.036-0.044-0.092-0.033-0.187,0.019
			c-0.174,0.098-0.321,0.139-0.444-0.015C52.562,17.338,52.638,17.155,52.789,17.033z"/>
		<path d="M48.037,18.974l-0.439-0.125l0.009-0.12l0.057,0.017c0.058,0.016,0.077,0.006,0.089-0.044l0.128-0.446
			c-0.032,0.017-0.084,0.024-0.173,0.01l0.037-0.131c0.096,0.004,0.153-0.006,0.253-0.096l0.178,0.05l-0.194,0.681
			c-0.014,0.046-0.001,0.068,0.055,0.083l0.056,0.016L48.037,18.974z"/>
		<path d="M48.875,19.123c-0.242-0.021-0.388-0.134-0.374-0.279c0.012-0.129,0.12-0.188,0.237-0.229
			c-0.096-0.054-0.175-0.121-0.166-0.224c0.012-0.13,0.163-0.204,0.389-0.184c0.215,0.021,0.356,0.122,0.343,0.253
			c-0.009,0.1-0.1,0.153-0.204,0.188c0.108,0.06,0.203,0.141,0.19,0.267C49.279,19.064,49.112,19.146,48.875,19.123z M48.915,18.707
			c-0.098,0.036-0.17,0.086-0.178,0.159c-0.006,0.062,0.056,0.118,0.151,0.125c0.091,0.01,0.165-0.029,0.171-0.094
			C49.067,18.822,49.004,18.76,48.915,18.707z M48.95,18.343c-0.079-0.009-0.136,0.02-0.141,0.075
			c-0.006,0.057,0.043,0.106,0.119,0.149c0.08-0.029,0.138-0.068,0.142-0.126C49.077,18.387,49.025,18.348,48.95,18.343z"/>
		<path d="M49.987,19.127c-0.059,0.008-0.17-0.005-0.208-0.027l-0.013-0.126c0.043,0.012,0.105,0.017,0.161,0.012
			c0.157-0.015,0.247-0.095,0.267-0.249c-0.029,0.047-0.111,0.093-0.197,0.1c-0.215,0.021-0.35-0.094-0.368-0.271
			c-0.018-0.185,0.115-0.33,0.348-0.353c0.27-0.027,0.411,0.137,0.433,0.37C50.436,18.86,50.314,19.096,49.987,19.127z
			 M49.989,18.349c-0.105,0.01-0.161,0.087-0.149,0.195c0.01,0.101,0.07,0.162,0.171,0.154c0.093-0.01,0.173-0.076,0.162-0.191
			C50.166,18.43,50.115,18.338,49.989,18.349z"/>
		<path d="M51.372,18.85l-0.443,0.116l-0.053-0.106l0.056-0.016c0.058-0.015,0.068-0.036,0.055-0.083l-0.119-0.449
			c-0.018,0.03-0.06,0.063-0.145,0.097l-0.034-0.129c0.084-0.047,0.129-0.086,0.167-0.212l0.181-0.049l0.18,0.683
			c0.012,0.048,0.033,0.06,0.089,0.044l0.057-0.014L51.372,18.85z"/>
		<path d="M49.015,11.626c-0.042-0.514-0.538-1.199-1.239-1.314c-0.759-0.126-1.863,0.197-1.991,1.314
			c-0.132,1.155,0.692,1.946,1.754,1.865C48.692,13.401,49.075,12.353,49.015,11.626z M48.36,12.423
			c0.062-0.006,0.192,0.024,0.227,0.11c0.037,0.093-0.23,0.387-0.349,0.42c-0.074,0.022-0.198-0.114-0.178-0.222
			C48.072,12.661,48.309,12.427,48.36,12.423z M48.75,12.078c-0.06,0.04-0.182,0.035-0.229-0.038
			c-0.033-0.049-0.046-0.435-0.025-0.489c0.023-0.056,0.168-0.096,0.239-0.057C48.815,11.538,48.848,12.012,48.75,12.078z
			 M48.541,11.103c-0.014,0.071-0.139,0.114-0.19,0.106c-0.062-0.006-0.344-0.227-0.361-0.299c-0.022-0.095,0.05-0.167,0.111-0.181
			C48.266,10.688,48.56,11,48.541,11.103z M47.632,10.567c0.024,0.052,0.053,0.138,0,0.196c-0.044,0.05-0.463,0.086-0.524,0.082
			c-0.128-0.008-0.176-0.162-0.133-0.227C47.051,10.498,47.588,10.472,47.632,10.567z M47.99,11.321c0,0.111-0.41,0.324-0.486,0.279
			c-0.112-0.065-0.354-0.433-0.306-0.492C47.363,10.903,47.99,11.149,47.99,11.321z M46.914,11.221
			c0.07-0.01,0.286,0.364,0.245,0.496c-0.035,0.111-0.464,0.292-0.507,0.251C46.523,11.839,46.588,11.272,46.914,11.221z
			 M46.807,12.298c0-0.088,0.374-0.325,0.508-0.273c0.109,0.041,0.311,0.505,0.205,0.554C47.269,12.692,46.807,12.462,46.807,12.298
			z M47.92,12.394c-0.102-0.044-0.39-0.425-0.296-0.519c0.087-0.086,0.487-0.292,0.546-0.237
			C48.398,11.851,48.117,12.48,47.92,12.394z M46.424,11.33c-0.097,0.049-0.238-0.042-0.248-0.161
			c-0.01-0.12,0.283-0.397,0.385-0.37c0.049,0.014,0.139,0.13,0.13,0.215C46.685,11.071,46.48,11.302,46.424,11.33z M46.336,12.139
			c-0.054,0.065-0.196,0.101-0.254,0.054c-0.087-0.071-0.115-0.358-0.058-0.48c0.039-0.083,0.262-0.124,0.299-0.029
			C46.35,11.748,46.376,12.092,46.336,12.139z M46.251,12.64c-0.008-0.092,0.134-0.212,0.228-0.192
			c0.076,0.017,0.323,0.274,0.333,0.333c0.021,0.107-0.082,0.21-0.153,0.216C46.549,13.005,46.261,12.739,46.251,12.64z
			 M47.151,13.156c-0.077-0.043-0.026-0.243,0.084-0.261c0.078-0.012,0.356-0.039,0.448,0c0.071,0.031,0.127,0.214,0.088,0.258
			C47.695,13.236,47.259,13.217,47.151,13.156z"/>
	</g>
</g>
</svg>
