<?xml version="1.0" encoding="utf-8"?>
<!-- Generator: Adobe Illustrator 16.0.0, SVG Export Plug-In . SVG Version: 6.00 Build 0)  -->
<!DOCTYPE svg PUBLIC "-//W3C//DTD SVG 1.1//EN" "http://www.w3.org/Graphics/SVG/1.1/DTD/svg11.dtd">
<svg version="1.1" id="sve_neg" xmlns="http://www.w3.org/2000/svg" xmlns:xlink="http://www.w3.org/1999/xlink" x="0px" y="0px"
	 width="100px" height="16px" viewBox="54.653 7.125 100 16" enable-background="new 54.653 7.125 100 16" xml:space="preserve">
<g>
	<g>
		<path fill="#FFFFFF" d="M73.75,15.509c0-1.259,0.85-1.999,1.969-1.999c0.425,0,0.672,0.069,0.89,0.132l0.189-0.167h0.086
			l0.041,1.257h-0.121c-0.287-0.769-0.695-0.987-1.12-0.987c-0.666,0-1.314,0.5-1.314,1.706c0,0.941,0.471,1.796,1.447,1.796
			c0.281,0,0.584-0.082,0.584-0.174c0-0.195,0.006-0.718-0.011-1.16l-0.023-0.021l-0.562-0.028V15.67h1.607v0.194L77,15.893
			l-0.023,0.021c-0.011,0.368-0.017,0.782-0.011,1.225c-0.069,0.144-0.62,0.366-1.2,0.366C74.594,17.507,73.75,16.777,73.75,15.509z
			"/>
		<path fill="#FFFFFF" d="M78.045,15.567c0-1.304,0.798-2.056,1.813-2.056c1.142,0,1.803,0.804,1.803,1.941
			c0,1.302-0.799,2.055-1.814,2.055C78.704,17.507,78.045,16.702,78.045,15.567z M81.041,15.509c0-1.159-0.453-1.74-1.182-1.74
			c-0.729,0-1.194,0.581-1.194,1.74c0,1.158,0.453,1.739,1.182,1.739C80.576,17.248,81.041,16.669,81.041,15.509z M79.009,12.851
			c0-0.184,0.115-0.327,0.31-0.327c0.184,0,0.299,0.12,0.299,0.304c0,0.184-0.122,0.327-0.315,0.327
			C79.124,13.155,79.009,13.034,79.009,12.851z M80.083,12.851c0-0.184,0.115-0.327,0.31-0.327c0.184,0,0.298,0.12,0.298,0.304
			c0,0.184-0.121,0.327-0.316,0.327C80.198,13.155,80.083,13.034,80.083,12.851z"/>
		<path fill="#FFFFFF" d="M82.855,17.254l0.614-0.028l0.024-0.024c0.006-0.213,0.018-0.952,0.018-1.729c0-0.774,0-1.41-0.018-1.612
			l-0.017-0.028h-0.683c-0.121,0-0.264,0.207-0.5,0.901h-0.115l0.046-1.257h0.104l0.166,0.097h2.578l0.166-0.097h0.104l0.045,1.257
			h-0.115c-0.24-0.701-0.378-0.901-0.498-0.901H84.09l-0.017,0.028c-0.006,0.138-0.017,0.912-0.017,1.689
			c0,0.774,0.011,1.445,0.017,1.651l0.022,0.024l0.632,0.028v0.195h-1.872L82.855,17.254L82.855,17.254z"/>
		<path fill="#FFFFFF" d="M86.076,17.254l0.562-0.028l0.023-0.024c0.006-0.263,0.018-0.952,0.018-1.729
			c0-0.774-0.012-1.422-0.018-1.652l-0.023-0.022l-0.562-0.029v-0.195h2.52l0.223-0.098h0.086l0.041,1.258h-0.115
			c-0.206-0.579-0.391-0.867-0.488-0.872l-1.085-0.058l-0.017,0.028c-0.007,0.264-0.018,0.873-0.018,1.516
			c0.259,0,0.821-0.019,0.97-0.028l0.024-0.024l0.206-0.402h0.109c-0.006,0.16-0.012,0.408-0.012,0.564
			c0,0.149,0.006,0.47,0.012,0.641h-0.109l-0.206-0.474l-0.024-0.025c-0.178-0.006-0.688-0.015-0.97-0.015
			c0,0.726,0.011,1.311,0.018,1.605l0.017,0.028l1.171-0.063c0.097-0.006,0.355-0.24,0.562-0.919h0.132
			c-0.074,1.12-0.093,1.213-0.189,1.213h-2.858V17.254L86.076,17.254z"/>
		<path fill="#FFFFFF" d="M89.812,17.254l0.562-0.028l0.023-0.024c0.006-0.2,0.017-0.952,0.017-1.729c0-0.774-0.011-1.4-0.017-1.652
			l-0.023-0.022l-0.562-0.03v-0.195c0.425,0,0.913-0.012,1.252-0.012c0.418,0,0.74,0.035,0.999,0.115
			c0.453,0.144,0.729,0.437,0.729,0.856c0,0.493-0.327,0.786-0.701,0.876v0.012c0.609,0.029,0.971,0.385,0.971,0.85
			c0,0.779-0.7,1.188-1.813,1.188c-0.373,0-0.976-0.013-1.436-0.013V17.254L89.812,17.254z M91.322,15.337
			c0.678,0,0.851-0.323,0.851-0.765c0-0.303-0.108-0.533-0.345-0.653c-0.15-0.081-0.361-0.126-0.677-0.126
			c-0.029,0-0.092,0-0.149,0.005l-0.022,0.029c-0.007,0.297-0.024,0.861-0.018,1.51H91.322z M92.442,16.346
			c0-0.545-0.374-0.757-0.878-0.757h-0.604c-0.007,0.729,0.011,1.308,0.018,1.613l0.027,0.023c0.11,0.007,0.212,0.007,0.282,0.007
			C92.063,17.23,92.442,16.908,92.442,16.346z"/>
		<path fill="#FFFFFF" d="M93.865,15.567c0-1.304,0.799-2.056,1.815-2.056c1.142,0,1.802,0.804,1.802,1.941
			c0,1.302-0.797,2.055-1.814,2.055C94.526,17.507,93.865,16.702,93.865,15.567z M96.863,15.509c0-1.159-0.455-1.74-1.183-1.74
			c-0.729,0-1.194,0.581-1.194,1.74c0,1.158,0.453,1.739,1.183,1.739S96.863,16.669,96.863,15.509z"/>
		<path fill="#FFFFFF" d="M98.057,17.254l0.573-0.028l0.024-0.024c0.004-0.165,0.016-0.952,0.016-1.729
			c0-0.774-0.012-1.393-0.016-1.652l-0.024-0.022l-0.573-0.029v-0.195c0.516,0,1.066-0.012,1.359-0.012
			c0.454,0,0.718,0.028,0.931,0.092c0.55,0.166,0.792,0.523,0.792,0.914c0,0.567-0.385,0.837-0.855,0.987v0.011
			c0.148,0.172,0.407,0.643,0.74,1.228c0.145,0.252,0.282,0.441,0.472,0.453l0.125,0.006v0.197h-0.861l-0.022-0.023
			c-0.213-0.431-0.363-0.781-0.724-1.426c-0.077-0.13-0.145-0.241-0.231-0.337c-0.206,0.028-0.401,0.04-0.568,0.04
			c-0.005,0.682,0.012,1.325,0.018,1.497l0.023,0.023l0.527,0.028v0.197h-1.727V17.254L98.057,17.254z M100.518,14.572
			c0-0.313-0.137-0.55-0.395-0.671c-0.144-0.068-0.322-0.109-0.683-0.109h-0.19l-0.017,0.018c-0.006,0.246-0.012,1-0.018,1.67
			C100.215,15.452,100.518,15.13,100.518,14.572z"/>
		<path fill="#FFFFFF" d="M102.05,15.509c0-1.259,0.85-1.999,1.97-1.999c0.424,0,0.671,0.069,0.888,0.132l0.191-0.167h0.085
			l0.041,1.257h-0.123c-0.286-0.769-0.695-0.987-1.118-0.987c-0.667,0-1.313,0.5-1.313,1.706c0,0.941,0.469,1.796,1.445,1.796
			c0.281,0,0.585-0.082,0.585-0.174c0-0.195,0.006-0.718-0.011-1.16l-0.022-0.021l-0.564-0.028V15.67h1.608v0.194l-0.412,0.028
			l-0.023,0.021c-0.011,0.368-0.017,0.782-0.011,1.225c-0.07,0.144-0.62,0.366-1.199,0.366
			C102.895,17.507,102.05,16.777,102.05,15.509z"/>
		<path fill="#FFFFFF" d="M106.317,16.236h0.131c0.201,0.731,0.529,1.035,0.93,1.035c0.471,0,0.77-0.316,0.77-0.729
			c0-0.998-1.761-0.747-1.761-2.011c0-0.532,0.417-1.021,1.147-1.021c0.373,0,0.673,0.115,0.734,0.132l0.173-0.167h0.109
			l0.034,1.257h-0.121c-0.241-0.701-0.557-0.987-0.947-0.987c-0.338,0-0.631,0.225-0.631,0.604c0,0.958,1.791,0.808,1.791,2.02
			c0,0.578-0.437,1.135-1.333,1.135c-0.245,0-0.54-0.056-0.792-0.223l-0.112,0.223h-0.122V16.236L106.317,16.236z"/>
		<path fill="#FFFFFF" d="M111.408,16.071c0-0.218,0.006-0.349,0.006-0.919c0-0.454-0.006-0.815-0.011-1.332l-0.022-0.022
			l-0.551-0.029v-0.195h1.642v0.195l-0.465,0.029l-0.024,0.022c-0.005,0.431-0.011,1.361-0.011,2.228
			c0,0.724,0.166,1.209,0.93,1.209c0.799,0,1.029-0.463,1.029-1.318c0-0.745-0.013-1.554-0.024-2.118l-0.023-0.023l-0.527-0.029
			v-0.196h1.521v0.196l-0.562,0.029l-0.024,0.023c-0.017,0.614-0.017,1.458-0.009,2.168c0.005,0.988-0.463,1.517-1.427,1.517
			C111.907,17.507,111.408,17.019,111.408,16.071z"/>
		<path fill="#FFFFFF" d="M115.393,17.254l0.563-0.028l0.022-0.024c0.018-0.613,0.018-1.067,0.018-1.641
			c0-0.574,0-0.891-0.018-1.738l-0.022-0.023l-0.563-0.029v-0.195h1.094c0.702,0.981,1.499,2.13,2.074,2.95h0.01
			c-0.01-1.1-0.022-2.141-0.034-2.703l-0.023-0.023l-0.528-0.028v-0.196h1.522v0.196l-0.562,0.028l-0.025,0.023
			c-0.018,0.614-0.018,1.067-0.018,2.508v1.148h-0.28c-0.713-1.01-1.561-2.198-2.286-3.232h-0.008
			c0.005,1.344,0.023,2.381,0.033,2.956l0.024,0.022l0.527,0.028v0.196h-1.521v-0.195H115.393L115.393,17.254z"/>
		<path fill="#FFFFFF" d="M120.198,17.254l0.562-0.028l0.024-0.024c0.009-0.177,0.018-0.952,0.018-1.729
			c0-0.774-0.009-1.457-0.018-1.652l-0.024-0.022l-0.562-0.029v-0.195h1.744v0.195l-0.557,0.029l-0.022,0.022
			c-0.012,0.156-0.019,0.954-0.019,1.729c0,0.774,0.012,1.458,0.019,1.652l0.022,0.023l0.557,0.028v0.197h-1.744V17.254
			L120.198,17.254z"/>
		<path fill="#FFFFFF" d="M122.776,13.787l-0.346-0.018v-0.196h1.504v0.196l-0.51,0.023l-0.024,0.023
			c0.321,0.832,0.701,1.837,1.079,2.808h0.011c0.282-0.782,0.771-2.171,0.959-2.813l-0.016-0.018l-0.467-0.023v-0.196h1.27v0.196
			l-0.335,0.018c-0.298,0.756-0.986,2.541-1.44,3.72h-0.155C123.716,16.071,123.206,14.819,122.776,13.787z"/>
		<path fill="#FFFFFF" d="M126.666,17.254l0.562-0.029l0.024-0.023c0.006-0.264,0.018-0.952,0.018-1.729
			c0-0.774-0.012-1.422-0.018-1.652l-0.024-0.022l-0.562-0.029v-0.195h2.52l0.224-0.098h0.087l0.04,1.258h-0.114
			c-0.207-0.579-0.391-0.867-0.488-0.872l-1.083-0.058l-0.02,0.028c-0.006,0.264-0.016,0.873-0.016,1.516
			c0.258,0,0.819-0.019,0.969-0.028l0.023-0.024l0.208-0.402h0.109c-0.008,0.16-0.012,0.408-0.012,0.564
			c0,0.149,0.006,0.47,0.012,0.641h-0.109l-0.208-0.474l-0.023-0.025c-0.177-0.006-0.688-0.015-0.969-0.015
			c0,0.726,0.01,1.311,0.016,1.605l0.02,0.028l1.169-0.063c0.097-0.006,0.356-0.24,0.564-0.919h0.13
			c-0.074,1.12-0.093,1.213-0.188,1.213h-2.858L126.666,17.254L126.666,17.254L126.666,17.254z"/>
		<path fill="#FFFFFF" d="M130.403,17.254l0.574-0.028l0.024-0.024c0.005-0.165,0.017-0.952,0.017-1.729
			c0-0.774-0.012-1.393-0.017-1.652l-0.024-0.022l-0.574-0.029v-0.195c0.517,0,1.068-0.012,1.362-0.012
			c0.454,0,0.717,0.028,0.929,0.092c0.55,0.166,0.793,0.523,0.793,0.914c0,0.567-0.385,0.837-0.856,0.987v0.011
			c0.149,0.172,0.409,0.643,0.742,1.228c0.144,0.252,0.279,0.441,0.472,0.453l0.125,0.006v0.197h-0.862l-0.022-0.023
			c-0.214-0.431-0.361-0.781-0.724-1.426c-0.075-0.13-0.142-0.241-0.229-0.337c-0.206,0.028-0.402,0.04-0.567,0.04
			c-0.008,0.682,0.01,1.325,0.016,1.497l0.023,0.023l0.529,0.028v0.197h-1.729L130.403,17.254L130.403,17.254L130.403,17.254z
			 M132.865,14.572c0-0.313-0.137-0.55-0.396-0.671c-0.144-0.068-0.321-0.109-0.683-0.109h-0.189l-0.018,0.018
			c-0.006,0.246-0.01,1-0.016,1.67C132.562,15.452,132.865,15.13,132.865,14.572z"/>
		<path fill="#FFFFFF" d="M134.599,16.236h0.132c0.201,0.731,0.53,1.035,0.931,1.035c0.472,0,0.77-0.316,0.77-0.729
			c0-0.998-1.763-0.747-1.763-2.011c0-0.532,0.419-1.021,1.148-1.021c0.374,0,0.673,0.115,0.735,0.132l0.172-0.167h0.11l0.033,1.257
			h-0.12c-0.242-0.701-0.557-0.987-0.947-0.987c-0.341,0-0.634,0.225-0.634,0.604c0,0.958,1.792,0.808,1.792,2.02
			c0,0.578-0.435,1.135-1.33,1.135c-0.248,0-0.541-0.056-0.794-0.223l-0.115,0.223h-0.12V16.236L134.599,16.236z"/>
		<path fill="#FFFFFF" d="M137.791,17.254l0.563-0.028l0.023-0.024c0.012-0.177,0.018-0.952,0.018-1.729
			c0-0.774-0.006-1.457-0.018-1.652l-0.023-0.022l-0.563-0.029v-0.195h1.745v0.195l-0.557,0.029l-0.022,0.022
			c-0.011,0.156-0.019,0.954-0.019,1.729c0,0.774,0.011,1.458,0.019,1.652l0.022,0.023l0.557,0.028v0.197h-1.745V17.254
			L137.791,17.254z"/>
		<path fill="#FFFFFF" d="M140.902,17.254l0.615-0.028l0.022-0.024c0.009-0.213,0.02-0.952,0.02-1.729c0-0.774,0-1.41-0.02-1.612
			l-0.015-0.028h-0.683c-0.121,0-0.266,0.207-0.5,0.901h-0.116l0.048-1.257h0.103l0.167,0.097h2.578l0.165-0.097h0.103l0.048,1.257
			h-0.115c-0.241-0.701-0.379-0.901-0.499-0.901h-0.683l-0.019,0.028c-0.006,0.138-0.016,0.912-0.016,1.689
			c0,0.774,0.01,1.445,0.016,1.651l0.023,0.024l0.631,0.028v0.195h-1.871v-0.195H140.902z"/>
		<path fill="#FFFFFF" d="M144.123,17.254l0.562-0.028l0.023-0.024c0.005-0.263,0.017-0.952,0.017-1.729
			c0-0.774-0.012-1.422-0.017-1.652l-0.023-0.022l-0.562-0.029v-0.195h2.52l0.224-0.098h0.087l0.039,1.258h-0.114
			c-0.207-0.579-0.391-0.867-0.489-0.872l-1.084-0.058l-0.018,0.028c-0.006,0.264-0.016,0.873-0.016,1.516
			c0.259,0,0.82-0.019,0.97-0.028l0.023-0.024l0.205-0.402h0.109c-0.007,0.16-0.011,0.408-0.011,0.564
			c0,0.149,0.006,0.47,0.011,0.641h-0.109l-0.205-0.474l-0.023-0.025c-0.18-0.006-0.689-0.015-0.97-0.015
			c0,0.726,0.01,1.311,0.016,1.605l0.018,0.028l1.171-0.063c0.097-0.006,0.357-0.24,0.563-0.919h0.132
			c-0.075,1.12-0.092,1.213-0.19,1.213h-2.857V17.254L144.123,17.254L144.123,17.254z"/>
		<path fill="#FFFFFF" d="M148.536,17.254l0.614-0.028l0.025-0.024c0.006-0.213,0.017-0.952,0.017-1.729c0-0.774,0-1.41-0.017-1.612
			l-0.019-0.028h-0.684c-0.119,0-0.264,0.207-0.498,0.901h-0.114l0.046-1.257h0.103l0.166,0.097h2.578l0.166-0.097h0.104
			l0.046,1.257h-0.115c-0.241-0.701-0.377-0.901-0.497-0.901h-0.684l-0.018,0.028c-0.007,0.138-0.018,0.912-0.018,1.689
			c0,0.774,0.011,1.445,0.018,1.651l0.023,0.024l0.632,0.028v0.195h-1.873v-0.195H148.536z"/>
	</g>
	<g>
		<path fill="#FFFFFF" d="M60.479,11.712c-0.969,0.927-1.518,2.177-1.547,3.518c-0.06,2.77,2.144,5.07,4.913,5.133
			c1.342,0.028,2.614-0.468,3.583-1.394c0.969-0.93,1.519-2.179,1.548-3.521c0.06-2.769-2.144-5.071-4.914-5.131
			C62.72,10.288,61.448,10.784,60.479,11.712z M63.851,20.029c-2.585-0.058-4.644-2.204-4.588-4.79
			c0.027-1.254,0.541-2.421,1.446-3.289c0.905-0.866,2.093-1.328,3.347-1.301c2.586,0.056,4.644,2.206,4.587,4.791
			c-0.027,1.253-0.54,2.421-1.445,3.287C66.293,19.593,65.104,20.057,63.851,20.029z"/>
		<path fill="#FFFFFF" d="M59.26,10.438c-1.309,1.254-2.052,2.942-2.091,4.755c-0.08,3.74,2.896,6.85,6.638,6.93
			c3.741,0.082,6.85-2.897,6.931-6.637l0,0c0.04-1.812-0.629-3.531-1.883-4.841c-1.253-1.308-2.941-2.051-4.753-2.09
			C62.288,8.515,60.57,9.185,59.26,10.438z M63.812,21.848c-3.589-0.075-6.447-3.059-6.368-6.65c0.038-1.738,0.75-3.358,2.007-4.561
			c1.255-1.203,2.905-1.845,4.644-1.807s3.358,0.75,4.561,2.007c1.204,1.255,1.846,2.905,1.808,4.644l0,0
			C70.385,19.07,67.401,21.926,63.812,21.848z"/>
		<path fill="#FFFFFF" d="M60.262,16.122c-0.06-0.047-0.084-0.14-0.06-0.229c0.028-0.103,0.113-0.171,0.228-0.186
			c0.145-0.021,0.265,0.022,0.346,0.122c0.137,0.165,0.148,0.468,0.032,0.803c-0.214,0.612,0.014,0.939,0.122,1.052
			c0.086,0.089,0.188,0.141,0.249,0.121l0.008-0.002l0-0.009c0.005-0.039,0.052-0.134,0.081-0.188l0.003-0.008l-0.004-0.007
			c-0.18-0.23-0.231-0.531-0.129-0.765c0.087-0.201,0.267-0.323,0.506-0.345c0.114-0.01,0.16,0.025,0.163,0.059
			c0.005,0.036-0.038,0.082-0.116,0.096C61.436,16.673,61.33,16.85,61.317,17c-0.013,0.137,0.042,0.257,0.131,0.287
			c0.048,0,0.086-0.013,0.118-0.043l0.003-0.007l0-0.004c-0.005-0.064,0.025-0.145,0.07-0.183c0.028-0.024,0.06-0.032,0.095-0.024
			c0.139,0.036,0.15,0.144,0.148,0.188c-0.006,0.103-0.079,0.196-0.165,0.211l-0.007,0.002l-0.056,0.158
			c-0.063,0.173-0.135,0.369-0.113,0.485c0.014,0.076,0.049,0.126,0.099,0.143c0.044,0.013,0.093-0.003,0.135-0.047
			c0.058-0.056,0.087-0.181,0.122-0.325l0.014-0.06l0-0.003c-0.023-0.102-0.007-0.192,0.045-0.236
			c0.037-0.029,0.086-0.033,0.143-0.009c0.038,0.016,0.065,0.051,0.076,0.094c0.017,0.072-0.008,0.158-0.067,0.23l-0.001,0.001
			v0.005c-0.006,0.066-0.021,0.135-0.037,0.203c-0.021,0.095-0.041,0.188-0.032,0.26c0.006,0.05,0.035,0.084,0.083,0.1
			c0.062,0.02,0.141,0,0.181-0.045c0.042-0.047,0.082-0.243,0.122-0.46l0.029-0.143l-0.005-0.006c-0.043-0.04-0.058-0.122-0.032-0.2
			c0.026-0.076,0.084-0.124,0.161-0.132c0.062-0.004,0.106,0.017,0.13,0.063c0.045,0.088,0.007,0.238-0.032,0.285l-0.003,0.005
			l0.002,0.006c0.035,0.131,0.018,0.274,0.004,0.391c-0.01,0.096-0.019,0.179,0.002,0.229c0.022,0.053,0.076,0.092,0.142,0.102
			c0.07,0.011,0.139-0.009,0.179-0.053c0.046-0.051,0.037-0.131,0.026-0.224c-0.01-0.08-0.02-0.173,0-0.27V17.97l-0.001-0.003
			c-0.038-0.095-0.037-0.187,0.004-0.255c0.026-0.044,0.066-0.068,0.108-0.071c0.067-0.006,0.115,0.008,0.141,0.037
			c0.052,0.065,0.014,0.196-0.017,0.303l-0.003,0.009c0.011,0.149,0.037,0.355,0.097,0.516c0.02,0.051,0.073,0.087,0.132,0.089
			c0.063,0.001,0.116-0.032,0.142-0.094c0.023-0.054,0-0.165-0.026-0.28c-0.014-0.062-0.027-0.128-0.035-0.184
			c-0.052-0.123-0.063-0.211-0.032-0.264c0.019-0.032,0.053-0.05,0.102-0.055c0.029-0.001,0.084,0,0.128,0.044
			c0.047,0.047,0.068,0.126,0.061,0.238c0,0.006,0.045,0.165,0.045,0.165c0.034,0.125,0.069,0.255,0.113,0.348
			c0.014,0.052,0.056,0.089,0.105,0.092c0.051,0.002,0.096-0.031,0.116-0.086c0.036-0.099-0.017-0.213-0.083-0.356l-0.034-0.07
			c-0.069-0.066-0.093-0.132-0.072-0.19c0.022-0.063,0.093-0.105,0.149-0.111c0.052-0.004,0.124,0.002,0.17,0.049
			c0.043,0.048,0.06,0.124,0.046,0.23v0.003l0.064,0.208c0.024,0.081,0.045,0.15,0.066,0.201c0.021,0.048,0.065,0.083,0.122,0.092
			c0.056,0.009,0.11-0.008,0.142-0.042c0.043-0.046,0.012-0.11-0.023-0.186c-0.022-0.047-0.047-0.098-0.06-0.152l-0.001-0.005
			l-0.002-0.001c-0.071-0.069-0.102-0.158-0.077-0.227c0.017-0.047,0.057-0.074,0.114-0.079c0.07-0.004,0.124,0.009,0.159,0.043
			c0.037,0.038,0.054,0.097,0.048,0.181v0.001l0.001,0.005c0.019,0.039,0.029,0.085,0.042,0.135
			c0.016,0.069,0.033,0.138,0.072,0.203c0.036,0.06,0.084,0.089,0.136,0.083c0.058-0.003,0.113-0.049,0.143-0.121
			c0.021-0.053-0.014-0.134-0.052-0.221c-0.039-0.089-0.08-0.18-0.051-0.227c0.012-0.021,0.037-0.03,0.074-0.033
			c0.163-0.014,0.232,0.135,0.289,0.256c0.022,0.05,0.043,0.094,0.068,0.115c0.029,0.03,0.062,0.046,0.093,0.046
			c0.044-0.003,0.079-0.034,0.102-0.061c0.033-0.037,0.014-0.097-0.005-0.155c-0.026-0.078-0.039-0.136,0.013-0.159
			c0.132-0.06,0.182,0,0.24,0.066c0.042,0.049,0.084,0.1,0.161,0.102c0.358,0.006,0.648-0.265,0.827-0.491
			c0.311-0.393,0.472-0.881,0.423-1.075l0-0.004l-0.005-0.003c-0.132-0.078-0.164-0.225-0.135-0.334
			c0.027-0.097,0.096-0.162,0.176-0.164c0.127-0.001,0.221,0.043,0.279,0.133c0.047,0.073,0.072,0.178,0.072,0.306
			c0,0.272-0.106,0.657-0.311,1.099c-0.513,1.107-1.782,1.625-2.306,1.718c-2.533,0.427-4.484-0.5-4.848-1.688
			c-0.153-0.505-0.085-0.759,0.012-1.022c0.054-0.146,0.109-0.296,0.128-0.495l0.002-0.023l-0.021,0.009
			C60.434,16.173,60.331,16.177,60.262,16.122z"/>
		<path fill="#FFFFFF" d="M63.644,11.523c0.048-0.038,0.069-0.084,0.063-0.136c-0.017-0.138,0.051-0.304,0.193-0.329
			c0.18-0.031,0.508,0.01,0.569,0.05c0.084,0.055,0.118,0.121,0.099,0.184c-0.03,0.095-0.172,0.167-0.323,0.162
			c-0.096-0.003-0.168,0.028-0.214,0.093c-0.144,0.195,0.003,0.646,0.052,0.778c0.013,0.039,0.043,0.057,0.083,0.05
			c-0.001,0,0.354-0.035,0.354-0.035c0.297-0.031,0.667-0.069,0.973-0.076c0,0,0.025-0.009,0.025-0.009l0.008-0.022
			c-0.007-0.069-0.049-0.25-0.066-0.289l-0.003-0.005l-0.006-0.001c-0.072-0.006-0.208-0.05-0.287-0.146
			c-0.046-0.056-0.066-0.121-0.059-0.197c0.021-0.129,0.203-0.2,0.362-0.192c0.186-0.003,0.332,0.051,0.392,0.144
			c0.048,0.073,0.044,0.168-0.012,0.286l-0.001,0.003v0.002c0.001,0.099,0.047,0.291,0.079,0.357
			c0.013,0.024,0.048,0.027,0.056,0.028l0.052,0.003c0.098,0.007,0.219,0.013,0.447,0.071c0.068,0.016,0.134,0.098,0.125,0.193
			c-0.031,0.324-0.084,0.51-0.157,0.77l-0.083,0.3c-0.003,0.012,0.001,0.032,0.018,0.038l0,0c0.214,0.077,0.462,0.209,0.455,0.323
			c-0.005,0.092-0.034,0.121-0.05,0.13c-0.014,0.006-0.029,0.006-0.042,0c-0.13-0.075-0.323-0.123-0.387-0.135
			c-0.011-0.002-0.03,0.009-0.032,0.02c-0.024,0.078,0.006,0.178,0.041,0.294c0.038,0.131,0.083,0.28,0.062,0.432
			c-0.023,0.167-0.087,0.363-0.134,0.506c-0.033,0.098-0.056,0.169-0.055,0.198c0.001,0.079,0.003,0.081,0.049,0.116
			c0.031,0.025,0.091,0.07,0.197,0.192c0.386,0.431,0.07,1.056-0.16,1.509c-0.081,0.157-0.15,0.296-0.178,0.4
			c-0.019,0.069-0.16,0.15-0.336,0.191c-0.174,0.043-0.319,0.032-0.371-0.023c-0.01-0.013-0.015-0.029-0.012-0.047
			c0.005-0.042,0.042-0.092,0.101-0.134c0.092-0.062,0.187-0.095,0.329-0.142c0.02-0.01,0.032-0.022,0.033-0.04
			c0.121-0.62,0.201-1.149,0.056-1.801l-0.033-0.101c-0.026-0.068-0.053-0.139-0.051-0.252c0.001-0.039,0.01-0.094,0.021-0.158
			c0.038-0.217,0.097-0.548-0.062-0.924c-0.04-0.061-0.113-0.084-0.191-0.063c-0.067,0.017-0.137,0.07-0.142,0.149l-0.003,0.045
			c-0.021,0.32-0.047,0.683-0.217,1.018c-0.094,0.188,0.004,0.265,0.098,0.338l0.006,0.005c0.342,0.264,0.285,0.851,0.052,1.294
			l-0.036,0.067c-0.048,0.088-0.102,0.186-0.147,0.311l-0.016,0.032c-0.076,0.113-0.252,0.197-0.47,0.225
			c-0.152,0.018-0.265,0-0.294-0.027c-0.012-0.014-0.018-0.032-0.014-0.056c0.008-0.055,0.064-0.121,0.117-0.156
			c0.077-0.053,0.18-0.109,0.373-0.155c0.004,0,0.034-0.009,0.044-0.042c0.226-0.653,0.024-1.255-0.073-1.432
			c-0.09-0.166-0.078-0.256-0.053-0.436l0.018-0.13c0.037-0.265,0.114-0.812,0.146-1.169c0.001-0.013-0.01-0.033-0.03-0.037
			c-0.062-0.007-0.213-0.019-0.273,0.029c-0.042,0.034-0.047,0.166-0.054,0.348c-0.014,0.36-0.033,0.851-0.338,0.902
			c-0.092,0.016-0.179-0.009-0.259-0.073c-0.195-0.156-0.336-0.546-0.362-0.996c-0.026-0.443,0.044-0.994,0.207-1.15l0.014-0.015
			l-0.02-0.007c-0.052-0.014-0.093-0.062-0.112-0.13c-0.023-0.081-0.008-0.169,0.038-0.219l0.002-0.004v-0.004
			c0-0.05-0.032-0.132-0.074-0.238c-0.045-0.116-0.103-0.262-0.128-0.399c-0.003-0.014-0.027-0.029-0.04-0.03l-0.097,0
			c-0.287,0.006-0.885,0.018-1.092-0.607c-0.016-0.045,0.019-0.104,0.074-0.129c0.063-0.028,0.127,0.002,0.17,0.079
			c0.055,0.097,0.207,0.243,0.33,0.292C63.104,11.64,63.489,11.643,63.644,11.523z M64.005,13.884
			c-0.009,0.375,0.103,0.948,0.219,0.961c0.125,0.015,0.128-0.354,0.131-0.498c0.008-0.374-0.062-0.958-0.2-0.96
			C64.037,13.384,64.009,13.711,64.005,13.884z M64.473,12.685c-0.089,0.01-0.169,0.074-0.177,0.142
			c-0.011,0.087-0.038,0.122-0.084,0.153l-0.023,0.017l0.028,0.006c0.24,0.046,0.29,0.233,0.328,0.37
			c0.02,0.072,0.035,0.153,0.075,0.167c0.095,0.037,0.267,0.039,0.374-0.002c0.048-0.018,0.074-0.125,0.065-0.194
			c-0.017-0.187-0.08-0.572-0.08-0.572c-0.021-0.08-0.113-0.106-0.17-0.108C64.76,12.661,64.664,12.663,64.473,12.685z
			 M65.761,12.584c-0.154,0.005-0.352,0.024-0.384,0.1c-0.06,0.14-0.018,0.68,0.098,0.748c0.133,0.078,0.453,0.074,0.543-0.013
			c0.07-0.068,0.111-0.46,0.111-0.651c0-0.052-0.005-0.092-0.015-0.113C66.089,12.602,65.906,12.579,65.761,12.584z"/>
		<polygon fill="#FFFFFF" points="61.857,9.577 61.824,9.835 61.656,10.035 61.915,10.069 62.115,10.236 62.148,9.978 62.316,9.777 
			62.057,9.745 		"/>
		<polygon fill="#FFFFFF" points="66.699,20.79 66.489,20.636 66.228,20.621 66.382,20.409 66.398,20.148 66.608,20.3 
			66.868,20.318 66.715,20.529 		"/>
		<polygon fill="#FFFFFF" points="61.188,20.781 61.399,20.627 61.66,20.612 61.507,20.398 61.491,20.139 61.281,20.293 
			61.021,20.31 61.174,20.52 		"/>
		<path fill="#FFFFFF" d="M59.748,19.661l0.265-0.313c0.122-0.14,0.314-0.129,0.498,0.028c0.186,0.157,0.227,0.348,0.106,0.489
			l-0.265,0.31c-0.033,0.039-0.035,0.062,0.009,0.096l-0.095,0.072l-0.256-0.218l0.056-0.104c0.044,0.039,0.064,0.033,0.097-0.004
			l0.267-0.313c0.053-0.063,0.048-0.138-0.036-0.208c-0.084-0.072-0.162-0.066-0.214-0.007l-0.266,0.314
			c-0.032,0.037-0.033,0.06,0.009,0.095l-0.094,0.073l-0.233-0.2l0.056-0.104C59.694,19.703,59.715,19.698,59.748,19.661z"/>
		<path fill="#FFFFFF" d="M58.894,18.623l0.562-0.421l0.105,0.141l-0.177,0.596c-0.011,0.04-0.043,0.105-0.043,0.105
			s0.05-0.048,0.076-0.065l0.248-0.186c0.039-0.029,0.047-0.05,0.013-0.097l0.107-0.05l0.168,0.227l-0.077,0.088
			c-0.035-0.043-0.056-0.043-0.095-0.014l-0.413,0.308c-0.04,0.032-0.047,0.05-0.012,0.096l-0.108,0.05l-0.151-0.202l0.159-0.538
			c0.013-0.045,0.046-0.108,0.046-0.108s-0.052,0.046-0.08,0.068l-0.211,0.157c-0.04,0.029-0.046,0.05-0.012,0.097l-0.107,0.05
			l-0.169-0.228l0.077-0.089C58.834,18.654,58.855,18.652,58.894,18.623z"/>
		<path fill="#FFFFFF" d="M59.111,17.547l0.146,0.295l-0.093,0.074c-0.026-0.052-0.048-0.057-0.092-0.034l-0.462,0.229
			c-0.045,0.021-0.055,0.041-0.028,0.093l-0.115,0.028l-0.146-0.295l0.093-0.073c0.026,0.052,0.047,0.057,0.092,0.033l0.462-0.229
			c0.044-0.022,0.055-0.042,0.03-0.092L59.111,17.547z"/>
		<path fill="#FFFFFF" d="M58.063,16.664l0.759,0.067l0.067,0.228l-0.602,0.467c-0.044,0.032-0.049,0.05-0.034,0.103l-0.118,0.008
			l-0.093-0.314l0.104-0.059c0.015,0.045,0.033,0.052,0.071,0.024l0.291-0.219c0.048-0.033,0.15-0.081,0.15-0.081
			s-0.113,0.013-0.172,0.009l-0.365-0.035c-0.048-0.003-0.059,0.018-0.046,0.064l-0.118,0.009l-0.082-0.281l0.104-0.056
			C57.995,16.65,58.009,16.659,58.063,16.664z"/>
		<path fill="#FFFFFF" d="M58.624,15.477l0.062,0.678l-0.113,0.037c-0.005-0.058-0.025-0.068-0.073-0.063l-0.513,0.048
			c-0.05,0.004-0.066,0.019-0.061,0.075l-0.118-0.016l-0.06-0.65l0.21-0.018l0.028,0.089c-0.068,0.017-0.083,0.036-0.073,0.134
			l0.013,0.15l0.213-0.02l-0.013-0.137c-0.005-0.058-0.018-0.078-0.063-0.073l0.015-0.097l0.21-0.016l0.032,0.089
			c-0.047,0.006-0.054,0.026-0.049,0.086l0.012,0.138l0.232-0.023l-0.02-0.209c-0.009-0.09-0.036-0.104-0.099-0.11l0.01-0.098
			L58.624,15.477z"/>
		<path fill="#FFFFFF" d="M58.72,14.283l-0.03,0.26c-0.138,0.115-0.354-0.003-0.373,0.175l-0.012,0.105l0.168,0.018
			c0.048,0.006,0.068-0.004,0.074-0.061l0.113,0.037l-0.037,0.325l-0.118,0.014c0.007-0.06-0.01-0.073-0.059-0.078l-0.511-0.058
			c-0.049-0.006-0.069,0.006-0.075,0.063l-0.113-0.039l0.049-0.444c0.024-0.215,0.126-0.331,0.29-0.313
			c0.106,0.012,0.175,0.078,0.204,0.191c0.042-0.106,0.146-0.122,0.208-0.127c0.073-0.006,0.099-0.018,0.107-0.084l0.001-0.021
			L58.72,14.283z M57.927,14.649l-0.014,0.13l0.251,0.028l0.015-0.126c0.01-0.094-0.032-0.149-0.109-0.159
			C57.992,14.513,57.937,14.554,57.927,14.649z"/>
		<path fill="#FFFFFF" d="M58.901,13.717c-0.053,0.165-0.144,0.268-0.19,0.311l-0.166-0.104l0.024-0.076
			c0.104,0,0.171-0.083,0.199-0.17c0.022-0.066,0.013-0.146-0.058-0.169c-0.061-0.02-0.104,0.018-0.172,0.147
			c-0.069,0.133-0.179,0.252-0.349,0.198c-0.166-0.055-0.212-0.232-0.151-0.421c0.046-0.145,0.123-0.245,0.165-0.29l0.158,0.101
			l-0.024,0.076c-0.092,0.008-0.146,0.084-0.168,0.152c-0.024,0.075-0.006,0.14,0.049,0.157c0.054,0.018,0.094-0.022,0.145-0.118
			c0.093-0.176,0.193-0.291,0.38-0.23C58.923,13.337,58.962,13.532,58.901,13.717z"/>
		<path fill="#FFFFFF" d="M59.293,12.769l-0.15,0.293l-0.114-0.031c0.026-0.051,0.016-0.071-0.027-0.093l-0.458-0.235
			c-0.044-0.023-0.065-0.02-0.092,0.032l-0.092-0.075l0.15-0.294l0.114,0.032c-0.026,0.051-0.017,0.071,0.027,0.093l0.459,0.235
			c0.043,0.022,0.065,0.019,0.092-0.032L59.293,12.769z"/>
		<path fill="#FFFFFF" d="M59.333,11.556c-0.054-0.028-0.088-0.031-0.143,0.045l-0.05,0.069l0.442,0.325
			c0.039,0.028,0.061,0.031,0.096-0.016l0.078,0.088l-0.193,0.263l-0.108-0.047c0.035-0.048,0.026-0.069-0.013-0.097l-0.444-0.324
			l-0.05,0.069c-0.056,0.075-0.042,0.106,0,0.149l-0.071,0.065l-0.162-0.149l0.466-0.636l0.191,0.109L59.333,11.556z"/>
		<path fill="#FFFFFF" d="M60.665,11.135l-0.237,0.221l-0.096-0.069c0.031-0.028,0.034-0.049-0.012-0.073l-0.063-0.032l-0.23,0.214
			l0.027,0.067c0.021,0.049,0.044,0.042,0.077,0.012l0.062,0.102l-0.204,0.19l-0.097-0.068c0.038-0.035,0.044-0.054,0.023-0.104
			l-0.222-0.523c-0.015-0.031-0.036-0.042-0.077-0.003l-0.061-0.102l0.341-0.317l0.098,0.067c-0.042,0.039-0.037,0.057-0.004,0.074
			l0.51,0.258c0.047,0.025,0.066,0.022,0.105-0.013L60.665,11.135z M59.912,10.991c-0.045-0.026-0.134-0.101-0.134-0.101
			s0.065,0.101,0.087,0.145l0.095,0.223l0.165-0.154L59.912,10.991z"/>
		<path fill="#FFFFFF" d="M61.157,10.831c-0.146,0.093-0.283,0.111-0.346,0.115l-0.059-0.188l0.068-0.042
			c0.079,0.068,0.184,0.048,0.262,0c0.059-0.037,0.104-0.104,0.065-0.166c-0.035-0.056-0.091-0.055-0.227,0
			c-0.139,0.056-0.3,0.077-0.396-0.076c-0.092-0.149-0.011-0.315,0.158-0.42c0.129-0.081,0.252-0.108,0.312-0.113l0.054,0.179
			l-0.067,0.041c-0.076-0.051-0.166-0.03-0.228,0.008c-0.067,0.042-0.095,0.102-0.064,0.151c0.03,0.049,0.087,0.044,0.187,0.003
			c0.185-0.074,0.336-0.097,0.439,0.07C61.42,10.556,61.323,10.729,61.157,10.831z"/>
		<path fill="#FFFFFF" d="M63.635,9.665c-0.06,0.007-0.071,0.028-0.064,0.075l0.01,0.067c0.006,0.045,0.017,0.056,0.047,0.051
			L63.62,9.971c-0.125,0.025-0.147,0.08-0.339,0.105c-0.257,0.036-0.49-0.06-0.535-0.386c-0.04-0.3,0.134-0.478,0.414-0.516
			c0.166-0.021,0.296,0.026,0.351,0.049l-0.022,0.203l-0.077,0.01c-0.038-0.087-0.12-0.114-0.21-0.102
			c-0.161,0.021-0.234,0.123-0.206,0.323c0.027,0.201,0.113,0.279,0.27,0.258c0.038-0.005,0.085-0.023,0.11-0.041l-0.015-0.108
			c-0.007-0.047-0.021-0.063-0.081-0.055l-0.016,0.002l0.009-0.118l0.339-0.046l0.039,0.112L63.635,9.665z"/>
		<path fill="#FFFFFF" d="M64.384,10.054c-0.265-0.022-0.443-0.16-0.416-0.49c0.027-0.331,0.224-0.438,0.489-0.417
			c0.27,0.022,0.443,0.159,0.417,0.49C64.847,9.967,64.653,10.074,64.384,10.054z M64.443,9.307
			c-0.137-0.012-0.208,0.058-0.226,0.276c-0.018,0.219,0.042,0.299,0.18,0.311c0.14,0.012,0.208-0.06,0.225-0.278
			C64.64,9.397,64.584,9.316,64.443,9.307z"/>
		<path fill="#FFFFFF" d="M65.841,9.674c0.006-0.061-0.003-0.094-0.093-0.118l-0.083-0.023l-0.145,0.53
			c-0.013,0.048-0.007,0.068,0.048,0.084l-0.055,0.105L65.2,10.167l0.006-0.12c0.056,0.016,0.072,0.001,0.085-0.046l0.145-0.531
			l-0.083-0.021c-0.089-0.025-0.113-0.001-0.14,0.053l-0.085-0.042l0.081-0.205l0.76,0.209L65.936,9.68L65.841,9.674z"/>
		<path fill="#FFFFFF" d="M66.763,10.801l-0.291-0.148l0.03-0.115c0.053,0.027,0.071,0.015,0.093-0.028l0.089-0.176l-0.297-0.151
			l-0.09,0.176c-0.021,0.042-0.02,0.065,0.031,0.091l-0.075,0.092l-0.292-0.148l0.031-0.115c0.052,0.026,0.071,0.015,0.092-0.028
			l0.234-0.458c0.022-0.044,0.02-0.065-0.032-0.093l0.076-0.092l0.29,0.148l-0.03,0.115c-0.051-0.026-0.069-0.016-0.092,0.029
			l-0.071,0.142l0.297,0.151l0.072-0.142c0.022-0.044,0.021-0.065-0.032-0.092l0.076-0.091l0.291,0.148l-0.031,0.114
			c-0.051-0.026-0.07-0.018-0.092,0.028l-0.234,0.459c-0.022,0.044-0.02,0.065,0.031,0.091L66.763,10.801z"/>
		<path fill="#FFFFFF" d="M67.321,11.241c-0.205-0.168-0.272-0.383-0.061-0.64c0.212-0.255,0.434-0.231,0.639-0.062
			c0.209,0.171,0.272,0.384,0.062,0.641C67.75,11.436,67.529,11.413,67.321,11.241z M67.797,10.663
			c-0.105-0.087-0.205-0.07-0.344,0.099c-0.139,0.169-0.137,0.269-0.03,0.357c0.108,0.089,0.205,0.069,0.344-0.1
			C67.906,10.851,67.906,10.752,67.797,10.663z"/>
		<path fill="#FFFFFF" d="M68.134,12.053l-0.271-0.337l0.075-0.093c0.036,0.044,0.058,0.043,0.096,0.012l0.401-0.323
			c0.039-0.031,0.044-0.052,0.009-0.097l0.106-0.052l0.253,0.314c0.137,0.17,0.152,0.315,0.032,0.412
			c-0.056,0.045-0.147,0.046-0.214,0.012c0.042,0.109,0.008,0.206-0.069,0.268C68.425,12.271,68.27,12.22,68.134,12.053z
			 M68.343,11.691l-0.198,0.16l0.079,0.098c0.06,0.075,0.129,0.08,0.189,0.032s0.067-0.121,0.005-0.197L68.343,11.691z
			 M68.454,11.602l0.066,0.083c0.054,0.068,0.113,0.072,0.164,0.031c0.048-0.038,0.058-0.092,0.001-0.163l-0.067-0.083
			L68.454,11.602z"/>
		<path fill="#FFFFFF" d="M69.496,12.964l-0.364,0.185c-0.165,0.085-0.34,0.002-0.45-0.214s-0.077-0.408,0.089-0.491l0.364-0.187
			c0.044-0.022,0.055-0.042,0.028-0.093l0.116-0.03l0.152,0.299l-0.093,0.075c-0.026-0.052-0.047-0.055-0.092-0.033l-0.366,0.188
			c-0.072,0.037-0.097,0.109-0.047,0.205c0.052,0.1,0.124,0.124,0.197,0.087l0.366-0.187c0.044-0.023,0.054-0.042,0.029-0.092
			l0.114-0.031l0.14,0.273l-0.092,0.076C69.562,12.944,69.541,12.941,69.496,12.964z"/>
		<path fill="#FFFFFF" d="M69.211,14.422l-0.066-0.252c0.087-0.157,0.332-0.125,0.286-0.298l-0.027-0.103l-0.163,0.043
			c-0.047,0.013-0.062,0.028-0.047,0.083l-0.119,0.007l-0.083-0.315l0.106-0.054c0.015,0.057,0.035,0.063,0.083,0.051l0.498-0.132
			c0.048-0.013,0.062-0.029,0.048-0.085l0.118-0.004l0.114,0.431c0.056,0.209,0.002,0.355-0.157,0.396
			c-0.104,0.028-0.19-0.008-0.259-0.105c0,0.115-0.092,0.167-0.148,0.196c-0.066,0.032-0.085,0.052-0.069,0.117l0.005,0.02
			L69.211,14.422z M69.82,13.795l-0.034-0.128l-0.245,0.066l0.032,0.123c0.025,0.094,0.085,0.129,0.16,0.109
			C69.807,13.945,69.844,13.886,69.82,13.795z"/>
		<path fill="#FFFFFF" d="M69.634,15.506c-0.003-0.061-0.022-0.072-0.07-0.07l-0.069,0.002c-0.045,0.004-0.056,0.015-0.056,0.044
			l-0.111-0.018c-0.015-0.127-0.068-0.152-0.078-0.345c-0.012-0.26,0.104-0.485,0.432-0.501c0.301-0.014,0.464,0.174,0.479,0.457
			c0.009,0.168-0.051,0.292-0.079,0.345l-0.199-0.041l-0.004-0.077c0.091-0.03,0.125-0.109,0.122-0.201
			c-0.009-0.161-0.104-0.244-0.306-0.233c-0.203,0.01-0.289,0.089-0.28,0.248c0.002,0.039,0.016,0.087,0.031,0.114l0.108-0.006
			c0.048-0.002,0.065-0.014,0.062-0.076l0-0.015l0.117,0.019l0.017,0.34l-0.114,0.029L69.634,15.506z"/>
		<path fill="#FFFFFF" d="M69.156,16.498l0.104-0.674l0.117-0.009c-0.008,0.057,0.008,0.072,0.057,0.078l0.509,0.08
			c0.05,0.008,0.068-0.004,0.077-0.06l0.111,0.044l-0.099,0.645l-0.208-0.032l-0.005-0.095c0.069,0.002,0.088-0.014,0.103-0.111
			l0.022-0.149l-0.21-0.032l-0.02,0.135c-0.01,0.059-0.002,0.081,0.042,0.089l-0.037,0.089l-0.208-0.03l-0.009-0.099
			c0.046,0.007,0.059-0.012,0.068-0.07l0.022-0.136l-0.23-0.034l-0.031,0.209c-0.014,0.088,0.008,0.11,0.068,0.131l-0.032,0.092
			L69.156,16.498z"/>
		<path fill="#FFFFFF" d="M69.442,17.838l-0.656-0.248l0.062-0.164l0.595-0.171c0.041-0.011,0.113-0.021,0.113-0.021
			s-0.066-0.016-0.097-0.029l-0.29-0.108c-0.046-0.018-0.067-0.013-0.086,0.042l-0.101-0.064l0.1-0.264l0.118,0.017
			c-0.021,0.055-0.008,0.072,0.038,0.091l0.481,0.181c0.048,0.019,0.068,0.011,0.088-0.042l0.099,0.065l-0.089,0.236l-0.541,0.155
			c-0.043,0.012-0.116,0.02-0.116,0.02s0.068,0.019,0.102,0.029l0.247,0.096c0.047,0.017,0.067,0.009,0.087-0.044l0.101,0.063
			l-0.101,0.265l-0.117-0.019C69.502,17.872,69.489,17.855,69.442,17.838z"/>
		<path fill="#FFFFFF" d="M68.443,18.162c0.093-0.146,0.208-0.222,0.263-0.252l0.135,0.144l-0.043,0.066
			c-0.102-0.028-0.186,0.038-0.235,0.114c-0.038,0.061-0.049,0.138,0.014,0.179c0.055,0.034,0.105,0.01,0.204-0.1
			c0.099-0.113,0.236-0.201,0.387-0.103c0.147,0.091,0.149,0.275,0.041,0.443c-0.081,0.129-0.18,0.205-0.23,0.239l-0.128-0.137
			l0.042-0.066c0.091,0.012,0.162-0.047,0.2-0.105c0.043-0.067,0.042-0.133-0.008-0.165c-0.048-0.03-0.097-0.002-0.17,0.079
			c-0.133,0.147-0.26,0.231-0.426,0.129C68.327,18.525,68.339,18.327,68.443,18.162z"/>
		<path fill="#FFFFFF" d="M67.819,18.996l0.219-0.247l0.103,0.058c-0.038,0.045-0.033,0.066,0.004,0.099l0.384,0.341
			c0.037,0.034,0.06,0.035,0.097-0.008l0.07,0.095l-0.219,0.248l-0.102-0.06c0.037-0.043,0.034-0.065-0.004-0.097l-0.384-0.342
			c-0.038-0.032-0.06-0.038-0.098,0.008L67.819,18.996z"/>
		<path fill="#FFFFFF" d="M67.271,19.478c0.135-0.11,0.269-0.145,0.331-0.154l0.081,0.178l-0.062,0.05
			c-0.087-0.061-0.19-0.025-0.26,0.032c-0.055,0.044-0.091,0.114-0.044,0.172c0.04,0.052,0.096,0.042,0.225-0.026
			c0.13-0.073,0.289-0.113,0.4,0.026c0.109,0.137,0.05,0.311-0.106,0.434c-0.119,0.099-0.236,0.137-0.295,0.151l-0.077-0.17
			l0.062-0.051c0.081,0.045,0.168,0.011,0.224-0.033c0.061-0.05,0.083-0.114,0.045-0.158c-0.037-0.045-0.091-0.033-0.187,0.02
			c-0.174,0.096-0.322,0.136-0.444-0.017C67.044,19.781,67.119,19.6,67.271,19.478z"/>
		<path fill="#FFFFFF" d="M62.523,21.415l-0.438-0.124l0.008-0.12l0.056,0.016c0.058,0.017,0.077,0.006,0.09-0.043l0.127-0.446
			c-0.03,0.016-0.083,0.024-0.172,0.009l0.037-0.13c0.096,0.003,0.154-0.007,0.252-0.097l0.179,0.053l-0.194,0.677
			c-0.013,0.046-0.001,0.067,0.055,0.085l0.057,0.015L62.523,21.415z"/>
		<path fill="#FFFFFF" d="M63.361,21.566c-0.243-0.021-0.388-0.137-0.374-0.281c0.012-0.126,0.121-0.188,0.237-0.228
			c-0.095-0.055-0.176-0.123-0.166-0.224c0.012-0.128,0.163-0.203,0.388-0.183c0.215,0.021,0.356,0.121,0.344,0.252
			c-0.009,0.102-0.1,0.152-0.205,0.189c0.108,0.059,0.203,0.14,0.191,0.266C63.764,21.505,63.596,21.587,63.361,21.566z M63.4,21.15
			c-0.098,0.035-0.17,0.084-0.177,0.157c-0.006,0.063,0.057,0.118,0.15,0.125c0.091,0.009,0.166-0.029,0.171-0.095
			C63.552,21.264,63.489,21.203,63.4,21.15z M63.434,20.783c-0.08-0.007-0.135,0.021-0.14,0.078
			c-0.006,0.057,0.043,0.105,0.12,0.147c0.08-0.027,0.137-0.067,0.142-0.125C63.562,20.829,63.51,20.79,63.434,20.783z"/>
		<path fill="#FFFFFF" d="M64.471,21.569c-0.059,0.006-0.17-0.003-0.209-0.027l-0.012-0.127c0.042,0.014,0.105,0.018,0.16,0.014
			c0.157-0.016,0.247-0.095,0.267-0.252c-0.029,0.049-0.111,0.093-0.198,0.102c-0.215,0.021-0.349-0.093-0.368-0.272
			c-0.017-0.184,0.116-0.328,0.349-0.352c0.269-0.024,0.41,0.138,0.432,0.369C64.919,21.303,64.799,21.538,64.471,21.569z
			 M64.474,20.792c-0.106,0.009-0.16,0.086-0.15,0.194c0.01,0.099,0.07,0.164,0.171,0.153c0.093-0.009,0.173-0.074,0.162-0.19
			C64.649,20.871,64.599,20.781,64.474,20.792z"/>
		<path fill="#FFFFFF" d="M65.855,21.291l-0.442,0.116l-0.053-0.105l0.057-0.017c0.058-0.016,0.067-0.035,0.055-0.082l-0.119-0.449
			c-0.019,0.028-0.061,0.062-0.145,0.095l-0.035-0.129c0.084-0.046,0.128-0.085,0.167-0.211l0.18-0.049l0.18,0.684
			c0.012,0.046,0.034,0.06,0.09,0.043l0.057-0.013L65.855,21.291z"/>
		<path fill="#FFFFFF" d="M63.5,14.073c-0.043-0.513-0.538-1.197-1.237-1.312c-0.76-0.126-1.862,0.197-1.99,1.312
			c-0.132,1.156,0.692,1.944,1.753,1.864C63.177,15.849,63.56,14.8,63.5,14.073z M62.845,14.87c0.062-0.006,0.192,0.024,0.226,0.111
			c0.038,0.094-0.232,0.385-0.349,0.419c-0.074,0.02-0.197-0.114-0.178-0.221C62.557,15.107,62.795,14.875,62.845,14.87z
			 M63.235,14.525c-0.059,0.039-0.182,0.035-0.229-0.039c-0.034-0.049-0.047-0.433-0.025-0.488c0.022-0.057,0.169-0.097,0.238-0.058
			C63.3,13.985,63.334,14.459,63.235,14.525z M63.025,13.552c-0.013,0.071-0.137,0.112-0.189,0.106
			c-0.062-0.008-0.344-0.228-0.361-0.301c-0.023-0.094,0.05-0.166,0.111-0.181C62.75,13.136,63.045,13.449,63.025,13.552z
			 M62.117,13.017c0.024,0.051,0.053,0.137,0,0.196c-0.044,0.05-0.461,0.085-0.522,0.082c-0.128-0.008-0.177-0.161-0.134-0.227
			C61.537,12.947,62.073,12.92,62.117,13.017z M62.476,13.769c0,0.111-0.41,0.324-0.486,0.279c-0.112-0.065-0.353-0.433-0.306-0.491
			C61.849,13.351,62.476,13.597,62.476,13.769z M61.4,13.67c0.068-0.011,0.286,0.363,0.244,0.495
			c-0.036,0.111-0.463,0.292-0.505,0.251C61.01,14.287,61.075,13.72,61.4,13.67z M61.293,14.746c0-0.088,0.373-0.324,0.508-0.273
			c0.109,0.041,0.31,0.504,0.206,0.553C61.755,15.14,61.293,14.91,61.293,14.746z M62.405,14.842
			c-0.102-0.044-0.39-0.425-0.296-0.519c0.087-0.087,0.486-0.292,0.546-0.237C62.883,14.298,62.603,14.927,62.405,14.842z
			 M60.91,13.778c-0.097,0.049-0.238-0.042-0.248-0.161c-0.01-0.12,0.283-0.396,0.384-0.369c0.05,0.013,0.139,0.129,0.13,0.214
			C61.172,13.521,60.967,13.75,60.91,13.778z M60.823,14.586c-0.054,0.065-0.195,0.101-0.253,0.054
			c-0.087-0.07-0.114-0.357-0.058-0.48c0.039-0.081,0.262-0.123,0.299-0.028C60.836,14.196,60.863,14.54,60.823,14.586z
			 M60.739,15.087c-0.008-0.091,0.133-0.211,0.228-0.193c0.076,0.016,0.322,0.274,0.333,0.334c0.02,0.106-0.083,0.209-0.153,0.216
			C61.035,15.452,60.747,15.187,60.739,15.087z M61.636,15.603c-0.077-0.043-0.026-0.243,0.085-0.26
			c0.078-0.012,0.355-0.041,0.447,0c0.071,0.031,0.127,0.213,0.087,0.258C62.18,15.686,61.746,15.663,61.636,15.603z"/>
	</g>
</g>
</svg>
