<?xml version="1.0" encoding="utf-8"?>
<!-- Generator: Adobe Illustrator 16.0.0, SVG Export Plug-In . SVG Version: 6.00 Build 0)  -->
<!DOCTYPE svg PUBLIC "-//W3C//DTD SVG 1.1//EN" "http://www.w3.org/Graphics/SVG/1.1/DTD/svg11.dtd">
<svg version="1.1" id="eng_neg" xmlns="http://www.w3.org/2000/svg" xmlns:xlink="http://www.w3.org/1999/xlink" x="0px" y="0px"
	 width="90px" height="70px" viewBox="6.018 2.982 90 70" enable-background="new 6.018 2.982 90 70" xml:space="preserve">
<g>
	<g>
		<path fill="#FFFFFF" d="M41.78,14.378c-2.451,2.333-3.84,5.472-3.912,8.848c-0.153,6.959,5.422,12.746,12.425,12.9
			c3.391,0.072,6.607-1.171,9.058-3.505c2.452-2.337,3.842-5.477,3.913-8.848c0.152-6.962-5.423-12.75-12.424-12.9
			C47.449,10.798,44.231,12.043,41.78,14.378z M50.312,35.163c-6.471-0.139-11.62-5.485-11.479-11.919
			c0.068-3.114,1.352-6.02,3.615-8.176c2.265-2.156,5.238-3.304,8.373-3.238c6.471,0.139,11.619,5.487,11.478,11.919
			c-0.066,3.116-1.351,6.02-3.615,8.175C56.417,34.082,53.445,35.23,50.312,35.163z"/>
		<path fill="#FFFFFF" d="M38.697,11.178c-3.311,3.15-5.188,7.394-5.289,11.952c-0.205,9.407,7.325,17.223,16.786,17.427
			c9.458,0.202,17.319-7.285,17.523-16.688l0,0c0.099-4.558-1.592-8.879-4.761-12.169c-3.169-3.292-7.439-5.161-12.021-5.258
			C46.353,6.344,42.008,8.024,38.697,11.178z M50.213,39.784c-9.035-0.192-16.223-7.659-16.027-16.64
			c0.094-4.35,1.886-8.4,5.047-11.412c3.161-3.01,7.311-4.613,11.688-4.52c4.374,0.093,8.447,1.876,11.479,5.018
			c3.026,3.143,4.64,7.27,4.546,11.62l0,0C66.75,32.83,59.242,39.979,50.213,39.784z"/>
		<path fill="#FFFFFF" d="M53.978,33.643c-6.37,1.136-11.475-1.329-12.408-4.37c-0.604-1.967,0.273-2.394,0.413-3.814
			c-1.101,0.584-1.306-0.937-0.332-1.066c1.032-0.139,1.492,0.939,0.992,2.373c-0.722,2.058,0.545,3.013,0.899,2.907
			c0.017-0.108,0.147-0.37,0.207-0.486c-0.865-1.102-0.503-2.71,0.974-2.841c0.602-0.052,0.543,0.384,0.123,0.441
			c-1.134,0.164-1.079,1.426-0.607,1.583c0.083,0,0.18-0.018,0.264-0.104c-0.019-0.253,0.158-0.623,0.453-0.549
			c0.653,0.163,0.403,0.991-0.045,1.059c-0.167,0.512-0.49,1.222-0.421,1.592c0.069,0.367,0.325,0.439,0.542,0.225
			c0.155-0.154,0.233-0.537,0.335-0.948c-0.11-0.466,0.118-0.818,0.516-0.651c0.274,0.116,0.307,0.535,0.035,0.86
			c-0.035,0.401-0.21,0.854-0.172,1.16s0.456,0.287,0.611,0.118c0.153-0.166,0.31-1.248,0.37-1.486
			c-0.237-0.208-0.144-0.847,0.343-0.885c0.569-0.044,0.438,0.727,0.276,0.921c0.159,0.604-0.1,1.281,0.018,1.55
			c0.115,0.27,0.559,0.333,0.762,0.115c0.2-0.222-0.05-0.687,0.058-1.229c-0.19-0.469,0.032-0.844,0.314-0.864
			c0.636-0.05,0.455,0.52,0.338,0.92c0.031,0.41,0.102,0.9,0.246,1.277c0.091,0.246,0.5,0.301,0.635-0.017
			c0.085-0.193-0.109-0.757-0.154-1.15c-0.278-0.638-0.044-0.812,0.206-0.83c0.231-0.019,0.554,0.112,0.511,0.742
			c0.124,0.422,0.238,0.936,0.394,1.27c0.073,0.266,0.4,0.293,0.504,0.017c0.102-0.276-0.087-0.603-0.294-1.048
			c-0.455-0.44-0.042-0.779,0.221-0.802c0.258-0.02,0.667,0.05,0.583,0.737c0.141,0.417,0.233,0.795,0.324,1.018
			c0.11,0.255,0.464,0.287,0.618,0.118c0.152-0.169-0.139-0.462-0.217-0.824c-0.347-0.333-0.283-0.788,0.111-0.819
			c0.2-0.017,0.593,0.006,0.556,0.588c0.118,0.252,0.119,0.575,0.289,0.849c0.204,0.335,0.522,0.21,0.649-0.09
			c0.123-0.303-0.664-1.181-0.048-1.229c0.616-0.049,0.726,0.757,0.925,0.949c0.2,0.19,0.355,0.063,0.448-0.042
			c0.161-0.177-0.268-0.657,0.032-0.794c0.606-0.278,0.592,0.41,1.025,0.418c1.876,0.028,3.351-3.033,3.132-3.896
			c-0.628-0.371-0.408-1.294,0.118-1.304c1.294-0.021,1.111,1.793,0.13,3.901C58.49,31.98,55.329,33.401,53.978,33.643z"/>
		<path fill="#FFFFFF" d="M56.712,19.091c-0.021-0.008-0.025-0.042-0.021-0.058c0.288-1.107,0.5-1.594,0.605-2.696
			c0.024-0.262-0.164-0.478-0.341-0.521c-0.686-0.17-1-0.165-1.27-0.185c-0.026-0.002-0.088-0.016-0.11-0.054
			c-0.078-0.158-0.195-0.641-0.196-0.885c0.399-0.844-0.315-1.136-0.989-1.125c-0.441-0.021-0.894,0.181-0.946,0.511
			c-0.061,0.639,0.649,0.871,0.903,0.894c0.043,0.09,0.147,0.537,0.163,0.713c0.003,0.022-0.02,0.049-0.049,0.049
			c-1.14,0.02-2.612,0.219-3.362,0.276c-0.107,0.017-0.157-0.047-0.185-0.107c-0.139-0.382-0.729-2.183,0.384-2.147
			c0.66,0.021,1.213-0.517,0.589-0.925c-0.162-0.106-1.007-0.208-1.465-0.129c-0.377,0.065-0.561,0.488-0.514,0.859
			c0.074,0.583-1.383,0.642-1.813,0.469c-0.308-0.123-0.687-0.489-0.817-0.724c-0.281-0.497-0.767-0.117-0.676,0.149
			c0.603,1.812,2.529,1.525,3.033,1.549c0.021,0,0.068,0.033,0.07,0.05c0.119,0.653,0.518,1.343,0.517,1.599
			c-0.242,0.265-0.141,0.833,0.197,0.93c-0.414,0.395-0.598,1.773-0.53,2.916c0.084,1.457,0.677,2.87,1.608,2.715
			c1.182-0.19,0.719-2.914,1.001-3.147c0.146-0.118,0.529-0.085,0.669-0.066c0.033,0.004,0.052,0.041,0.048,0.058
			c-0.09,1.066-0.35,2.781-0.411,3.24c-0.064,0.467-0.104,0.707,0.134,1.138c0.261,0.475,0.736,1.979,0.184,3.578
			c-0.018,0.062-0.07,0.082-0.088,0.083c-0.499,0.117-0.767,0.27-0.95,0.395c-0.197,0.134-0.412,0.412-0.267,0.581
			c0.211,0.19,1.562,0.118,1.979-0.505c0.011-0.015,0.04-0.074,0.044-0.083c0.145-0.401,0.323-0.694,0.461-0.95
			c0.624-1.188,0.714-2.641-0.142-3.295c-0.239-0.186-0.486-0.36-0.252-0.823c0.453-0.893,0.499-1.865,0.559-2.684
			c0.021-0.33,0.576-0.522,0.784-0.21c0.519,1.224,0.112,2.273,0.103,2.71c-0.009,0.434,0.155,0.634,0.213,0.892
			c0.353,1.594,0.175,2.88-0.146,4.524c-0.002,0.035-0.029,0.057-0.062,0.069c-0.375,0.125-0.604,0.204-0.841,0.366
			c-0.238,0.165-0.33,0.377-0.227,0.49c0.313,0.355,1.734-0.03,1.845-0.434c0.265-1.006,2.183-3.341,0.849-4.83
			c-0.606-0.681-0.606-0.408-0.613-0.752c-0.006-0.164,0.381-1.066,0.478-1.766c0.102-0.728-0.378-1.419-0.257-1.822
			c0.003-0.011,0.034-0.031,0.046-0.028c0.199,0.038,0.667,0.162,0.971,0.335c0.092,0.051,0.256,0.011,0.278-0.35
			C57.912,19.542,56.911,19.164,56.712,19.091z M51.25,22.123c-0.55-0.013-0.755-3.423-0.186-3.412
			C51.575,18.72,51.63,22.13,51.25,22.123z M53.074,17.078c0.046,0.174,0.217,0.942,0.256,1.403
			c0.019,0.172-0.041,0.381-0.146,0.421c-0.257,0.098-0.687,0.075-0.921-0.014c-0.255-0.098-0.083-1.114-1.026-1.297
			c0.13-0.09,0.198-0.184,0.224-0.407c0.019-0.147,0.198-0.305,0.422-0.332c0.43-0.049,0.696-0.06,0.843-0.055
			C52.873,16.801,53.026,16.903,53.074,17.078z M55.65,18.585c-0.21,0.199-0.866,0.241-1.202,0.046
			c-0.28-0.164-0.345-1.381-0.204-1.709c0.142-0.329,1.577-0.342,1.693-0.118C56.053,17.032,55.858,18.384,55.65,18.585z"/>
		<path fill="#FFFFFF" d="M49.462,20.269c-0.109-1.291-1.317-2.997-3.087-3.286c-1.918-0.318-4.902,0.448-5.227,3.251
			c-0.334,2.902,1.902,5.06,4.584,4.854C48.644,24.866,49.614,22.095,49.462,20.269z M47.731,22.338
			c0.159-0.015,0.457,0.02,0.541,0.235c0.094,0.233-0.556,0.963-0.856,1.049c-0.185,0.053-0.457-0.22-0.408-0.492
			C47.041,22.956,47.606,22.353,47.731,22.338z M48.726,21.414c-0.153,0.101-0.439,0.118-0.56-0.065
			c-0.085-0.125-0.112-1.051-0.054-1.188c0.056-0.142,0.369-0.248,0.545-0.151C48.86,20.121,48.974,21.25,48.726,21.414z
			 M48.153,19.004c-0.033,0.176-0.328,0.25-0.457,0.231c-0.156-0.017-0.827-0.538-0.869-0.722c-0.058-0.238,0.106-0.391,0.259-0.43
			C47.502,17.98,48.2,18.75,48.153,19.004z M45.895,17.699c0.06,0.129,0.134,0.303-0.003,0.454
			c-0.115,0.125-1.136,0.159-1.293,0.149c-0.323-0.02-0.475-0.351-0.367-0.517C44.426,17.484,45.782,17.457,45.895,17.699z
			 M46.727,19.581c0,0.28-0.969,0.737-1.164,0.623c-0.282-0.166-0.856-1.015-0.737-1.162C45.244,18.527,46.727,19.153,46.727,19.581
			z M44.1,19.346c0.122-0.023,0.703,0.868,0.597,1.197c-0.089,0.282-1.159,0.676-1.266,0.57C43.104,20.79,43.39,19.494,44.1,19.346z
			 M43.882,21.983c0-0.167,0.87-0.758,1.213-0.628c0.276,0.102,0.708,1.181,0.475,1.29C44.937,22.939,43.882,22.255,43.882,21.983z
			 M46.59,22.156c-0.256-0.11-0.917-0.977-0.681-1.212c0.219-0.22,1.152-0.69,1.301-0.552C47.787,20.927,47.09,22.373,46.59,22.156z
			 M42.742,19.545c-0.246,0.122-0.472-0.043-0.498-0.342c-0.023-0.3,0.688-1.034,0.943-0.962c0.125,0.032,0.316,0.273,0.293,0.484
			C43.468,18.87,42.885,19.474,42.742,19.545z M42.569,21.591c-0.138,0.162-0.444,0.263-0.592,0.147
			c-0.22-0.177-0.287-0.896-0.144-1.202c0.097-0.207,0.603-0.322,0.695-0.085C42.594,20.611,42.671,21.476,42.569,21.591z
			 M42.451,22.848c-0.018-0.228,0.295-0.488,0.535-0.44c0.19,0.04,0.788,0.665,0.814,0.811c0.05,0.269-0.165,0.484-0.345,0.494
			C43.174,23.735,42.473,23.098,42.451,22.848z M44.685,24.078c-0.193-0.107-0.043-0.493,0.238-0.538
			c0.197-0.029,0.865-0.109,1.099-0.01c0.179,0.077,0.306,0.454,0.205,0.562C46.035,24.308,44.963,24.232,44.685,24.078z"/>
		<polygon fill="#FFFFFF" points="45.263,9.009 45.179,9.661 44.757,10.165 45.409,10.246 45.917,10.669 46,10.015 46.422,9.514 
			45.77,9.429 		"/>
		<polygon fill="#FFFFFF" points="57.508,37.203 56.975,36.814 56.318,36.775 56.706,36.244 56.748,35.588 57.278,35.977 
			57.937,36.02 57.546,36.546 		"/>
		<polygon fill="#FFFFFF" points="43.573,37.177 44.106,36.794 44.764,36.755 44.379,36.226 44.339,35.567 43.806,35.956 
			43.149,35.992 43.534,36.526 		"/>
		<path fill="#FFFFFF" d="M39.93,34.361l0.669-0.782c0.305-0.355,0.794-0.33,1.259,0.064c0.468,0.396,0.573,0.872,0.267,1.229
			l-0.669,0.782c-0.084,0.097-0.084,0.151,0.023,0.244l-0.24,0.18l-0.647-0.549l0.143-0.261c0.111,0.094,0.164,0.085,0.246-0.015
			l0.674-0.786c0.133-0.156,0.12-0.349-0.089-0.523c-0.214-0.184-0.407-0.167-0.541-0.011l-0.675,0.786
			c-0.082,0.094-0.084,0.149,0.022,0.24l-0.238,0.185l-0.592-0.501l0.14-0.264C39.794,34.472,39.848,34.458,39.93,34.361z"/>
		<path fill="#FFFFFF" d="M37.773,31.753l1.419-1.058l0.266,0.354l-0.444,1.491c-0.03,0.104-0.112,0.269-0.112,0.269
			s0.126-0.118,0.191-0.166l0.626-0.463c0.099-0.077,0.118-0.125,0.032-0.244l0.271-0.123l0.425,0.566l-0.193,0.225
			c-0.085-0.116-0.145-0.114-0.245-0.04l-1.041,0.777c-0.102,0.076-0.118,0.127-0.028,0.243l-0.275,0.122l-0.386-0.509l0.401-1.357
			c0.035-0.107,0.119-0.273,0.119-0.273s-0.13,0.121-0.203,0.175l-0.532,0.396c-0.101,0.078-0.118,0.128-0.03,0.245l-0.271,0.125
			l-0.43-0.571l0.196-0.222C37.619,31.832,37.672,31.83,37.773,31.753z"/>
		<path fill="#FFFFFF" d="M38.319,29.052l0.37,0.742l-0.236,0.184c-0.063-0.13-0.121-0.138-0.232-0.084l-1.167,0.574
			c-0.115,0.054-0.139,0.104-0.077,0.234l-0.289,0.074l-0.368-0.741l0.235-0.186c0.065,0.13,0.118,0.143,0.231,0.084l1.167-0.574
			c0.111-0.054,0.138-0.104,0.075-0.234L38.319,29.052z"/>
		<path fill="#FFFFFF" d="M35.671,26.833l1.918,0.172l0.167,0.569l-1.518,1.171c-0.111,0.083-0.124,0.127-0.086,0.254l-0.298,0.02
			l-0.234-0.791l0.261-0.145c0.039,0.114,0.085,0.131,0.182,0.06l0.733-0.553c0.122-0.084,0.383-0.205,0.383-0.205
			s-0.286,0.031-0.435,0.023L35.82,27.32c-0.124-0.009-0.153,0.048-0.117,0.163l-0.3,0.023l-0.208-0.704l0.262-0.141
			C35.498,26.798,35.531,26.818,35.671,26.833z"/>
		<path fill="#FFFFFF" d="M37.091,23.841l0.155,1.709l-0.285,0.091c-0.015-0.142-0.063-0.17-0.187-0.159L35.477,25.6
			c-0.127,0.014-0.167,0.048-0.152,0.19l-0.298-0.038l-0.151-1.634l0.528-0.048l0.068,0.222c-0.171,0.043-0.206,0.092-0.184,0.338
			l0.035,0.382l0.537-0.05l-0.032-0.345c-0.015-0.146-0.044-0.198-0.158-0.188l0.036-0.241l0.53-0.048l0.083,0.232
			c-0.118,0.01-0.14,0.066-0.124,0.213l0.032,0.345l0.584-0.05l-0.05-0.527c-0.019-0.229-0.087-0.266-0.251-0.28l0.023-0.247
			L37.091,23.841z"/>
		<path fill="#FFFFFF" d="M37.329,20.843l-0.073,0.654c-0.351,0.287-0.896-0.008-0.945,0.439l-0.029,0.265l0.423,0.05
			c0.122,0.014,0.171-0.013,0.187-0.153l0.285,0.093l-0.09,0.816l-0.298,0.03c0.017-0.145-0.026-0.181-0.151-0.194l-1.292-0.144
			c-0.124-0.013-0.174,0.015-0.189,0.157l-0.285-0.097l0.125-1.116c0.061-0.54,0.32-0.833,0.732-0.789
			c0.27,0.03,0.442,0.194,0.516,0.481c0.106-0.265,0.368-0.306,0.526-0.32c0.184-0.016,0.25-0.044,0.268-0.211l0.005-0.049
			L37.329,20.843z M35.325,21.76l-0.037,0.329l0.636,0.069l0.035-0.317c0.027-0.241-0.082-0.379-0.275-0.401
			C35.489,21.419,35.351,21.525,35.325,21.76z"/>
		<path fill="#FFFFFF" d="M37.791,19.421c-0.135,0.415-0.366,0.673-0.482,0.784l-0.42-0.264l0.062-0.192
			c0.264,0.001,0.431-0.21,0.502-0.427c0.052-0.169,0.032-0.369-0.149-0.426c-0.153-0.051-0.26,0.044-0.433,0.371
			c-0.175,0.335-0.455,0.635-0.886,0.498c-0.421-0.136-0.535-0.586-0.383-1.061c0.119-0.363,0.309-0.616,0.417-0.723l0.396,0.251
			l-0.06,0.189c-0.231,0.023-0.368,0.213-0.423,0.385c-0.061,0.188-0.017,0.351,0.124,0.395c0.137,0.044,0.238-0.055,0.363-0.298
			c0.235-0.443,0.491-0.732,0.962-0.581C37.845,18.466,37.941,18.956,37.791,19.421z"/>
		<path fill="#FFFFFF" d="M38.78,17.036l-0.381,0.737l-0.288-0.08c0.066-0.125,0.038-0.177-0.071-0.233L36.88,16.87
			c-0.114-0.057-0.167-0.048-0.233,0.08l-0.232-0.186l0.379-0.735l0.289,0.08c-0.064,0.127-0.043,0.177,0.072,0.234l1.159,0.589
			c0.11,0.055,0.167,0.049,0.233-0.081L38.78,17.036z"/>
		<path fill="#FFFFFF" d="M38.883,13.985c-0.138-0.069-0.22-0.078-0.36,0.112l-0.126,0.176l1.121,0.818
			c0.098,0.072,0.153,0.077,0.24-0.04l0.2,0.22l-0.489,0.661l-0.277-0.119c0.087-0.118,0.068-0.169-0.032-0.241l-1.12-0.818
			l-0.129,0.176c-0.14,0.187-0.106,0.265,0.002,0.375l-0.18,0.164l-0.411-0.375l1.179-1.598l0.486,0.273L38.883,13.985z"/>
		<path fill="#FFFFFF" d="M42.248,12.929l-0.598,0.556l-0.246-0.172c0.08-0.074,0.087-0.125-0.029-0.185l-0.162-0.084l-0.581,0.54
			l0.068,0.168c0.052,0.122,0.113,0.107,0.195,0.03l0.155,0.253l-0.518,0.479l-0.245-0.17c0.093-0.088,0.109-0.136,0.054-0.264
			l-0.56-1.314c-0.036-0.081-0.087-0.105-0.19-0.009L39.438,12.5l0.86-0.798l0.25,0.169c-0.106,0.098-0.09,0.146-0.009,0.185
			l1.289,0.651c0.119,0.063,0.167,0.056,0.263-0.034L42.248,12.929z M40.345,12.564c-0.112-0.064-0.338-0.252-0.338-0.252
			s0.164,0.252,0.219,0.363l0.238,0.559l0.419-0.386L40.345,12.564z"/>
		<path fill="#FFFFFF" d="M43.495,12.162c-0.371,0.229-0.717,0.278-0.876,0.287l-0.149-0.472l0.171-0.105
			c0.202,0.172,0.464,0.118,0.662-0.002c0.152-0.093,0.263-0.26,0.163-0.419c-0.084-0.138-0.227-0.135-0.571,0.001
			c-0.351,0.144-0.76,0.192-0.999-0.189c-0.233-0.374-0.029-0.792,0.398-1.054c0.325-0.202,0.636-0.27,0.791-0.286l0.138,0.45
			l-0.168,0.104c-0.191-0.131-0.423-0.074-0.576,0.018c-0.168,0.107-0.241,0.254-0.16,0.383c0.075,0.119,0.218,0.11,0.473,0.007
			c0.465-0.186,0.85-0.243,1.108,0.175C44.156,11.47,43.915,11.906,43.495,12.162z"/>
		<path fill="#FFFFFF" d="M49.759,9.23c-0.15,0.019-0.176,0.071-0.158,0.187l0.022,0.172c0.017,0.114,0.046,0.139,0.117,0.129
			l-0.018,0.281c-0.318,0.065-0.371,0.202-0.856,0.269c-0.648,0.086-1.24-0.152-1.352-0.974c-0.101-0.753,0.339-1.199,1.044-1.295
			c0.423-0.057,0.751,0.066,0.891,0.125L49.391,8.63L49.2,8.656c-0.096-0.223-0.302-0.289-0.531-0.259
			c-0.405,0.053-0.59,0.312-0.521,0.814c0.068,0.505,0.284,0.704,0.683,0.65c0.097-0.014,0.214-0.059,0.279-0.103l-0.038-0.273
			c-0.018-0.115-0.051-0.16-0.205-0.138l-0.039,0.005l0.019-0.298l0.855-0.114l0.102,0.281L49.759,9.23z"/>
		<path fill="#FFFFFF" d="M51.653,10.206c-0.671-0.053-1.12-0.399-1.052-1.232c0.066-0.829,0.563-1.1,1.235-1.047
			c0.683,0.053,1.121,0.399,1.054,1.23C52.825,9.99,52.335,10.264,51.653,10.206z M51.806,8.328
			c-0.352-0.027-0.527,0.151-0.572,0.697c-0.049,0.548,0.106,0.752,0.454,0.778c0.354,0.029,0.525-0.148,0.571-0.697
			C52.302,8.558,52.161,8.356,51.806,8.328z"/>
		<path fill="#FFFFFF" d="M55.339,9.254c0.017-0.153-0.009-0.234-0.234-0.295l-0.21-0.057l-0.366,1.332
			c-0.031,0.117-0.018,0.17,0.122,0.208l-0.136,0.265l-0.795-0.218l0.015-0.298c0.143,0.041,0.183,0.001,0.217-0.118l0.365-1.333
			l-0.211-0.055c-0.227-0.062-0.287-0.003-0.352,0.136l-0.221-0.107l0.208-0.519l1.923,0.521L55.58,9.267L55.339,9.254z"/>
		<path fill="#FFFFFF" d="M57.671,12.088l-0.735-0.373l0.075-0.288c0.132,0.068,0.179,0.038,0.234-0.069l0.227-0.444l-0.752-0.381
			l-0.225,0.442c-0.058,0.11-0.052,0.165,0.076,0.23l-0.187,0.23l-0.735-0.372l0.074-0.287c0.132,0.066,0.181,0.038,0.234-0.072
			l0.594-1.156c0.056-0.111,0.05-0.164-0.084-0.23l0.19-0.229l0.735,0.371l-0.08,0.287c-0.128-0.066-0.175-0.04-0.231,0.072
			L56.9,10.175l0.751,0.38l0.185-0.355c0.057-0.114,0.051-0.164-0.081-0.23l0.189-0.229l0.734,0.373l-0.08,0.286
			c-0.128-0.065-0.175-0.041-0.231,0.073l-0.592,1.155c-0.054,0.11-0.051,0.162,0.078,0.227L57.671,12.088z"/>
		<path fill="#FFFFFF" d="M59.081,13.197c-0.52-0.424-0.689-0.962-0.154-1.607c0.534-0.646,1.1-0.584,1.618-0.158
			c0.526,0.432,0.69,0.966,0.155,1.609C60.168,13.684,59.61,13.627,59.081,13.197z M60.287,11.74
			c-0.268-0.218-0.519-0.178-0.871,0.249c-0.353,0.424-0.345,0.679-0.077,0.896c0.274,0.224,0.521,0.179,0.869-0.248
			C60.56,12.212,60.558,11.964,60.287,11.74z"/>
		<path fill="#FFFFFF" d="M61.136,15.232l-0.687-0.846l0.188-0.233c0.089,0.112,0.149,0.107,0.243,0.031l1.017-0.814
			c0.099-0.08,0.111-0.131,0.019-0.243l0.268-0.132l0.643,0.792c0.344,0.425,0.386,0.791,0.082,1.035
			c-0.144,0.112-0.371,0.115-0.541,0.03c0.106,0.276,0.019,0.521-0.171,0.674C61.873,15.787,61.478,15.656,61.136,15.232z
			 M61.666,14.323l-0.501,0.402l0.198,0.247c0.152,0.187,0.324,0.202,0.478,0.081c0.151-0.118,0.17-0.301,0.013-0.494L61.666,14.323
			z M61.946,14.103l0.166,0.207c0.14,0.171,0.288,0.184,0.414,0.081c0.125-0.1,0.146-0.232,0.003-0.411l-0.171-0.209L61.946,14.103z
			"/>
		<path fill="#FFFFFF" d="M64.583,17.525l-0.923,0.467c-0.421,0.213-0.862,0.005-1.137-0.538c-0.279-0.545-0.191-1.026,0.228-1.237
			l0.922-0.466c0.112-0.057,0.136-0.109,0.069-0.234l0.292-0.078l0.386,0.757l-0.233,0.185c-0.064-0.128-0.117-0.138-0.231-0.081
			l-0.926,0.469c-0.184,0.093-0.244,0.274-0.119,0.518c0.128,0.252,0.313,0.311,0.495,0.219l0.928-0.47
			c0.112-0.057,0.137-0.106,0.073-0.232l0.287-0.08l0.356,0.692l-0.231,0.191C64.75,17.477,64.694,17.471,64.583,17.525z"/>
		<path fill="#FFFFFF" d="M63.865,21.192l-0.17-0.637c0.221-0.391,0.836-0.314,0.723-0.749L64.35,19.55l-0.413,0.111
			c-0.118,0.031-0.157,0.071-0.12,0.209l-0.3,0.014l-0.212-0.792l0.27-0.137c0.037,0.142,0.09,0.157,0.209,0.127l1.26-0.331
			c0.119-0.032,0.156-0.077,0.119-0.215l0.3-0.012l0.287,1.085c0.141,0.524,0.007,0.892-0.396,0.998
			c-0.263,0.069-0.482-0.021-0.653-0.263c-0.004,0.286-0.234,0.418-0.377,0.488c-0.165,0.081-0.216,0.129-0.173,0.293l0.015,0.051
			L63.865,21.192z M65.399,19.614l-0.085-0.319l-0.621,0.163l0.085,0.309c0.06,0.234,0.213,0.324,0.401,0.275
			C65.367,19.995,65.46,19.845,65.399,19.614z"/>
		<path fill="#FFFFFF" d="M64.929,23.916c-0.008-0.152-0.054-0.182-0.174-0.176l-0.175,0.009c-0.117,0.006-0.145,0.033-0.142,0.107
			l-0.28-0.042c-0.039-0.32-0.172-0.386-0.195-0.87c-0.032-0.65,0.257-1.217,1.091-1.258c0.763-0.037,1.174,0.437,1.209,1.144
			c0.019,0.425-0.13,0.739-0.201,0.872L65.559,23.6l-0.012-0.194c0.23-0.076,0.318-0.275,0.305-0.505
			c-0.019-0.406-0.263-0.611-0.771-0.586c-0.513,0.026-0.729,0.223-0.708,0.623c0.005,0.097,0.04,0.218,0.08,0.286l0.274-0.016
			c0.118-0.006,0.165-0.038,0.156-0.192l-0.002-0.04l0.296,0.049l0.042,0.856l-0.289,0.076L64.929,23.916z"/>
		<path fill="#FFFFFF" d="M63.723,26.414l0.258-1.697l0.301-0.02c-0.021,0.146,0.019,0.185,0.141,0.201l1.289,0.197
			c0.125,0.018,0.175-0.007,0.194-0.15l0.281,0.108l-0.25,1.622l-0.526-0.08l-0.012-0.235c0.177,0.002,0.222-0.04,0.26-0.286
			l0.057-0.375l-0.533-0.082l-0.051,0.342c-0.021,0.146-0.006,0.202,0.11,0.218l-0.092,0.226l-0.526-0.079L64.6,26.078
			c0.118,0.017,0.151-0.032,0.175-0.177l0.05-0.343l-0.58-0.087l-0.08,0.523c-0.034,0.227,0.021,0.28,0.175,0.333l-0.084,0.231
			L63.723,26.414z"/>
		<path fill="#FFFFFF" d="M64.447,29.779l-1.66-0.623l0.157-0.415l1.505-0.427c0.104-0.032,0.286-0.05,0.286-0.05
			s-0.169-0.045-0.243-0.073l-0.73-0.274c-0.116-0.042-0.17-0.033-0.221,0.101l-0.253-0.159l0.251-0.66l0.299,0.041
			c-0.05,0.136-0.017,0.181,0.095,0.222l1.221,0.458c0.117,0.044,0.17,0.029,0.221-0.106l0.252,0.165l-0.227,0.596l-1.366,0.39
			c-0.108,0.03-0.292,0.049-0.292,0.049s0.171,0.044,0.257,0.076l0.622,0.235c0.119,0.045,0.171,0.028,0.222-0.105l0.253,0.159
			l-0.253,0.668l-0.296-0.046C64.594,29.865,64.566,29.827,64.447,29.779z"/>
		<path fill="#FFFFFF" d="M61.918,30.602c0.233-0.369,0.525-0.562,0.661-0.64l0.344,0.356l-0.111,0.17
			c-0.256-0.068-0.471,0.094-0.594,0.289c-0.095,0.149-0.12,0.35,0.037,0.449c0.138,0.086,0.265,0.021,0.516-0.251
			c0.252-0.281,0.596-0.502,0.98-0.261c0.373,0.235,0.373,0.698,0.104,1.12c-0.204,0.323-0.454,0.522-0.587,0.598l-0.321-0.343
			l0.106-0.167c0.231,0.035,0.413-0.116,0.508-0.269c0.107-0.165,0.107-0.332-0.019-0.411c-0.121-0.078-0.246-0.005-0.43,0.199
			c-0.338,0.369-0.657,0.587-1.074,0.323C61.626,31.512,61.657,31.012,61.918,30.602z"/>
		<path fill="#FFFFFF" d="M60.34,32.69l0.554-0.622l0.258,0.15c-0.094,0.109-0.084,0.165,0.012,0.245l0.974,0.861
			c0.093,0.084,0.147,0.085,0.244-0.018l0.179,0.238l-0.554,0.621l-0.259-0.149c0.097-0.109,0.085-0.161-0.01-0.245l-0.974-0.861
			c-0.092-0.082-0.149-0.086-0.245,0.018L60.34,32.69z"/>
		<path fill="#FFFFFF" d="M58.955,33.903c0.342-0.273,0.68-0.36,0.836-0.39l0.205,0.452l-0.156,0.124
			c-0.222-0.147-0.479-0.062-0.66,0.083c-0.141,0.111-0.229,0.288-0.114,0.436c0.101,0.126,0.243,0.106,0.568-0.071
			c0.33-0.185,0.728-0.281,1.012,0.071c0.276,0.343,0.125,0.781-0.268,1.094c-0.301,0.238-0.601,0.344-0.751,0.376l-0.191-0.427
			l0.155-0.122c0.207,0.107,0.427,0.022,0.568-0.09c0.155-0.121,0.209-0.281,0.117-0.396c-0.09-0.112-0.23-0.084-0.472,0.05
			c-0.44,0.24-0.812,0.344-1.124-0.042C58.38,34.671,58.571,34.208,58.955,33.903z"/>
		<path fill="#FFFFFF" d="M46.947,38.78l-1.109-0.319l0.022-0.299l0.143,0.04c0.148,0.044,0.194,0.013,0.228-0.106l0.323-1.128
			c-0.084,0.043-0.217,0.06-0.44,0.021l0.092-0.323c0.245,0.008,0.391-0.018,0.64-0.241l0.453,0.127l-0.491,1.706
			c-0.033,0.118-0.005,0.172,0.138,0.211l0.145,0.042L46.947,38.78z"/>
		<path fill="#FFFFFF" d="M49.067,39.155c-0.612-0.057-0.979-0.338-0.943-0.708c0.029-0.318,0.302-0.473,0.597-0.569
			c-0.239-0.137-0.442-0.308-0.421-0.562c0.03-0.325,0.413-0.517,0.982-0.458c0.543,0.05,0.898,0.309,0.868,0.631
			c-0.023,0.253-0.254,0.388-0.517,0.477c0.274,0.15,0.514,0.354,0.481,0.671C50.084,39.004,49.66,39.21,49.067,39.155z
			 M49.166,38.112c-0.252,0.085-0.43,0.212-0.452,0.392c-0.014,0.163,0.146,0.295,0.384,0.319c0.23,0.019,0.42-0.077,0.433-0.237
			C49.55,38.398,49.388,38.244,49.166,38.112z M49.251,37.187c-0.201-0.017-0.343,0.05-0.356,0.19
			c-0.015,0.143,0.11,0.267,0.304,0.376c0.203-0.072,0.347-0.17,0.359-0.314C49.573,37.303,49.446,37.206,49.251,37.187z"/>
		<path fill="#FFFFFF" d="M51.874,39.162c-0.149,0.016-0.43-0.009-0.527-0.069l-0.028-0.314c0.106,0.029,0.266,0.041,0.406,0.029
			c0.397-0.038,0.625-0.236,0.675-0.628c-0.073,0.118-0.279,0.232-0.5,0.255c-0.546,0.05-0.886-0.236-0.929-0.688
			c-0.047-0.462,0.289-0.827,0.88-0.882c0.681-0.066,1.031,0.341,1.092,0.925C53.006,38.491,52.702,39.084,51.874,39.162z
			 M51.883,37.208c-0.267,0.025-0.405,0.217-0.38,0.488c0.025,0.253,0.178,0.413,0.433,0.388c0.235-0.021,0.435-0.187,0.409-0.479
			C52.327,37.408,52.199,37.179,51.883,37.208z"/>
		<path fill="#FFFFFF" d="M55.374,38.464l-1.116,0.291l-0.136-0.27l0.144-0.039c0.147-0.037,0.17-0.086,0.14-0.207l-0.302-1.13
			c-0.046,0.076-0.151,0.157-0.364,0.241l-0.088-0.324c0.216-0.118,0.326-0.215,0.426-0.531l0.453-0.12l0.457,1.717
			c0.032,0.117,0.085,0.148,0.228,0.11l0.145-0.037L55.374,38.464z"/>
	</g>
	<g>
		<path fill="#FFFFFF" d="M10.163,52.675c0-0.396,0.011-0.638,0.011-1.667c0-0.825-0.011-1.481-0.019-2.422l-0.044-0.045
			l-1.005-0.049v-0.355h3v0.355l-0.851,0.049l-0.043,0.045c-0.01,0.783-0.021,2.473-0.021,4.049c0,1.312,0.305,2.203,1.701,2.203
			c1.462,0,1.879-0.847,1.879-2.4c0-1.356-0.021-2.83-0.043-3.852l-0.043-0.045l-0.965-0.049v-0.355h2.783v0.355l-1.029,0.049
			l-0.043,0.045c-0.03,1.117-0.03,2.649-0.021,3.944c0.012,1.795-0.839,2.757-2.603,2.757
			C11.077,55.284,10.163,54.396,10.163,52.675z"/>
		<path fill="#FFFFFF" d="M17.397,54.825l1.03-0.049l0.042-0.045C18.5,53.613,18.5,52.792,18.5,51.75c0-1.045,0-1.618-0.032-3.165
			l-0.042-0.045l-1.03-0.048v-0.355h2.006c1.281,1.784,2.74,3.871,3.789,5.364h0.021c-0.021-2.002-0.042-3.892-0.062-4.914
			l-0.043-0.043l-0.965-0.051v-0.355h2.78v0.355l-1.03,0.051l-0.041,0.043c-0.032,1.118-0.032,1.941-0.032,4.561v2.088h-0.515
			c-1.303-1.836-2.855-3.996-4.179-5.874h-0.021c0.011,2.44,0.042,4.329,0.063,5.376l0.042,0.041l0.966,0.051v0.354h-2.784v-0.355
			h0.003v-0.002H17.397z"/>
		<path fill="#FFFFFF" d="M25.816,54.825l1.03-0.049l0.043-0.045c0.019-0.321,0.032-1.732,0.032-3.142
			c0-1.41-0.013-2.651-0.032-3.006l-0.043-0.044l-1.03-0.05v-0.354h3.191v0.354l-1.019,0.05l-0.041,0.044
			c-0.019,0.28-0.032,1.732-0.032,3.142s0.021,2.649,0.032,3.006l0.041,0.045l1.019,0.049v0.354h-3.191V54.825z"/>
		<path fill="#FFFFFF" d="M30.372,48.522l-0.629-0.031v-0.354h2.75v0.354l-0.933,0.042l-0.041,0.042
			c0.587,1.514,1.278,3.343,1.974,5.103h0.019c0.516-1.419,1.406-3.945,1.752-5.114l-0.03-0.03l-0.851-0.042v-0.354h2.32v0.354
			l-0.61,0.03c-0.546,1.379-1.807,4.624-2.634,6.765h-0.285C32.095,52.675,31.16,50.4,30.372,48.522z"/>
		<path fill="#FFFFFF" d="M37.439,54.825l1.028-0.049l0.043-0.045c0.011-0.483,0.031-1.732,0.031-3.142
			c0-1.41-0.021-2.59-0.031-3.006l-0.043-0.044l-1.028-0.05v-0.354h4.609l0.41-0.179h0.157l0.073,2.287h-0.209
			c-0.377-1.055-0.714-1.575-0.894-1.586L39.6,48.553l-0.03,0.052c-0.011,0.479-0.032,1.587-0.032,2.755
			c0.472,0,1.502-0.032,1.775-0.052l0.043-0.041l0.378-0.73h0.198c-0.012,0.292-0.019,0.739-0.019,1.022
			c0,0.271,0.012,0.856,0.019,1.169h-0.198l-0.378-0.865l-0.043-0.043c-0.325-0.01-1.26-0.031-1.775-0.031
			c0,1.327,0.021,2.389,0.032,2.923l0.03,0.053l2.143-0.116c0.178-0.015,0.651-0.441,1.03-1.671h0.242
			c-0.137,2.037-0.168,2.204-0.349,2.204h-5.228V54.825L37.439,54.825z"/>
		<path fill="#FFFFFF" d="M44.221,54.825l1.049-0.049l0.042-0.045c0.01-0.305,0.032-1.732,0.032-3.142
			c0-1.41-0.022-2.536-0.032-3.006L45.27,48.54l-1.049-0.05v-0.354c0.944,0,1.952-0.02,2.489-0.02c0.829,0,1.312,0.051,1.701,0.168
			c1.008,0.303,1.449,0.95,1.449,1.661c0,1.03-0.703,1.522-1.565,1.794v0.021c0.273,0.313,0.746,1.167,1.354,2.232
			c0.264,0.459,0.518,0.804,0.863,0.825l0.229,0.011v0.354h-1.575l-0.046-0.044c-0.389-0.785-0.658-1.422-1.321-2.59
			c-0.137-0.239-0.26-0.436-0.421-0.615c-0.378,0.052-0.735,0.072-1.039,0.072c-0.011,1.242,0.021,2.41,0.031,2.726l0.043,0.043
			l0.966,0.05v0.355h-3.16v-0.355L44.221,54.825L44.221,54.825z M48.724,49.951c0-0.573-0.254-0.999-0.728-1.222
			c-0.258-0.124-0.588-0.196-1.249-0.196h-0.347l-0.031,0.03c-0.01,0.449-0.02,1.816-0.031,3.036
			C48.168,51.546,48.724,50.964,48.724,49.951z"/>
		<path fill="#FFFFFF" d="M52.054,52.977h0.243c0.365,1.326,0.964,1.88,1.698,1.88c0.861,0,1.405-0.576,1.405-1.328
			c0-1.815-3.221-1.356-3.221-3.651c0-0.971,0.763-1.857,2.098-1.857c0.684,0,1.229,0.21,1.341,0.24l0.318-0.304h0.198l0.064,2.287
			h-0.22c-0.441-1.272-1.019-1.795-1.732-1.795c-0.621,0-1.155,0.408-1.155,1.094c0,1.744,3.271,1.473,3.271,3.676
			c0,1.054-0.795,2.067-2.432,2.067c-0.455,0-0.989-0.104-1.446-0.408l-0.211,0.408h-0.22V52.977L52.054,52.977z"/>
		<path fill="#FFFFFF" d="M57.733,54.825l1.03-0.049l0.041-0.045c0.021-0.321,0.032-1.732,0.032-3.142
			c0-1.41-0.012-2.651-0.032-3.006l-0.041-0.044l-1.03-0.05v-0.354h3.191v0.354l-1.019,0.05l-0.042,0.044
			c-0.02,0.28-0.031,1.732-0.031,3.142s0.018,2.649,0.031,3.006l0.042,0.045l1.019,0.049v0.354h-3.191V54.825z"/>
		<path fill="#FFFFFF" d="M63.266,54.825l1.123-0.049l0.041-0.045c0.014-0.387,0.032-1.732,0.032-3.142c0-1.41,0-2.567-0.032-2.934
			l-0.029-0.052h-1.249c-0.222,0-0.485,0.375-0.914,1.638h-0.211l0.085-2.285h0.188l0.305,0.178h4.715l0.305-0.178h0.187
			l0.085,2.285h-0.21c-0.44-1.271-0.696-1.638-0.914-1.638h-1.247l-0.032,0.052c-0.011,0.251-0.031,1.66-0.031,3.069
			s0.021,2.628,0.031,3.006l0.042,0.045l1.155,0.049v0.354h-3.421v-0.354H63.266L63.266,54.825z"/>
		<path fill="#FFFFFF" d="M70.729,54.825l1.039-0.049l0.043-0.045c0.021-0.786,0.031-1.262,0.031-2.694
			c-0.869-1.313-1.826-2.827-2.3-3.516l-0.701-0.031v-0.354h2.678v0.354l-0.759,0.042l-0.041,0.042
			c0.514,0.857,1.236,2.055,1.794,2.912h0.021c0.578-1.012,1.249-2.245,1.585-2.924l-0.031-0.03l-0.733-0.042v-0.354h2.268v0.354
			l-0.642,0.031c-0.607,0.886-1.404,2.287-2.142,3.483c0,1.439,0.021,1.784,0.032,2.727l0.041,0.041l1.07,0.052v0.354h-3.254
			L70.729,54.825L70.729,54.825z"/>
		<path fill="#FFFFFF" d="M78.93,51.757c0-2.371,1.459-3.736,3.316-3.736c2.087,0,3.297,1.461,3.297,3.527
			c0,2.369-1.46,3.737-3.316,3.737C80.135,55.284,78.93,53.822,78.93,51.757z M84.408,51.651c0-2.107-0.828-3.162-2.16-3.162
			c-1.333,0-2.185,1.055-2.185,3.162c0,2.108,0.829,3.164,2.162,3.164C83.557,54.815,84.408,53.761,84.408,51.651z"/>
		<path fill="#FFFFFF" d="M86.75,54.825l1.029-0.061l0.043-0.044c0.011-0.367,0.032-1.722,0.032-3.13
			c0-1.41-0.021-2.643-0.032-3.007L87.78,48.54l-1.029-0.049v-0.354h4.628l0.408-0.179h0.158l0.073,2.287h-0.21
			c-0.378-1.056-0.714-1.586-0.894-1.597l-2.004-0.096l-0.032,0.052c-0.011,0.303-0.032,1.586-0.032,2.755
			c0.474,0,1.502-0.032,1.755-0.051l0.042-0.042l0.379-0.729h0.197c-0.011,0.29-0.021,0.739-0.021,1.023
			c0,0.271,0.012,0.929,0.021,1.241h-0.197l-0.4-0.938l-0.042-0.043c-0.304-0.013-1.218-0.031-1.733-0.031
			c0,1.328,0,2.504,0.032,2.933l0.043,0.043l1.133,0.062v0.354H86.75V54.825L86.75,54.825z"/>
		<path fill="#FFFFFF" d="M12.526,64.176c0-2.285,1.554-3.631,3.602-3.631c0.776,0,1.228,0.124,1.626,0.24l0.346-0.304h0.157
			l0.075,2.285h-0.219c-0.525-1.396-1.269-1.795-2.048-1.795c-1.217,0-2.404,0.907-2.404,3.1c0,1.712,0.863,3.268,2.646,3.268
			c0.515,0,1.071-0.146,1.071-0.313c0-0.354,0.01-1.306-0.02-2.108l-0.043-0.041l-1.028-0.053v-0.354h2.938v0.354l-0.755,0.053
			l-0.042,0.041c-0.021,0.667-0.032,1.421-0.021,2.224c-0.125,0.261-1.134,0.667-2.195,0.667
			C14.069,67.808,12.526,66.484,12.526,64.176z"/>
		<path fill="#FFFFFF" d="M20.536,64.283c0-2.372,1.458-3.737,3.316-3.737c2.089,0,3.298,1.462,3.298,3.526
			c0,2.371-1.461,3.736-3.316,3.736C21.742,67.808,20.536,66.349,20.536,64.283z M26.016,64.176c0-2.108-0.829-3.162-2.164-3.162
			c-1.333,0-2.184,1.054-2.184,3.162s0.83,3.163,2.162,3.163C25.164,67.339,26.016,66.287,26.016,64.176z"/>
		<path fill="#FFFFFF" d="M29.806,67.35l1.122-0.05l0.043-0.045c0.013-0.386,0.032-1.732,0.032-3.142c0-1.408,0-2.568-0.032-2.933
			l-0.03-0.054h-1.249c-0.221,0-0.485,0.378-0.913,1.639h-0.213l0.085-2.285h0.189l0.304,0.177h4.714l0.305-0.177h0.187l0.085,2.285
			h-0.208c-0.441-1.271-0.694-1.639-0.914-1.639h-1.25l-0.032,0.054c-0.013,0.251-0.032,1.658-0.032,3.068
			c0,1.409,0.019,2.631,0.032,3.006l0.043,0.045l1.154,0.05v0.354h-3.422V67.35H29.806z"/>
		<path fill="#FFFFFF" d="M35.539,67.35l1.029-0.05l0.043-0.045c0.01-0.395,0.03-1.732,0.03-3.142c0-1.408-0.02-2.682-0.03-3.006
			l-0.043-0.042l-1.029-0.052v-0.356h3.044v0.356l-0.871,0.052l-0.042,0.042c-0.021,0.323-0.03,1.555-0.03,2.724h3.474
			c0.01-1.295-0.022-2.484-0.031-2.724l-0.043-0.042l-0.871-0.052v-0.356h3.045v0.356l-1.03,0.052l-0.043,0.042
			c-0.012,0.312-0.032,1.731-0.032,3.142c0,1.409,0.02,2.547,0.032,3.006l0.043,0.045l1.03,0.05v0.354h-3.045V67.35l0.871-0.05
			l0.043-0.045c0.009-0.353,0.031-1.648,0.031-2.876h-3.474c0,1.325,0.01,2.284,0.03,2.876l0.042,0.045l0.871,0.05v0.354h-3.044
			V67.35z"/>
		<path fill="#FFFFFF" d="M44.104,67.35l1.03-0.05l0.042-0.045c0.011-0.48,0.032-1.732,0.032-3.142c0-1.408-0.021-2.589-0.032-3.006
			l-0.042-0.042l-1.03-0.052v-0.356h4.609l0.411-0.177h0.156l0.072,2.285h-0.209c-0.379-1.054-0.715-1.574-0.893-1.585l-1.985-0.105
			l-0.029,0.052c-0.013,0.48-0.032,1.587-0.032,2.756c0.472,0,1.503-0.032,1.775-0.052l0.043-0.041l0.378-0.73h0.198
			c-0.009,0.292-0.021,0.74-0.021,1.022c0,0.271,0.013,0.856,0.021,1.17h-0.198l-0.378-0.867l-0.043-0.043
			c-0.325-0.009-1.26-0.029-1.775-0.029c0,1.323,0.02,2.389,0.032,2.92l0.029,0.054l2.143-0.114c0.182-0.015,0.652-0.439,1.03-1.672
			h0.243c-0.137,2.037-0.169,2.203-0.348,2.203h-5.23V67.35z"/>
		<path fill="#FFFFFF" d="M50.888,67.35l1.032-0.05l0.041-0.045c0.031-1.117,0.031-1.938,0.031-2.982c0-1.042,0-1.617-0.031-3.162
			l-0.041-0.045l-1.032-0.05v-0.354h2.006c1.281,1.784,2.739,3.872,3.791,5.366h0.019c-0.019-2.004-0.044-3.893-0.062-4.917
			l-0.045-0.042l-0.965-0.052v-0.354h2.782v0.354l-1.031,0.052l-0.042,0.042c-0.03,1.118-0.03,1.941-0.03,4.562v2.088h-0.513
			c-1.303-1.835-2.856-3.994-4.179-5.874h-0.021c0.012,2.439,0.043,4.327,0.063,5.372l0.041,0.044l0.966,0.049v0.355h-2.781V67.35
			H50.888z"/>
		<path fill="#FFFFFF" d="M59.306,67.35l1.032-0.05l0.042-0.045c0.01-0.364,0.03-1.732,0.03-3.142c0-1.408-0.021-2.547-0.03-3.006
			l-0.042-0.042l-1.032-0.052v-0.356c0.777,0,1.671-0.016,2.288-0.016c0.766,0,1.355,0.062,1.827,0.209
			c0.828,0.261,1.334,0.792,1.334,1.555c0,0.898-0.598,1.431-1.281,1.598v0.021c1.114,0.052,1.777,0.698,1.777,1.544
			c0,1.421-1.28,2.161-3.317,2.161c-0.685,0-1.785-0.021-2.625-0.021v-0.356h-0.003V67.35L59.306,67.35z M62.068,63.865
			c1.236,0,1.555-0.585,1.555-1.389c0-0.553-0.2-0.971-0.63-1.19c-0.272-0.146-0.661-0.229-1.237-0.229
			c-0.054,0-0.169,0-0.273,0.012l-0.043,0.051c-0.01,0.542-0.042,1.566-0.031,2.743h0.66V63.865z M64.115,65.701
			c0-0.991-0.683-1.378-1.607-1.378h-1.102c-0.01,1.33,0.021,2.38,0.031,2.935l0.053,0.045c0.197,0.01,0.389,0.01,0.514,0.01
			C63.422,67.309,64.115,66.724,64.115,65.701z"/>
		<path fill="#FFFFFF" d="M67.516,65.201c0-0.396,0.013-0.637,0.013-1.667c0-0.826-0.013-1.482-0.021-2.421l-0.044-0.045
			l-1.007-0.051v-0.354h3.003v0.354l-0.851,0.051l-0.042,0.045c-0.014,0.782-0.021,2.473-0.021,4.049
			c0,1.316,0.305,2.203,1.701,2.203c1.458,0,1.878-0.846,1.878-2.4c0-1.356-0.02-2.828-0.044-3.852l-0.042-0.045l-0.966-0.051
			v-0.354h2.781v0.354l-1.028,0.051l-0.043,0.045c-0.031,1.117-0.031,2.648-0.02,3.945c0.011,1.795-0.841,2.755-2.604,2.755
			C68.431,67.808,67.516,66.923,67.516,65.201z"/>
		<path fill="#FFFFFF" d="M74.75,67.35l1.049-0.05l0.043-0.045c0.014-0.302,0.033-1.732,0.033-3.142c0-1.408-0.02-2.537-0.033-3.006
			l-0.043-0.042l-1.049-0.052v-0.356c0.944,0,1.952-0.016,2.488-0.016c0.83,0,1.311,0.049,1.7,0.167
			c1.008,0.303,1.449,0.949,1.449,1.659c0,1.035-0.703,1.524-1.566,1.796v0.021c0.274,0.312,0.745,1.167,1.354,2.233
			c0.263,0.459,0.517,0.803,0.863,0.825l0.23,0.008v0.355h-1.574l-0.042-0.044c-0.39-0.783-0.661-1.42-1.324-2.588
			c-0.135-0.241-0.261-0.439-0.419-0.617c-0.38,0.053-0.734,0.073-1.04,0.073c-0.009,1.241,0.02,2.41,0.033,2.724l0.041,0.043
			l0.966,0.051v0.354h-3.163v-0.354L74.75,67.35L74.75,67.35z M79.254,62.476c0-0.573-0.253-0.999-0.726-1.221
			c-0.262-0.126-0.589-0.199-1.249-0.199h-0.347l-0.031,0.032c-0.013,0.449-0.021,1.816-0.032,3.036
			C78.699,64.072,79.254,63.489,79.254,62.476z"/>
		<path fill="#FFFFFF" d="M82.321,64.176c0-2.285,1.553-3.631,3.601-3.631c0.778,0,1.229,0.124,1.627,0.24l0.348-0.304h0.157
			l0.072,2.285h-0.219c-0.524-1.396-1.269-1.795-2.048-1.795c-1.22,0-2.405,0.907-2.405,3.1c0,1.712,0.863,3.268,2.646,3.268
			c0.517,0,1.069-0.146,1.069-0.313c0-0.354,0.012-1.306-0.021-2.108l-0.041-0.041l-1.03-0.053v-0.354h2.938v0.354l-0.756,0.053
			l-0.039,0.041c-0.021,0.667-0.032,1.421-0.021,2.224c-0.125,0.261-1.133,0.667-2.192,0.667
			C83.863,67.808,82.321,66.484,82.321,64.176z"/>
	</g>
</g>
</svg>
