<?xml version="1.0" encoding="utf-8"?>
<!-- Generator: Adobe Illustrator 16.0.0, SVG Export Plug-In . SVG Version: 6.00 Build 0)  -->
<!DOCTYPE svg PUBLIC "-//W3C//DTD SVG 1.1//EN" "http://www.w3.org/Graphics/SVG/1.1/DTD/svg11.dtd">
<svg version="1.1" id="logga" xmlns="http://www.w3.org/2000/svg" xmlns:xlink="http://www.w3.org/1999/xlink" x="0px" y="0px"
	 width="248.858px" height="32.346px" viewBox="0 0 248.858 32.346" enable-background="new 0 0 248.858 32.346"
	 xml:space="preserve">
<g>
	<g>
		<path d="M39.51,10.082c0-2.998,2.025-4.762,4.693-4.762c1.012,0,1.6,0.166,2.12,0.315l0.451-0.397h0.205l0.097,2.996h-0.288
			C46.104,6.401,45.132,5.88,44.12,5.88c-1.586,0-3.132,1.191-3.132,4.063c0,2.244,1.122,4.282,3.447,4.282
			c0.67,0,1.395-0.191,1.395-0.41c0-0.466,0.014-1.71-0.027-2.764l-0.055-0.055l-1.34-0.069v-0.464h3.83v0.464l-0.985,0.069
			l-0.055,0.055c-0.026,0.875-0.041,1.86-0.026,2.914c-0.164,0.342-1.478,0.875-2.86,0.875C41.521,14.841,39.51,13.105,39.51,10.082
			z"/>
		<path d="M49.743,10.217c0-3.104,1.902-4.897,4.323-4.897c2.722,0,4.296,1.916,4.296,4.624c0,3.106-1.902,4.897-4.323,4.897
			C51.316,14.841,49.743,12.926,49.743,10.217z M56.883,10.082c0-2.763-1.08-4.146-2.818-4.146c-1.737,0-2.845,1.383-2.845,4.146
			c0,2.762,1.08,4.145,2.818,4.145C55.775,14.226,56.883,12.843,56.883,10.082z M52.041,3.748c0-0.438,0.274-0.78,0.739-0.78
			c0.438,0,0.711,0.287,0.711,0.725c0,0.438-0.287,0.779-0.752,0.779C52.315,4.471,52.041,4.185,52.041,3.748z M54.599,3.748
			c0-0.438,0.274-0.78,0.738-0.78c0.438,0,0.712,0.287,0.712,0.725c0,0.438-0.287,0.779-0.753,0.779
			C54.873,4.471,54.599,4.185,54.599,3.748z"/>
		<path d="M61.206,14.239l1.463-0.067l0.055-0.055c0.014-0.507,0.042-2.271,0.042-4.118c0-1.847,0-3.365-0.042-3.844l-0.041-0.068
			h-1.629c-0.286,0-0.628,0.492-1.189,2.147h-0.274l0.11-2.996h0.246l0.396,0.232h6.143l0.397-0.232h0.247l0.109,2.996h-0.274
			c-0.574-1.67-0.903-2.147-1.189-2.147h-1.629l-0.04,0.068c-0.014,0.328-0.041,2.175-0.041,4.022c0,1.847,0.027,3.447,0.041,3.939
			l0.055,0.055l1.505,0.067v0.466h-4.46V14.239z"/>
		<path d="M68.881,14.239l1.34-0.067l0.055-0.055c0.014-0.629,0.041-2.271,0.041-4.118c0-1.847-0.026-3.393-0.041-3.939
			l-0.055-0.054l-1.34-0.069V5.47h6.005l0.533-0.232h0.206l0.096,2.996h-0.273c-0.493-1.381-0.931-2.065-1.163-2.079l-2.586-0.138
			l-0.041,0.069c-0.014,0.63-0.041,2.079-0.041,3.611c0.616,0,1.956-0.04,2.312-0.068l0.055-0.055l0.492-0.957h0.26
			C74.722,9,74.708,9.588,74.708,9.958c0,0.354,0.014,1.122,0.027,1.533h-0.26l-0.492-1.136L73.929,10.3
			c-0.424-0.015-1.642-0.041-2.312-0.041c0,1.736,0.027,3.132,0.041,3.829l0.041,0.068l2.792-0.149
			c0.231-0.015,0.848-0.574,1.34-2.189h0.315c-0.178,2.668-0.22,2.887-0.452,2.887h-6.812V14.239z"/>
		<path d="M77.787,14.239l1.34-0.067l0.055-0.055c0.014-0.479,0.041-2.271,0.041-4.118c0-1.847-0.027-3.338-0.041-3.939
			l-0.055-0.054l-1.34-0.069V5.47c1.012,0,2.175-0.027,2.982-0.027c0.998,0,1.765,0.082,2.38,0.273
			c1.081,0.343,1.737,1.04,1.737,2.039c0,1.177-0.78,1.874-1.669,2.093v0.028c1.45,0.067,2.312,0.916,2.312,2.023
			c0,1.86-1.669,2.833-4.322,2.833c-0.889,0-2.325-0.028-3.42-0.028V14.239z M81.384,9.671c1.614,0,2.025-0.767,2.025-1.82
			c0-0.725-0.26-1.272-0.82-1.56c-0.356-0.191-0.861-0.301-1.614-0.301c-0.069,0-0.219,0-0.356,0.015l-0.054,0.067
			c-0.015,0.712-0.055,2.052-0.042,3.599H81.384z M84.052,12.078c0-1.299-0.89-1.805-2.093-1.805h-1.437
			c-0.013,1.737,0.027,3.118,0.042,3.844l0.067,0.055c0.26,0.014,0.507,0.014,0.671,0.014
			C83.149,14.185,84.052,13.419,84.052,12.078z"/>
		<path d="M87.445,10.217c0-3.104,1.901-4.897,4.322-4.897c2.723,0,4.296,1.916,4.296,4.624c0,3.106-1.901,4.897-4.322,4.897
			C89.017,14.841,87.445,12.926,87.445,10.217z M94.586,10.082c0-2.763-1.081-4.146-2.819-4.146c-1.737,0-2.846,1.383-2.846,4.146
			c0,2.762,1.082,4.145,2.819,4.145C93.477,14.226,94.586,12.843,94.586,10.082z"/>
		<path d="M97.431,14.239l1.367-0.067l0.055-0.055c0.013-0.397,0.041-2.271,0.041-4.118c0-1.847-0.027-3.324-0.041-3.939
			l-0.055-0.054l-1.367-0.069V5.47c1.231,0,2.544-0.027,3.241-0.027c1.081,0,1.711,0.069,2.216,0.219
			c1.314,0.397,1.888,1.246,1.888,2.177c0,1.354-0.917,1.996-2.038,2.353v0.026c0.355,0.411,0.972,1.533,1.764,2.929
			c0.343,0.602,0.671,1.053,1.123,1.08l0.301,0.013v0.466h-2.052l-0.055-0.055c-0.507-1.025-0.862-1.859-1.725-3.393
			c-0.178-0.314-0.342-0.574-0.547-0.807c-0.493,0.068-0.957,0.097-1.354,0.097c-0.014,1.626,0.028,3.159,0.041,3.569l0.056,0.055
			l1.258,0.067v0.466h-4.117V14.239z M103.3,7.851c0-0.752-0.329-1.313-0.945-1.601c-0.342-0.164-0.766-0.26-1.627-0.26h-0.451
			l-0.042,0.041c-0.013,0.588-0.027,2.38-0.041,3.981C102.575,9.944,103.3,9.178,103.3,7.851z"/>
		<path d="M106.952,10.082c0-2.998,2.025-4.762,4.692-4.762c1.012,0,1.601,0.166,2.12,0.315l0.451-0.397h0.206l0.096,2.996h-0.288
			c-0.684-1.833-1.654-2.354-2.666-2.354c-1.588,0-3.134,1.191-3.134,4.063c0,2.244,1.122,4.282,3.447,4.282
			c0.67,0,1.396-0.191,1.396-0.41c0-0.466,0.014-1.71-0.027-2.764l-0.055-0.055l-1.341-0.069v-0.464h3.83v0.464l-0.984,0.069
			l-0.055,0.055c-0.027,0.875-0.041,1.86-0.027,2.914c-0.165,0.342-1.477,0.875-2.859,0.875
			C108.963,14.841,106.952,13.105,106.952,10.082z"/>
		<path d="M117.116,11.818h0.314c0.479,1.738,1.259,2.463,2.216,2.463c1.121,0,1.834-0.752,1.834-1.737c0-2.381-4.2-1.779-4.2-4.788
			c0-1.272,0.999-2.436,2.735-2.436c0.889,0,1.602,0.273,1.752,0.315l0.41-0.397h0.26l0.082,2.996h-0.287
			c-0.574-1.67-1.328-2.354-2.258-2.354c-0.807,0-1.504,0.534-1.504,1.438c0,2.283,4.268,1.927,4.268,4.814
			c0,1.381-1.039,2.708-3.174,2.708c-0.588,0-1.285-0.137-1.889-0.533l-0.271,0.533h-0.288V11.818z"/>
		<path d="M129.25,11.421c0-0.52,0.016-0.834,0.016-2.188c0-1.082-0.016-1.943-0.029-3.175l-0.053-0.054l-1.314-0.069V5.47h3.912
			v0.466l-1.107,0.069l-0.055,0.054c-0.014,1.024-0.027,3.242-0.027,5.308c0,1.724,0.396,2.887,2.215,2.887
			c1.902,0,2.449-1.107,2.449-3.146c0-1.778-0.027-3.707-0.053-5.048l-0.057-0.054l-1.258-0.069V5.47h3.625v0.466l-1.34,0.069
			l-0.057,0.054c-0.041,1.463-0.041,3.474-0.027,5.171c0.016,2.354-1.094,3.611-3.393,3.611
			C130.439,14.841,129.25,13.679,129.25,11.421z"/>
		<path d="M138.744,14.239l1.342-0.067l0.055-0.055c0.041-1.464,0.041-2.545,0.041-3.912c0-1.369,0-2.121-0.041-4.146l-0.055-0.054
			l-1.342-0.069V5.47h2.613c1.67,2.34,3.57,5.077,4.938,7.031h0.027c-0.027-2.625-0.053-5.102-0.08-6.442l-0.055-0.054l-1.26-0.069
			V5.47h3.627v0.466l-1.342,0.069l-0.055,0.054c-0.041,1.463-0.041,2.544-0.041,5.979v2.735h-0.67
			c-1.697-2.407-3.721-5.24-5.445-7.701h-0.027c0.014,3.201,0.055,5.677,0.082,7.045l0.055,0.055l1.258,0.067v0.466h-3.625V14.239z"
			/>
		<path d="M150.195,14.239l1.34-0.067l0.055-0.055c0.027-0.424,0.041-2.271,0.041-4.118c0-1.847-0.014-3.474-0.041-3.939
			l-0.055-0.054l-1.34-0.069V5.47h4.158v0.466l-1.326,0.069l-0.055,0.054c-0.027,0.37-0.041,2.271-0.041,4.118
			c0,1.847,0.027,3.475,0.041,3.939l0.055,0.055l1.326,0.067v0.466h-4.158V14.239z"/>
		<path d="M156.337,5.976l-0.82-0.04V5.47h3.584v0.466l-1.219,0.055l-0.055,0.054c0.766,1.984,1.668,4.379,2.572,6.69h0.027
			c0.67-1.86,1.832-5.171,2.285-6.703l-0.041-0.041l-1.109-0.055V5.47h3.023v0.466l-0.793,0.04
			c-0.711,1.806-2.354,6.062-3.434,8.865h-0.369C158.582,11.421,157.363,8.439,156.337,5.976z"/>
		<path d="M165.611,14.239l1.342-0.067l0.055-0.055c0.014-0.629,0.041-2.271,0.041-4.118c0-1.847-0.027-3.393-0.041-3.939
			l-0.055-0.054l-1.342-0.069V5.47h6.006l0.533-0.232h0.207l0.096,2.996h-0.273c-0.494-1.381-0.932-2.065-1.164-2.079l-2.584-0.138
			l-0.043,0.069c-0.014,0.63-0.041,2.079-0.041,3.611c0.617,0,1.957-0.04,2.312-0.068l0.055-0.055l0.492-0.957h0.26
			c-0.014,0.383-0.027,0.971-0.027,1.34c0,0.354,0.014,1.122,0.027,1.533h-0.26l-0.492-1.136L170.66,10.3
			c-0.424-0.015-1.641-0.041-2.312-0.041c0,1.736,0.027,3.132,0.041,3.829l0.043,0.068l2.789-0.149
			c0.232-0.015,0.848-0.574,1.342-2.189h0.314c-0.178,2.668-0.219,2.887-0.453,2.887h-6.812V14.239z"/>
		<path d="M174.517,14.239l1.367-0.067l0.057-0.055c0.012-0.397,0.039-2.271,0.039-4.118c0-1.847-0.027-3.324-0.039-3.939
			l-0.057-0.054l-1.367-0.069V5.47c1.23,0,2.545-0.027,3.242-0.027c1.08,0,1.709,0.069,2.217,0.219
			c1.312,0.397,1.887,1.246,1.887,2.177c0,1.354-0.918,1.996-2.039,2.353v0.026c0.357,0.411,0.973,1.533,1.766,2.929
			c0.342,0.602,0.67,1.053,1.123,1.08l0.299,0.013v0.466h-2.051l-0.055-0.055c-0.506-1.025-0.863-1.859-1.725-3.393
			c-0.178-0.314-0.342-0.574-0.547-0.807c-0.492,0.068-0.957,0.097-1.355,0.097c-0.012,1.626,0.029,3.159,0.043,3.569l0.055,0.055
			l1.258,0.067v0.466h-4.117V14.239z M180.386,7.851c0-0.752-0.328-1.313-0.945-1.601c-0.342-0.164-0.766-0.26-1.627-0.26h-0.451
			l-0.041,0.041c-0.014,0.588-0.027,2.38-0.043,3.981C179.66,9.944,180.386,9.178,180.386,7.851z"/>
		<path d="M184.517,11.818h0.314c0.479,1.738,1.26,2.463,2.217,2.463c1.121,0,1.832-0.752,1.832-1.737
			c0-2.381-4.199-1.779-4.199-4.788c0-1.272,0.998-2.436,2.736-2.436c0.889,0,1.6,0.273,1.75,0.315l0.412-0.397h0.26l0.082,2.996
			h-0.287c-0.576-1.67-1.328-2.354-2.258-2.354c-0.807,0-1.504,0.534-1.504,1.438c0,2.283,4.268,1.927,4.268,4.814
			c0,1.381-1.039,2.708-3.176,2.708c-0.588,0-1.285-0.137-1.887-0.533l-0.273,0.533h-0.287V11.818z"/>
		<path d="M192.123,14.239l1.342-0.067l0.055-0.055c0.027-0.424,0.041-2.271,0.041-4.118c0-1.847-0.014-3.474-0.041-3.939
			l-0.055-0.054l-1.342-0.069V5.47h4.158v0.466l-1.326,0.069L194.9,6.059c-0.025,0.37-0.041,2.271-0.041,4.118
			c0,1.847,0.027,3.475,0.041,3.939l0.055,0.055l1.326,0.067v0.466h-4.158V14.239z"/>
		<path d="M199.537,14.239l1.465-0.067l0.055-0.055c0.014-0.507,0.041-2.271,0.041-4.118c0-1.847,0-3.365-0.041-3.844l-0.041-0.068
			h-1.627c-0.289,0-0.631,0.492-1.191,2.147h-0.273l0.109-2.996h0.246l0.396,0.232h6.145l0.395-0.232h0.246l0.109,2.996h-0.273
			c-0.574-1.67-0.902-2.147-1.189-2.147h-1.629l-0.039,0.068c-0.016,0.328-0.041,2.175-0.041,4.022c0,1.847,0.025,3.447,0.041,3.939
			l0.055,0.055l1.504,0.067v0.466h-4.461V14.239z"/>
		<path d="M207.212,14.239l1.34-0.067l0.055-0.055c0.014-0.629,0.041-2.271,0.041-4.118c0-1.847-0.027-3.393-0.041-3.939
			l-0.055-0.054l-1.34-0.069V5.47h6.006l0.531-0.232h0.207l0.096,2.996h-0.273c-0.492-1.381-0.932-2.065-1.164-2.079l-2.584-0.138
			l-0.041,0.069c-0.014,0.63-0.041,2.079-0.041,3.611c0.615,0,1.955-0.04,2.311-0.068l0.057-0.055l0.492-0.957h0.26
			c-0.016,0.383-0.027,0.971-0.027,1.34c0,0.354,0.012,1.122,0.027,1.533h-0.26l-0.492-1.136l-0.057-0.055
			c-0.424-0.015-1.641-0.041-2.311-0.041c0,1.736,0.027,3.132,0.041,3.829l0.041,0.068l2.791-0.149
			c0.23-0.015,0.848-0.574,1.34-2.189h0.314c-0.178,2.668-0.219,2.887-0.451,2.887h-6.812V14.239z"/>
		<path d="M217.732,14.239l1.465-0.067l0.053-0.055c0.014-0.507,0.043-2.271,0.043-4.118c0-1.847,0-3.365-0.043-3.844l-0.039-0.068
			h-1.629c-0.287,0-0.631,0.492-1.189,2.147h-0.275l0.111-2.996h0.244l0.398,0.232h6.143l0.395-0.232h0.248l0.109,2.996h-0.273
			c-0.576-1.67-0.902-2.147-1.191-2.147h-1.627l-0.041,0.068c-0.014,0.328-0.041,2.175-0.041,4.022c0,1.847,0.027,3.447,0.041,3.939
			l0.055,0.055l1.504,0.067v0.466h-4.459V14.239z"/>
	</g>
	<g>
		<path d="M7.893,7.526c-2.31,2.212-3.62,5.189-3.688,8.387c-0.143,6.599,5.11,12.085,11.708,12.228
			c3.197,0.069,6.229-1.11,8.538-3.321c2.31-2.212,3.62-5.19,3.689-8.388C28.282,9.833,23.03,4.348,16.431,4.205
			C13.234,4.136,10.203,5.315,7.893,7.526z M15.932,27.23c-6.097-0.132-10.949-5.2-10.818-11.298
			c0.064-2.953,1.274-5.705,3.409-7.749c2.134-2.044,4.936-3.133,7.888-3.069c6.098,0.132,10.951,5.201,10.818,11.298
			c-0.063,2.954-1.273,5.706-3.408,7.749C21.687,26.205,18.885,27.295,15.932,27.23z"/>
		<path d="M4.987,4.492c-3.12,2.988-4.89,7.011-4.983,11.329c-0.193,8.917,6.902,16.328,15.817,16.521s16.326-6.905,16.518-15.82
			l0,0c0.095-4.318-1.5-8.415-4.486-11.535c-2.989-3.12-7.013-4.89-11.331-4.983C12.203-0.09,8.106,1.504,4.987,4.492z
			 M15.837,31.61C7.325,31.426,0.55,24.351,0.736,15.838c0.088-4.123,1.778-7.965,4.757-10.816
			c2.979-2.853,6.891-4.375,11.013-4.285c4.123,0.089,7.965,1.778,10.817,4.758c2.853,2.978,4.374,6.89,4.285,11.013l0,0
			C31.424,25.019,24.349,31.793,15.837,31.61z"/>
		<path d="M19.39,25.789c-6.004,1.077-10.815-1.259-11.696-4.142c-0.569-1.864,0.258-2.27,0.39-3.615
			c-1.039,0.554-1.231-0.889-0.313-1.012c0.971-0.131,1.406,0.89,0.934,2.248c-0.68,1.95,0.514,2.855,0.849,2.754
			c0.015-0.102,0.137-0.35,0.196-0.46c-0.817-1.044-0.476-2.567,0.918-2.691c0.567-0.051,0.512,0.362,0.117,0.421
			c-1.069,0.154-1.019,1.348-0.574,1.5c0.079,0,0.169-0.021,0.249-0.1c-0.019-0.244,0.149-0.59,0.427-0.521
			c0.616,0.155,0.381,0.94-0.042,1.004c-0.159,0.483-0.463,1.156-0.397,1.506c0.064,0.349,0.309,0.418,0.51,0.217
			c0.149-0.148,0.221-0.509,0.316-0.899c-0.102-0.44,0.114-0.775,0.487-0.617c0.259,0.11,0.288,0.509,0.033,0.816
			c-0.033,0.379-0.199,0.809-0.163,1.099c0.037,0.291,0.433,0.271,0.577,0.113c0.143-0.157,0.291-1.184,0.348-1.409
			c-0.223-0.197-0.134-0.802,0.323-0.839c0.537-0.043,0.413,0.688,0.261,0.873c0.151,0.571-0.094,1.215,0.015,1.47
			c0.11,0.256,0.529,0.316,0.718,0.108c0.189-0.21-0.049-0.65,0.057-1.165c-0.182-0.443,0.029-0.8,0.294-0.82
			c0.6-0.049,0.429,0.492,0.318,0.872c0.03,0.388,0.097,0.852,0.231,1.21c0.087,0.232,0.472,0.286,0.6-0.014
			c0.08-0.187-0.103-0.716-0.146-1.09c-0.26-0.604-0.04-0.77,0.193-0.789c0.221-0.018,0.521,0.106,0.481,0.703
			c0.121,0.403,0.225,0.89,0.374,1.206c0.068,0.253,0.377,0.278,0.476,0.016c0.095-0.262-0.086-0.57-0.279-0.992
			c-0.43-0.418-0.04-0.74,0.206-0.76s0.628,0.047,0.547,0.697c0.133,0.396,0.22,0.756,0.308,0.966
			c0.102,0.241,0.438,0.271,0.582,0.112c0.144-0.16-0.131-0.438-0.203-0.78c-0.325-0.315-0.266-0.747,0.104-0.776
			c0.189-0.015,0.56,0.006,0.524,0.56c0.109,0.239,0.111,0.545,0.271,0.804c0.193,0.317,0.493,0.197,0.613-0.087
			c0.117-0.287-0.626-1.118-0.045-1.165c0.582-0.045,0.684,0.717,0.873,0.899c0.188,0.182,0.333,0.061,0.422-0.038
			c0.152-0.168-0.253-0.625,0.029-0.755c0.571-0.262,0.561,0.39,0.966,0.397c1.768,0.027,3.159-2.875,2.953-3.694
			c-0.591-0.351-0.384-1.227,0.111-1.236c1.218-0.021,1.046,1.7,0.123,3.698C23.641,24.212,20.661,25.561,19.39,25.789z"/>
		<path d="M21.964,11.997c-0.021-0.008-0.025-0.041-0.021-0.057c0.273-1.049,0.472-1.51,0.571-2.555
			c0.024-0.249-0.154-0.451-0.32-0.493C21.548,8.731,21.25,8.737,21,8.718c-0.027-0.002-0.086-0.014-0.105-0.05
			c-0.074-0.151-0.185-0.607-0.187-0.839c0.378-0.801-0.296-1.076-0.931-1.066c-0.417-0.021-0.842,0.172-0.892,0.484
			c-0.057,0.605,0.612,0.826,0.852,0.848c0.04,0.086,0.138,0.509,0.154,0.676c0.002,0.022-0.019,0.047-0.047,0.047
			c-1.073,0.021-2.463,0.208-3.168,0.262c-0.101,0.016-0.149-0.043-0.171-0.102c-0.131-0.361-0.689-2.068,0.359-2.035
			c0.622,0.021,1.143-0.489,0.552-0.877c-0.151-0.1-0.947-0.197-1.377-0.122c-0.356,0.062-0.529,0.464-0.484,0.815
			c0.07,0.552-1.304,0.608-1.71,0.444C13.557,7.086,13.2,6.74,13.075,6.518c-0.264-0.472-0.721-0.112-0.638,0.142
			c0.569,1.716,2.385,1.443,2.86,1.467c0.023,0.002,0.064,0.032,0.066,0.045c0.115,0.62,0.485,1.273,0.484,1.516
			c-0.227,0.251-0.13,0.789,0.189,0.881c-0.39,0.374-0.564,1.681-0.501,2.764c0.079,1.381,0.637,2.721,1.515,2.576
			c1.116-0.183,0.677-2.765,0.948-2.985c0.136-0.109,0.499-0.078,0.631-0.062c0.03,0.003,0.046,0.038,0.044,0.055
			c-0.088,1.013-0.329,2.639-0.388,3.071c-0.061,0.441-0.097,0.671,0.126,1.079c0.246,0.449,0.694,1.878,0.17,3.391
			c-0.017,0.059-0.066,0.077-0.083,0.082c-0.474,0.108-0.726,0.256-0.898,0.373c-0.187,0.127-0.387,0.392-0.25,0.551
			c0.198,0.181,1.474,0.11,1.866-0.478c0.01-0.015,0.037-0.07,0.042-0.083c0.136-0.38,0.306-0.656,0.434-0.899
			c0.588-1.122,0.674-2.501-0.132-3.123c-0.226-0.175-0.458-0.341-0.238-0.777c0.427-0.844,0.472-1.767,0.525-2.546
			c0.021-0.313,0.543-0.493,0.74-0.197c0.488,1.157,0.104,2.154,0.096,2.565c-0.009,0.412,0.146,0.602,0.2,0.848
			c0.333,1.509,0.165,2.729-0.137,4.287c-0.001,0.032-0.027,0.056-0.058,0.065c-0.354,0.118-0.571,0.192-0.792,0.347
			c-0.225,0.157-0.312,0.357-0.215,0.467c0.296,0.335,1.636-0.027,1.736-0.411c0.251-0.954,2.056-3.166,0.8-4.578
			c-0.573-0.646-0.573-0.386-0.579-0.712c-0.003-0.155,0.359-1.012,0.45-1.673c0.095-0.689-0.355-1.345-0.243-1.726
			c0.003-0.012,0.032-0.03,0.044-0.027c0.187,0.035,0.628,0.153,0.915,0.316c0.088,0.05,0.241,0.01,0.263-0.331
			C23.094,12.423,22.152,12.065,21.964,11.997z M16.817,14.869c-0.518-0.011-0.711-3.245-0.176-3.233
			C17.121,11.646,17.175,14.876,16.817,14.869z M18.535,10.088c0.043,0.165,0.205,0.893,0.243,1.33
			c0.021,0.163-0.038,0.361-0.136,0.399c-0.244,0.092-0.648,0.07-0.869-0.015c-0.242-0.093-0.079-1.056-0.966-1.228
			c0.123-0.086,0.187-0.176,0.211-0.388c0.016-0.139,0.187-0.288,0.396-0.313c0.406-0.045,0.659-0.057,0.796-0.053
			C18.345,9.826,18.491,9.92,18.535,10.088z M20.964,11.515c-0.197,0.189-0.817,0.229-1.135,0.044
			c-0.263-0.154-0.323-1.308-0.19-1.62c0.132-0.312,1.488-0.324,1.596-0.11C21.342,10.043,21.16,11.326,20.964,11.515z"/>
		<path d="M15.132,13.112c-0.102-1.224-1.241-2.84-2.908-3.116c-1.809-0.3-4.622,0.425-4.926,3.084
			c-0.315,2.751,1.792,4.794,4.32,4.601C14.361,17.471,15.274,14.843,15.132,13.112z M13.502,15.073
			c0.149-0.013,0.428,0.021,0.51,0.225c0.088,0.221-0.524,0.914-0.808,0.994c-0.173,0.05-0.433-0.211-0.385-0.469
			C12.85,15.656,13.382,15.085,13.502,15.073z M14.438,14.198c-0.143,0.096-0.415,0.111-0.529-0.062
			c-0.079-0.118-0.104-0.995-0.052-1.126c0.054-0.135,0.349-0.234,0.516-0.143C14.564,12.973,14.672,14.043,14.438,14.198z
			 M13.898,11.913c-0.032,0.168-0.31,0.233-0.431,0.22c-0.148-0.017-0.779-0.511-0.819-0.684c-0.054-0.227,0.099-0.371,0.244-0.407
			C13.284,10.943,13.943,11.67,13.898,11.913z M11.771,10.676c0.058,0.123,0.125,0.287-0.003,0.429
			c-0.107,0.118-1.074,0.15-1.219,0.142c-0.306-0.021-0.447-0.332-0.346-0.489C10.387,10.472,11.666,10.447,11.771,10.676z
			 M12.555,12.461c0,0.262-0.912,0.698-1.094,0.591c-0.267-0.156-0.809-0.963-0.696-1.103
			C11.158,11.462,12.555,12.051,12.555,12.461z M10.078,12.237c0.117-0.024,0.663,0.823,0.563,1.137
			c-0.085,0.266-1.092,0.64-1.192,0.539C9.142,13.606,9.411,12.378,10.078,12.237z M9.874,14.735c0-0.159,0.82-0.716,1.144-0.596
			c0.26,0.098,0.667,1.12,0.447,1.224C10.868,15.644,9.874,14.996,9.874,14.735z M12.425,14.901
			c-0.24-0.105-0.864-0.927-0.642-1.148c0.208-0.21,1.084-0.654,1.226-0.522C13.553,13.736,12.897,15.106,12.425,14.901z
			 M8.799,12.427c-0.23,0.115-0.445-0.041-0.468-0.326c-0.024-0.284,0.646-0.979,0.889-0.913c0.118,0.032,0.296,0.258,0.277,0.458
			C9.482,11.786,8.934,12.359,8.799,12.427z M8.637,14.366c-0.128,0.153-0.417,0.25-0.557,0.139
			c-0.209-0.168-0.272-0.851-0.137-1.142c0.092-0.196,0.568-0.304,0.656-0.08C8.66,13.437,8.732,14.253,8.637,14.366z M8.525,15.557
			c-0.018-0.218,0.277-0.465,0.503-0.417c0.182,0.038,0.742,0.63,0.769,0.769c0.047,0.255-0.156,0.456-0.326,0.468
			C9.207,16.396,8.546,15.795,8.525,15.557z M10.631,16.723c-0.183-0.102-0.041-0.468,0.224-0.509
			c0.186-0.028,0.815-0.104,1.035-0.009c0.169,0.073,0.288,0.429,0.192,0.532C11.902,16.938,10.893,16.868,10.631,16.723z"/>
		<polygon points="11.175,2.438 11.097,3.056 10.697,3.532 11.314,3.611 11.791,4.011 11.869,3.394 12.269,2.917 11.652,2.838 		"/>
		<polygon points="22.714,29.163 22.213,28.795 21.593,28.758 21.958,28.255 21.997,27.633 22.499,28.002 23.119,28.04 
			22.752,28.542 		"/>
		<polygon points="9.583,29.14 10.085,28.774 10.706,28.738 10.342,28.234 10.305,27.612 9.802,27.979 9.182,28.016 9.547,28.519 		
			"/>
		<path d="M6.148,26.471l0.633-0.742c0.288-0.337,0.747-0.313,1.186,0.061c0.441,0.376,0.54,0.828,0.253,1.166l-0.633,0.742
			c-0.078,0.09-0.081,0.142,0.023,0.23l-0.226,0.17l-0.61-0.52l0.136-0.248c0.104,0.088,0.153,0.077,0.231-0.014l0.635-0.745
			c0.126-0.147,0.114-0.329-0.083-0.496c-0.203-0.173-0.385-0.158-0.512-0.011L6.546,26.81c-0.078,0.091-0.081,0.142,0.021,0.229
			L6.343,27.21l-0.558-0.476l0.132-0.25C6.021,26.573,6.071,26.562,6.148,26.471z"/>
		<path d="M4.116,23.998l1.338-1.002l0.251,0.336l-0.419,1.414c-0.028,0.099-0.104,0.253-0.104,0.253s0.121-0.111,0.181-0.156
			L5.952,24.4c0.093-0.069,0.112-0.118,0.03-0.228l0.256-0.119l0.403,0.537l-0.184,0.216c-0.082-0.109-0.136-0.107-0.229-0.038
			l-0.983,0.736c-0.095,0.072-0.11,0.121-0.028,0.23L4.96,25.853l-0.362-0.484l0.379-1.285c0.032-0.102,0.11-0.258,0.11-0.258
			s-0.124,0.114-0.192,0.165l-0.502,0.377c-0.096,0.071-0.11,0.12-0.028,0.229l-0.255,0.119l-0.405-0.541l0.186-0.211
			C3.972,24.072,4.021,24.069,4.116,23.998z"/>
		<path d="M4.631,21.435l0.348,0.703l-0.222,0.175c-0.061-0.122-0.114-0.13-0.218-0.079l-1.101,0.546
			C3.332,22.831,3.309,22.877,3.369,23l-0.273,0.069l-0.348-0.703l0.222-0.174c0.061,0.123,0.111,0.132,0.218,0.079l1.101-0.546
			c0.104-0.051,0.13-0.098,0.069-0.221L4.631,21.435z"/>
		<path d="M2.135,19.331l1.809,0.164l0.159,0.539l-1.433,1.11c-0.104,0.08-0.116,0.123-0.08,0.244l-0.283,0.019l-0.221-0.749
			l0.248-0.137c0.035,0.106,0.079,0.122,0.169,0.057l0.693-0.521c0.115-0.08,0.359-0.194,0.359-0.194s-0.27,0.029-0.41,0.021
			L2.273,19.8c-0.117-0.009-0.141,0.041-0.108,0.152l-0.281,0.022l-0.197-0.667l0.249-0.135C1.972,19.298,2.004,19.321,2.135,19.331
			z"/>
		<path d="M3.473,16.499l0.148,1.62l-0.27,0.087c-0.012-0.137-0.059-0.163-0.175-0.152l-1.223,0.111
			c-0.119,0.011-0.157,0.045-0.145,0.181l-0.28-0.035l-0.142-1.55l0.5-0.045l0.064,0.213c-0.161,0.039-0.194,0.086-0.173,0.32
			l0.033,0.36l0.506-0.046l-0.03-0.326c-0.013-0.14-0.041-0.188-0.149-0.179L2.17,16.83l0.5-0.046l0.078,0.219
			c-0.112,0.011-0.131,0.063-0.118,0.203l0.029,0.326l0.551-0.051l-0.046-0.499c-0.02-0.218-0.085-0.253-0.236-0.267l0.023-0.231
			L3.473,16.499z"/>
		<path d="M3.698,13.657l-0.069,0.62C3.3,14.55,2.785,14.269,2.738,14.692L2.71,14.943l0.4,0.044
			c0.115,0.014,0.162-0.009,0.177-0.145l0.269,0.089L3.47,15.704l-0.282,0.03c0.015-0.139-0.026-0.171-0.141-0.184l-1.22-0.137
			c-0.115-0.013-0.163,0.013-0.178,0.148l-0.268-0.092L1.5,14.413c0.057-0.512,0.301-0.79,0.691-0.746
			c0.254,0.028,0.416,0.184,0.484,0.455c0.101-0.253,0.349-0.29,0.498-0.305c0.173-0.015,0.235-0.042,0.252-0.201l0.005-0.048
			L3.698,13.657z M1.809,14.526l-0.035,0.312l0.6,0.066l0.034-0.301c0.025-0.228-0.077-0.359-0.26-0.38S1.834,14.303,1.809,14.526z"
			/>
		<path d="M4.133,12.307c-0.126,0.393-0.345,0.638-0.454,0.743L3.283,12.8l0.058-0.182c0.25,0.002,0.408-0.199,0.475-0.406
			c0.051-0.159,0.03-0.35-0.139-0.403c-0.146-0.047-0.246,0.042-0.41,0.352c-0.163,0.317-0.427,0.601-0.832,0.471
			c-0.396-0.128-0.507-0.554-0.361-1.005c0.11-0.345,0.292-0.584,0.393-0.688l0.375,0.239l-0.057,0.179
			c-0.219,0.022-0.349,0.203-0.401,0.365c-0.058,0.179-0.017,0.331,0.116,0.374c0.13,0.042,0.225-0.053,0.346-0.282
			c0.221-0.42,0.459-0.694,0.904-0.552C4.185,11.402,4.275,11.865,4.133,12.307z"/>
		<path d="M5.065,10.048l-0.358,0.698l-0.272-0.074c0.062-0.122,0.037-0.169-0.066-0.222L3.275,9.89
			C3.169,9.835,3.119,9.844,3.057,9.965L2.837,9.787l0.358-0.698l0.272,0.075c-0.062,0.121-0.04,0.167,0.066,0.222l1.093,0.561
			C4.73,9.999,4.784,9.991,4.846,9.87L5.065,10.048z"/>
		<path d="M5.162,7.156c-0.13-0.065-0.209-0.073-0.34,0.105L4.701,7.427l1.056,0.774c0.094,0.069,0.146,0.073,0.227-0.037
			l0.188,0.21l-0.46,0.627L5.453,8.888c0.083-0.113,0.063-0.161-0.03-0.229L4.366,7.884L4.245,8.049
			C4.114,8.228,4.145,8.301,4.246,8.405L4.077,8.56L3.69,8.205l1.111-1.517l0.458,0.26L5.162,7.156z"/>
		<path d="M8.333,6.152L7.769,6.679l-0.23-0.163c0.075-0.069,0.081-0.117-0.027-0.175L7.358,6.264L6.81,6.775l0.065,0.159
			C6.923,7.052,6.979,7.037,7.06,6.963l0.146,0.241L6.719,7.658l-0.23-0.162c0.09-0.084,0.103-0.13,0.052-0.249L6.012,6
			C5.978,5.924,5.928,5.9,5.831,5.991L5.687,5.747l0.81-0.756l0.234,0.16c-0.1,0.093-0.086,0.137-0.008,0.176l1.214,0.616
			c0.111,0.06,0.158,0.054,0.25-0.032L8.333,6.152z M6.539,5.811C6.435,5.749,6.222,5.57,6.222,5.57S6.375,5.81,6.427,5.915
			l0.226,0.531l0.394-0.367L6.539,5.811z"/>
		<path d="M9.509,5.429C9.159,5.647,8.833,5.692,8.683,5.701L8.542,5.255l0.162-0.101c0.189,0.163,0.439,0.112,0.625-0.003
			c0.142-0.088,0.249-0.246,0.155-0.396C9.403,4.624,9.269,4.627,8.943,4.757C8.614,4.893,8.229,4.938,8.005,4.576
			c-0.219-0.354-0.027-0.75,0.376-1c0.307-0.19,0.6-0.255,0.744-0.269l0.131,0.425l-0.16,0.099c-0.181-0.124-0.397-0.07-0.542,0.02
			C8.395,3.949,8.327,4.092,8.4,4.21c0.072,0.116,0.206,0.105,0.446,0.009c0.44-0.177,0.8-0.231,1.046,0.166
			C10.134,4.773,9.903,5.185,9.509,5.429z"/>
		<path d="M15.414,2.648c-0.142,0.019-0.166,0.067-0.151,0.179l0.022,0.162c0.014,0.108,0.042,0.133,0.113,0.123L15.379,3.38
			c-0.299,0.061-0.35,0.191-0.806,0.253c-0.612,0.082-1.17-0.146-1.274-0.923c-0.096-0.714,0.318-1.138,0.984-1.228
			c0.398-0.054,0.707,0.063,0.838,0.118l-0.055,0.482l-0.183,0.024c-0.09-0.212-0.285-0.274-0.501-0.246
			C14,1.913,13.826,2.157,13.891,2.634c0.065,0.479,0.269,0.666,0.644,0.615c0.091-0.013,0.203-0.055,0.262-0.098l-0.034-0.257
			c-0.016-0.111-0.048-0.151-0.193-0.132l-0.037,0.005l0.02-0.282l0.805-0.107l0.094,0.266L15.414,2.648z"/>
		<path d="M17.197,3.574c-0.632-0.051-1.055-0.379-0.991-1.168c0.063-0.789,0.532-1.046,1.165-0.994
			c0.643,0.052,1.058,0.38,0.994,1.168C18.302,3.369,17.839,3.626,17.197,3.574z M17.341,1.793c-0.327-0.026-0.498,0.142-0.54,0.661
			c-0.042,0.521,0.1,0.713,0.426,0.74c0.333,0.026,0.498-0.143,0.54-0.662C17.809,2.012,17.674,1.819,17.341,1.793z"/>
		<path d="M20.67,2.669c0.015-0.145-0.007-0.221-0.221-0.279l-0.197-0.054L19.907,3.6c-0.03,0.112-0.016,0.161,0.115,0.198
			l-0.128,0.251l-0.75-0.205l0.014-0.282c0.135,0.036,0.173,0.001,0.204-0.111l0.345-1.264l-0.197-0.054
			c-0.214-0.059-0.271-0.004-0.332,0.129l-0.206-0.103l0.194-0.488l1.813,0.495l-0.078,0.521L20.67,2.669z"/>
		<path d="M22.868,5.357l-0.693-0.353l0.07-0.274c0.125,0.063,0.17,0.036,0.222-0.066l0.213-0.42l-0.708-0.36l-0.213,0.42
			c-0.053,0.103-0.048,0.154,0.073,0.217l-0.177,0.22l-0.693-0.353l0.07-0.274c0.125,0.063,0.169,0.036,0.222-0.067l0.558-1.094
			c0.054-0.106,0.048-0.155-0.076-0.219l0.18-0.219l0.693,0.354L22.535,3.14c-0.122-0.062-0.165-0.037-0.219,0.069l-0.171,0.337
			l0.708,0.361l0.172-0.338c0.054-0.106,0.048-0.155-0.076-0.219l0.18-0.219l0.693,0.354l-0.073,0.272
			c-0.122-0.062-0.165-0.038-0.219,0.068l-0.558,1.095c-0.052,0.104-0.048,0.155,0.073,0.217L22.868,5.357z"/>
		<path d="M24.197,6.408c-0.49-0.403-0.648-0.914-0.146-1.525c0.502-0.61,1.034-0.554,1.524-0.149
			c0.498,0.409,0.65,0.916,0.148,1.526C25.221,6.871,24.694,6.817,24.197,6.408z M25.333,5.028c-0.253-0.209-0.489-0.169-0.82,0.234
			c-0.332,0.402-0.326,0.643-0.073,0.851c0.258,0.212,0.489,0.168,0.821-0.235C25.592,5.476,25.591,5.24,25.333,5.028z"/>
		<path d="M26.135,8.338l-0.646-0.802l0.176-0.222c0.086,0.106,0.14,0.103,0.229,0.03l0.957-0.771
			c0.093-0.075,0.106-0.125,0.02-0.231l0.254-0.125l0.604,0.749c0.325,0.404,0.363,0.75,0.076,0.981
			c-0.133,0.107-0.349,0.11-0.511,0.029c0.101,0.261,0.02,0.492-0.161,0.639C26.828,8.861,26.458,8.739,26.135,8.338z M26.633,7.478
			L26.16,7.858l0.188,0.233c0.143,0.178,0.307,0.19,0.45,0.075c0.142-0.113,0.16-0.286,0.013-0.47L26.633,7.478z M26.896,7.265
			l0.158,0.197c0.131,0.162,0.271,0.172,0.39,0.076c0.117-0.095,0.138-0.221,0.003-0.389l-0.161-0.198L26.896,7.265z"/>
		<path d="M29.382,10.511l-0.868,0.443c-0.396,0.202-0.811,0.004-1.072-0.51c-0.264-0.516-0.182-0.971,0.213-1.173l0.869-0.443
			c0.106-0.054,0.129-0.101,0.066-0.222l0.274-0.071l0.364,0.714l-0.22,0.178c-0.062-0.121-0.112-0.131-0.219-0.076l-0.872,0.445
			c-0.173,0.088-0.231,0.26-0.113,0.49c0.121,0.237,0.295,0.294,0.468,0.205l0.873-0.444c0.106-0.055,0.128-0.101,0.068-0.219
			l0.272-0.074l0.333,0.653l-0.218,0.18C29.539,10.466,29.489,10.457,29.382,10.511z"/>
		<path d="M28.706,13.987l-0.16-0.604c0.209-0.373,0.79-0.297,0.681-0.709l-0.064-0.244l-0.389,0.103
			c-0.112,0.029-0.148,0.067-0.113,0.199l-0.282,0.015l-0.199-0.752l0.252-0.13c0.036,0.135,0.085,0.149,0.198,0.12l1.187-0.313
			c0.112-0.03,0.147-0.071,0.112-0.202l0.283-0.012l0.271,1.029c0.132,0.498,0.005,0.846-0.375,0.945
			c-0.247,0.065-0.454-0.021-0.616-0.25c-0.002,0.272-0.22,0.397-0.354,0.464c-0.157,0.077-0.204,0.125-0.163,0.28l0.012,0.046
			L28.706,13.987z M30.152,12.493l-0.08-0.304l-0.583,0.154l0.078,0.294c0.059,0.221,0.201,0.307,0.379,0.26
			S30.21,12.711,30.152,12.493z"/>
		<path d="M29.71,16.569c-0.007-0.143-0.053-0.172-0.165-0.166l-0.164,0.008c-0.109,0.006-0.135,0.031-0.132,0.103l-0.265-0.042
			c-0.035-0.302-0.161-0.364-0.184-0.824c-0.031-0.616,0.243-1.152,1.027-1.191c0.718-0.035,1.106,0.413,1.139,1.085
			c0.02,0.401-0.122,0.699-0.188,0.825l-0.476-0.096l-0.009-0.185c0.219-0.072,0.298-0.261,0.288-0.479
			c-0.019-0.385-0.248-0.579-0.728-0.555c-0.483,0.023-0.686,0.211-0.667,0.589c0.004,0.093,0.038,0.207,0.075,0.27l0.259-0.012
			c0.113-0.006,0.155-0.035,0.148-0.182l-0.002-0.038l0.279,0.045l0.04,0.811l-0.273,0.071L29.71,16.569z"/>
		<path d="M28.571,18.938l0.246-1.608l0.282-0.02c-0.021,0.136,0.019,0.172,0.133,0.189l1.214,0.187
			c0.118,0.018,0.163-0.007,0.184-0.142l0.264,0.103l-0.235,1.537l-0.496-0.075l-0.011-0.223c0.166,0.002,0.209-0.037,0.245-0.27
			l0.055-0.357l-0.502-0.077L29.9,18.506c-0.021,0.138-0.006,0.192,0.103,0.209l-0.088,0.214l-0.496-0.075l-0.023-0.231
			c0.111,0.017,0.143-0.03,0.164-0.168l0.049-0.324l-0.546-0.084l-0.075,0.496c-0.033,0.216,0.021,0.266,0.166,0.315l-0.079,0.22
			L28.571,18.938z"/>
		<path d="M29.254,22.127l-1.564-0.59l0.148-0.393l1.418-0.406c0.099-0.028,0.27-0.048,0.27-0.048s-0.159-0.041-0.229-0.068
			l-0.689-0.26c-0.108-0.041-0.159-0.031-0.208,0.097l-0.238-0.151l0.238-0.629l0.28,0.04c-0.048,0.127-0.017,0.172,0.091,0.212
			l1.149,0.434c0.112,0.043,0.161,0.028,0.209-0.1l0.237,0.155l-0.213,0.564l-1.289,0.371c-0.101,0.028-0.275,0.046-0.275,0.046
			s0.162,0.043,0.242,0.072l0.587,0.223c0.112,0.042,0.161,0.027,0.209-0.101l0.238,0.152l-0.238,0.632l-0.279-0.044
			C29.394,22.208,29.365,22.169,29.254,22.127z"/>
		<path d="M26.872,22.903c0.221-0.35,0.493-0.531,0.625-0.605l0.322,0.34l-0.102,0.161c-0.242-0.063-0.444,0.091-0.561,0.275
			c-0.089,0.141-0.116,0.33,0.034,0.425c0.13,0.082,0.25,0.021,0.485-0.238c0.236-0.266,0.562-0.476,0.923-0.248
			c0.353,0.223,0.353,0.662,0.1,1.063c-0.193,0.306-0.428,0.492-0.552,0.567l-0.303-0.325l0.1-0.158
			c0.218,0.032,0.388-0.11,0.479-0.255c0.101-0.158,0.1-0.316-0.019-0.391c-0.115-0.073-0.231-0.005-0.405,0.188
			c-0.319,0.352-0.618,0.558-1.014,0.309C26.597,23.767,26.624,23.295,26.872,22.903z"/>
		<path d="M25.384,24.885l0.521-0.586l0.245,0.14c-0.091,0.103-0.078,0.154,0.008,0.232l0.918,0.816
			c0.089,0.078,0.14,0.083,0.231-0.02l0.168,0.228l-0.521,0.586l-0.245-0.141c0.091-0.102,0.081-0.151-0.009-0.231l-0.917-0.815
			c-0.087-0.077-0.141-0.084-0.231,0.019L25.384,24.885z"/>
		<path d="M24.079,26.034c0.321-0.258,0.639-0.342,0.788-0.369l0.193,0.427l-0.149,0.119c-0.208-0.14-0.45-0.06-0.62,0.077
			c-0.131,0.104-0.217,0.274-0.106,0.413c0.096,0.119,0.229,0.1,0.536-0.067c0.311-0.175,0.688-0.267,0.954,0.066
			c0.26,0.324,0.117,0.74-0.253,1.037c-0.282,0.227-0.564,0.326-0.707,0.356l-0.181-0.405l0.146-0.118
			c0.195,0.103,0.403,0.023,0.536-0.083c0.146-0.118,0.197-0.268,0.109-0.376c-0.085-0.107-0.217-0.08-0.444,0.045
			c-0.416,0.229-0.766,0.326-1.059-0.039C23.537,26.761,23.717,26.324,24.079,26.034z"/>
		<path d="M12.764,30.655l-1.046-0.3l0.021-0.284l0.135,0.038c0.138,0.04,0.182,0.01,0.214-0.102l0.305-1.065
			c-0.075,0.038-0.201,0.056-0.414,0.02l0.089-0.309c0.228,0.009,0.366-0.016,0.601-0.229l0.427,0.122l-0.463,1.616
			c-0.032,0.112-0.003,0.162,0.131,0.201l0.135,0.038L12.764,30.655z"/>
		<path d="M14.759,31.014c-0.578-0.055-0.922-0.32-0.89-0.67c0.029-0.302,0.286-0.449,0.565-0.54
			c-0.228-0.131-0.418-0.293-0.395-0.534c0.029-0.309,0.388-0.487,0.925-0.438c0.513,0.049,0.846,0.293,0.816,0.602
			c-0.022,0.242-0.236,0.365-0.484,0.452c0.257,0.14,0.482,0.333,0.454,0.636C15.718,30.871,15.319,31.067,14.759,31.014z
			 M14.853,30.021c-0.234,0.084-0.406,0.202-0.422,0.375c-0.014,0.152,0.135,0.279,0.359,0.301c0.217,0.021,0.394-0.072,0.408-0.225
			C15.214,30.295,15.063,30.147,14.853,30.021z M14.935,29.148c-0.19-0.018-0.323,0.049-0.335,0.182
			c-0.013,0.135,0.103,0.253,0.285,0.355c0.191-0.067,0.327-0.161,0.339-0.297C15.236,29.256,15.115,29.166,14.935,29.148z"/>
		<path d="M17.404,31.021c-0.139,0.013-0.405-0.009-0.497-0.065l-0.029-0.299c0.103,0.027,0.251,0.041,0.384,0.028
			c0.373-0.036,0.588-0.225,0.635-0.596c-0.068,0.112-0.263,0.22-0.471,0.24c-0.513,0.05-0.833-0.222-0.874-0.649
			c-0.042-0.438,0.274-0.783,0.827-0.837c0.642-0.062,0.977,0.324,1.03,0.878C18.474,30.383,18.185,30.945,17.404,31.021z
			 M17.411,29.169c-0.251,0.024-0.381,0.205-0.356,0.463c0.023,0.241,0.168,0.388,0.409,0.365c0.22-0.021,0.411-0.177,0.384-0.456
			C17.831,29.358,17.71,29.141,17.411,29.169z"/>
		<path d="M20.702,30.358l-1.052,0.277l-0.127-0.256l0.135-0.035c0.139-0.037,0.161-0.085,0.131-0.197l-0.283-1.072
			c-0.044,0.072-0.143,0.151-0.345,0.229l-0.082-0.311c0.2-0.109,0.307-0.201,0.4-0.504l0.429-0.113l0.429,1.626
			c0.03,0.112,0.08,0.142,0.215,0.105l0.136-0.036L20.702,30.358z"/>
	</g>
	<g>
		<path d="M39.947,23.665c0-1.855,1.426-2.992,3.305-2.992c0.58,0,1.021,0.104,1.426,0.209l0.406-0.209h0.244l0.035,1.948h-0.51
			c-0.452-1.009-0.916-1.426-1.612-1.426c-0.904,0-1.774,0.73-1.774,2.365c0,1.473,0.685,2.459,1.937,2.459
			c0.36,0,0.731-0.104,0.731-0.197c0-0.313-0.023-1.021-0.035-1.531l-0.047-0.046l-0.881-0.047v-0.452h3.038v0.452l-0.58,0.035
			l-0.069,0.046c-0.023,0.441-0.023,1.148-0.023,1.682c-0.278,0.29-1.287,0.58-2.272,0.58
			C41.304,26.541,39.947,25.543,39.947,23.665z"/>
		<path d="M47.353,23.688c0-1.926,1.287-3.016,2.992-3.016c1.925,0,2.992,1.172,2.992,2.854c0,1.925-1.287,3.015-3.003,3.015
			C48.408,26.541,47.353,25.37,47.353,23.688z M48.443,19.107c0-0.452,0.313-0.812,0.789-0.812c0.452,0,0.753,0.312,0.753,0.742
			c0,0.44-0.325,0.812-0.789,0.812C48.756,19.849,48.443,19.536,48.443,19.107z M51.818,23.607c0-1.589-0.441-2.412-1.473-2.412
			c-1.021,0-1.473,0.823-1.473,2.412s0.441,2.412,1.461,2.412S51.818,25.196,51.818,23.607z M50.809,19.107
			c0-0.452,0.301-0.812,0.788-0.812c0.453,0,0.754,0.312,0.754,0.742c0,0.44-0.325,0.812-0.8,0.812
			C51.11,19.849,50.809,19.536,50.809,19.107z"/>
		<path d="M55.513,26.007l0.939-0.059l0.046-0.046c0.023-0.29,0.035-1.229,0.035-2.308c0-1.102-0.012-1.937-0.023-2.215
			l-0.046-0.047h-0.777c-0.278,0-0.464,0.429-0.8,1.287h-0.499l0.046-1.948h0.232l0.417,0.116h4.337l0.417-0.116h0.232l0.046,1.948
			h-0.51c-0.325-0.858-0.522-1.287-0.8-1.287h-0.765l-0.046,0.047c-0.023,0.312-0.035,1.299-0.035,2.319
			c0,1.043,0.023,1.739,0.046,2.203l0.046,0.046l0.939,0.059v0.44h-3.479V26.007z"/>
		<path d="M61.62,26.007l0.87-0.059l0.046-0.046c0.012-0.29,0.035-1.264,0.035-2.343c0-1.102-0.011-1.96-0.035-2.227l-0.046-0.046
			l-0.87-0.059v-0.44h4.453l0.417-0.116h0.232l0.035,1.948h-0.499c-0.336-0.858-0.557-1.24-0.777-1.264l-1.415-0.081l-0.046,0.046
			c-0.011,0.406-0.035,1.137-0.035,1.983c0.383,0,0.87-0.023,1.16-0.059l0.035-0.022l0.313-0.58h0.336
			c-0.012,0.221-0.023,0.685-0.023,0.904c0,0.209,0.011,0.777,0.023,1.021h-0.336l-0.302-0.672l-0.035-0.035
			c-0.302-0.023-0.766-0.047-1.171-0.047c0,1.01,0.023,1.67,0.035,2.1l0.046,0.046l1.612-0.104c0.174-0.012,0.452-0.348,0.8-1.299
			h0.522c-0.104,1.705-0.151,1.891-0.383,1.891H61.62V26.007z"/>
		<path d="M68.548,26.007l0.87-0.059l0.046-0.046c0.012-0.29,0.035-1.264,0.035-2.343c0-1.102-0.012-1.96-0.035-2.227l-0.046-0.046
			l-0.87-0.059v-0.44c0.719,0,1.751-0.023,2.47-0.023c0.823,0,1.403,0.069,1.809,0.209c0.789,0.267,1.067,0.73,1.067,1.241
			c0,0.638-0.383,1.031-0.951,1.229v0.023c0.905,0.116,1.38,0.615,1.38,1.241c0,1.09-1.056,1.751-3.097,1.751
			c-1.496,0-2.168-0.012-2.679-0.012V26.007z M71.285,23.282c0.812,0,1.09-0.417,1.09-1.009c0-0.766-0.58-0.974-1.264-0.974
			c-0.023,0-0.082,0-0.116,0l-0.046,0.046c-0.012,0.487-0.035,1.287-0.035,1.937H71.285z M72.804,24.813
			c0-0.649-0.429-0.986-1.275-0.986h-0.615c0,0.766,0.023,1.646,0.035,2.064l0.046,0.047c0.116,0.011,0.209,0.011,0.267,0.011
			C72.329,25.949,72.804,25.578,72.804,24.813z"/>
		<path d="M75.861,23.688c0-1.926,1.287-3.016,2.992-3.016c1.925,0,2.992,1.172,2.992,2.854c0,1.925-1.287,3.015-3.003,3.015
			C76.917,26.541,75.861,25.37,75.861,23.688z M80.326,23.607c0-1.589-0.441-2.412-1.473-2.412c-1.021,0-1.473,0.823-1.473,2.412
			s0.441,2.412,1.461,2.412S80.326,25.196,80.326,23.607z"/>
		<path d="M82.78,26.007l0.87-0.059l0.046-0.046c0.012-0.29,0.035-1.264,0.035-2.343c0-1.102-0.011-1.96-0.035-2.227l-0.046-0.046
			l-0.87-0.059v-0.44c0.777,0,1.867-0.023,2.621-0.023c0.604,0,1.171,0.035,1.635,0.163c0.766,0.22,1.252,0.684,1.252,1.368
			c0,0.776-0.591,1.229-1.368,1.449v0.023c0.278,0.29,0.614,0.776,1.171,1.646c0.221,0.348,0.406,0.58,0.696,0.58l0.255,0.012v0.44
			h-1.902l-0.07-0.069c-0.348-0.592-0.568-1.148-1.136-2.019c-0.093-0.139-0.197-0.267-0.278-0.359
			c-0.186,0.023-0.371,0.023-0.51,0.023c0,1.021,0.035,1.624,0.046,1.879l0.046,0.046l0.789,0.059v0.44H82.78V26.007z M86.77,22.308
			c0-0.43-0.208-0.72-0.51-0.87c-0.22-0.093-0.499-0.139-0.847-0.139c-0.035,0-0.104,0-0.197,0.011l-0.035,0.035
			c-0.011,0.371-0.035,1.322-0.035,2.157C86.306,23.456,86.77,23.039,86.77,22.308z"/>
		<path d="M90.383,23.665c0-1.855,1.426-2.992,3.305-2.992c0.58,0,1.021,0.104,1.426,0.209l0.406-0.209h0.244l0.035,1.948h-0.51
			c-0.452-1.009-0.916-1.426-1.612-1.426c-0.905,0-1.774,0.73-1.774,2.365c0,1.473,0.684,2.459,1.937,2.459
			c0.359,0,0.73-0.104,0.73-0.197c0-0.313-0.023-1.021-0.035-1.531l-0.046-0.046l-0.882-0.047v-0.452h3.039v0.452l-0.58,0.035
			l-0.07,0.046c-0.023,0.441-0.023,1.148-0.023,1.682c-0.278,0.29-1.288,0.58-2.273,0.58C91.74,26.541,90.383,25.543,90.383,23.665z
			"/>
		<path d="M98.033,24.557h0.521c0.348,1.113,0.777,1.473,1.403,1.473c0.557,0,0.916-0.348,0.916-0.834
			c0-1.381-2.748-1.01-2.748-2.899c0-0.847,0.649-1.624,1.96-1.624c0.499,0,1.055,0.151,1.275,0.221l0.395-0.221h0.255l0.035,1.948
			h-0.499c-0.336-0.869-0.777-1.438-1.415-1.438c-0.44,0-0.742,0.267-0.742,0.695c0,1.241,2.841,1.032,2.841,2.957
			c0,0.905-0.777,1.705-2.261,1.705c-0.51,0-1.021-0.116-1.392-0.313l-0.267,0.302h-0.278V24.557z"/>
		<path d="M107.738,24.383c0-0.417,0.012-0.881,0.012-1.311c0-0.614,0-1.345-0.023-1.751l-0.046-0.046l-0.87-0.047v-0.44h3.131v0.44
			l-0.695,0.047l-0.047,0.034c-0.011,0.649-0.035,1.914-0.035,3.154c0,1.009,0.348,1.484,1.276,1.484
			c0.985,0,1.449-0.498,1.449-1.473c0-1.321-0.011-2.308-0.046-3.154l-0.047-0.046l-0.788-0.047v-0.44h2.632v0.44l-0.87,0.047
			l-0.047,0.034c-0.046,0.882-0.046,1.995-0.046,3.062c0,1.357-0.708,2.169-2.447,2.169
			C108.584,26.541,107.738,25.822,107.738,24.383z"/>
		<path d="M114.926,26.007l0.87-0.059l0.046-0.046c0.012-0.29,0.035-1.264,0.035-2.343c0-1.102-0.012-1.96-0.035-2.227l-0.046-0.046
			l-0.87-0.059v-0.44h2.238c0.985,1.299,2.063,2.783,2.934,3.942h0.023c-0.023-1.287-0.058-2.4-0.116-3.397l-0.046-0.046
			l-0.858-0.059v-0.44h2.714v0.44l-0.894,0.059l-0.046,0.046c-0.035,0.835-0.035,1.45-0.035,3.63v1.531h-0.95
			c-1.079-1.403-2.273-2.969-3.294-4.35h-0.023c0.023,1.555,0.07,2.702,0.128,3.758l0.046,0.046l0.834,0.059v0.44h-2.655V26.007z"/>
		<path d="M123.39,26.007l0.869-0.059l0.047-0.046c0.012-0.29,0.035-1.264,0.035-2.343c0-1.102-0.012-1.96-0.035-2.227l-0.047-0.046
			l-0.869-0.059v-0.44h3.305v0.44l-0.857,0.059l-0.047,0.046c-0.012,0.313-0.035,1.322-0.035,2.331c0,1.044,0.023,1.774,0.047,2.238
			l0.047,0.046l0.846,0.059v0.44h-3.305V26.007z"/>
		<path d="M128.62,21.264l-0.591-0.035v-0.44h3.026v0.44l-0.73,0.047l-0.058,0.046c0.451,1.137,0.95,2.424,1.438,3.653h0.023
			c0.417-1.102,0.962-2.771,1.217-3.665l-0.058-0.046l-0.626-0.035v-0.44h2.389v0.44l-0.557,0.035
			c-0.614,1.334-1.623,3.595-2.342,5.265h-0.627C130.232,24.616,129.431,22.958,128.62,21.264z"/>
		<path d="M135.957,26.007l0.869-0.059l0.047-0.046c0.012-0.29,0.034-1.264,0.034-2.343c0-1.102-0.011-1.96-0.034-2.227
			l-0.047-0.046l-0.869-0.059v-0.44h4.453l0.417-0.116h0.231l0.035,1.948h-0.498c-0.337-0.858-0.557-1.24-0.777-1.264l-1.415-0.081
			l-0.046,0.046c-0.012,0.406-0.035,1.137-0.035,1.983c0.383,0,0.869-0.023,1.16-0.059l0.034-0.022l0.313-0.58h0.336
			c-0.012,0.221-0.023,0.685-0.023,0.904c0,0.209,0.012,0.777,0.023,1.021h-0.336l-0.302-0.672l-0.034-0.035
			c-0.303-0.023-0.766-0.047-1.172-0.047c0,1.01,0.023,1.67,0.035,2.1l0.046,0.046l1.612-0.104c0.174-0.012,0.452-0.348,0.8-1.299
			h0.522c-0.105,1.705-0.151,1.891-0.383,1.891h-4.998V26.007z"/>
		<path d="M142.884,26.007l0.869-0.059l0.047-0.046c0.012-0.29,0.035-1.264,0.035-2.343c0-1.102-0.012-1.96-0.035-2.227
			l-0.047-0.046l-0.869-0.059v-0.44c0.777,0,1.867-0.023,2.621-0.023c0.603,0,1.171,0.035,1.635,0.163
			c0.766,0.22,1.253,0.684,1.253,1.368c0,0.776-0.592,1.229-1.369,1.449v0.023c0.278,0.29,0.615,0.776,1.172,1.646
			c0.22,0.348,0.405,0.58,0.695,0.58l0.256,0.012v0.44h-1.902l-0.069-0.069c-0.349-0.592-0.568-1.148-1.137-2.019
			c-0.093-0.139-0.197-0.267-0.278-0.359c-0.186,0.023-0.371,0.023-0.51,0.023c0,1.021,0.034,1.624,0.046,1.879l0.046,0.046
			l0.789,0.059v0.44h-3.247V26.007z M146.874,22.308c0-0.43-0.209-0.72-0.51-0.87c-0.221-0.093-0.499-0.139-0.847-0.139
			c-0.035,0-0.104,0-0.197,0.011l-0.035,0.035c-0.012,0.371-0.034,1.322-0.034,2.157C146.41,23.456,146.874,23.039,146.874,22.308z"
			/>
		<path d="M150.615,24.557h0.521c0.349,1.113,0.777,1.473,1.403,1.473c0.557,0,0.916-0.348,0.916-0.834
			c0-1.381-2.748-1.01-2.748-2.899c0-0.847,0.649-1.624,1.96-1.624c0.498,0,1.055,0.151,1.275,0.221l0.395-0.221h0.255l0.035,1.948
			h-0.499c-0.336-0.869-0.777-1.438-1.415-1.438c-0.44,0-0.742,0.267-0.742,0.695c0,1.241,2.842,1.032,2.842,2.957
			c0,0.905-0.777,1.705-2.262,1.705c-0.51,0-1.021-0.116-1.392-0.313l-0.267,0.302h-0.278V24.557z"/>
		<path d="M156.638,26.007l0.87-0.059l0.046-0.046c0.012-0.29,0.035-1.264,0.035-2.343c0-1.102-0.012-1.96-0.035-2.227l-0.046-0.046
			l-0.87-0.059v-0.44h3.305v0.44l-0.857,0.059l-0.047,0.046c-0.012,0.313-0.034,1.322-0.034,2.331c0,1.044,0.022,1.774,0.046,2.238
			l0.046,0.046l0.847,0.059v0.44h-3.305V26.007z"/>
		<path d="M162.725,26.007l0.939-0.059l0.047-0.046c0.022-0.29,0.034-1.229,0.034-2.308c0-1.102-0.012-1.937-0.022-2.215
			l-0.047-0.047h-0.777c-0.278,0-0.464,0.429-0.8,1.287H161.6l0.047-1.948h0.231l0.418,0.116h4.337l0.418-0.116h0.231l0.047,1.948
			h-0.511c-0.324-0.858-0.521-1.287-0.8-1.287h-0.766l-0.046,0.047c-0.023,0.312-0.035,1.299-0.035,2.319
			c0,1.043,0.023,1.739,0.046,2.203l0.047,0.046l0.939,0.059v0.44h-3.479V26.007z"/>
		<path d="M169.007,26.007l0.87-0.059l0.046-0.046c0.012-0.29,0.035-1.264,0.035-2.343c0-1.102-0.012-1.96-0.035-2.227l-0.046-0.046
			l-0.87-0.059v-0.44h4.453l0.417-0.116h0.232l0.035,1.948h-0.499c-0.336-0.858-0.557-1.24-0.777-1.264l-1.414-0.081l-0.047,0.046
			c-0.012,0.406-0.034,1.137-0.034,1.983c0.382,0,0.869-0.023,1.159-0.059l0.035-0.022l0.312-0.58h0.337
			c-0.012,0.221-0.023,0.685-0.023,0.904c0,0.209,0.012,0.777,0.023,1.021h-0.337l-0.302-0.672l-0.034-0.035
			c-0.302-0.023-0.766-0.047-1.171-0.047c0,1.01,0.022,1.67,0.034,2.1l0.047,0.046l1.611-0.104c0.174-0.012,0.452-0.348,0.801-1.299
			h0.521c-0.104,1.705-0.15,1.891-0.383,1.891h-4.998V26.007z"/>
		<path d="M176.885,26.007l0.939-0.059l0.047-0.046c0.022-0.29,0.034-1.229,0.034-2.308c0-1.102-0.012-1.937-0.022-2.215
			l-0.047-0.047h-0.777c-0.278,0-0.464,0.429-0.8,1.287h-0.499l0.047-1.948h0.231l0.418,0.116h4.337l0.418-0.116h0.231l0.047,1.948
			h-0.511c-0.324-0.858-0.521-1.287-0.8-1.287h-0.766l-0.046,0.047c-0.023,0.312-0.035,1.299-0.035,2.319
			c0,1.043,0.023,1.739,0.046,2.203l0.047,0.046l0.939,0.059v0.44h-3.479V26.007z"/>
		<path d="M183.144,24.557h0.521c0.349,1.113,0.777,1.473,1.403,1.473c0.557,0,0.916-0.348,0.916-0.834
			c0-1.381-2.748-1.01-2.748-2.899c0-0.847,0.649-1.624,1.96-1.624c0.498,0,1.055,0.151,1.275,0.221l0.395-0.221h0.255l0.035,1.948
			h-0.499c-0.336-0.869-0.777-1.438-1.415-1.438c-0.44,0-0.742,0.267-0.742,0.695c0,1.241,2.842,1.032,2.842,2.957
			c0,0.905-0.777,1.705-2.262,1.705c-0.51,0-1.021-0.116-1.392-0.313l-0.267,0.302h-0.278V24.557z"/>
		<path d="M189.109,26.007l0.87-0.059l0.046-0.046c0.012-0.29,0.035-1.264,0.035-2.343c0-1.102-0.012-1.96-0.035-2.227l-0.046-0.046
			l-0.87-0.059v-0.44c0.719,0,1.751-0.023,2.47-0.023c0.824,0,1.403,0.069,1.81,0.209c0.788,0.267,1.066,0.73,1.066,1.241
			c0,0.638-0.382,1.031-0.95,1.229v0.023c0.904,0.116,1.38,0.615,1.38,1.241c0,1.09-1.056,1.751-3.097,1.751
			c-1.496,0-2.168-0.012-2.679-0.012V26.007z M191.846,23.282c0.812,0,1.09-0.417,1.09-1.009c0-0.766-0.58-0.974-1.265-0.974
			c-0.022,0-0.081,0-0.115,0l-0.047,0.046c-0.012,0.487-0.034,1.287-0.034,1.937H191.846z M193.365,24.813
			c0-0.649-0.429-0.986-1.275-0.986h-0.614c0,0.766,0.022,1.646,0.034,2.064l0.047,0.047c0.115,0.011,0.208,0.011,0.267,0.011
			C192.889,25.949,193.365,25.578,193.365,24.813z"/>
		<path d="M196.863,26.007l0.87-0.059l0.046-0.046c0.012-0.29,0.035-1.264,0.035-2.343c0-1.102-0.012-1.96-0.035-2.227l-0.046-0.046
			l-0.87-0.059v-0.44h3.305v0.44l-0.857,0.059l-0.047,0.046c-0.012,0.313-0.034,1.322-0.034,2.331c0,1.044,0.022,1.774,0.046,2.238
			l0.046,0.046l0.847,0.059v0.44h-3.305V26.007z"/>
		<path d="M202.139,26.007l0.87-0.059l0.046-0.046c0.012-0.29,0.035-1.264,0.035-2.343c0-1.102-0.012-1.96-0.035-2.227l-0.046-0.046
			l-0.87-0.059v-0.44c0.719,0,1.751-0.023,2.47-0.023c0.823,0,1.403,0.069,1.81,0.209c0.788,0.267,1.066,0.73,1.066,1.241
			c0,0.638-0.383,1.031-0.95,1.229v0.023c0.904,0.116,1.38,0.615,1.38,1.241c0,1.09-1.056,1.751-3.097,1.751
			c-1.496,0-2.169-0.012-2.679-0.012V26.007z M204.875,23.282c0.812,0,1.091-0.417,1.091-1.009c0-0.766-0.58-0.974-1.265-0.974
			c-0.022,0-0.081,0-0.115,0l-0.047,0.046c-0.012,0.487-0.035,1.287-0.035,1.937H204.875z M206.395,24.813
			c0-0.649-0.429-0.986-1.275-0.986h-0.615c0,0.766,0.023,1.646,0.035,2.064l0.047,0.047c0.115,0.011,0.208,0.011,0.267,0.011
			C205.919,25.949,206.395,25.578,206.395,24.813z"/>
		<path d="M209.777,26.007l0.87-0.059l0.046-0.046c0.012-0.29,0.035-1.264,0.035-2.343c0-1.102-0.012-1.96-0.035-2.227l-0.046-0.046
			l-0.87-0.059v-0.44h3.375v0.44l-0.928,0.059l-0.047,0.046c-0.012,0.313-0.034,1.322-0.034,2.331c0,0.997,0.011,1.705,0.034,2.25
			l0.047,0.046l1.438-0.104c0.186-0.012,0.476-0.464,0.823-1.414h0.533c-0.104,1.704-0.162,2.006-0.394,2.006h-4.848V26.007z"/>
		<path d="M216.183,26.007l0.87-0.059l0.046-0.046c0.012-0.29,0.035-1.264,0.035-2.343c0-1.102-0.012-1.96-0.035-2.227l-0.046-0.046
			l-0.87-0.059v-0.44h3.305v0.44l-0.857,0.059l-0.047,0.046c-0.012,0.313-0.034,1.322-0.034,2.331c0,1.044,0.022,1.774,0.046,2.238
			l0.046,0.046l0.847,0.059v0.44h-3.305V26.007z"/>
		<path d="M221.133,23.688c0-1.926,1.288-3.016,2.992-3.016c1.926,0,2.992,1.172,2.992,2.854c0,1.925-1.287,3.015-3.004,3.015
			C222.189,26.541,221.133,25.37,221.133,23.688z M225.598,23.607c0-1.589-0.44-2.412-1.473-2.412c-1.021,0-1.473,0.823-1.473,2.412
			s0.44,2.412,1.461,2.412S225.598,25.196,225.598,23.607z"/>
		<path d="M229.236,26.007l0.939-0.059l0.047-0.046c0.022-0.29,0.034-1.229,0.034-2.308c0-1.102-0.012-1.937-0.023-2.215
			l-0.046-0.047h-0.777c-0.278,0-0.464,0.429-0.8,1.287h-0.499l0.047-1.948h0.231l0.418,0.116h4.337l0.418-0.116h0.231l0.047,1.948
			h-0.511c-0.324-0.858-0.521-1.287-0.8-1.287h-0.766l-0.047,0.047c-0.022,0.312-0.034,1.299-0.034,2.319
			c0,1.043,0.023,1.739,0.046,2.203l0.047,0.046l0.939,0.059v0.44h-3.479V26.007z"/>
		<path d="M235.458,26.007l0.87-0.059l0.046-0.046c0.012-0.29,0.035-1.264,0.035-2.343c0-1.102-0.012-1.96-0.035-2.227l-0.046-0.046
			l-0.87-0.059v-0.44h4.453l0.417-0.116h0.232l0.035,1.948h-0.499c-0.336-0.858-0.557-1.24-0.777-1.264l-1.414-0.081l-0.047,0.046
			c-0.012,0.406-0.034,1.137-0.034,1.983c0.382,0,0.869-0.023,1.159-0.059l0.035-0.022l0.312-0.58h0.337
			c-0.012,0.221-0.023,0.685-0.023,0.904c0,0.209,0.012,0.777,0.023,1.021h-0.337l-0.302-0.672l-0.034-0.035
			c-0.302-0.023-0.766-0.047-1.171-0.047c0,1.01,0.022,1.67,0.034,2.1l0.047,0.046l1.611-0.104c0.174-0.012,0.452-0.348,0.801-1.299
			h0.521c-0.104,1.705-0.15,1.891-0.383,1.891h-4.998V26.007z"/>
		<path d="M242.155,26.007l0.87-0.059l0.046-0.046c0.012-0.29,0.035-1.264,0.035-2.343c0-1.102-0.012-1.96-0.035-2.227l-0.046-0.046
			l-0.87-0.059v-0.44h3.154v0.44l-0.707,0.059l-0.047,0.046c-0.012,0.29-0.035,1.194-0.035,2.134h0.023
			c1.484-1.38,1.96-1.925,2.134-2.157l-0.022-0.034l-0.534-0.047v-0.44h2.552v0.44l-0.533,0.035
			c-0.186,0.012-0.325,0.104-0.522,0.243c-0.22,0.163-0.545,0.383-1.601,1.38l-0.359,0.325l1.021,1.125
			c0.997,1.078,1.45,1.611,1.67,1.635l0.511,0.035v0.44h-3.004v-0.44l0.487-0.035l0.034-0.034c-0.208-0.256-0.8-0.975-1.704-2.019
			l-0.151,0.116c0,0.835,0.023,1.461,0.047,1.867l0.047,0.046l0.626,0.059v0.44h-3.085V26.007z"/>
	</g>
</g>
</svg>
